%
M48
M72
T01C0.0150
T02C0.0250
T03C0.0315
T04C0.0354
T05C0.0400
T06C0.0433
T07C0.0512
T08C0.0910
T09C0.1250
%
T01
X5290Y8220
X10890Y9300
X11185Y9855
X11980Y9690
X11940Y9060
X11540Y8190
X12200Y7050
X12950Y6260
X11910Y5940
X12110Y5190
X11420Y4700
X11450Y2880
X13470Y5380
X14250Y5880
X14910Y6480
X14250Y4770
X16940Y5140
X19700Y4600
X20140Y5040
X20670Y4750
X20870Y5520
X21510Y6500
X21820Y7430
X20440Y6920
X19580Y8640
X17390Y8980
X18120Y10610
X19530Y11130
X20120Y11270
X20390Y10790
X20800Y12300
X21860Y12940
X21720Y13560
X20970Y13490
X19940Y13430
X17590Y14800
X17030Y15430
X15520Y14730
X14900Y14300
X15530Y13840
X15990Y13720
X15160Y13480
X15400Y13080
X14900Y13090
X12960Y11490
X10910Y10800
X9270Y12850
X10160Y14880
X10870Y16400
X11660Y16540
X11110Y17880
X10000Y17970
X9430Y17650
X9430Y17170
X8790Y17420
X8610Y17900
X9410Y19140
X9980Y20760
X10400Y20910
X10870Y20940
X11330Y20970
X10920Y21690
X11390Y21850
X11860Y21830
X12550Y21960
X12560Y22450
X12510Y22960
X12690Y23510
X12270Y23890
X12620Y24210
X14150Y23780
X14240Y25650
X14880Y25780
X14790Y26360
X13160Y26980
X12710Y27020
X12730Y27460
X12840Y27890
X11690Y28000
X11270Y28310
X11690Y28620
X10520Y28800
X9980Y28940
X10000Y30170
X10630Y30190
X13080Y29940
X13200Y30670
X13110Y31240
X13140Y31800
X13770Y31970
X14670Y31620
X15140Y31830
X15800Y31550
X15140Y31360
X15960Y30520
X16190Y29770
X15210Y29770
X14970Y29410
X13970Y29400
X15140Y28300
X16950Y28810
X17560Y28910
X18610Y28700
X19210Y29210
X20520Y28450
X19920Y27820
X19660Y26790
X19740Y26280
X19010Y25310
X18780Y24850
X18000Y25350
X18520Y25930
X17440Y27010
X20240Y23990
X20670Y23860
X21250Y24240
X21070Y24870
X21050Y25320
X21040Y26280
X21040Y26810
X21780Y28460
X23060Y29490
X24350Y29460
X24430Y30240
X25620Y29380
X27200Y27980
X27980Y27450
X27370Y26860
X28180Y26390
X27780Y25800
X27350Y25320
X26860Y25890
X26130Y25960
X25620Y25920
X24850Y26050
X24800Y25240
X26300Y26930
X24980Y27270
X28030Y30480
X27240Y31300
X28960Y31620
X30020Y31000
X30640Y29480
X31850Y29480
X35360Y26350
X36450Y25550
X34280Y24960
X33450Y23830
X33530Y23230
X31850Y24800
X31840Y25500
X30380Y24640
X30390Y23540
X29520Y23160
X27050Y23430
X26430Y23470
X25060Y23160
X24450Y21300
X24970Y21150
X23480Y21250
X22720Y20500
X20890Y20370
X19810Y21470
X19290Y21230
X19240Y20460
X19240Y19230
X18770Y18550
X18160Y17470
X17040Y18470
X15320Y18870
X14950Y18530
X14350Y18550
X13710Y18530
X13260Y18550
X13370Y17720
X14030Y17490
X13260Y20040
X13570Y20410
X12590Y21540
X11450Y22660
X11100Y22950
X10590Y22550
X10140Y22740
X9980Y21570
X9500Y21630
X8950Y21590
X8970Y20840
X8520Y20860
X7060Y20370
X6710Y19650
X7100Y18390
X8290Y14880
X15240Y9120
X22050Y9550
X22620Y9470
X23020Y9470
X23420Y9470
X23420Y9070
X23020Y9070
X22620Y9070
X22620Y8670
X23020Y8670
X23420Y8670
X23420Y10170
X23420Y10570
X23020Y10570
X22620Y10570
X22620Y10170
X23020Y10170
X22050Y10090
X22620Y10960
X23020Y10960
X23420Y10960
X26240Y10950
X26640Y10950
X27040Y10950
X27040Y10560
X26640Y10560
X26240Y10560
X26240Y10160
X26640Y10160
X27040Y10160
X27040Y9460
X26640Y9460
X26240Y9460
X26240Y9060
X26640Y9060
X27040Y9060
X27040Y8660
X26640Y8660
X26240Y8660
X28200Y8500
X28740Y7970
X28240Y7590
X29950Y8110
X30300Y8460
X28390Y9770
X28370Y12350
X27860Y12920
X27310Y13060
X27410Y14290
X27970Y14460
X28660Y13770
X30100Y12470
X31300Y12890
X31070Y14870
X29080Y16090
X26430Y15900
X26520Y17860
X24400Y18970
X24230Y17960
X24230Y16620
X29570Y19510
X30380Y19550
X29690Y20720
X31140Y20720
X35430Y19750
X35410Y16430
X33410Y15410
X34250Y12340
X34570Y11640
X37640Y12380
X33160Y8730
X34480Y7850
X34090Y7350
X35940Y7490
X36780Y6680
X37200Y7380
X37750Y6330
X37960Y5360
X35960Y6320
X35700Y4500
X34240Y4020
X33750Y5380
X36090Y3330
X37750Y3250
X30320Y5550
X29940Y4030
X28720Y3560
X28290Y4160
X27840Y4610
X26630Y4870
X16960Y20140
X17540Y20740
X16430Y21050
X16050Y20370
X15260Y22120
X18820Y23780
X21110Y21750
X12860Y25450
X12890Y25910
X11660Y25500
X10990Y24840
X10100Y25740
X9130Y25340
X8580Y25820
X8130Y25860
X7050Y25990
X6230Y25990
X5910Y26460
X7370Y26710
X8725Y27324
X9160Y27330
X8080Y28940
X6380Y29850
X4750Y32610
X7750Y24670
X8830Y24680
X9650Y24320
X8830Y23700
X7730Y23880
X7780Y22900
X7720Y21910
X6570Y21990
X6450Y23540
X16960Y30880
X17850Y31360
X17460Y32010
X19440Y30920
X20680Y30920
T02
X32910Y13860
X33550Y13870
X33910Y11030
X31880Y10310
X31050Y10300
X26460Y11560
X24850Y12910
X23980Y12880
X23200Y6640
X26360Y6650
X37100Y9690
X37100Y10190
T03
X18831Y10233
X18831Y9446
X18831Y8658
X18831Y7871
X18831Y7083
X18831Y6296
X18831Y5509
X18831Y4721
X18831Y3934
X18831Y3146
X10169Y3146
X10169Y3934
X10169Y4721
X10169Y5509
X10169Y6296
X10169Y7083
X10169Y7871
X10169Y8658
X10169Y9446
X10169Y10233
X10650Y32840
X11650Y32840
X12650Y32840
X13650Y32840
X14650Y32840
X15650Y32840
X16650Y32840
X17650Y32840
X18650Y32840
X19650Y32840
X20650Y32840
X21650Y32840
X22650Y32840
X9650Y32840
X8650Y32840
X7650Y32840
T04
X8560Y29430
X11120Y29430
X24604Y31230
X26336Y31230
T05
X36210Y24130
X36210Y22350
X37150Y21250
X38150Y21250
X39150Y21250
X39150Y20250
X38150Y20250
X37150Y20250
X37150Y19250
X38150Y19250
X39150Y19250
X39150Y18250
X38150Y18250
X37150Y18250
X37150Y17250
X38150Y17250
X39150Y17250
X39150Y16250
X38150Y16250
X37150Y16250
X37150Y15250
X38150Y15250
X39150Y15250
X39150Y14250
X38150Y14250
X37150Y14250
X28010Y16510
X18520Y14890
X17650Y15990
X17650Y16990
X17650Y17990
X17650Y18990
X16450Y18990
X16450Y17990
X16450Y16990
X16450Y15990
X13700Y15610
X12700Y15610
X11700Y15610
X10700Y15610
X9700Y15610
X8700Y15610
X7100Y16100
X7100Y15100
X7100Y14100
X7100Y13100
X7840Y11840
X7420Y10790
X8420Y10790
X8420Y9790
X7420Y9790
X7420Y8790
X8420Y8790
X8420Y7790
X7420Y7790
X7450Y5570
X6530Y5570
X4750Y5570
X2930Y5130
X2930Y6130
X2930Y7130
X2930Y8130
X2930Y9130
X2930Y10130
X2930Y11130
X2930Y12130
X2930Y13100
X2930Y13870
X2930Y15290
X1930Y15290
X930Y15290
X930Y16790
X1930Y16790
X1930Y17790
X1930Y18790
X930Y18790
X930Y17790
X930Y19790
X1930Y19790
X1930Y20790
X930Y20790
X930Y21790
X1930Y21790
X1930Y22790
X930Y22790
X930Y23790
X1930Y23790
X1930Y24790
X930Y24790
X930Y25790
X1930Y25790
X1930Y26790
X930Y26790
X930Y27790
X1930Y27790
X1930Y28790
X930Y28790
X930Y29790
X1930Y29790
X1930Y30790
X930Y30790
X2930Y30790
X2930Y29790
X2930Y28790
X2930Y27790
X2930Y26790
X2930Y25790
X2930Y24790
X2930Y23790
X2930Y22790
X2930Y21790
X2930Y20790
X2930Y19790
X2930Y18790
X2930Y17790
X2930Y16790
X1930Y12130
X930Y12130
X930Y11130
X1930Y11130
X1930Y10130
X930Y10130
X930Y9130
X1930Y9130
X1930Y8130
X930Y8130
X930Y7130
X1930Y7130
X1930Y6130
X930Y6130
X930Y5130
X1930Y5130
X4750Y3010
X6530Y3010
X7450Y3010
X9230Y3010
X9230Y5570
X9670Y13750
X8670Y13750
X10670Y13750
X11670Y13750
X12670Y13750
X13670Y13750
X6860Y29370
X6860Y30370
X38770Y24130
X38770Y22350
T06
X39744Y25694
X38760Y27269
X38760Y28450
X38760Y29631
X37776Y31206
X39744Y31206
X37776Y25694
T07
X38410Y10020
X38410Y8051
X33370Y3800
X31401Y3800
X27040Y3790
X25071Y3790
X23100Y3790
X21131Y3790
T08
X29245Y29490
X34415Y29490
T09
X1150Y2990
X1150Y32990
X39150Y32990
X39150Y2990
M30
