G75*
G70*
%OFA0B0*%
%FSLAX24Y24*%
%IPPOS*%
%LPD*%
%AMOC8*
5,1,8,0,0,1.08239X$1,22.5*
%
%ADD10C,0.0000*%
%ADD11C,0.1290*%
%ADD12C,0.0555*%
%ADD13C,0.0780*%
%ADD14C,0.0640*%
%ADD15C,0.0555*%
%ADD16R,0.0780X0.0780*%
%ADD17C,0.0394*%
%ADD18C,0.1350*%
%ADD19C,0.0740*%
%ADD20R,0.0690X0.0690*%
%ADD21C,0.0473*%
%ADD22R,0.0808X0.0808*%
D10*
X000150Y001990D02*
X000150Y033990D01*
X040150Y033990D01*
X040150Y001990D01*
X000150Y001990D01*
X000525Y002990D02*
X000527Y003040D01*
X000533Y003089D01*
X000543Y003138D01*
X000556Y003185D01*
X000574Y003232D01*
X000595Y003277D01*
X000619Y003320D01*
X000647Y003361D01*
X000678Y003400D01*
X000712Y003436D01*
X000749Y003470D01*
X000789Y003500D01*
X000830Y003527D01*
X000874Y003551D01*
X000919Y003571D01*
X000966Y003587D01*
X001014Y003600D01*
X001063Y003609D01*
X001113Y003614D01*
X001162Y003615D01*
X001212Y003612D01*
X001261Y003605D01*
X001310Y003594D01*
X001357Y003580D01*
X001403Y003561D01*
X001448Y003539D01*
X001491Y003514D01*
X001531Y003485D01*
X001569Y003453D01*
X001605Y003419D01*
X001638Y003381D01*
X001667Y003341D01*
X001693Y003299D01*
X001716Y003255D01*
X001735Y003209D01*
X001751Y003162D01*
X001763Y003113D01*
X001771Y003064D01*
X001775Y003015D01*
X001775Y002965D01*
X001771Y002916D01*
X001763Y002867D01*
X001751Y002818D01*
X001735Y002771D01*
X001716Y002725D01*
X001693Y002681D01*
X001667Y002639D01*
X001638Y002599D01*
X001605Y002561D01*
X001569Y002527D01*
X001531Y002495D01*
X001491Y002466D01*
X001448Y002441D01*
X001403Y002419D01*
X001357Y002400D01*
X001310Y002386D01*
X001261Y002375D01*
X001212Y002368D01*
X001162Y002365D01*
X001113Y002366D01*
X001063Y002371D01*
X001014Y002380D01*
X000966Y002393D01*
X000919Y002409D01*
X000874Y002429D01*
X000830Y002453D01*
X000789Y002480D01*
X000749Y002510D01*
X000712Y002544D01*
X000678Y002580D01*
X000647Y002619D01*
X000619Y002660D01*
X000595Y002703D01*
X000574Y002748D01*
X000556Y002795D01*
X000543Y002842D01*
X000533Y002891D01*
X000527Y002940D01*
X000525Y002990D01*
X024427Y031230D02*
X024429Y031256D01*
X024435Y031282D01*
X024445Y031307D01*
X024458Y031330D01*
X024474Y031350D01*
X024494Y031368D01*
X024516Y031383D01*
X024539Y031395D01*
X024565Y031403D01*
X024591Y031407D01*
X024617Y031407D01*
X024643Y031403D01*
X024669Y031395D01*
X024693Y031383D01*
X024714Y031368D01*
X024734Y031350D01*
X024750Y031330D01*
X024763Y031307D01*
X024773Y031282D01*
X024779Y031256D01*
X024781Y031230D01*
X024779Y031204D01*
X024773Y031178D01*
X024763Y031153D01*
X024750Y031130D01*
X024734Y031110D01*
X024714Y031092D01*
X024692Y031077D01*
X024669Y031065D01*
X024643Y031057D01*
X024617Y031053D01*
X024591Y031053D01*
X024565Y031057D01*
X024539Y031065D01*
X024515Y031077D01*
X024494Y031092D01*
X024474Y031110D01*
X024458Y031130D01*
X024445Y031153D01*
X024435Y031178D01*
X024429Y031204D01*
X024427Y031230D01*
X026159Y031230D02*
X026161Y031256D01*
X026167Y031282D01*
X026177Y031307D01*
X026190Y031330D01*
X026206Y031350D01*
X026226Y031368D01*
X026248Y031383D01*
X026271Y031395D01*
X026297Y031403D01*
X026323Y031407D01*
X026349Y031407D01*
X026375Y031403D01*
X026401Y031395D01*
X026425Y031383D01*
X026446Y031368D01*
X026466Y031350D01*
X026482Y031330D01*
X026495Y031307D01*
X026505Y031282D01*
X026511Y031256D01*
X026513Y031230D01*
X026511Y031204D01*
X026505Y031178D01*
X026495Y031153D01*
X026482Y031130D01*
X026466Y031110D01*
X026446Y031092D01*
X026424Y031077D01*
X026401Y031065D01*
X026375Y031057D01*
X026349Y031053D01*
X026323Y031053D01*
X026297Y031057D01*
X026271Y031065D01*
X026247Y031077D01*
X026226Y031092D01*
X026206Y031110D01*
X026190Y031130D01*
X026177Y031153D01*
X026167Y031178D01*
X026161Y031204D01*
X026159Y031230D01*
X037559Y031206D02*
X037561Y031235D01*
X037567Y031263D01*
X037576Y031291D01*
X037589Y031317D01*
X037606Y031340D01*
X037625Y031362D01*
X037647Y031381D01*
X037672Y031396D01*
X037698Y031409D01*
X037726Y031417D01*
X037754Y031422D01*
X037783Y031423D01*
X037812Y031420D01*
X037840Y031413D01*
X037867Y031403D01*
X037893Y031389D01*
X037916Y031372D01*
X037937Y031352D01*
X037955Y031329D01*
X037970Y031304D01*
X037981Y031277D01*
X037989Y031249D01*
X037993Y031220D01*
X037993Y031192D01*
X037989Y031163D01*
X037981Y031135D01*
X037970Y031108D01*
X037955Y031083D01*
X037937Y031060D01*
X037916Y031040D01*
X037893Y031023D01*
X037867Y031009D01*
X037840Y030999D01*
X037812Y030992D01*
X037783Y030989D01*
X037754Y030990D01*
X037726Y030995D01*
X037698Y031003D01*
X037672Y031016D01*
X037647Y031031D01*
X037625Y031050D01*
X037606Y031072D01*
X037589Y031095D01*
X037576Y031121D01*
X037567Y031149D01*
X037561Y031177D01*
X037559Y031206D01*
X039527Y031206D02*
X039529Y031235D01*
X039535Y031263D01*
X039544Y031291D01*
X039557Y031317D01*
X039574Y031340D01*
X039593Y031362D01*
X039615Y031381D01*
X039640Y031396D01*
X039666Y031409D01*
X039694Y031417D01*
X039722Y031422D01*
X039751Y031423D01*
X039780Y031420D01*
X039808Y031413D01*
X039835Y031403D01*
X039861Y031389D01*
X039884Y031372D01*
X039905Y031352D01*
X039923Y031329D01*
X039938Y031304D01*
X039949Y031277D01*
X039957Y031249D01*
X039961Y031220D01*
X039961Y031192D01*
X039957Y031163D01*
X039949Y031135D01*
X039938Y031108D01*
X039923Y031083D01*
X039905Y031060D01*
X039884Y031040D01*
X039861Y031023D01*
X039835Y031009D01*
X039808Y030999D01*
X039780Y030992D01*
X039751Y030989D01*
X039722Y030990D01*
X039694Y030995D01*
X039666Y031003D01*
X039640Y031016D01*
X039615Y031031D01*
X039593Y031050D01*
X039574Y031072D01*
X039557Y031095D01*
X039544Y031121D01*
X039535Y031149D01*
X039529Y031177D01*
X039527Y031206D01*
X038525Y032990D02*
X038527Y033040D01*
X038533Y033089D01*
X038543Y033138D01*
X038556Y033185D01*
X038574Y033232D01*
X038595Y033277D01*
X038619Y033320D01*
X038647Y033361D01*
X038678Y033400D01*
X038712Y033436D01*
X038749Y033470D01*
X038789Y033500D01*
X038830Y033527D01*
X038874Y033551D01*
X038919Y033571D01*
X038966Y033587D01*
X039014Y033600D01*
X039063Y033609D01*
X039113Y033614D01*
X039162Y033615D01*
X039212Y033612D01*
X039261Y033605D01*
X039310Y033594D01*
X039357Y033580D01*
X039403Y033561D01*
X039448Y033539D01*
X039491Y033514D01*
X039531Y033485D01*
X039569Y033453D01*
X039605Y033419D01*
X039638Y033381D01*
X039667Y033341D01*
X039693Y033299D01*
X039716Y033255D01*
X039735Y033209D01*
X039751Y033162D01*
X039763Y033113D01*
X039771Y033064D01*
X039775Y033015D01*
X039775Y032965D01*
X039771Y032916D01*
X039763Y032867D01*
X039751Y032818D01*
X039735Y032771D01*
X039716Y032725D01*
X039693Y032681D01*
X039667Y032639D01*
X039638Y032599D01*
X039605Y032561D01*
X039569Y032527D01*
X039531Y032495D01*
X039491Y032466D01*
X039448Y032441D01*
X039403Y032419D01*
X039357Y032400D01*
X039310Y032386D01*
X039261Y032375D01*
X039212Y032368D01*
X039162Y032365D01*
X039113Y032366D01*
X039063Y032371D01*
X039014Y032380D01*
X038966Y032393D01*
X038919Y032409D01*
X038874Y032429D01*
X038830Y032453D01*
X038789Y032480D01*
X038749Y032510D01*
X038712Y032544D01*
X038678Y032580D01*
X038647Y032619D01*
X038619Y032660D01*
X038595Y032703D01*
X038574Y032748D01*
X038556Y032795D01*
X038543Y032842D01*
X038533Y032891D01*
X038527Y032940D01*
X038525Y032990D01*
X037559Y025694D02*
X037561Y025723D01*
X037567Y025751D01*
X037576Y025779D01*
X037589Y025805D01*
X037606Y025828D01*
X037625Y025850D01*
X037647Y025869D01*
X037672Y025884D01*
X037698Y025897D01*
X037726Y025905D01*
X037754Y025910D01*
X037783Y025911D01*
X037812Y025908D01*
X037840Y025901D01*
X037867Y025891D01*
X037893Y025877D01*
X037916Y025860D01*
X037937Y025840D01*
X037955Y025817D01*
X037970Y025792D01*
X037981Y025765D01*
X037989Y025737D01*
X037993Y025708D01*
X037993Y025680D01*
X037989Y025651D01*
X037981Y025623D01*
X037970Y025596D01*
X037955Y025571D01*
X037937Y025548D01*
X037916Y025528D01*
X037893Y025511D01*
X037867Y025497D01*
X037840Y025487D01*
X037812Y025480D01*
X037783Y025477D01*
X037754Y025478D01*
X037726Y025483D01*
X037698Y025491D01*
X037672Y025504D01*
X037647Y025519D01*
X037625Y025538D01*
X037606Y025560D01*
X037589Y025583D01*
X037576Y025609D01*
X037567Y025637D01*
X037561Y025665D01*
X037559Y025694D01*
X039527Y025694D02*
X039529Y025723D01*
X039535Y025751D01*
X039544Y025779D01*
X039557Y025805D01*
X039574Y025828D01*
X039593Y025850D01*
X039615Y025869D01*
X039640Y025884D01*
X039666Y025897D01*
X039694Y025905D01*
X039722Y025910D01*
X039751Y025911D01*
X039780Y025908D01*
X039808Y025901D01*
X039835Y025891D01*
X039861Y025877D01*
X039884Y025860D01*
X039905Y025840D01*
X039923Y025817D01*
X039938Y025792D01*
X039949Y025765D01*
X039957Y025737D01*
X039961Y025708D01*
X039961Y025680D01*
X039957Y025651D01*
X039949Y025623D01*
X039938Y025596D01*
X039923Y025571D01*
X039905Y025548D01*
X039884Y025528D01*
X039861Y025511D01*
X039835Y025497D01*
X039808Y025487D01*
X039780Y025480D01*
X039751Y025477D01*
X039722Y025478D01*
X039694Y025483D01*
X039666Y025491D01*
X039640Y025504D01*
X039615Y025519D01*
X039593Y025538D01*
X039574Y025560D01*
X039557Y025583D01*
X039544Y025609D01*
X039535Y025637D01*
X039529Y025665D01*
X039527Y025694D01*
X038525Y002990D02*
X038527Y003040D01*
X038533Y003089D01*
X038543Y003138D01*
X038556Y003185D01*
X038574Y003232D01*
X038595Y003277D01*
X038619Y003320D01*
X038647Y003361D01*
X038678Y003400D01*
X038712Y003436D01*
X038749Y003470D01*
X038789Y003500D01*
X038830Y003527D01*
X038874Y003551D01*
X038919Y003571D01*
X038966Y003587D01*
X039014Y003600D01*
X039063Y003609D01*
X039113Y003614D01*
X039162Y003615D01*
X039212Y003612D01*
X039261Y003605D01*
X039310Y003594D01*
X039357Y003580D01*
X039403Y003561D01*
X039448Y003539D01*
X039491Y003514D01*
X039531Y003485D01*
X039569Y003453D01*
X039605Y003419D01*
X039638Y003381D01*
X039667Y003341D01*
X039693Y003299D01*
X039716Y003255D01*
X039735Y003209D01*
X039751Y003162D01*
X039763Y003113D01*
X039771Y003064D01*
X039775Y003015D01*
X039775Y002965D01*
X039771Y002916D01*
X039763Y002867D01*
X039751Y002818D01*
X039735Y002771D01*
X039716Y002725D01*
X039693Y002681D01*
X039667Y002639D01*
X039638Y002599D01*
X039605Y002561D01*
X039569Y002527D01*
X039531Y002495D01*
X039491Y002466D01*
X039448Y002441D01*
X039403Y002419D01*
X039357Y002400D01*
X039310Y002386D01*
X039261Y002375D01*
X039212Y002368D01*
X039162Y002365D01*
X039113Y002366D01*
X039063Y002371D01*
X039014Y002380D01*
X038966Y002393D01*
X038919Y002409D01*
X038874Y002429D01*
X038830Y002453D01*
X038789Y002480D01*
X038749Y002510D01*
X038712Y002544D01*
X038678Y002580D01*
X038647Y002619D01*
X038619Y002660D01*
X038595Y002703D01*
X038574Y002748D01*
X038556Y002795D01*
X038543Y002842D01*
X038533Y002891D01*
X038527Y002940D01*
X038525Y002990D01*
X000525Y032990D02*
X000527Y033040D01*
X000533Y033089D01*
X000543Y033138D01*
X000556Y033185D01*
X000574Y033232D01*
X000595Y033277D01*
X000619Y033320D01*
X000647Y033361D01*
X000678Y033400D01*
X000712Y033436D01*
X000749Y033470D01*
X000789Y033500D01*
X000830Y033527D01*
X000874Y033551D01*
X000919Y033571D01*
X000966Y033587D01*
X001014Y033600D01*
X001063Y033609D01*
X001113Y033614D01*
X001162Y033615D01*
X001212Y033612D01*
X001261Y033605D01*
X001310Y033594D01*
X001357Y033580D01*
X001403Y033561D01*
X001448Y033539D01*
X001491Y033514D01*
X001531Y033485D01*
X001569Y033453D01*
X001605Y033419D01*
X001638Y033381D01*
X001667Y033341D01*
X001693Y033299D01*
X001716Y033255D01*
X001735Y033209D01*
X001751Y033162D01*
X001763Y033113D01*
X001771Y033064D01*
X001775Y033015D01*
X001775Y032965D01*
X001771Y032916D01*
X001763Y032867D01*
X001751Y032818D01*
X001735Y032771D01*
X001716Y032725D01*
X001693Y032681D01*
X001667Y032639D01*
X001638Y032599D01*
X001605Y032561D01*
X001569Y032527D01*
X001531Y032495D01*
X001491Y032466D01*
X001448Y032441D01*
X001403Y032419D01*
X001357Y032400D01*
X001310Y032386D01*
X001261Y032375D01*
X001212Y032368D01*
X001162Y032365D01*
X001113Y032366D01*
X001063Y032371D01*
X001014Y032380D01*
X000966Y032393D01*
X000919Y032409D01*
X000874Y032429D01*
X000830Y032453D01*
X000789Y032480D01*
X000749Y032510D01*
X000712Y032544D01*
X000678Y032580D01*
X000647Y032619D01*
X000619Y032660D01*
X000595Y032703D01*
X000574Y032748D01*
X000556Y032795D01*
X000543Y032842D01*
X000533Y032891D01*
X000527Y032940D01*
X000525Y032990D01*
D11*
X001150Y032990D03*
X001150Y002990D03*
X039150Y002990D03*
X039150Y032990D03*
D12*
X018831Y010233D03*
X018831Y009446D03*
X018831Y008658D03*
X018831Y007871D03*
X018831Y007083D03*
X018831Y006296D03*
X018831Y005509D03*
X018831Y004721D03*
X018831Y003934D03*
X018831Y003146D03*
X010169Y003146D03*
X010169Y003934D03*
X010169Y004721D03*
X010169Y005509D03*
X010169Y006296D03*
X010169Y007083D03*
X010169Y007871D03*
X010169Y008658D03*
X010169Y009446D03*
X010169Y010233D03*
D13*
X008420Y009790D03*
X007420Y009790D03*
X007420Y010790D03*
X008420Y010790D03*
X008420Y008790D03*
X007420Y008790D03*
X002930Y009130D03*
X002930Y010130D03*
X002930Y011130D03*
X002930Y012130D03*
X001930Y012130D03*
X000930Y012130D03*
X000930Y011130D03*
X001930Y011130D03*
X001930Y010130D03*
X000930Y010130D03*
X000930Y009130D03*
X001930Y009130D03*
X001930Y008130D03*
X000930Y008130D03*
X000930Y007130D03*
X001930Y007130D03*
X002930Y007130D03*
X002930Y008130D03*
X002930Y006130D03*
X001930Y006130D03*
X000930Y006130D03*
X008670Y013750D03*
X009670Y013750D03*
X010670Y013750D03*
X011670Y013750D03*
X012670Y013750D03*
X013670Y013750D03*
X013700Y015610D03*
X012700Y015610D03*
X011700Y015610D03*
X010700Y015610D03*
X009700Y015610D03*
X008700Y015610D03*
X007100Y016100D03*
X007100Y015100D03*
X007100Y014100D03*
X002930Y015290D03*
X001930Y015290D03*
X000930Y015290D03*
X000930Y016790D03*
X001930Y016790D03*
X001930Y017790D03*
X001930Y018790D03*
X000930Y018790D03*
X000930Y017790D03*
X000930Y019790D03*
X001930Y019790D03*
X001930Y020790D03*
X000930Y020790D03*
X000930Y021790D03*
X001930Y021790D03*
X001930Y022790D03*
X000930Y022790D03*
X000930Y023790D03*
X001930Y023790D03*
X001930Y024790D03*
X000930Y024790D03*
X000930Y025790D03*
X001930Y025790D03*
X001930Y026790D03*
X000930Y026790D03*
X000930Y027790D03*
X001930Y027790D03*
X001930Y028790D03*
X000930Y028790D03*
X000930Y029790D03*
X001930Y029790D03*
X001930Y030790D03*
X000930Y030790D03*
X002930Y030790D03*
X002930Y029790D03*
X002930Y028790D03*
X002930Y027790D03*
X002930Y026790D03*
X002930Y025790D03*
X002930Y024790D03*
X002930Y023790D03*
X002930Y022790D03*
X002930Y021790D03*
X002930Y020790D03*
X002930Y019790D03*
X002930Y018790D03*
X002930Y017790D03*
X002930Y016790D03*
X016450Y016990D03*
X016450Y017990D03*
X016450Y018990D03*
X017650Y018990D03*
X017650Y017990D03*
X017650Y016990D03*
X006860Y029370D03*
X006860Y030370D03*
X037150Y020250D03*
X038150Y020250D03*
X039150Y020250D03*
X039150Y019250D03*
X038150Y019250D03*
X037150Y019250D03*
X037150Y018250D03*
X038150Y018250D03*
X039150Y018250D03*
X039150Y017250D03*
X038150Y017250D03*
X037150Y017250D03*
X037150Y016250D03*
X038150Y016250D03*
X039150Y016250D03*
X039150Y015250D03*
X038150Y015250D03*
X037150Y015250D03*
X037150Y014250D03*
X038150Y014250D03*
X039150Y014250D03*
D14*
X039070Y022350D02*
X038470Y022350D01*
X038470Y024130D02*
X039070Y024130D01*
X036510Y024130D02*
X035910Y024130D01*
X035910Y022350D02*
X036510Y022350D01*
X009230Y005870D02*
X009230Y005270D01*
X007450Y005270D02*
X007450Y005870D01*
X006530Y005870D02*
X006530Y005270D01*
X004750Y005270D02*
X004750Y005870D01*
X004750Y003310D02*
X004750Y002710D01*
X006530Y002710D02*
X006530Y003310D01*
X007450Y003310D02*
X007450Y002710D01*
X009230Y002710D02*
X009230Y003310D01*
D15*
X009650Y032582D02*
X009650Y033097D01*
X008650Y033097D02*
X008650Y032582D01*
X007650Y032582D02*
X007650Y033097D01*
X010650Y033097D02*
X010650Y032582D01*
X011650Y032582D02*
X011650Y033097D01*
X012650Y033097D02*
X012650Y032582D01*
X013650Y032582D02*
X013650Y033097D01*
X014650Y033097D02*
X014650Y032582D01*
X015650Y032582D02*
X015650Y033097D01*
X016650Y033097D02*
X016650Y032582D01*
X017650Y032582D02*
X017650Y033097D01*
X018650Y033097D02*
X018650Y032582D01*
X019650Y032582D02*
X019650Y033097D01*
X020650Y033097D02*
X020650Y032582D01*
X021650Y032582D02*
X021650Y033097D01*
X022650Y033097D02*
X022650Y032582D01*
D16*
X037150Y021250D03*
X038150Y021250D03*
X039150Y021250D03*
X017650Y015990D03*
X016450Y015990D03*
X007100Y013100D03*
X007420Y007790D03*
X008420Y007790D03*
X002930Y005130D03*
X001930Y005130D03*
X000930Y005130D03*
D17*
X024604Y031230D03*
X026336Y031230D03*
D18*
X029245Y029490D03*
X034415Y029490D03*
D19*
X011120Y029430D03*
X008560Y029430D03*
D20*
X038760Y029631D03*
X038760Y028450D03*
X038760Y027269D03*
D21*
X037776Y025694D03*
X039744Y025694D03*
X039744Y031206D03*
X037776Y031206D03*
D22*
X038410Y010020D03*
X038410Y008051D03*
X033370Y003800D03*
X031401Y003800D03*
X027040Y003790D03*
X025071Y003790D03*
X023100Y003790D03*
X021131Y003790D03*
M02*
