G75*
G70*
%OFA0B0*%
%FSLAX24Y24*%
%IPPOS*%
%LPD*%
%AMOC8*
5,1,8,0,0,1.08239X$1,22.5*
%
%ADD10C,0.0000*%
D10*
X000105Y001250D02*
X000105Y034650D01*
X041505Y034650D01*
X041505Y001250D01*
X000105Y001250D01*
X001430Y003200D02*
X001432Y003250D01*
X001438Y003299D01*
X001448Y003348D01*
X001461Y003395D01*
X001479Y003442D01*
X001500Y003487D01*
X001524Y003530D01*
X001552Y003571D01*
X001583Y003610D01*
X001617Y003646D01*
X001654Y003680D01*
X001694Y003710D01*
X001735Y003737D01*
X001779Y003761D01*
X001824Y003781D01*
X001871Y003797D01*
X001919Y003810D01*
X001968Y003819D01*
X002018Y003824D01*
X002067Y003825D01*
X002117Y003822D01*
X002166Y003815D01*
X002215Y003804D01*
X002262Y003790D01*
X002308Y003771D01*
X002353Y003749D01*
X002396Y003724D01*
X002436Y003695D01*
X002474Y003663D01*
X002510Y003629D01*
X002543Y003591D01*
X002572Y003551D01*
X002598Y003509D01*
X002621Y003465D01*
X002640Y003419D01*
X002656Y003372D01*
X002668Y003323D01*
X002676Y003274D01*
X002680Y003225D01*
X002680Y003175D01*
X002676Y003126D01*
X002668Y003077D01*
X002656Y003028D01*
X002640Y002981D01*
X002621Y002935D01*
X002598Y002891D01*
X002572Y002849D01*
X002543Y002809D01*
X002510Y002771D01*
X002474Y002737D01*
X002436Y002705D01*
X002396Y002676D01*
X002353Y002651D01*
X002308Y002629D01*
X002262Y002610D01*
X002215Y002596D01*
X002166Y002585D01*
X002117Y002578D01*
X002067Y002575D01*
X002018Y002576D01*
X001968Y002581D01*
X001919Y002590D01*
X001871Y002603D01*
X001824Y002619D01*
X001779Y002639D01*
X001735Y002663D01*
X001694Y002690D01*
X001654Y002720D01*
X001617Y002754D01*
X001583Y002790D01*
X001552Y002829D01*
X001524Y002870D01*
X001500Y002913D01*
X001479Y002958D01*
X001461Y003005D01*
X001448Y003052D01*
X001438Y003101D01*
X001432Y003150D01*
X001430Y003200D01*
X031432Y031600D02*
X031434Y031626D01*
X031440Y031652D01*
X031450Y031677D01*
X031463Y031700D01*
X031479Y031720D01*
X031499Y031738D01*
X031521Y031753D01*
X031544Y031765D01*
X031570Y031773D01*
X031596Y031777D01*
X031622Y031777D01*
X031648Y031773D01*
X031674Y031765D01*
X031698Y031753D01*
X031719Y031738D01*
X031739Y031720D01*
X031755Y031700D01*
X031768Y031677D01*
X031778Y031652D01*
X031784Y031626D01*
X031786Y031600D01*
X031784Y031574D01*
X031778Y031548D01*
X031768Y031523D01*
X031755Y031500D01*
X031739Y031480D01*
X031719Y031462D01*
X031697Y031447D01*
X031674Y031435D01*
X031648Y031427D01*
X031622Y031423D01*
X031596Y031423D01*
X031570Y031427D01*
X031544Y031435D01*
X031520Y031447D01*
X031499Y031462D01*
X031479Y031480D01*
X031463Y031500D01*
X031450Y031523D01*
X031440Y031548D01*
X031434Y031574D01*
X031432Y031600D01*
X033164Y031600D02*
X033166Y031626D01*
X033172Y031652D01*
X033182Y031677D01*
X033195Y031700D01*
X033211Y031720D01*
X033231Y031738D01*
X033253Y031753D01*
X033276Y031765D01*
X033302Y031773D01*
X033328Y031777D01*
X033354Y031777D01*
X033380Y031773D01*
X033406Y031765D01*
X033430Y031753D01*
X033451Y031738D01*
X033471Y031720D01*
X033487Y031700D01*
X033500Y031677D01*
X033510Y031652D01*
X033516Y031626D01*
X033518Y031600D01*
X033516Y031574D01*
X033510Y031548D01*
X033500Y031523D01*
X033487Y031500D01*
X033471Y031480D01*
X033451Y031462D01*
X033429Y031447D01*
X033406Y031435D01*
X033380Y031427D01*
X033354Y031423D01*
X033328Y031423D01*
X033302Y031427D01*
X033276Y031435D01*
X033252Y031447D01*
X033231Y031462D01*
X033211Y031480D01*
X033195Y031500D01*
X033182Y031523D01*
X033172Y031548D01*
X033166Y031574D01*
X033164Y031600D01*
X038930Y032700D02*
X038932Y032750D01*
X038938Y032799D01*
X038948Y032848D01*
X038961Y032895D01*
X038979Y032942D01*
X039000Y032987D01*
X039024Y033030D01*
X039052Y033071D01*
X039083Y033110D01*
X039117Y033146D01*
X039154Y033180D01*
X039194Y033210D01*
X039235Y033237D01*
X039279Y033261D01*
X039324Y033281D01*
X039371Y033297D01*
X039419Y033310D01*
X039468Y033319D01*
X039518Y033324D01*
X039567Y033325D01*
X039617Y033322D01*
X039666Y033315D01*
X039715Y033304D01*
X039762Y033290D01*
X039808Y033271D01*
X039853Y033249D01*
X039896Y033224D01*
X039936Y033195D01*
X039974Y033163D01*
X040010Y033129D01*
X040043Y033091D01*
X040072Y033051D01*
X040098Y033009D01*
X040121Y032965D01*
X040140Y032919D01*
X040156Y032872D01*
X040168Y032823D01*
X040176Y032774D01*
X040180Y032725D01*
X040180Y032675D01*
X040176Y032626D01*
X040168Y032577D01*
X040156Y032528D01*
X040140Y032481D01*
X040121Y032435D01*
X040098Y032391D01*
X040072Y032349D01*
X040043Y032309D01*
X040010Y032271D01*
X039974Y032237D01*
X039936Y032205D01*
X039896Y032176D01*
X039853Y032151D01*
X039808Y032129D01*
X039762Y032110D01*
X039715Y032096D01*
X039666Y032085D01*
X039617Y032078D01*
X039567Y032075D01*
X039518Y032076D01*
X039468Y032081D01*
X039419Y032090D01*
X039371Y032103D01*
X039324Y032119D01*
X039279Y032139D01*
X039235Y032163D01*
X039194Y032190D01*
X039154Y032220D01*
X039117Y032254D01*
X039083Y032290D01*
X039052Y032329D01*
X039024Y032370D01*
X039000Y032413D01*
X038979Y032458D01*
X038961Y032505D01*
X038948Y032552D01*
X038938Y032601D01*
X038932Y032650D01*
X038930Y032700D01*
X039144Y007894D02*
X039146Y007928D01*
X039152Y007962D01*
X039162Y007995D01*
X039175Y008026D01*
X039193Y008056D01*
X039213Y008084D01*
X039237Y008109D01*
X039263Y008131D01*
X039291Y008149D01*
X039322Y008165D01*
X039354Y008177D01*
X039388Y008185D01*
X039422Y008189D01*
X039456Y008189D01*
X039490Y008185D01*
X039524Y008177D01*
X039556Y008165D01*
X039586Y008149D01*
X039615Y008131D01*
X039641Y008109D01*
X039665Y008084D01*
X039685Y008056D01*
X039703Y008026D01*
X039716Y007995D01*
X039726Y007962D01*
X039732Y007928D01*
X039734Y007894D01*
X039732Y007860D01*
X039726Y007826D01*
X039716Y007793D01*
X039703Y007762D01*
X039685Y007732D01*
X039665Y007704D01*
X039641Y007679D01*
X039615Y007657D01*
X039587Y007639D01*
X039556Y007623D01*
X039524Y007611D01*
X039490Y007603D01*
X039456Y007599D01*
X039422Y007599D01*
X039388Y007603D01*
X039354Y007611D01*
X039322Y007623D01*
X039291Y007639D01*
X039263Y007657D01*
X039237Y007679D01*
X039213Y007704D01*
X039193Y007732D01*
X039175Y007762D01*
X039162Y007793D01*
X039152Y007826D01*
X039146Y007860D01*
X039144Y007894D01*
X039144Y004665D02*
X039146Y004699D01*
X039152Y004733D01*
X039162Y004766D01*
X039175Y004797D01*
X039193Y004827D01*
X039213Y004855D01*
X039237Y004880D01*
X039263Y004902D01*
X039291Y004920D01*
X039322Y004936D01*
X039354Y004948D01*
X039388Y004956D01*
X039422Y004960D01*
X039456Y004960D01*
X039490Y004956D01*
X039524Y004948D01*
X039556Y004936D01*
X039586Y004920D01*
X039615Y004902D01*
X039641Y004880D01*
X039665Y004855D01*
X039685Y004827D01*
X039703Y004797D01*
X039716Y004766D01*
X039726Y004733D01*
X039732Y004699D01*
X039734Y004665D01*
X039732Y004631D01*
X039726Y004597D01*
X039716Y004564D01*
X039703Y004533D01*
X039685Y004503D01*
X039665Y004475D01*
X039641Y004450D01*
X039615Y004428D01*
X039587Y004410D01*
X039556Y004394D01*
X039524Y004382D01*
X039490Y004374D01*
X039456Y004370D01*
X039422Y004370D01*
X039388Y004374D01*
X039354Y004382D01*
X039322Y004394D01*
X039291Y004410D01*
X039263Y004428D01*
X039237Y004450D01*
X039213Y004475D01*
X039193Y004503D01*
X039175Y004533D01*
X039162Y004564D01*
X039152Y004597D01*
X039146Y004631D01*
X039144Y004665D01*
X038930Y003200D02*
X038932Y003250D01*
X038938Y003299D01*
X038948Y003348D01*
X038961Y003395D01*
X038979Y003442D01*
X039000Y003487D01*
X039024Y003530D01*
X039052Y003571D01*
X039083Y003610D01*
X039117Y003646D01*
X039154Y003680D01*
X039194Y003710D01*
X039235Y003737D01*
X039279Y003761D01*
X039324Y003781D01*
X039371Y003797D01*
X039419Y003810D01*
X039468Y003819D01*
X039518Y003824D01*
X039567Y003825D01*
X039617Y003822D01*
X039666Y003815D01*
X039715Y003804D01*
X039762Y003790D01*
X039808Y003771D01*
X039853Y003749D01*
X039896Y003724D01*
X039936Y003695D01*
X039974Y003663D01*
X040010Y003629D01*
X040043Y003591D01*
X040072Y003551D01*
X040098Y003509D01*
X040121Y003465D01*
X040140Y003419D01*
X040156Y003372D01*
X040168Y003323D01*
X040176Y003274D01*
X040180Y003225D01*
X040180Y003175D01*
X040176Y003126D01*
X040168Y003077D01*
X040156Y003028D01*
X040140Y002981D01*
X040121Y002935D01*
X040098Y002891D01*
X040072Y002849D01*
X040043Y002809D01*
X040010Y002771D01*
X039974Y002737D01*
X039936Y002705D01*
X039896Y002676D01*
X039853Y002651D01*
X039808Y002629D01*
X039762Y002610D01*
X039715Y002596D01*
X039666Y002585D01*
X039617Y002578D01*
X039567Y002575D01*
X039518Y002576D01*
X039468Y002581D01*
X039419Y002590D01*
X039371Y002603D01*
X039324Y002619D01*
X039279Y002639D01*
X039235Y002663D01*
X039194Y002690D01*
X039154Y002720D01*
X039117Y002754D01*
X039083Y002790D01*
X039052Y002829D01*
X039024Y002870D01*
X039000Y002913D01*
X038979Y002958D01*
X038961Y003005D01*
X038948Y003052D01*
X038938Y003101D01*
X038932Y003150D01*
X038930Y003200D01*
X005680Y032860D02*
X005682Y032910D01*
X005688Y032959D01*
X005698Y033008D01*
X005711Y033055D01*
X005729Y033102D01*
X005750Y033147D01*
X005774Y033190D01*
X005802Y033231D01*
X005833Y033270D01*
X005867Y033306D01*
X005904Y033340D01*
X005944Y033370D01*
X005985Y033397D01*
X006029Y033421D01*
X006074Y033441D01*
X006121Y033457D01*
X006169Y033470D01*
X006218Y033479D01*
X006268Y033484D01*
X006317Y033485D01*
X006367Y033482D01*
X006416Y033475D01*
X006465Y033464D01*
X006512Y033450D01*
X006558Y033431D01*
X006603Y033409D01*
X006646Y033384D01*
X006686Y033355D01*
X006724Y033323D01*
X006760Y033289D01*
X006793Y033251D01*
X006822Y033211D01*
X006848Y033169D01*
X006871Y033125D01*
X006890Y033079D01*
X006906Y033032D01*
X006918Y032983D01*
X006926Y032934D01*
X006930Y032885D01*
X006930Y032835D01*
X006926Y032786D01*
X006918Y032737D01*
X006906Y032688D01*
X006890Y032641D01*
X006871Y032595D01*
X006848Y032551D01*
X006822Y032509D01*
X006793Y032469D01*
X006760Y032431D01*
X006724Y032397D01*
X006686Y032365D01*
X006646Y032336D01*
X006603Y032311D01*
X006558Y032289D01*
X006512Y032270D01*
X006465Y032256D01*
X006416Y032245D01*
X006367Y032238D01*
X006317Y032235D01*
X006268Y032236D01*
X006218Y032241D01*
X006169Y032250D01*
X006121Y032263D01*
X006074Y032279D01*
X006029Y032299D01*
X005985Y032323D01*
X005944Y032350D01*
X005904Y032380D01*
X005867Y032414D01*
X005833Y032450D01*
X005802Y032489D01*
X005774Y032530D01*
X005750Y032573D01*
X005729Y032618D01*
X005711Y032665D01*
X005698Y032712D01*
X005688Y032761D01*
X005682Y032810D01*
X005680Y032860D01*
M02*
