%
M48
M72
T01C0.0120
T02C0.0150
T03C0.0200
T04C0.0315
T05C0.0354
T06C0.0400
T07C0.0512
T08C0.0591
T09C0.0910
T10C0.1250
%
T01
X6845Y6660
X8845Y6660
X10845Y8580
X12485Y9080
X11745Y9950
X11745Y10550
X12765Y10600
X14865Y9010
X17225Y8910
X19605Y9220
X20435Y9080
X20165Y10090
X20335Y10670
X21215Y10980
X21615Y10980
X22025Y10900
X22285Y12080
X22495Y12330
X22665Y12043
X22955Y12350
X24495Y11020
X25635Y10970
X26935Y11031
X26925Y11378
X27643Y11139
X27802Y12648
X28141Y12678
X27712Y13360
X28618Y14427
X28795Y15228
X28175Y15580
X27634Y15204
X26554Y15390
X25213Y17697
X24580Y17802
X24166Y17511
X23335Y17202
X23284Y17835
X22801Y17814
X22372Y17757
X22858Y19149
X23290Y19440
X24304Y19167
X24796Y19002
X25051Y19512
X26632Y19095
X26806Y18009
X28755Y20260
X28305Y20580
X26675Y21790
X26675Y22850
X26315Y22840
X25945Y22640
X25565Y22850
X25125Y22850
X23395Y22920
X23055Y22710
X22775Y22510
X22485Y22350
X22725Y21300
X23075Y21290
X23395Y21270
X23683Y21528
X22485Y21030
X21335Y21260
X20662Y20868
X20929Y20355
X20555Y20290
X20025Y20370
X19921Y19863
X20794Y19737
X20590Y19170
X19801Y18978
X18808Y18993
X18298Y19749
X17848Y19230
X17671Y18957
X17035Y19221
X17137Y19971
X17275Y20340
X16207Y20109
X15915Y19740
X15472Y19194
X15140Y19745
X14185Y19743
X13571Y19743
X13715Y20390
X14216Y20387
X14080Y21039
X13715Y21040
X12970Y21039
X12195Y20240
X11842Y20304
X11545Y20157
X11525Y19360
X12342Y19360
X11638Y17931
X10963Y17928
X13564Y17958
X13978Y18966
X15805Y18027
X16105Y17301
X15652Y17166
X15487Y16494
X14662Y17241
X13114Y15510
X13694Y14427
X16785Y11870
X17125Y11850
X17885Y11660
X18145Y11960
X18585Y11740
X18585Y11380
X22465Y9350
X23305Y8210
X23655Y8210
X24005Y8210
X24355Y8210
X24705Y8210
X25055Y8210
X25055Y7860
X24705Y7860
X24355Y7860
X24005Y7860
X23655Y7860
X23305Y7860
X23305Y7510
X23655Y7510
X24005Y7510
X24355Y7510
X24705Y7510
X25055Y7510
X25055Y7160
X24705Y7160
X24355Y7160
X24005Y7160
X23655Y7160
X23305Y7160
X22537Y7961
X21795Y8030
X25255Y5550
X24005Y3790
X22825Y3760
X22645Y3450
X22645Y3000
X22025Y3510
X20505Y4360
X20245Y2370
X21855Y2230
X26125Y2340
X26375Y2790
X26885Y2790
X26965Y3170
X28085Y2850
X28655Y2560
X31005Y4760
X28945Y5910
X28945Y7160
X28945Y7510
X28945Y7850
X28945Y8200
X28595Y8200
X28245Y8200
X27895Y8200
X27895Y7850
X27895Y7510
X28245Y7510
X28245Y7850
X28595Y7850
X28595Y7510
X28595Y7160
X28245Y7160
X27895Y7160
X29295Y7160
X29295Y7510
X29295Y7850
X29295Y8200
X29645Y8200
X29645Y7850
X29645Y7510
X29645Y7160
X30545Y8310
X30395Y11020
X29645Y11450
X31485Y11010
X34055Y8130
X34085Y6720
X34405Y6720
X34725Y6720
X35045Y6720
X35045Y6380
X34725Y6380
X34405Y6380
X34085Y6380
X37685Y6790
X38635Y8400
X38635Y9510
X39995Y8180
X40225Y7235
X38365Y4950
X38385Y4070
X38455Y2340
X36080Y2800
X31935Y2400
X31365Y2665
X26935Y8370
X25961Y8352
X33585Y14560
X35815Y16100
X36275Y16060
X38525Y16040
X38525Y15645
X37845Y13060
X38165Y11800
X38660Y11795
X36100Y18540
X36105Y18870
X36105Y19230
X36105Y19590
X36105Y19950
X36105Y20310
X36105Y20670
X36105Y21030
X36105Y21390
X35885Y21700
X33115Y24330
X33225Y24950
X33005Y25280
X33005Y25980
X33385Y25980
X32665Y26260
X32265Y26230
X32065Y25640
X32065Y24740
X31535Y24740
X31125Y24720
X30755Y24610
X30435Y24600
X29975Y24630
X30425Y22560
X30725Y22230
X26295Y25480
X25855Y25400
X25571Y26159
X25275Y26387
X25005Y26685
X25005Y25778
X26815Y26290
X27289Y25791
X27585Y27110
X26835Y27690
X27285Y29610
X29175Y28900
X29335Y28160
X30205Y26770
X30805Y26920
X33325Y26760
X33745Y26730
X35345Y26860
X36705Y26820
X37815Y26910
X35635Y28790
X35915Y29080
X35715Y29530
X35715Y30030
X34875Y29760
X34885Y30560
X33575Y30570
X32345Y29630
X33325Y28570
X34815Y28460
X38065Y30240
X37820Y31660
X36955Y31920
X37075Y32910
X37045Y33400
X38300Y33690
X35735Y32040
X34945Y33540
X34345Y33660
X40555Y30700
X35155Y24840
X23335Y16333
X22595Y15798
X22345Y15530
X22065Y15790
X21727Y15738
X21525Y15450
X21735Y15150
X21130Y15150
X20056Y16674
X20332Y16968
X20503Y17307
X19714Y17982
X18724Y17982
X18970Y16908
X18305Y16305
X17938Y16719
X17131Y16467
X18085Y15470
X18095Y15150
X18495Y15140
X17525Y15150
X17145Y15140
X21942Y19217
X21562Y19737
X19528Y21279
X19875Y22400
X20614Y22536
X20620Y22182
X20386Y23916
X20415Y24310
X20105Y24490
X19582Y24735
X18229Y25014
X17995Y24700
X18035Y24340
X17326Y24021
X16815Y24485
X17065Y23613
X17545Y23100
X18035Y23520
X17275Y21940
X16835Y21970
X16321Y21690
X15847Y21726
X15814Y21317
X15181Y20547
X14355Y22230
X13835Y22340
X13225Y22270
X15502Y22479
X15799Y22773
X15462Y22912
X15545Y24680
X15525Y25760
X15785Y26560
X16095Y26500
X16705Y26070
X17585Y25930
X17475Y25420
X15395Y27050
X15095Y27260
X14045Y26880
X12475Y26420
X11905Y26270
X10465Y26570
X13245Y25210
X16865Y27550
X18025Y28480
X18465Y28480
X18465Y29260
X18025Y29260
X17315Y30590
X16265Y30510
X14985Y31210
X15475Y32150
X17295Y31670
X18875Y31550
X21345Y29740
X21625Y29020
X20885Y29020
X20705Y28770
X20585Y27520
X20715Y27110
X20315Y26570
X21585Y26610
X21865Y26260
X22285Y25490
X22685Y25150
X21775Y24880
X21615Y27450
X22095Y28160
X21905Y30720
X8265Y20450
X7915Y20450
X7585Y20450
X7225Y20450
X6885Y20450
X6976Y22178
X6634Y22167
X6277Y22152
X5911Y22143
X5605Y21945
X5563Y23736
X5833Y23985
X6073Y24228
X6568Y24531
X6891Y27303
X6566Y27470
X6026Y27684
X5862Y27312
X5800Y29695
X12435Y5930
X13165Y5930
X13165Y5130
X13175Y4400
X13175Y3570
X13555Y2970
X11725Y3570
X11745Y4390
X11775Y5150
T02
X7085Y23310
X31885Y28290
T03
X30295Y31610
X25774Y12424
X25865Y8830
X27065Y8850
X30545Y8830
X22493Y8826
T04
X20836Y8688
X20836Y7901
X20836Y7113
X20836Y6326
X20836Y5539
X20836Y4751
X20836Y3964
X20836Y3176
X20836Y9476
X20836Y10263
X12174Y10263
X12174Y9476
X12174Y8688
X12174Y7901
X12174Y7113
X12174Y6326
X12174Y5539
X12174Y4751
X12174Y3964
X12174Y3176
X39455Y5492
X39455Y6280
X39455Y7067
X23305Y32950
X22305Y32950
X21305Y32950
X20305Y32950
X19305Y32950
X18305Y32950
X17305Y32950
X16305Y32950
X15305Y32950
X14305Y32950
X13305Y32950
X12305Y32950
X11305Y32950
X10305Y32950
X9305Y32950
X8305Y32950
T05
X31609Y31600
X33341Y31600
X34085Y21950
X31525Y21950
T06
X29305Y18450
X28305Y18450
X27305Y18450
X26305Y18450
X25305Y18450
X24305Y18450
X23305Y18450
X22305Y18450
X21305Y18450
X20305Y18450
X19305Y18450
X18305Y18450
X17305Y18450
X16305Y18450
X15305Y18450
X14305Y18450
X13305Y18450
X12305Y18450
X11305Y18450
X10305Y18450
X9305Y18450
X8305Y18450
X3405Y18350
X3405Y19350
X3405Y20350
X3405Y21350
X3405Y22350
X3405Y23350
X3405Y24350
X3405Y25350
X3405Y26350
X3405Y27350
X3405Y28350
X3405Y29350
X3405Y30350
X2405Y30350
X1405Y30350
X1405Y29350
X2405Y29350
X2405Y28350
X1405Y28350
X1405Y27350
X2405Y27350
X2405Y26350
X1405Y26350
X1405Y25350
X2405Y25350
X2405Y24350
X1405Y24350
X1405Y23350
X2405Y23350
X2405Y22350
X1405Y22350
X1405Y21350
X2405Y21350
X2405Y20350
X1405Y20350
X1405Y19350
X2405Y19350
X2405Y18350
X1405Y18350
X1405Y17350
X2405Y17350
X2405Y16350
X1405Y16350
X1405Y14950
X2405Y14950
X3405Y14950
X3405Y16350
X3405Y17350
X6610Y14427
X6655Y13351
X8050Y11450
X9050Y11450
X9050Y10450
X8050Y10450
X8050Y9450
X9050Y9450
X9050Y8450
X8050Y8450
X8845Y5240
X10625Y5240
X10625Y2680
X8845Y2680
X7065Y2685
X5285Y2685
X5285Y5245
X7065Y5245
X3405Y5550
X3405Y6550
X3405Y7550
X3405Y8550
X3405Y9550
X3405Y10550
X3405Y11550
X3405Y12550
X2405Y12550
X1405Y12550
X1405Y11550
X2405Y11550
X2405Y10550
X1405Y10550
X1405Y9550
X2405Y9550
X2405Y8550
X1405Y8550
X1405Y7550
X2405Y7550
X2405Y6550
X1405Y6550
X1405Y5550
X2405Y5550
X13805Y15950
X14805Y15950
X15805Y15950
X16805Y15950
X17805Y15950
X18805Y15950
X32805Y17250
X33805Y17250
X34805Y17250
X35805Y17250
X38175Y16950
X38175Y17950
X38175Y18950
X38175Y19950
X38175Y20950
X38175Y21950
X38175Y22950
X38175Y23950
X39175Y23950
X40175Y23950
X40175Y22950
X39175Y22950
X39175Y21950
X40175Y21950
X40175Y20950
X39175Y20950
X39175Y19950
X40175Y19950
X40175Y18950
X39175Y18950
X39175Y17950
X40175Y17950
X40175Y16950
X39175Y16950
X38415Y13010
X40195Y13010
X40195Y10450
X38415Y10450
T07
X36935Y3750
X34966Y3750
X29315Y3760
X27346Y3760
X25375Y3760
X23406Y3760
X39005Y28251
X39005Y30220
T08
X39439Y7894
X39439Y4665
T09
X29430Y29880
X24260Y29880
T10
X2055Y3200
X6305Y32860
X39555Y32700
X39555Y3200
M30
