G75*
G70*
%OFA0B0*%
%FSLAX24Y24*%
%IPPOS*%
%LPD*%
%AMOC8*
5,1,8,0,0,1.08239X$1,22.5*
%
%ADD10C,0.0010*%
%ADD11R,0.0472X0.0118*%
%ADD12R,0.0118X0.0472*%
%ADD13R,0.0470X0.1300*%
%ADD14R,0.0118X0.0413*%
%ADD15R,0.4803X0.2697*%
%ADD16R,0.0787X0.1142*%
%ADD17R,0.0433X0.0394*%
%ADD18R,0.0394X0.0433*%
%ADD19R,0.0197X0.0984*%
%ADD20R,0.0787X0.0984*%
%ADD21R,0.0236X0.0472*%
%ADD22R,0.0866X0.0236*%
%ADD23R,0.0354X0.1181*%
%ADD24R,0.0472X0.0315*%
%ADD25R,0.0315X0.0354*%
%ADD26R,0.0315X0.0315*%
%ADD27R,0.0098X0.0276*%
%ADD28R,0.1299X0.0669*%
%ADD29R,0.0330X0.0125*%
%ADD30R,0.0125X0.0330*%
%ADD31R,0.1000X0.1000*%
%ADD32R,0.1102X0.2126*%
%ADD33R,0.0315X0.0472*%
%ADD34R,0.2100X0.0760*%
%ADD35R,0.0630X0.0709*%
%ADD36R,0.0080X0.0310*%
%ADD37R,0.0310X0.0080*%
%ADD38R,0.0669X0.0669*%
%ADD39R,0.0295X0.0157*%
%ADD40R,0.0270X0.0130*%
%ADD41R,0.0500X0.0240*%
%ADD42R,0.0400X0.0240*%
%ADD43R,0.1500X0.0650*%
%ADD44R,0.0240X0.0500*%
%ADD45R,0.0240X0.0400*%
%ADD46R,0.0650X0.1500*%
%ADD47R,0.0236X0.0315*%
%ADD48R,0.0315X0.0236*%
%ADD49R,0.0335X0.0197*%
%ADD50R,0.1380X0.0630*%
%ADD51R,0.3840X0.4800*%
%ADD52R,0.0870X0.0240*%
%ADD53R,0.0709X0.0551*%
%ADD54R,0.0551X0.0748*%
%ADD55R,0.0315X0.0591*%
D10*
X000150Y001990D02*
X000150Y033990D01*
X040150Y033990D01*
X040150Y001990D01*
X000150Y001990D01*
D11*
X007150Y020927D03*
X007150Y021124D03*
X007150Y021321D03*
X007150Y021518D03*
X007150Y021715D03*
X007150Y021912D03*
X007150Y022109D03*
X007150Y022305D03*
X007150Y022502D03*
X007150Y022699D03*
X007150Y022896D03*
X007150Y023093D03*
X007150Y023290D03*
X007150Y023486D03*
X007150Y023683D03*
X007150Y023880D03*
X007150Y024077D03*
X007150Y024274D03*
X007150Y024471D03*
X007150Y024668D03*
X007150Y024864D03*
X007150Y025061D03*
X007150Y025258D03*
X007150Y025455D03*
X007150Y025652D03*
X013450Y025652D03*
X013450Y025455D03*
X013450Y025258D03*
X013450Y025061D03*
X013450Y024864D03*
X013450Y024668D03*
X013450Y024471D03*
X013450Y024274D03*
X013450Y024077D03*
X013450Y023880D03*
X013450Y023683D03*
X013450Y023486D03*
X013450Y023290D03*
X013450Y023093D03*
X013450Y022896D03*
X013450Y022699D03*
X013450Y022502D03*
X013450Y022305D03*
X013450Y022109D03*
X013450Y021912D03*
X013450Y021715D03*
X013450Y021518D03*
X013450Y021321D03*
X013450Y021124D03*
X013450Y020927D03*
D12*
X012662Y020140D03*
X012465Y020140D03*
X012269Y020140D03*
X012072Y020140D03*
X011875Y020140D03*
X011678Y020140D03*
X011481Y020140D03*
X011284Y020140D03*
X011087Y020140D03*
X010891Y020140D03*
X010694Y020140D03*
X010497Y020140D03*
X010300Y020140D03*
X010103Y020140D03*
X009906Y020140D03*
X009709Y020140D03*
X009513Y020140D03*
X009316Y020140D03*
X009119Y020140D03*
X008922Y020140D03*
X008725Y020140D03*
X008528Y020140D03*
X008331Y020140D03*
X008135Y020140D03*
X007938Y020140D03*
X007938Y026439D03*
X008135Y026439D03*
X008331Y026439D03*
X008528Y026439D03*
X008725Y026439D03*
X008922Y026439D03*
X009119Y026439D03*
X009316Y026439D03*
X009513Y026439D03*
X009709Y026439D03*
X009906Y026439D03*
X010103Y026439D03*
X010300Y026439D03*
X010497Y026439D03*
X010694Y026439D03*
X010891Y026439D03*
X011087Y026439D03*
X011284Y026439D03*
X011481Y026439D03*
X011678Y026439D03*
X011875Y026439D03*
X012072Y026439D03*
X012269Y026439D03*
X012465Y026439D03*
X012662Y026439D03*
D13*
X005150Y031150D03*
X004150Y032850D03*
X006150Y032850D03*
D14*
X022133Y012172D03*
X022389Y012172D03*
X022645Y012172D03*
X022901Y012172D03*
X023157Y012172D03*
X023413Y012172D03*
X023669Y012172D03*
X023924Y012172D03*
X024180Y012172D03*
X024436Y012172D03*
X024692Y012172D03*
X024948Y012172D03*
X025204Y012172D03*
X025460Y012172D03*
X025716Y012172D03*
X025972Y012172D03*
X026228Y012172D03*
X026484Y012172D03*
X026739Y012172D03*
X026995Y012172D03*
X027251Y012172D03*
X027507Y012172D03*
X027507Y007428D03*
X027251Y007428D03*
X026995Y007428D03*
X026739Y007428D03*
X026484Y007428D03*
X026228Y007428D03*
X025972Y007428D03*
X025716Y007428D03*
X025460Y007428D03*
X025204Y007428D03*
X024948Y007428D03*
X024692Y007428D03*
X024436Y007428D03*
X024180Y007428D03*
X023924Y007428D03*
X023669Y007428D03*
X023413Y007428D03*
X023157Y007428D03*
X022901Y007428D03*
X022645Y007428D03*
X022389Y007428D03*
X022133Y007428D03*
D15*
X024830Y009810D03*
D16*
X027625Y009810D03*
X022035Y009810D03*
D17*
X021305Y010240D03*
X020635Y010240D03*
X020555Y009290D03*
X021225Y009290D03*
X021005Y006140D03*
X020335Y006140D03*
X027535Y006030D03*
X028205Y006030D03*
X028365Y006980D03*
X029035Y006980D03*
X032875Y009200D03*
X033545Y009200D03*
X033585Y010530D03*
X032915Y010530D03*
X030455Y013040D03*
X029785Y013040D03*
X030525Y016510D03*
X031195Y016510D03*
X029575Y025540D03*
X028905Y025540D03*
X028895Y026390D03*
X029565Y026390D03*
X029555Y027230D03*
X028885Y027230D03*
X021255Y031690D03*
X020585Y031690D03*
X019125Y031510D03*
X018455Y031510D03*
X018605Y028200D03*
X017935Y028200D03*
X015965Y026480D03*
X015295Y026480D03*
X013725Y028850D03*
X013055Y028850D03*
X019715Y020600D03*
X020385Y020600D03*
X018195Y020210D03*
X017525Y020210D03*
X015085Y019970D03*
X014415Y019970D03*
X014385Y019000D03*
X013715Y019000D03*
X011605Y007420D03*
X010935Y007420D03*
X010935Y006440D03*
X011605Y006440D03*
X011585Y005460D03*
X010915Y005460D03*
X007745Y006740D03*
X007075Y006740D03*
X034905Y003570D03*
X035575Y003570D03*
X036475Y003730D03*
X037145Y003730D03*
X037145Y002850D03*
X036475Y002850D03*
X035575Y002730D03*
X034905Y002730D03*
X038355Y006470D03*
X039025Y006470D03*
D18*
X039230Y005634D03*
X039230Y004965D03*
X038420Y004955D03*
X038420Y005624D03*
X034980Y006555D03*
X034980Y007224D03*
X034090Y006834D03*
X034090Y006165D03*
X029220Y004694D03*
X029220Y004025D03*
X020900Y007445D03*
X020900Y008114D03*
X019990Y008114D03*
X019990Y007445D03*
X018010Y009035D03*
X018010Y009704D03*
X021110Y010925D03*
X021110Y011594D03*
X026640Y014025D03*
X026640Y014694D03*
X028370Y011784D03*
X028370Y011115D03*
X029170Y011105D03*
X029170Y011774D03*
X030160Y011994D03*
X030160Y011325D03*
X030320Y013705D03*
X030320Y014374D03*
X038370Y013084D03*
X038370Y012415D03*
X039250Y012425D03*
X039250Y013094D03*
X035770Y024945D03*
X035770Y025614D03*
X034960Y025634D03*
X034960Y024965D03*
X033010Y025035D03*
X033010Y025704D03*
X030230Y026155D03*
X030230Y026824D03*
X026820Y028475D03*
X026820Y029144D03*
X025620Y027144D03*
X025620Y026475D03*
X025620Y025414D03*
X025620Y024745D03*
X023700Y028455D03*
X023700Y029124D03*
X019530Y029755D03*
X019530Y030424D03*
X016690Y030164D03*
X016690Y029495D03*
X016500Y028734D03*
X016500Y028065D03*
X015660Y029075D03*
X015660Y029744D03*
X013660Y027774D03*
X013660Y027105D03*
X017290Y026444D03*
X017290Y025775D03*
X012280Y030935D03*
X012280Y031604D03*
X005920Y030524D03*
X005920Y029855D03*
X005020Y029754D03*
X005020Y029085D03*
X005660Y009924D03*
X005660Y009255D03*
X006460Y009255D03*
X006460Y009924D03*
X011390Y009354D03*
X011390Y008685D03*
X018030Y005124D03*
X018030Y004455D03*
D19*
X024840Y030245D03*
X025155Y030245D03*
X025470Y030245D03*
X025785Y030245D03*
X026100Y030245D03*
D20*
X027242Y030245D03*
X027242Y032411D03*
X023698Y032411D03*
X023698Y030245D03*
D21*
X025246Y028883D03*
X025620Y028883D03*
X025994Y028883D03*
X025994Y027977D03*
X025620Y027977D03*
X025246Y027977D03*
X031456Y026923D03*
X031830Y026923D03*
X032204Y026923D03*
X032204Y026017D03*
X031830Y026017D03*
X031456Y026017D03*
D22*
X023914Y026290D03*
X023914Y026790D03*
X023914Y027290D03*
X023914Y027790D03*
X021866Y027790D03*
X021866Y027290D03*
X021866Y026790D03*
X021866Y026290D03*
X034936Y005880D03*
X034936Y005380D03*
X034936Y004880D03*
X034936Y004380D03*
X036984Y004380D03*
X036984Y004880D03*
X036984Y005380D03*
X036984Y005880D03*
D23*
X033011Y028131D03*
X032224Y028131D03*
X031436Y028131D03*
X030649Y028131D03*
D24*
X027600Y028435D03*
X027600Y029144D03*
X031140Y025094D03*
X031140Y024385D03*
X025370Y019424D03*
X025370Y018715D03*
D25*
X034016Y026536D03*
X034764Y026536D03*
X034390Y027363D03*
X015034Y027796D03*
X014286Y027796D03*
X014660Y028623D03*
D26*
X028315Y015390D03*
X028315Y014920D03*
X028905Y014920D03*
X028905Y015390D03*
X028235Y013770D03*
X027645Y013770D03*
X029230Y006175D03*
X029230Y005584D03*
X009245Y006640D03*
X008655Y006640D03*
D27*
X030989Y013329D03*
X031186Y013329D03*
X031383Y013329D03*
X031580Y013329D03*
X031777Y013329D03*
X031974Y013329D03*
X032171Y013329D03*
X032171Y014470D03*
X031974Y014470D03*
X031777Y014470D03*
X031580Y014470D03*
X031383Y014470D03*
X031186Y014470D03*
X030989Y014470D03*
D28*
X031580Y013900D03*
D29*
X018928Y029637D03*
X018928Y029834D03*
X018928Y030031D03*
X018928Y030228D03*
X018928Y030425D03*
X018928Y030622D03*
X017372Y030622D03*
X017372Y030425D03*
X017372Y030228D03*
X017372Y030031D03*
X017372Y029834D03*
X017372Y029637D03*
D30*
X017658Y029332D03*
X017855Y029332D03*
X018052Y029332D03*
X018248Y029332D03*
X018445Y029332D03*
X018642Y029332D03*
X018642Y030907D03*
X018445Y030907D03*
X018248Y030907D03*
X018052Y030907D03*
X017855Y030907D03*
X017658Y030907D03*
D31*
X018150Y030130D03*
D32*
X028392Y019490D03*
X032250Y019490D03*
D33*
X031174Y015480D03*
X030466Y015480D03*
X027234Y018430D03*
X026526Y018430D03*
X026526Y019160D03*
X026526Y019810D03*
X027234Y019810D03*
X027234Y019160D03*
X027224Y020520D03*
X026516Y020520D03*
X025724Y014620D03*
X025016Y014620D03*
D34*
X016410Y010330D03*
X012610Y010330D03*
D35*
X029849Y009130D03*
X030951Y009130D03*
X032109Y011480D03*
X032109Y012320D03*
X033211Y012320D03*
X033211Y011480D03*
X037959Y011610D03*
X039061Y011610D03*
X032761Y023590D03*
X031659Y023590D03*
D36*
X014575Y029819D03*
X014417Y029819D03*
X014260Y029819D03*
X014103Y029819D03*
X013945Y029819D03*
X013945Y030960D03*
X014103Y030960D03*
X014260Y030960D03*
X014417Y030960D03*
X014575Y030960D03*
D37*
X014831Y030705D03*
X014831Y030547D03*
X014831Y030390D03*
X014831Y030232D03*
X014831Y030075D03*
X013689Y030075D03*
X013689Y030232D03*
X013689Y030390D03*
X013689Y030547D03*
X013689Y030705D03*
D38*
X014260Y030390D03*
D39*
X036265Y007196D03*
X036265Y006684D03*
D40*
X035615Y006675D03*
X035615Y006940D03*
X035615Y007205D03*
D41*
X033000Y007170D03*
X033000Y006670D03*
X033000Y007670D03*
X033000Y008170D03*
D42*
X030850Y008170D03*
X030850Y007670D03*
X030850Y007170D03*
X030850Y006670D03*
D43*
X031680Y006965D03*
X031680Y007875D03*
D44*
X034570Y011060D03*
X035070Y011060D03*
X035570Y011060D03*
X036070Y011060D03*
D45*
X036070Y008910D03*
X035570Y008910D03*
X035070Y008910D03*
X034570Y008910D03*
D46*
X034865Y009740D03*
X035775Y009740D03*
D47*
X033550Y009900D03*
X032881Y009900D03*
D48*
X033750Y008669D03*
X033750Y008000D03*
D49*
X026764Y006186D03*
X026076Y006186D03*
X026076Y005793D03*
X026764Y005793D03*
X022484Y005793D03*
X022484Y006186D03*
X021796Y006186D03*
X021796Y005793D03*
D50*
X025370Y015490D03*
X025370Y017490D03*
D51*
X021330Y016490D03*
D52*
X032230Y016610D03*
X032230Y016110D03*
X032230Y015610D03*
X032230Y015110D03*
X034290Y015110D03*
X034290Y015610D03*
X034290Y016110D03*
X034290Y016610D03*
D53*
X015071Y008132D03*
X012827Y008132D03*
D54*
X012197Y002955D03*
X017374Y002561D03*
D55*
X015540Y004077D03*
X015107Y004234D03*
X014674Y004077D03*
X014240Y003998D03*
X013807Y004077D03*
X013374Y003998D03*
X012941Y004077D03*
X012508Y004077D03*
M02*
