%
M48
M72
T01C0.0150
T02C0.0250
T03C0.0315
T04C0.0354
T05C0.0400
T06C0.0512
T07C0.0591
T08C0.0910
T09C0.1250
%
T01
X5290Y7590
X9846Y8821
X9846Y9455
X10280Y10325
X11136Y10247
X11760Y9994
X12510Y10260
X12960Y10860
X14900Y12460
X15160Y12850
X15400Y12450
X15990Y13090
X15530Y13210
X14900Y13670
X15520Y14100
X17030Y14800
X17190Y13760
X18470Y12280
X18960Y13980
X19460Y13980
X19960Y13980
X20460Y13980
X20460Y14480
X20460Y14980
X19960Y14980
X19460Y14980
X18960Y14980
X18960Y14480
X19460Y14480
X19960Y14480
X19960Y15480
X19960Y15980
X19460Y15980
X18960Y15980
X18960Y15480
X19460Y15480
X20460Y15480
X20460Y15980
X20460Y16480
X20460Y16980
X19960Y16980
X19460Y16980
X18960Y16980
X18960Y16480
X19460Y16480
X19960Y16480
X19960Y17480
X19960Y17980
X19460Y17980
X18960Y17980
X18960Y17480
X19460Y17480
X20460Y17480
X20460Y17980
X20460Y18480
X19960Y18480
X19460Y18480
X18960Y18480
X18435Y17851
X18160Y16840
X17040Y17840
X16960Y19510
X17540Y20110
X19241Y19524
X19350Y20508
X19697Y20872
X21039Y21362
X21423Y21634
X22580Y22047
X24102Y21408
X24710Y21309
X25105Y21164
X25978Y20958
X25979Y20214
X25104Y20226
X24601Y20261
X23960Y18480
X23460Y18480
X22960Y18480
X22460Y18480
X21960Y18480
X21460Y18480
X20960Y18480
X20960Y17980
X21460Y17980
X21960Y17980
X22460Y17980
X22960Y17980
X22960Y17480
X22460Y17480
X21960Y17480
X21460Y17480
X20960Y17480
X20960Y16980
X21460Y16980
X21960Y16980
X22460Y16980
X22960Y16980
X22960Y16480
X22460Y16480
X21960Y16480
X21460Y16480
X20960Y16480
X20960Y15980
X21460Y15980
X21960Y15980
X22460Y15980
X22960Y15980
X22960Y15480
X22460Y15480
X21960Y15480
X21460Y15480
X20960Y15480
X20960Y14980
X21460Y14980
X21960Y14980
X22460Y14980
X22960Y14980
X22960Y14480
X22460Y14480
X21960Y14480
X21460Y14480
X20960Y14480
X20960Y13980
X21460Y13980
X21960Y13980
X22460Y13980
X22960Y13980
X23460Y13980
X23960Y13980
X23960Y14480
X23960Y14980
X23460Y14980
X23460Y14480
X23460Y15480
X23460Y15980
X23960Y15980
X23960Y15480
X23960Y16480
X23960Y16980
X23460Y16980
X23460Y16480
X23460Y17480
X23460Y17980
X23960Y17980
X23960Y17480
X22539Y20012
X21439Y20010
X21450Y20470
X20018Y23314
X19349Y23377
X20523Y24130
X21050Y24690
X21728Y25583
X21990Y26022
X23350Y26260
X23476Y27013
X24851Y27435
X25365Y26430
X25339Y25542
X24103Y24524
X24390Y23521
X27374Y23247
X27446Y23795
X28165Y23160
X27350Y24690
X27780Y25170
X28620Y25317
X28072Y26179
X27980Y26820
X28223Y27508
X29327Y27065
X29785Y27378
X30333Y26853
X30798Y25968
X31830Y24880
X30846Y24505
X30790Y23639
X30377Y23104
X31850Y24170
X33366Y23915
X33727Y24670
X34280Y24330
X34363Y24880
X35360Y25720
X31850Y28850
X30640Y28850
X27260Y27410
X26660Y27121
X26935Y26363
X25620Y28750
X24420Y29880
X27240Y30790
X21343Y27810
X20928Y27190
X19920Y27190
X19048Y27894
X18215Y28956
X17662Y29115
X17862Y29617
X17555Y30378
X17598Y30823
X16597Y30783
X16598Y29948
X15176Y29060
X14893Y29434
X15662Y28336
X15679Y27824
X14701Y27519
X14104Y27759
X13237Y27761
X12840Y27260
X12730Y26830
X13160Y26350
X13080Y25600
X12620Y25180
X12682Y24721
X12620Y23580
X12270Y23260
X12690Y22880
X12510Y22330
X12560Y21820
X12550Y21330
X12590Y20910
X11860Y21200
X11390Y21220
X10920Y21060
X10870Y20310
X10400Y20280
X9980Y20130
X10062Y20796
X9399Y20964
X9365Y20529
X9021Y20197
X8623Y20321
X7770Y21281
X7780Y22270
X6689Y22909
X7870Y23530
X8136Y25249
X7334Y26119
X8634Y26861
X9160Y26778
X9258Y26302
X10440Y26369
X10830Y26310
X10120Y25010
X9859Y24714
X10990Y24210
X11520Y24730
X11100Y22320
X11450Y22030
X10590Y21920
X10140Y22110
X11330Y20340
X13260Y19410
X13838Y18671
X14385Y18500
X14919Y18757
X14954Y19820
X15260Y21490
X14150Y23150
X16044Y23334
X17997Y24863
X18520Y25300
X18855Y24679
X18721Y24311
X17475Y26433
X17410Y27699
X15158Y25952
X15070Y25449
X14210Y26690
X12399Y28364
X11917Y28364
X11625Y27680
X13099Y28924
X12865Y29527
X10009Y29522
X9365Y28677
X7985Y28422
X7568Y28307
X6837Y28742
X6380Y29220
X7890Y29521
X4440Y31650
X5355Y26390
X6570Y21360
X5291Y20060
X7349Y19313
X7485Y19720
X9410Y18510
X10000Y17340
X9430Y17020
X9430Y16540
X8790Y16790
X8610Y17270
X7850Y16992
X7135Y17038
X7310Y17753
X6190Y16831
X8290Y14250
X10160Y14250
X10870Y15770
X11660Y15910
X11110Y17250
X13260Y17920
X13397Y18235
X13370Y17090
X14030Y16860
X15086Y17347
X9270Y12220
X13467Y8914
X13970Y8995
X14534Y9029
X15265Y8996
X17930Y9980
X19630Y10560
X20120Y10640
X20390Y10160
X21600Y11370
X21260Y12000
X20800Y11630
X21850Y12120
X22860Y12330
X23020Y10330
X23020Y9940
X22620Y9940
X22620Y10330
X22620Y9540
X23020Y9540
X23420Y9540
X23420Y9940
X23420Y10330
X23420Y8840
X23020Y8840
X22620Y8840
X22620Y8440
X23020Y8440
X23420Y8440
X23420Y8040
X23020Y8040
X22620Y8040
X22050Y8920
X22050Y9460
X19580Y8010
X20060Y6073
X20140Y4410
X19700Y3970
X18314Y2565
X15456Y2353
X14266Y2444
X13385Y2574
X11866Y6335
X12062Y7343
X11301Y8230
X21820Y6800
X21790Y4601
X26240Y8030
X26640Y8030
X27040Y8030
X27040Y8430
X27040Y8830
X26640Y8830
X26240Y8830
X26240Y8430
X26640Y8430
X26640Y9530
X26640Y9930
X26640Y10320
X26240Y10320
X26240Y9930
X26240Y9530
X27040Y9530
X27040Y9930
X27040Y10320
X28370Y11720
X27860Y12290
X27454Y12795
X27453Y13481
X27071Y13985
X28196Y13571
X29257Y12194
X31070Y13070
X31410Y13070
X31760Y13070
X32090Y13070
X32090Y13470
X31760Y13470
X31410Y13470
X31070Y13470
X31045Y14250
X32867Y14888
X33627Y14855
X33627Y15264
X33627Y15682
X33628Y14395
X36013Y16107
X35690Y18830
X35387Y20218
X32937Y20210
X31024Y19666
X30380Y18920
X29570Y18880
X29389Y18201
X29256Y19627
X30380Y20472
X26980Y16560
X26290Y15270
X26070Y14860
X28324Y15239
X28978Y15409
X31300Y12260
X34250Y11710
X34570Y11010
X33160Y8100
X34480Y7220
X34090Y6720
X35940Y6860
X37200Y6750
X37750Y5700
X37960Y4730
X35960Y5690
X35700Y3870
X36150Y2700
X37750Y2620
X34240Y3390
X33750Y4750
X30320Y4920
X29910Y4000
X28720Y2930
X28290Y3530
X27840Y3980
X26630Y4240
X28240Y6960
X28742Y7121
X28201Y7680
X29658Y9051
X29950Y7480
X38116Y11588
X20896Y28707
X19544Y29637
X20443Y30144
T02
X26100Y17910
X23980Y11170
X25750Y11010
X26870Y10890
X31050Y9670
X31880Y9680
X33910Y10400
X37100Y9560
X37100Y9060
X26360Y6970
X23200Y6980
T03
X19181Y6741
X19181Y7528
X19181Y8316
X19181Y9103
X19181Y5953
X19181Y5166
X19181Y4379
X19181Y3591
X19181Y2804
X19181Y2016
X10519Y2016
X10519Y2804
X10519Y3591
X10519Y4379
X10519Y5166
X10519Y5953
X10519Y6741
X10519Y7528
X10519Y8316
X10519Y9103
X10650Y32210
X11650Y32210
X12650Y32210
X13650Y32210
X14650Y32210
X15650Y32210
X16650Y32210
X17650Y32210
X18650Y32210
X19650Y32210
X20650Y32210
X21650Y32210
X22650Y32210
X9650Y32210
X8650Y32210
X7650Y32210
X38710Y29537
X38710Y28750
X38710Y27962
T04
X26336Y30960
X24604Y30960
X11210Y28800
X8650Y28800
T05
X7058Y30021
X2900Y30160
X1900Y30160
X900Y30160
X900Y29160
X1900Y29160
X2900Y29160
X2900Y28160
X1900Y28160
X900Y28160
X900Y27160
X1900Y27160
X2900Y27160
X2900Y26160
X1900Y26160
X900Y26160
X900Y25160
X1900Y25160
X2900Y25160
X2900Y24160
X1900Y24160
X900Y24160
X900Y23160
X1900Y23160
X2900Y23160
X2900Y22160
X2900Y21160
X1900Y21160
X1900Y22160
X900Y22160
X900Y21160
X900Y20160
X1900Y20160
X2900Y20160
X2900Y19160
X1900Y19160
X900Y19160
X900Y18160
X1900Y18160
X2900Y18160
X2900Y17160
X1900Y17160
X900Y17160
X900Y16160
X1900Y16160
X2900Y16160
X2900Y14560
X1900Y14560
X900Y14560
X2900Y13240
X2880Y12470
X2900Y11500
X1900Y11500
X900Y11500
X900Y10500
X1900Y10500
X2900Y10500
X2900Y9500
X1900Y9500
X900Y9500
X900Y8500
X1900Y8500
X2900Y8500
X2900Y7500
X1900Y7500
X900Y7500
X900Y6500
X1900Y6500
X2900Y6500
X2900Y5500
X1900Y5500
X900Y5500
X900Y4500
X1900Y4500
X2900Y4500
X4610Y5140
X6390Y5140
X7160Y5140
X8940Y5140
X8420Y7160
X7420Y7160
X7420Y8160
X8420Y8160
X8420Y9160
X7420Y9160
X7420Y10160
X8420Y10160
X7180Y11540
X7100Y12470
X7100Y13470
X7100Y14470
X7100Y15470
X8700Y14980
X9700Y14980
X10700Y14980
X11700Y14980
X12700Y14980
X13700Y14980
X13670Y13120
X12670Y13120
X11670Y13120
X10670Y13120
X9670Y13120
X8670Y13120
X16450Y15360
X16450Y16360
X16450Y17360
X16450Y18360
X17650Y18360
X17650Y17360
X17650Y16360
X17650Y15360
X17680Y13430
X26884Y14711
X37400Y14360
X37400Y15360
X37400Y16360
X37400Y17360
X37400Y18360
X37400Y19360
X37400Y20360
X38400Y20360
X39400Y20360
X39400Y19360
X38400Y19360
X38400Y18360
X39400Y18360
X39400Y17360
X38400Y17360
X38400Y16360
X39400Y16360
X39400Y15360
X38400Y15360
X38400Y14360
X39400Y14360
X39400Y13360
X38400Y13360
X37400Y13360
X37750Y22730
X36451Y23614
X37750Y25290
X39530Y25290
X39530Y22730
X22650Y31210
X21650Y31210
X20650Y31210
X19650Y31210
X15838Y25741
X8940Y2580
X7160Y2580
X6390Y2580
X4610Y2580
T06
X21131Y3140
X23100Y3140
X25071Y3140
X27040Y3140
X31401Y3140
X33370Y3140
X38410Y7421
X38410Y9390
T07
X38726Y27135
X38726Y30364
T08
X34415Y29260
X29245Y29260
T09
X1150Y2360
X1150Y32360
X39150Y32360
X39150Y2360
M30
