G75*
G70*
%OFA0B0*%
%FSLAX24Y24*%
%IPPOS*%
%LPD*%
%AMOC8*
5,1,8,0,0,1.08239X$1,22.5*
%
%ADD10C,0.0000*%
%ADD11C,0.1290*%
%ADD12C,0.0555*%
%ADD13C,0.0780*%
%ADD14C,0.0640*%
%ADD15C,0.0555*%
%ADD16R,0.0512X0.0158*%
%ADD17R,0.0158X0.0512*%
%ADD18R,0.0510X0.1340*%
%ADD19R,0.0158X0.0552*%
%ADD20R,0.4843X0.2737*%
%ADD21R,0.0827X0.1182*%
%ADD22R,0.0473X0.0434*%
%ADD23R,0.0434X0.0473*%
%ADD24R,0.0780X0.0780*%
%ADD25R,0.0237X0.1024*%
%ADD26R,0.0827X0.1024*%
%ADD27C,0.0394*%
%ADD28R,0.0276X0.0512*%
%ADD29C,0.1350*%
%ADD30R,0.0394X0.1221*%
%ADD31R,0.0512X0.0355*%
%ADD32R,0.0906X0.0276*%
%ADD33R,0.0355X0.0394*%
%ADD34R,0.0355X0.0355*%
%ADD35R,0.0138X0.0316*%
%ADD36R,0.1339X0.0709*%
%ADD37R,0.1142X0.2166*%
%ADD38R,0.0355X0.0512*%
%ADD39R,0.0670X0.0749*%
%ADD40C,0.0740*%
%ADD41R,0.0335X0.0197*%
%ADD42R,0.0540X0.0280*%
%ADD43R,0.0440X0.0280*%
%ADD44R,0.1540X0.0690*%
%ADD45R,0.0280X0.0540*%
%ADD46R,0.0280X0.0440*%
%ADD47R,0.0690X0.1540*%
%ADD48R,0.0276X0.0355*%
%ADD49R,0.0355X0.0276*%
%ADD50R,0.0555X0.0555*%
%ADD51C,0.0631*%
%ADD52R,0.0808X0.0808*%
%ADD53R,0.0375X0.0237*%
%ADD54R,0.0910X0.0280*%
%ADD55R,0.0749X0.0591*%
%ADD56R,0.0591X0.0788*%
%ADD57R,0.0355X0.0631*%
%ADD58R,0.4764X0.4764*%
%ADD59R,0.0906X0.0434*%
%ADD60R,0.0591X0.1221*%
%ADD61R,0.0197X0.0827*%
%ADD62R,0.0237X0.0158*%
%ADD63R,0.0158X0.0237*%
%ADD64R,0.0540X0.0290*%
%ADD65R,0.0536X0.0182*%
D10*
X000150Y001360D02*
X000150Y033360D01*
X040150Y033360D01*
X040150Y001360D01*
X000150Y001360D01*
X000525Y002360D02*
X000527Y002410D01*
X000533Y002459D01*
X000543Y002508D01*
X000556Y002555D01*
X000574Y002602D01*
X000595Y002647D01*
X000619Y002690D01*
X000647Y002731D01*
X000678Y002770D01*
X000712Y002806D01*
X000749Y002840D01*
X000789Y002870D01*
X000830Y002897D01*
X000874Y002921D01*
X000919Y002941D01*
X000966Y002957D01*
X001014Y002970D01*
X001063Y002979D01*
X001113Y002984D01*
X001162Y002985D01*
X001212Y002982D01*
X001261Y002975D01*
X001310Y002964D01*
X001357Y002950D01*
X001403Y002931D01*
X001448Y002909D01*
X001491Y002884D01*
X001531Y002855D01*
X001569Y002823D01*
X001605Y002789D01*
X001638Y002751D01*
X001667Y002711D01*
X001693Y002669D01*
X001716Y002625D01*
X001735Y002579D01*
X001751Y002532D01*
X001763Y002483D01*
X001771Y002434D01*
X001775Y002385D01*
X001775Y002335D01*
X001771Y002286D01*
X001763Y002237D01*
X001751Y002188D01*
X001735Y002141D01*
X001716Y002095D01*
X001693Y002051D01*
X001667Y002009D01*
X001638Y001969D01*
X001605Y001931D01*
X001569Y001897D01*
X001531Y001865D01*
X001491Y001836D01*
X001448Y001811D01*
X001403Y001789D01*
X001357Y001770D01*
X001310Y001756D01*
X001261Y001745D01*
X001212Y001738D01*
X001162Y001735D01*
X001113Y001736D01*
X001063Y001741D01*
X001014Y001750D01*
X000966Y001763D01*
X000919Y001779D01*
X000874Y001799D01*
X000830Y001823D01*
X000789Y001850D01*
X000749Y001880D01*
X000712Y001914D01*
X000678Y001950D01*
X000647Y001989D01*
X000619Y002030D01*
X000595Y002073D01*
X000574Y002118D01*
X000556Y002165D01*
X000543Y002212D01*
X000533Y002261D01*
X000527Y002310D01*
X000525Y002360D01*
X024427Y030960D02*
X024429Y030986D01*
X024435Y031012D01*
X024445Y031037D01*
X024458Y031060D01*
X024474Y031080D01*
X024494Y031098D01*
X024516Y031113D01*
X024539Y031125D01*
X024565Y031133D01*
X024591Y031137D01*
X024617Y031137D01*
X024643Y031133D01*
X024669Y031125D01*
X024693Y031113D01*
X024714Y031098D01*
X024734Y031080D01*
X024750Y031060D01*
X024763Y031037D01*
X024773Y031012D01*
X024779Y030986D01*
X024781Y030960D01*
X024779Y030934D01*
X024773Y030908D01*
X024763Y030883D01*
X024750Y030860D01*
X024734Y030840D01*
X024714Y030822D01*
X024692Y030807D01*
X024669Y030795D01*
X024643Y030787D01*
X024617Y030783D01*
X024591Y030783D01*
X024565Y030787D01*
X024539Y030795D01*
X024515Y030807D01*
X024494Y030822D01*
X024474Y030840D01*
X024458Y030860D01*
X024445Y030883D01*
X024435Y030908D01*
X024429Y030934D01*
X024427Y030960D01*
X026159Y030960D02*
X026161Y030986D01*
X026167Y031012D01*
X026177Y031037D01*
X026190Y031060D01*
X026206Y031080D01*
X026226Y031098D01*
X026248Y031113D01*
X026271Y031125D01*
X026297Y031133D01*
X026323Y031137D01*
X026349Y031137D01*
X026375Y031133D01*
X026401Y031125D01*
X026425Y031113D01*
X026446Y031098D01*
X026466Y031080D01*
X026482Y031060D01*
X026495Y031037D01*
X026505Y031012D01*
X026511Y030986D01*
X026513Y030960D01*
X026511Y030934D01*
X026505Y030908D01*
X026495Y030883D01*
X026482Y030860D01*
X026466Y030840D01*
X026446Y030822D01*
X026424Y030807D01*
X026401Y030795D01*
X026375Y030787D01*
X026349Y030783D01*
X026323Y030783D01*
X026297Y030787D01*
X026271Y030795D01*
X026247Y030807D01*
X026226Y030822D01*
X026206Y030840D01*
X026190Y030860D01*
X026177Y030883D01*
X026167Y030908D01*
X026161Y030934D01*
X026159Y030960D01*
X038431Y030364D02*
X038433Y030398D01*
X038439Y030432D01*
X038449Y030465D01*
X038462Y030496D01*
X038480Y030526D01*
X038500Y030554D01*
X038524Y030579D01*
X038550Y030601D01*
X038578Y030619D01*
X038609Y030635D01*
X038641Y030647D01*
X038675Y030655D01*
X038709Y030659D01*
X038743Y030659D01*
X038777Y030655D01*
X038811Y030647D01*
X038843Y030635D01*
X038873Y030619D01*
X038902Y030601D01*
X038928Y030579D01*
X038952Y030554D01*
X038972Y030526D01*
X038990Y030496D01*
X039003Y030465D01*
X039013Y030432D01*
X039019Y030398D01*
X039021Y030364D01*
X039019Y030330D01*
X039013Y030296D01*
X039003Y030263D01*
X038990Y030232D01*
X038972Y030202D01*
X038952Y030174D01*
X038928Y030149D01*
X038902Y030127D01*
X038874Y030109D01*
X038843Y030093D01*
X038811Y030081D01*
X038777Y030073D01*
X038743Y030069D01*
X038709Y030069D01*
X038675Y030073D01*
X038641Y030081D01*
X038609Y030093D01*
X038578Y030109D01*
X038550Y030127D01*
X038524Y030149D01*
X038500Y030174D01*
X038480Y030202D01*
X038462Y030232D01*
X038449Y030263D01*
X038439Y030296D01*
X038433Y030330D01*
X038431Y030364D01*
X038525Y032360D02*
X038527Y032410D01*
X038533Y032459D01*
X038543Y032508D01*
X038556Y032555D01*
X038574Y032602D01*
X038595Y032647D01*
X038619Y032690D01*
X038647Y032731D01*
X038678Y032770D01*
X038712Y032806D01*
X038749Y032840D01*
X038789Y032870D01*
X038830Y032897D01*
X038874Y032921D01*
X038919Y032941D01*
X038966Y032957D01*
X039014Y032970D01*
X039063Y032979D01*
X039113Y032984D01*
X039162Y032985D01*
X039212Y032982D01*
X039261Y032975D01*
X039310Y032964D01*
X039357Y032950D01*
X039403Y032931D01*
X039448Y032909D01*
X039491Y032884D01*
X039531Y032855D01*
X039569Y032823D01*
X039605Y032789D01*
X039638Y032751D01*
X039667Y032711D01*
X039693Y032669D01*
X039716Y032625D01*
X039735Y032579D01*
X039751Y032532D01*
X039763Y032483D01*
X039771Y032434D01*
X039775Y032385D01*
X039775Y032335D01*
X039771Y032286D01*
X039763Y032237D01*
X039751Y032188D01*
X039735Y032141D01*
X039716Y032095D01*
X039693Y032051D01*
X039667Y032009D01*
X039638Y031969D01*
X039605Y031931D01*
X039569Y031897D01*
X039531Y031865D01*
X039491Y031836D01*
X039448Y031811D01*
X039403Y031789D01*
X039357Y031770D01*
X039310Y031756D01*
X039261Y031745D01*
X039212Y031738D01*
X039162Y031735D01*
X039113Y031736D01*
X039063Y031741D01*
X039014Y031750D01*
X038966Y031763D01*
X038919Y031779D01*
X038874Y031799D01*
X038830Y031823D01*
X038789Y031850D01*
X038749Y031880D01*
X038712Y031914D01*
X038678Y031950D01*
X038647Y031989D01*
X038619Y032030D01*
X038595Y032073D01*
X038574Y032118D01*
X038556Y032165D01*
X038543Y032212D01*
X038533Y032261D01*
X038527Y032310D01*
X038525Y032360D01*
X038431Y027135D02*
X038433Y027169D01*
X038439Y027203D01*
X038449Y027236D01*
X038462Y027267D01*
X038480Y027297D01*
X038500Y027325D01*
X038524Y027350D01*
X038550Y027372D01*
X038578Y027390D01*
X038609Y027406D01*
X038641Y027418D01*
X038675Y027426D01*
X038709Y027430D01*
X038743Y027430D01*
X038777Y027426D01*
X038811Y027418D01*
X038843Y027406D01*
X038873Y027390D01*
X038902Y027372D01*
X038928Y027350D01*
X038952Y027325D01*
X038972Y027297D01*
X038990Y027267D01*
X039003Y027236D01*
X039013Y027203D01*
X039019Y027169D01*
X039021Y027135D01*
X039019Y027101D01*
X039013Y027067D01*
X039003Y027034D01*
X038990Y027003D01*
X038972Y026973D01*
X038952Y026945D01*
X038928Y026920D01*
X038902Y026898D01*
X038874Y026880D01*
X038843Y026864D01*
X038811Y026852D01*
X038777Y026844D01*
X038743Y026840D01*
X038709Y026840D01*
X038675Y026844D01*
X038641Y026852D01*
X038609Y026864D01*
X038578Y026880D01*
X038550Y026898D01*
X038524Y026920D01*
X038500Y026945D01*
X038480Y026973D01*
X038462Y027003D01*
X038449Y027034D01*
X038439Y027067D01*
X038433Y027101D01*
X038431Y027135D01*
X038525Y002360D02*
X038527Y002410D01*
X038533Y002459D01*
X038543Y002508D01*
X038556Y002555D01*
X038574Y002602D01*
X038595Y002647D01*
X038619Y002690D01*
X038647Y002731D01*
X038678Y002770D01*
X038712Y002806D01*
X038749Y002840D01*
X038789Y002870D01*
X038830Y002897D01*
X038874Y002921D01*
X038919Y002941D01*
X038966Y002957D01*
X039014Y002970D01*
X039063Y002979D01*
X039113Y002984D01*
X039162Y002985D01*
X039212Y002982D01*
X039261Y002975D01*
X039310Y002964D01*
X039357Y002950D01*
X039403Y002931D01*
X039448Y002909D01*
X039491Y002884D01*
X039531Y002855D01*
X039569Y002823D01*
X039605Y002789D01*
X039638Y002751D01*
X039667Y002711D01*
X039693Y002669D01*
X039716Y002625D01*
X039735Y002579D01*
X039751Y002532D01*
X039763Y002483D01*
X039771Y002434D01*
X039775Y002385D01*
X039775Y002335D01*
X039771Y002286D01*
X039763Y002237D01*
X039751Y002188D01*
X039735Y002141D01*
X039716Y002095D01*
X039693Y002051D01*
X039667Y002009D01*
X039638Y001969D01*
X039605Y001931D01*
X039569Y001897D01*
X039531Y001865D01*
X039491Y001836D01*
X039448Y001811D01*
X039403Y001789D01*
X039357Y001770D01*
X039310Y001756D01*
X039261Y001745D01*
X039212Y001738D01*
X039162Y001735D01*
X039113Y001736D01*
X039063Y001741D01*
X039014Y001750D01*
X038966Y001763D01*
X038919Y001779D01*
X038874Y001799D01*
X038830Y001823D01*
X038789Y001850D01*
X038749Y001880D01*
X038712Y001914D01*
X038678Y001950D01*
X038647Y001989D01*
X038619Y002030D01*
X038595Y002073D01*
X038574Y002118D01*
X038556Y002165D01*
X038543Y002212D01*
X038533Y002261D01*
X038527Y002310D01*
X038525Y002360D01*
X000525Y032360D02*
X000527Y032410D01*
X000533Y032459D01*
X000543Y032508D01*
X000556Y032555D01*
X000574Y032602D01*
X000595Y032647D01*
X000619Y032690D01*
X000647Y032731D01*
X000678Y032770D01*
X000712Y032806D01*
X000749Y032840D01*
X000789Y032870D01*
X000830Y032897D01*
X000874Y032921D01*
X000919Y032941D01*
X000966Y032957D01*
X001014Y032970D01*
X001063Y032979D01*
X001113Y032984D01*
X001162Y032985D01*
X001212Y032982D01*
X001261Y032975D01*
X001310Y032964D01*
X001357Y032950D01*
X001403Y032931D01*
X001448Y032909D01*
X001491Y032884D01*
X001531Y032855D01*
X001569Y032823D01*
X001605Y032789D01*
X001638Y032751D01*
X001667Y032711D01*
X001693Y032669D01*
X001716Y032625D01*
X001735Y032579D01*
X001751Y032532D01*
X001763Y032483D01*
X001771Y032434D01*
X001775Y032385D01*
X001775Y032335D01*
X001771Y032286D01*
X001763Y032237D01*
X001751Y032188D01*
X001735Y032141D01*
X001716Y032095D01*
X001693Y032051D01*
X001667Y032009D01*
X001638Y031969D01*
X001605Y031931D01*
X001569Y031897D01*
X001531Y031865D01*
X001491Y031836D01*
X001448Y031811D01*
X001403Y031789D01*
X001357Y031770D01*
X001310Y031756D01*
X001261Y031745D01*
X001212Y031738D01*
X001162Y031735D01*
X001113Y031736D01*
X001063Y031741D01*
X001014Y031750D01*
X000966Y031763D01*
X000919Y031779D01*
X000874Y031799D01*
X000830Y031823D01*
X000789Y031850D01*
X000749Y031880D01*
X000712Y031914D01*
X000678Y031950D01*
X000647Y031989D01*
X000619Y032030D01*
X000595Y032073D01*
X000574Y032118D01*
X000556Y032165D01*
X000543Y032212D01*
X000533Y032261D01*
X000527Y032310D01*
X000525Y032360D01*
D11*
X001150Y032360D03*
X001150Y002360D03*
X039150Y002360D03*
X039150Y032360D03*
D12*
X019181Y009103D03*
X019181Y008316D03*
X019181Y007528D03*
X019181Y006741D03*
X019181Y005953D03*
X019181Y005166D03*
X019181Y004379D03*
X019181Y003591D03*
X019181Y002804D03*
X019181Y002016D03*
X010519Y002016D03*
X010519Y002804D03*
X010519Y003591D03*
X010519Y004379D03*
X010519Y005166D03*
X010519Y005953D03*
X010519Y006741D03*
X010519Y007528D03*
X010519Y008316D03*
X010519Y009103D03*
D13*
X008420Y009160D03*
X007420Y009160D03*
X007420Y010160D03*
X008420Y010160D03*
X008420Y008160D03*
X007420Y008160D03*
X002900Y008500D03*
X002900Y009500D03*
X002900Y010500D03*
X002900Y011500D03*
X001900Y011500D03*
X000900Y011500D03*
X000900Y010500D03*
X001900Y010500D03*
X001900Y009500D03*
X000900Y009500D03*
X000900Y008500D03*
X001900Y008500D03*
X001900Y007500D03*
X000900Y007500D03*
X000900Y006500D03*
X001900Y006500D03*
X002900Y006500D03*
X002900Y007500D03*
X002900Y005500D03*
X001900Y005500D03*
X000900Y005500D03*
X008670Y013120D03*
X009670Y013120D03*
X010670Y013120D03*
X011670Y013120D03*
X012670Y013120D03*
X013670Y013120D03*
X013700Y014980D03*
X012700Y014980D03*
X011700Y014980D03*
X010700Y014980D03*
X009700Y014980D03*
X008700Y014980D03*
X007100Y015470D03*
X007100Y014470D03*
X007100Y013470D03*
X002900Y014560D03*
X001900Y014560D03*
X000900Y014560D03*
X000900Y016160D03*
X001900Y016160D03*
X001900Y017160D03*
X000900Y017160D03*
X000900Y018160D03*
X001900Y018160D03*
X001900Y019160D03*
X000900Y019160D03*
X000900Y020160D03*
X001900Y020160D03*
X001900Y021160D03*
X001900Y022160D03*
X000900Y022160D03*
X000900Y021160D03*
X000900Y023160D03*
X001900Y023160D03*
X001900Y024160D03*
X000900Y024160D03*
X000900Y025160D03*
X001900Y025160D03*
X001900Y026160D03*
X000900Y026160D03*
X000900Y027160D03*
X001900Y027160D03*
X001900Y028160D03*
X000900Y028160D03*
X000900Y029160D03*
X001900Y029160D03*
X001900Y030160D03*
X000900Y030160D03*
X002900Y030160D03*
X002900Y029160D03*
X002900Y028160D03*
X002900Y027160D03*
X002900Y026160D03*
X002900Y025160D03*
X002900Y024160D03*
X002900Y023160D03*
X002900Y022160D03*
X002900Y021160D03*
X002900Y020160D03*
X002900Y019160D03*
X002900Y018160D03*
X002900Y017160D03*
X002900Y016160D03*
X016450Y016360D03*
X016450Y017360D03*
X016450Y018360D03*
X017650Y018360D03*
X017650Y017360D03*
X017650Y016360D03*
X020650Y031210D03*
X021650Y031210D03*
X022650Y031210D03*
X037400Y019360D03*
X038400Y019360D03*
X039400Y019360D03*
X039400Y018360D03*
X038400Y018360D03*
X037400Y018360D03*
X037400Y017360D03*
X038400Y017360D03*
X039400Y017360D03*
X039400Y016360D03*
X038400Y016360D03*
X037400Y016360D03*
X037400Y015360D03*
X038400Y015360D03*
X039400Y015360D03*
X039400Y014360D03*
X038400Y014360D03*
X037400Y014360D03*
X037400Y013360D03*
X038400Y013360D03*
X039400Y013360D03*
D14*
X039530Y022430D02*
X039530Y023030D01*
X037750Y023030D02*
X037750Y022430D01*
X037750Y024990D02*
X037750Y025590D01*
X039530Y025590D02*
X039530Y024990D01*
X008940Y005440D02*
X008940Y004840D01*
X007160Y004840D02*
X007160Y005440D01*
X006390Y005440D02*
X006390Y004840D01*
X004610Y004840D02*
X004610Y005440D01*
X004610Y002880D02*
X004610Y002280D01*
X006390Y002280D02*
X006390Y002880D01*
X007160Y002880D02*
X007160Y002280D01*
X008940Y002280D02*
X008940Y002880D01*
D15*
X008650Y031952D02*
X008650Y032467D01*
X009650Y032467D02*
X009650Y031952D01*
X010650Y031952D02*
X010650Y032467D01*
X011650Y032467D02*
X011650Y031952D01*
X012650Y031952D02*
X012650Y032467D01*
X013650Y032467D02*
X013650Y031952D01*
X014650Y031952D02*
X014650Y032467D01*
X015650Y032467D02*
X015650Y031952D01*
X016650Y031952D02*
X016650Y032467D01*
X017650Y032467D02*
X017650Y031952D01*
X018650Y031952D02*
X018650Y032467D01*
X019650Y032467D02*
X019650Y031952D01*
X020650Y031952D02*
X020650Y032467D01*
X021650Y032467D02*
X021650Y031952D01*
X022650Y031952D02*
X022650Y032467D01*
X007650Y032467D02*
X007650Y031952D01*
D16*
X007150Y025022D03*
X007150Y024825D03*
X007150Y024628D03*
X007150Y024431D03*
X007150Y024234D03*
X007150Y024038D03*
X007150Y023841D03*
X007150Y023644D03*
X007150Y023447D03*
X007150Y023250D03*
X007150Y023053D03*
X007150Y022856D03*
X007150Y022660D03*
X007150Y022463D03*
X007150Y022266D03*
X007150Y022069D03*
X007150Y021872D03*
X007150Y021675D03*
X007150Y021479D03*
X007150Y021282D03*
X007150Y021085D03*
X007150Y020888D03*
X007150Y020691D03*
X007150Y020494D03*
X007150Y020297D03*
X013450Y020297D03*
X013450Y020494D03*
X013450Y020691D03*
X013450Y020888D03*
X013450Y021085D03*
X013450Y021282D03*
X013450Y021479D03*
X013450Y021675D03*
X013450Y021872D03*
X013450Y022069D03*
X013450Y022266D03*
X013450Y022463D03*
X013450Y022660D03*
X013450Y022856D03*
X013450Y023053D03*
X013450Y023250D03*
X013450Y023447D03*
X013450Y023644D03*
X013450Y023841D03*
X013450Y024038D03*
X013450Y024234D03*
X013450Y024431D03*
X013450Y024628D03*
X013450Y024825D03*
X013450Y025022D03*
D17*
X012662Y025809D03*
X012465Y025809D03*
X012269Y025809D03*
X012072Y025809D03*
X011875Y025809D03*
X011678Y025809D03*
X011481Y025809D03*
X011284Y025809D03*
X011087Y025809D03*
X010891Y025809D03*
X010694Y025809D03*
X010497Y025809D03*
X010300Y025809D03*
X010103Y025809D03*
X009906Y025809D03*
X009709Y025809D03*
X009513Y025809D03*
X009316Y025809D03*
X009119Y025809D03*
X008922Y025809D03*
X008725Y025809D03*
X008528Y025809D03*
X008331Y025809D03*
X008135Y025809D03*
X007938Y025809D03*
X007938Y019510D03*
X008135Y019510D03*
X008331Y019510D03*
X008528Y019510D03*
X008725Y019510D03*
X008922Y019510D03*
X009119Y019510D03*
X009316Y019510D03*
X009513Y019510D03*
X009709Y019510D03*
X009906Y019510D03*
X010103Y019510D03*
X010300Y019510D03*
X010497Y019510D03*
X010694Y019510D03*
X010891Y019510D03*
X011087Y019510D03*
X011284Y019510D03*
X011481Y019510D03*
X011678Y019510D03*
X011875Y019510D03*
X012072Y019510D03*
X012269Y019510D03*
X012465Y019510D03*
X012662Y019510D03*
D18*
X005440Y030910D03*
X004440Y032610D03*
X006440Y032610D03*
D19*
X022133Y011857D03*
X022389Y011857D03*
X022645Y011857D03*
X022901Y011857D03*
X023157Y011857D03*
X023413Y011857D03*
X023669Y011857D03*
X023924Y011857D03*
X024180Y011857D03*
X024436Y011857D03*
X024692Y011857D03*
X024948Y011857D03*
X025204Y011857D03*
X025460Y011857D03*
X025716Y011857D03*
X025972Y011857D03*
X026228Y011857D03*
X026484Y011857D03*
X026739Y011857D03*
X026995Y011857D03*
X027251Y011857D03*
X027507Y011857D03*
X027507Y006483D03*
X027251Y006483D03*
X026995Y006483D03*
X026739Y006483D03*
X026484Y006483D03*
X026228Y006483D03*
X025972Y006483D03*
X025716Y006483D03*
X025460Y006483D03*
X025204Y006483D03*
X024948Y006483D03*
X024692Y006483D03*
X024436Y006483D03*
X024180Y006483D03*
X023924Y006483D03*
X023669Y006483D03*
X023413Y006483D03*
X023157Y006483D03*
X022901Y006483D03*
X022645Y006483D03*
X022389Y006483D03*
X022133Y006483D03*
D20*
X024830Y009180D03*
D21*
X022035Y009180D03*
X027625Y009180D03*
D22*
X029851Y011611D03*
X030521Y011611D03*
X030455Y012410D03*
X029785Y012410D03*
X026465Y013220D03*
X025795Y013220D03*
X025135Y013210D03*
X024465Y013210D03*
X025137Y014022D03*
X025807Y014022D03*
X028735Y015910D03*
X029405Y015910D03*
X030525Y015880D03*
X031195Y015880D03*
X032915Y009900D03*
X033585Y009900D03*
X033545Y008570D03*
X032875Y008570D03*
X029035Y006350D03*
X028365Y006350D03*
X028205Y005400D03*
X027535Y005400D03*
X021005Y005510D03*
X020335Y005510D03*
X020365Y008650D03*
X021035Y008650D03*
X021115Y009550D03*
X020445Y009550D03*
X018125Y011090D03*
X017455Y011090D03*
X011955Y006870D03*
X011285Y006870D03*
X011275Y005780D03*
X011945Y005780D03*
X011945Y004860D03*
X011275Y004860D03*
X005895Y006340D03*
X005225Y006340D03*
X013824Y018101D03*
X014494Y018101D03*
X014385Y019728D03*
X013715Y019728D03*
X017525Y019580D03*
X018195Y019580D03*
X014966Y024911D03*
X014296Y024911D03*
X013971Y025753D03*
X014641Y025753D03*
X015615Y026700D03*
X016285Y026700D03*
X016189Y027536D03*
X016859Y027536D03*
X016859Y028334D03*
X016189Y028334D03*
X017961Y027895D03*
X018631Y027895D03*
X021054Y029495D03*
X021724Y029495D03*
X018769Y030785D03*
X018099Y030785D03*
X025835Y026364D03*
X026505Y026364D03*
X027511Y025621D03*
X028181Y025621D03*
X028895Y025760D03*
X029565Y025760D03*
X029575Y024910D03*
X028905Y024910D03*
X028819Y023291D03*
X029489Y023291D03*
X030661Y024933D03*
X031331Y024933D03*
X029555Y026600D03*
X028885Y026600D03*
X006910Y026388D03*
X006240Y026388D03*
X005796Y019690D03*
X005126Y019690D03*
X005126Y018895D03*
X005796Y018895D03*
X035045Y002970D03*
X035715Y002970D03*
X036475Y003100D03*
X037145Y003100D03*
X037145Y002220D03*
X036475Y002220D03*
X035715Y002140D03*
X035045Y002140D03*
X038355Y005840D03*
X039025Y005840D03*
D23*
X039230Y005004D03*
X039230Y004335D03*
X038420Y004325D03*
X038420Y004994D03*
X034980Y005925D03*
X034980Y006594D03*
X034090Y006204D03*
X034090Y005535D03*
X029220Y004064D03*
X029220Y003395D03*
X021110Y010295D03*
X021110Y010964D03*
X020900Y007484D03*
X020900Y006815D03*
X019990Y006815D03*
X019990Y007484D03*
X028370Y010485D03*
X028370Y011154D03*
X029170Y011144D03*
X029170Y010475D03*
X030320Y013075D03*
X030320Y013744D03*
X038820Y012314D03*
X038820Y011645D03*
X039615Y011645D03*
X039615Y012314D03*
X035770Y024315D03*
X035770Y024984D03*
X034960Y025004D03*
X034960Y024335D03*
X033164Y025496D03*
X033164Y026165D03*
X030226Y026266D03*
X030226Y025597D03*
X026820Y027845D03*
X026820Y028514D03*
X024479Y027264D03*
X024479Y026595D03*
X023700Y027825D03*
X023700Y028494D03*
X022753Y027224D03*
X022753Y026555D03*
X019967Y027768D03*
X019967Y028437D03*
X020002Y029473D03*
X020002Y030142D03*
X013660Y027144D03*
X013660Y026475D03*
X006282Y023265D03*
X006282Y022596D03*
X007822Y018609D03*
X007822Y017940D03*
X006460Y009294D03*
X006460Y008625D03*
X005660Y008625D03*
X005660Y009294D03*
X011581Y003852D03*
X011581Y003183D03*
X020382Y019530D03*
X020382Y020199D03*
X005920Y029225D03*
X005920Y029894D03*
X005020Y029124D03*
X005020Y028455D03*
D24*
X019650Y031210D03*
X037400Y020360D03*
X038400Y020360D03*
X039400Y020360D03*
X017650Y015360D03*
X016450Y015360D03*
X007100Y012470D03*
X007420Y007160D03*
X008420Y007160D03*
X002900Y004500D03*
X001900Y004500D03*
X000900Y004500D03*
D25*
X024840Y029975D03*
X025155Y029975D03*
X025470Y029975D03*
X025785Y029975D03*
X026100Y029975D03*
D26*
X027242Y029975D03*
X027242Y032141D03*
X023698Y032141D03*
X023698Y029975D03*
D27*
X024604Y030960D03*
X026336Y030960D03*
D28*
X025994Y028253D03*
X025620Y028253D03*
X025246Y028253D03*
X025246Y027347D03*
X025620Y027347D03*
X025994Y027347D03*
X031459Y026683D03*
X031833Y026683D03*
X032207Y026683D03*
X032207Y025777D03*
X031833Y025777D03*
X031459Y025777D03*
D29*
X029245Y029260D03*
X034415Y029260D03*
D30*
X033208Y027901D03*
X032224Y027901D03*
X031436Y027901D03*
X030452Y027901D03*
D31*
X027600Y027805D03*
X027600Y028514D03*
X031347Y024280D03*
X031347Y023571D03*
X026020Y017464D03*
X026020Y016755D03*
D32*
X034936Y005250D03*
X034936Y004750D03*
X034936Y004250D03*
X034936Y003750D03*
X036984Y003750D03*
X036984Y004250D03*
X036984Y004750D03*
X036984Y005250D03*
D33*
X034764Y025906D03*
X034016Y025906D03*
X034390Y026733D03*
X015034Y027166D03*
X014286Y027166D03*
X014660Y027993D03*
D34*
X028810Y014705D03*
X029400Y014705D03*
X029403Y013238D03*
X028813Y013238D03*
X020145Y011180D03*
X019555Y011180D03*
X029230Y005545D03*
X029230Y004954D03*
X009235Y006180D03*
X008645Y006180D03*
D35*
X030989Y012699D03*
X031186Y012699D03*
X031383Y012699D03*
X031580Y012699D03*
X031777Y012699D03*
X031974Y012699D03*
X032171Y012699D03*
X032171Y013840D03*
X031974Y013840D03*
X031777Y013840D03*
X031580Y013840D03*
X031383Y013840D03*
X031186Y013840D03*
X030989Y013840D03*
D36*
X031580Y013270D03*
D37*
X032250Y018860D03*
X028392Y018860D03*
D38*
X027234Y019180D03*
X027234Y018530D03*
X027234Y017910D03*
X026526Y017910D03*
X026526Y018530D03*
X026526Y019180D03*
X025954Y019160D03*
X025246Y019160D03*
X026516Y019890D03*
X027224Y019890D03*
X030466Y014850D03*
X031174Y014850D03*
D39*
X032109Y011690D03*
X032109Y010850D03*
X033211Y010850D03*
X033211Y011690D03*
X030951Y008500D03*
X029849Y008500D03*
X037959Y010980D03*
X039061Y010980D03*
X033224Y023258D03*
X032122Y023258D03*
D40*
X011210Y028800D03*
X008650Y028800D03*
D41*
X035615Y006566D03*
X035615Y006310D03*
X035615Y006054D03*
X036265Y006054D03*
X036265Y006566D03*
D42*
X033000Y006540D03*
X033000Y007040D03*
X033000Y007540D03*
X033000Y006040D03*
D43*
X030850Y006040D03*
X030850Y006540D03*
X030850Y007040D03*
X030850Y007540D03*
D44*
X031680Y007245D03*
X031680Y006335D03*
D45*
X034570Y010430D03*
X035070Y010430D03*
X035570Y010430D03*
X036070Y010430D03*
D46*
X036070Y008280D03*
X035570Y008280D03*
X035070Y008280D03*
X034570Y008280D03*
D47*
X034865Y009110D03*
X035775Y009110D03*
D48*
X033550Y009270D03*
X032881Y009270D03*
D49*
X033750Y008039D03*
X033750Y007370D03*
D50*
X038710Y027962D03*
X038710Y028750D03*
X038710Y029537D03*
D51*
X038726Y030364D03*
X038726Y027135D03*
D52*
X038410Y009390D03*
X038410Y007421D03*
X033370Y003140D03*
X031401Y003140D03*
X027040Y003140D03*
X025071Y003140D03*
X023100Y003140D03*
X021131Y003140D03*
D53*
X021796Y005213D03*
X021796Y005606D03*
X022484Y005606D03*
X022484Y005213D03*
X026076Y005163D03*
X026076Y005556D03*
X026764Y005556D03*
X026764Y005163D03*
D54*
X032230Y014480D03*
X032230Y014980D03*
X032230Y015480D03*
X032230Y015980D03*
X034290Y015980D03*
X034290Y015480D03*
X034290Y014980D03*
X034290Y014480D03*
D55*
X015501Y008132D03*
X013257Y008132D03*
D56*
X012627Y002955D03*
X017804Y002561D03*
D57*
X015970Y004077D03*
X015537Y004234D03*
X015104Y004077D03*
X014670Y003998D03*
X014237Y004077D03*
X013804Y003998D03*
X013371Y004077D03*
X012938Y004077D03*
D58*
X021420Y016130D03*
D59*
X024747Y016130D03*
X024747Y016799D03*
X024747Y017468D03*
X024747Y015460D03*
X024747Y014791D03*
D60*
X022021Y020156D03*
X022021Y022045D03*
D61*
X005773Y025781D03*
X005301Y025781D03*
X004829Y025781D03*
D62*
X017333Y028779D03*
X017333Y028976D03*
X017333Y029173D03*
X017333Y029370D03*
X017333Y029567D03*
X017333Y029764D03*
X019223Y029764D03*
X019223Y029567D03*
X019223Y029370D03*
X019223Y029173D03*
X019223Y028976D03*
X019223Y028779D03*
D63*
X018967Y028524D03*
X018770Y028524D03*
X018573Y028524D03*
X018376Y028524D03*
X018180Y028524D03*
X017983Y028524D03*
X017786Y028524D03*
X017589Y028524D03*
X017589Y030020D03*
X017786Y030020D03*
X017983Y030020D03*
X018180Y030020D03*
X018376Y030020D03*
X018573Y030020D03*
X018770Y030020D03*
X018967Y030020D03*
D64*
X024825Y025399D03*
X024825Y024899D03*
X024825Y024399D03*
X024825Y023899D03*
X026725Y023899D03*
X026725Y024399D03*
X026725Y024899D03*
X026725Y025399D03*
D65*
X015947Y029246D03*
X015947Y029502D03*
X015947Y029758D03*
X015947Y030014D03*
X015947Y030270D03*
X015947Y030525D03*
X015947Y030781D03*
X013663Y030781D03*
X013663Y030525D03*
X013663Y030270D03*
X013663Y030014D03*
X013663Y029758D03*
X013663Y029502D03*
X013663Y029246D03*
M02*
