G75*
G70*
%OFA0B0*%
%FSLAX24Y24*%
%IPPOS*%
%LPD*%
%AMOC8*
5,1,8,0,0,1.08239X$1,22.5*
%
%ADD10C,0.0000*%
D10*
X000150Y001360D02*
X000150Y033360D01*
X040150Y033360D01*
X040150Y001360D01*
X000150Y001360D01*
X000525Y002360D02*
X000527Y002410D01*
X000533Y002459D01*
X000543Y002508D01*
X000556Y002555D01*
X000574Y002602D01*
X000595Y002647D01*
X000619Y002690D01*
X000647Y002731D01*
X000678Y002770D01*
X000712Y002806D01*
X000749Y002840D01*
X000789Y002870D01*
X000830Y002897D01*
X000874Y002921D01*
X000919Y002941D01*
X000966Y002957D01*
X001014Y002970D01*
X001063Y002979D01*
X001113Y002984D01*
X001162Y002985D01*
X001212Y002982D01*
X001261Y002975D01*
X001310Y002964D01*
X001357Y002950D01*
X001403Y002931D01*
X001448Y002909D01*
X001491Y002884D01*
X001531Y002855D01*
X001569Y002823D01*
X001605Y002789D01*
X001638Y002751D01*
X001667Y002711D01*
X001693Y002669D01*
X001716Y002625D01*
X001735Y002579D01*
X001751Y002532D01*
X001763Y002483D01*
X001771Y002434D01*
X001775Y002385D01*
X001775Y002335D01*
X001771Y002286D01*
X001763Y002237D01*
X001751Y002188D01*
X001735Y002141D01*
X001716Y002095D01*
X001693Y002051D01*
X001667Y002009D01*
X001638Y001969D01*
X001605Y001931D01*
X001569Y001897D01*
X001531Y001865D01*
X001491Y001836D01*
X001448Y001811D01*
X001403Y001789D01*
X001357Y001770D01*
X001310Y001756D01*
X001261Y001745D01*
X001212Y001738D01*
X001162Y001735D01*
X001113Y001736D01*
X001063Y001741D01*
X001014Y001750D01*
X000966Y001763D01*
X000919Y001779D01*
X000874Y001799D01*
X000830Y001823D01*
X000789Y001850D01*
X000749Y001880D01*
X000712Y001914D01*
X000678Y001950D01*
X000647Y001989D01*
X000619Y002030D01*
X000595Y002073D01*
X000574Y002118D01*
X000556Y002165D01*
X000543Y002212D01*
X000533Y002261D01*
X000527Y002310D01*
X000525Y002360D01*
X024427Y030960D02*
X024429Y030986D01*
X024435Y031012D01*
X024445Y031037D01*
X024458Y031060D01*
X024474Y031080D01*
X024494Y031098D01*
X024516Y031113D01*
X024539Y031125D01*
X024565Y031133D01*
X024591Y031137D01*
X024617Y031137D01*
X024643Y031133D01*
X024669Y031125D01*
X024693Y031113D01*
X024714Y031098D01*
X024734Y031080D01*
X024750Y031060D01*
X024763Y031037D01*
X024773Y031012D01*
X024779Y030986D01*
X024781Y030960D01*
X024779Y030934D01*
X024773Y030908D01*
X024763Y030883D01*
X024750Y030860D01*
X024734Y030840D01*
X024714Y030822D01*
X024692Y030807D01*
X024669Y030795D01*
X024643Y030787D01*
X024617Y030783D01*
X024591Y030783D01*
X024565Y030787D01*
X024539Y030795D01*
X024515Y030807D01*
X024494Y030822D01*
X024474Y030840D01*
X024458Y030860D01*
X024445Y030883D01*
X024435Y030908D01*
X024429Y030934D01*
X024427Y030960D01*
X026159Y030960D02*
X026161Y030986D01*
X026167Y031012D01*
X026177Y031037D01*
X026190Y031060D01*
X026206Y031080D01*
X026226Y031098D01*
X026248Y031113D01*
X026271Y031125D01*
X026297Y031133D01*
X026323Y031137D01*
X026349Y031137D01*
X026375Y031133D01*
X026401Y031125D01*
X026425Y031113D01*
X026446Y031098D01*
X026466Y031080D01*
X026482Y031060D01*
X026495Y031037D01*
X026505Y031012D01*
X026511Y030986D01*
X026513Y030960D01*
X026511Y030934D01*
X026505Y030908D01*
X026495Y030883D01*
X026482Y030860D01*
X026466Y030840D01*
X026446Y030822D01*
X026424Y030807D01*
X026401Y030795D01*
X026375Y030787D01*
X026349Y030783D01*
X026323Y030783D01*
X026297Y030787D01*
X026271Y030795D01*
X026247Y030807D01*
X026226Y030822D01*
X026206Y030840D01*
X026190Y030860D01*
X026177Y030883D01*
X026167Y030908D01*
X026161Y030934D01*
X026159Y030960D01*
X038431Y030364D02*
X038433Y030398D01*
X038439Y030432D01*
X038449Y030465D01*
X038462Y030496D01*
X038480Y030526D01*
X038500Y030554D01*
X038524Y030579D01*
X038550Y030601D01*
X038578Y030619D01*
X038609Y030635D01*
X038641Y030647D01*
X038675Y030655D01*
X038709Y030659D01*
X038743Y030659D01*
X038777Y030655D01*
X038811Y030647D01*
X038843Y030635D01*
X038873Y030619D01*
X038902Y030601D01*
X038928Y030579D01*
X038952Y030554D01*
X038972Y030526D01*
X038990Y030496D01*
X039003Y030465D01*
X039013Y030432D01*
X039019Y030398D01*
X039021Y030364D01*
X039019Y030330D01*
X039013Y030296D01*
X039003Y030263D01*
X038990Y030232D01*
X038972Y030202D01*
X038952Y030174D01*
X038928Y030149D01*
X038902Y030127D01*
X038874Y030109D01*
X038843Y030093D01*
X038811Y030081D01*
X038777Y030073D01*
X038743Y030069D01*
X038709Y030069D01*
X038675Y030073D01*
X038641Y030081D01*
X038609Y030093D01*
X038578Y030109D01*
X038550Y030127D01*
X038524Y030149D01*
X038500Y030174D01*
X038480Y030202D01*
X038462Y030232D01*
X038449Y030263D01*
X038439Y030296D01*
X038433Y030330D01*
X038431Y030364D01*
X038525Y032360D02*
X038527Y032410D01*
X038533Y032459D01*
X038543Y032508D01*
X038556Y032555D01*
X038574Y032602D01*
X038595Y032647D01*
X038619Y032690D01*
X038647Y032731D01*
X038678Y032770D01*
X038712Y032806D01*
X038749Y032840D01*
X038789Y032870D01*
X038830Y032897D01*
X038874Y032921D01*
X038919Y032941D01*
X038966Y032957D01*
X039014Y032970D01*
X039063Y032979D01*
X039113Y032984D01*
X039162Y032985D01*
X039212Y032982D01*
X039261Y032975D01*
X039310Y032964D01*
X039357Y032950D01*
X039403Y032931D01*
X039448Y032909D01*
X039491Y032884D01*
X039531Y032855D01*
X039569Y032823D01*
X039605Y032789D01*
X039638Y032751D01*
X039667Y032711D01*
X039693Y032669D01*
X039716Y032625D01*
X039735Y032579D01*
X039751Y032532D01*
X039763Y032483D01*
X039771Y032434D01*
X039775Y032385D01*
X039775Y032335D01*
X039771Y032286D01*
X039763Y032237D01*
X039751Y032188D01*
X039735Y032141D01*
X039716Y032095D01*
X039693Y032051D01*
X039667Y032009D01*
X039638Y031969D01*
X039605Y031931D01*
X039569Y031897D01*
X039531Y031865D01*
X039491Y031836D01*
X039448Y031811D01*
X039403Y031789D01*
X039357Y031770D01*
X039310Y031756D01*
X039261Y031745D01*
X039212Y031738D01*
X039162Y031735D01*
X039113Y031736D01*
X039063Y031741D01*
X039014Y031750D01*
X038966Y031763D01*
X038919Y031779D01*
X038874Y031799D01*
X038830Y031823D01*
X038789Y031850D01*
X038749Y031880D01*
X038712Y031914D01*
X038678Y031950D01*
X038647Y031989D01*
X038619Y032030D01*
X038595Y032073D01*
X038574Y032118D01*
X038556Y032165D01*
X038543Y032212D01*
X038533Y032261D01*
X038527Y032310D01*
X038525Y032360D01*
X038431Y027135D02*
X038433Y027169D01*
X038439Y027203D01*
X038449Y027236D01*
X038462Y027267D01*
X038480Y027297D01*
X038500Y027325D01*
X038524Y027350D01*
X038550Y027372D01*
X038578Y027390D01*
X038609Y027406D01*
X038641Y027418D01*
X038675Y027426D01*
X038709Y027430D01*
X038743Y027430D01*
X038777Y027426D01*
X038811Y027418D01*
X038843Y027406D01*
X038873Y027390D01*
X038902Y027372D01*
X038928Y027350D01*
X038952Y027325D01*
X038972Y027297D01*
X038990Y027267D01*
X039003Y027236D01*
X039013Y027203D01*
X039019Y027169D01*
X039021Y027135D01*
X039019Y027101D01*
X039013Y027067D01*
X039003Y027034D01*
X038990Y027003D01*
X038972Y026973D01*
X038952Y026945D01*
X038928Y026920D01*
X038902Y026898D01*
X038874Y026880D01*
X038843Y026864D01*
X038811Y026852D01*
X038777Y026844D01*
X038743Y026840D01*
X038709Y026840D01*
X038675Y026844D01*
X038641Y026852D01*
X038609Y026864D01*
X038578Y026880D01*
X038550Y026898D01*
X038524Y026920D01*
X038500Y026945D01*
X038480Y026973D01*
X038462Y027003D01*
X038449Y027034D01*
X038439Y027067D01*
X038433Y027101D01*
X038431Y027135D01*
X038525Y002360D02*
X038527Y002410D01*
X038533Y002459D01*
X038543Y002508D01*
X038556Y002555D01*
X038574Y002602D01*
X038595Y002647D01*
X038619Y002690D01*
X038647Y002731D01*
X038678Y002770D01*
X038712Y002806D01*
X038749Y002840D01*
X038789Y002870D01*
X038830Y002897D01*
X038874Y002921D01*
X038919Y002941D01*
X038966Y002957D01*
X039014Y002970D01*
X039063Y002979D01*
X039113Y002984D01*
X039162Y002985D01*
X039212Y002982D01*
X039261Y002975D01*
X039310Y002964D01*
X039357Y002950D01*
X039403Y002931D01*
X039448Y002909D01*
X039491Y002884D01*
X039531Y002855D01*
X039569Y002823D01*
X039605Y002789D01*
X039638Y002751D01*
X039667Y002711D01*
X039693Y002669D01*
X039716Y002625D01*
X039735Y002579D01*
X039751Y002532D01*
X039763Y002483D01*
X039771Y002434D01*
X039775Y002385D01*
X039775Y002335D01*
X039771Y002286D01*
X039763Y002237D01*
X039751Y002188D01*
X039735Y002141D01*
X039716Y002095D01*
X039693Y002051D01*
X039667Y002009D01*
X039638Y001969D01*
X039605Y001931D01*
X039569Y001897D01*
X039531Y001865D01*
X039491Y001836D01*
X039448Y001811D01*
X039403Y001789D01*
X039357Y001770D01*
X039310Y001756D01*
X039261Y001745D01*
X039212Y001738D01*
X039162Y001735D01*
X039113Y001736D01*
X039063Y001741D01*
X039014Y001750D01*
X038966Y001763D01*
X038919Y001779D01*
X038874Y001799D01*
X038830Y001823D01*
X038789Y001850D01*
X038749Y001880D01*
X038712Y001914D01*
X038678Y001950D01*
X038647Y001989D01*
X038619Y002030D01*
X038595Y002073D01*
X038574Y002118D01*
X038556Y002165D01*
X038543Y002212D01*
X038533Y002261D01*
X038527Y002310D01*
X038525Y002360D01*
X000525Y032360D02*
X000527Y032410D01*
X000533Y032459D01*
X000543Y032508D01*
X000556Y032555D01*
X000574Y032602D01*
X000595Y032647D01*
X000619Y032690D01*
X000647Y032731D01*
X000678Y032770D01*
X000712Y032806D01*
X000749Y032840D01*
X000789Y032870D01*
X000830Y032897D01*
X000874Y032921D01*
X000919Y032941D01*
X000966Y032957D01*
X001014Y032970D01*
X001063Y032979D01*
X001113Y032984D01*
X001162Y032985D01*
X001212Y032982D01*
X001261Y032975D01*
X001310Y032964D01*
X001357Y032950D01*
X001403Y032931D01*
X001448Y032909D01*
X001491Y032884D01*
X001531Y032855D01*
X001569Y032823D01*
X001605Y032789D01*
X001638Y032751D01*
X001667Y032711D01*
X001693Y032669D01*
X001716Y032625D01*
X001735Y032579D01*
X001751Y032532D01*
X001763Y032483D01*
X001771Y032434D01*
X001775Y032385D01*
X001775Y032335D01*
X001771Y032286D01*
X001763Y032237D01*
X001751Y032188D01*
X001735Y032141D01*
X001716Y032095D01*
X001693Y032051D01*
X001667Y032009D01*
X001638Y031969D01*
X001605Y031931D01*
X001569Y031897D01*
X001531Y031865D01*
X001491Y031836D01*
X001448Y031811D01*
X001403Y031789D01*
X001357Y031770D01*
X001310Y031756D01*
X001261Y031745D01*
X001212Y031738D01*
X001162Y031735D01*
X001113Y031736D01*
X001063Y031741D01*
X001014Y031750D01*
X000966Y031763D01*
X000919Y031779D01*
X000874Y031799D01*
X000830Y031823D01*
X000789Y031850D01*
X000749Y031880D01*
X000712Y031914D01*
X000678Y031950D01*
X000647Y031989D01*
X000619Y032030D01*
X000595Y032073D01*
X000574Y032118D01*
X000556Y032165D01*
X000543Y032212D01*
X000533Y032261D01*
X000527Y032310D01*
X000525Y032360D01*
M02*
