G75*
G70*
%OFA0B0*%
%FSLAX24Y24*%
%IPPOS*%
%LPD*%
%AMOC8*
5,1,8,0,0,1.08239X$1,22.5*
%
%ADD10C,0.0000*%
D10*
X000247Y001996D02*
X000247Y033996D01*
X040247Y033996D01*
X040247Y001996D01*
X000247Y001996D01*
X000622Y002996D02*
X000624Y003046D01*
X000630Y003095D01*
X000640Y003144D01*
X000653Y003191D01*
X000671Y003238D01*
X000692Y003283D01*
X000716Y003326D01*
X000744Y003367D01*
X000775Y003406D01*
X000809Y003442D01*
X000846Y003476D01*
X000886Y003506D01*
X000927Y003533D01*
X000971Y003557D01*
X001016Y003577D01*
X001063Y003593D01*
X001111Y003606D01*
X001160Y003615D01*
X001210Y003620D01*
X001259Y003621D01*
X001309Y003618D01*
X001358Y003611D01*
X001407Y003600D01*
X001454Y003586D01*
X001500Y003567D01*
X001545Y003545D01*
X001588Y003520D01*
X001628Y003491D01*
X001666Y003459D01*
X001702Y003425D01*
X001735Y003387D01*
X001764Y003347D01*
X001790Y003305D01*
X001813Y003261D01*
X001832Y003215D01*
X001848Y003168D01*
X001860Y003119D01*
X001868Y003070D01*
X001872Y003021D01*
X001872Y002971D01*
X001868Y002922D01*
X001860Y002873D01*
X001848Y002824D01*
X001832Y002777D01*
X001813Y002731D01*
X001790Y002687D01*
X001764Y002645D01*
X001735Y002605D01*
X001702Y002567D01*
X001666Y002533D01*
X001628Y002501D01*
X001588Y002472D01*
X001545Y002447D01*
X001500Y002425D01*
X001454Y002406D01*
X001407Y002392D01*
X001358Y002381D01*
X001309Y002374D01*
X001259Y002371D01*
X001210Y002372D01*
X001160Y002377D01*
X001111Y002386D01*
X001063Y002399D01*
X001016Y002415D01*
X000971Y002435D01*
X000927Y002459D01*
X000886Y002486D01*
X000846Y002516D01*
X000809Y002550D01*
X000775Y002586D01*
X000744Y002625D01*
X000716Y002666D01*
X000692Y002709D01*
X000671Y002754D01*
X000653Y002801D01*
X000640Y002848D01*
X000630Y002897D01*
X000624Y002946D01*
X000622Y002996D01*
X024524Y031596D02*
X024526Y031622D01*
X024532Y031648D01*
X024542Y031673D01*
X024555Y031696D01*
X024571Y031716D01*
X024591Y031734D01*
X024613Y031749D01*
X024636Y031761D01*
X024662Y031769D01*
X024688Y031773D01*
X024714Y031773D01*
X024740Y031769D01*
X024766Y031761D01*
X024790Y031749D01*
X024811Y031734D01*
X024831Y031716D01*
X024847Y031696D01*
X024860Y031673D01*
X024870Y031648D01*
X024876Y031622D01*
X024878Y031596D01*
X024876Y031570D01*
X024870Y031544D01*
X024860Y031519D01*
X024847Y031496D01*
X024831Y031476D01*
X024811Y031458D01*
X024789Y031443D01*
X024766Y031431D01*
X024740Y031423D01*
X024714Y031419D01*
X024688Y031419D01*
X024662Y031423D01*
X024636Y031431D01*
X024612Y031443D01*
X024591Y031458D01*
X024571Y031476D01*
X024555Y031496D01*
X024542Y031519D01*
X024532Y031544D01*
X024526Y031570D01*
X024524Y031596D01*
X026256Y031596D02*
X026258Y031622D01*
X026264Y031648D01*
X026274Y031673D01*
X026287Y031696D01*
X026303Y031716D01*
X026323Y031734D01*
X026345Y031749D01*
X026368Y031761D01*
X026394Y031769D01*
X026420Y031773D01*
X026446Y031773D01*
X026472Y031769D01*
X026498Y031761D01*
X026522Y031749D01*
X026543Y031734D01*
X026563Y031716D01*
X026579Y031696D01*
X026592Y031673D01*
X026602Y031648D01*
X026608Y031622D01*
X026610Y031596D01*
X026608Y031570D01*
X026602Y031544D01*
X026592Y031519D01*
X026579Y031496D01*
X026563Y031476D01*
X026543Y031458D01*
X026521Y031443D01*
X026498Y031431D01*
X026472Y031423D01*
X026446Y031419D01*
X026420Y031419D01*
X026394Y031423D01*
X026368Y031431D01*
X026344Y031443D01*
X026323Y031458D01*
X026303Y031476D01*
X026287Y031496D01*
X026274Y031519D01*
X026264Y031544D01*
X026258Y031570D01*
X026256Y031596D01*
X038528Y031000D02*
X038530Y031034D01*
X038536Y031068D01*
X038546Y031101D01*
X038559Y031132D01*
X038577Y031162D01*
X038597Y031190D01*
X038621Y031215D01*
X038647Y031237D01*
X038675Y031255D01*
X038706Y031271D01*
X038738Y031283D01*
X038772Y031291D01*
X038806Y031295D01*
X038840Y031295D01*
X038874Y031291D01*
X038908Y031283D01*
X038940Y031271D01*
X038970Y031255D01*
X038999Y031237D01*
X039025Y031215D01*
X039049Y031190D01*
X039069Y031162D01*
X039087Y031132D01*
X039100Y031101D01*
X039110Y031068D01*
X039116Y031034D01*
X039118Y031000D01*
X039116Y030966D01*
X039110Y030932D01*
X039100Y030899D01*
X039087Y030868D01*
X039069Y030838D01*
X039049Y030810D01*
X039025Y030785D01*
X038999Y030763D01*
X038971Y030745D01*
X038940Y030729D01*
X038908Y030717D01*
X038874Y030709D01*
X038840Y030705D01*
X038806Y030705D01*
X038772Y030709D01*
X038738Y030717D01*
X038706Y030729D01*
X038675Y030745D01*
X038647Y030763D01*
X038621Y030785D01*
X038597Y030810D01*
X038577Y030838D01*
X038559Y030868D01*
X038546Y030899D01*
X038536Y030932D01*
X038530Y030966D01*
X038528Y031000D01*
X038622Y032996D02*
X038624Y033046D01*
X038630Y033095D01*
X038640Y033144D01*
X038653Y033191D01*
X038671Y033238D01*
X038692Y033283D01*
X038716Y033326D01*
X038744Y033367D01*
X038775Y033406D01*
X038809Y033442D01*
X038846Y033476D01*
X038886Y033506D01*
X038927Y033533D01*
X038971Y033557D01*
X039016Y033577D01*
X039063Y033593D01*
X039111Y033606D01*
X039160Y033615D01*
X039210Y033620D01*
X039259Y033621D01*
X039309Y033618D01*
X039358Y033611D01*
X039407Y033600D01*
X039454Y033586D01*
X039500Y033567D01*
X039545Y033545D01*
X039588Y033520D01*
X039628Y033491D01*
X039666Y033459D01*
X039702Y033425D01*
X039735Y033387D01*
X039764Y033347D01*
X039790Y033305D01*
X039813Y033261D01*
X039832Y033215D01*
X039848Y033168D01*
X039860Y033119D01*
X039868Y033070D01*
X039872Y033021D01*
X039872Y032971D01*
X039868Y032922D01*
X039860Y032873D01*
X039848Y032824D01*
X039832Y032777D01*
X039813Y032731D01*
X039790Y032687D01*
X039764Y032645D01*
X039735Y032605D01*
X039702Y032567D01*
X039666Y032533D01*
X039628Y032501D01*
X039588Y032472D01*
X039545Y032447D01*
X039500Y032425D01*
X039454Y032406D01*
X039407Y032392D01*
X039358Y032381D01*
X039309Y032374D01*
X039259Y032371D01*
X039210Y032372D01*
X039160Y032377D01*
X039111Y032386D01*
X039063Y032399D01*
X039016Y032415D01*
X038971Y032435D01*
X038927Y032459D01*
X038886Y032486D01*
X038846Y032516D01*
X038809Y032550D01*
X038775Y032586D01*
X038744Y032625D01*
X038716Y032666D01*
X038692Y032709D01*
X038671Y032754D01*
X038653Y032801D01*
X038640Y032848D01*
X038630Y032897D01*
X038624Y032946D01*
X038622Y032996D01*
X038528Y027771D02*
X038530Y027805D01*
X038536Y027839D01*
X038546Y027872D01*
X038559Y027903D01*
X038577Y027933D01*
X038597Y027961D01*
X038621Y027986D01*
X038647Y028008D01*
X038675Y028026D01*
X038706Y028042D01*
X038738Y028054D01*
X038772Y028062D01*
X038806Y028066D01*
X038840Y028066D01*
X038874Y028062D01*
X038908Y028054D01*
X038940Y028042D01*
X038970Y028026D01*
X038999Y028008D01*
X039025Y027986D01*
X039049Y027961D01*
X039069Y027933D01*
X039087Y027903D01*
X039100Y027872D01*
X039110Y027839D01*
X039116Y027805D01*
X039118Y027771D01*
X039116Y027737D01*
X039110Y027703D01*
X039100Y027670D01*
X039087Y027639D01*
X039069Y027609D01*
X039049Y027581D01*
X039025Y027556D01*
X038999Y027534D01*
X038971Y027516D01*
X038940Y027500D01*
X038908Y027488D01*
X038874Y027480D01*
X038840Y027476D01*
X038806Y027476D01*
X038772Y027480D01*
X038738Y027488D01*
X038706Y027500D01*
X038675Y027516D01*
X038647Y027534D01*
X038621Y027556D01*
X038597Y027581D01*
X038577Y027609D01*
X038559Y027639D01*
X038546Y027670D01*
X038536Y027703D01*
X038530Y027737D01*
X038528Y027771D01*
X038622Y002996D02*
X038624Y003046D01*
X038630Y003095D01*
X038640Y003144D01*
X038653Y003191D01*
X038671Y003238D01*
X038692Y003283D01*
X038716Y003326D01*
X038744Y003367D01*
X038775Y003406D01*
X038809Y003442D01*
X038846Y003476D01*
X038886Y003506D01*
X038927Y003533D01*
X038971Y003557D01*
X039016Y003577D01*
X039063Y003593D01*
X039111Y003606D01*
X039160Y003615D01*
X039210Y003620D01*
X039259Y003621D01*
X039309Y003618D01*
X039358Y003611D01*
X039407Y003600D01*
X039454Y003586D01*
X039500Y003567D01*
X039545Y003545D01*
X039588Y003520D01*
X039628Y003491D01*
X039666Y003459D01*
X039702Y003425D01*
X039735Y003387D01*
X039764Y003347D01*
X039790Y003305D01*
X039813Y003261D01*
X039832Y003215D01*
X039848Y003168D01*
X039860Y003119D01*
X039868Y003070D01*
X039872Y003021D01*
X039872Y002971D01*
X039868Y002922D01*
X039860Y002873D01*
X039848Y002824D01*
X039832Y002777D01*
X039813Y002731D01*
X039790Y002687D01*
X039764Y002645D01*
X039735Y002605D01*
X039702Y002567D01*
X039666Y002533D01*
X039628Y002501D01*
X039588Y002472D01*
X039545Y002447D01*
X039500Y002425D01*
X039454Y002406D01*
X039407Y002392D01*
X039358Y002381D01*
X039309Y002374D01*
X039259Y002371D01*
X039210Y002372D01*
X039160Y002377D01*
X039111Y002386D01*
X039063Y002399D01*
X039016Y002415D01*
X038971Y002435D01*
X038927Y002459D01*
X038886Y002486D01*
X038846Y002516D01*
X038809Y002550D01*
X038775Y002586D01*
X038744Y002625D01*
X038716Y002666D01*
X038692Y002709D01*
X038671Y002754D01*
X038653Y002801D01*
X038640Y002848D01*
X038630Y002897D01*
X038624Y002946D01*
X038622Y002996D01*
X000622Y032996D02*
X000624Y033046D01*
X000630Y033095D01*
X000640Y033144D01*
X000653Y033191D01*
X000671Y033238D01*
X000692Y033283D01*
X000716Y033326D01*
X000744Y033367D01*
X000775Y033406D01*
X000809Y033442D01*
X000846Y033476D01*
X000886Y033506D01*
X000927Y033533D01*
X000971Y033557D01*
X001016Y033577D01*
X001063Y033593D01*
X001111Y033606D01*
X001160Y033615D01*
X001210Y033620D01*
X001259Y033621D01*
X001309Y033618D01*
X001358Y033611D01*
X001407Y033600D01*
X001454Y033586D01*
X001500Y033567D01*
X001545Y033545D01*
X001588Y033520D01*
X001628Y033491D01*
X001666Y033459D01*
X001702Y033425D01*
X001735Y033387D01*
X001764Y033347D01*
X001790Y033305D01*
X001813Y033261D01*
X001832Y033215D01*
X001848Y033168D01*
X001860Y033119D01*
X001868Y033070D01*
X001872Y033021D01*
X001872Y032971D01*
X001868Y032922D01*
X001860Y032873D01*
X001848Y032824D01*
X001832Y032777D01*
X001813Y032731D01*
X001790Y032687D01*
X001764Y032645D01*
X001735Y032605D01*
X001702Y032567D01*
X001666Y032533D01*
X001628Y032501D01*
X001588Y032472D01*
X001545Y032447D01*
X001500Y032425D01*
X001454Y032406D01*
X001407Y032392D01*
X001358Y032381D01*
X001309Y032374D01*
X001259Y032371D01*
X001210Y032372D01*
X001160Y032377D01*
X001111Y032386D01*
X001063Y032399D01*
X001016Y032415D01*
X000971Y032435D01*
X000927Y032459D01*
X000886Y032486D01*
X000846Y032516D01*
X000809Y032550D01*
X000775Y032586D01*
X000744Y032625D01*
X000716Y032666D01*
X000692Y032709D01*
X000671Y032754D01*
X000653Y032801D01*
X000640Y032848D01*
X000630Y032897D01*
X000624Y032946D01*
X000622Y032996D01*
M02*
