G75*
G70*
%OFA0B0*%
%FSLAX24Y24*%
%IPPOS*%
%LPD*%
%AMOC8*
5,1,8,0,0,1.08239X$1,22.5*
%
%ADD10C,0.0000*%
%ADD11C,0.0060*%
%ADD12C,0.0030*%
%ADD13C,0.0040*%
%ADD14C,0.0020*%
%ADD15C,0.0050*%
%ADD16R,0.0004X0.0004*%
%ADD17R,0.0008X0.0004*%
%ADD18R,0.0008X0.0004*%
%ADD19R,0.0012X0.0004*%
%ADD20R,0.0016X0.0004*%
%ADD21R,0.0020X0.0004*%
%ADD22R,0.0024X0.0004*%
%ADD23R,0.0024X0.0004*%
%ADD24R,0.0024X0.0004*%
%ADD25R,0.0028X0.0004*%
%ADD26R,0.0032X0.0004*%
%ADD27R,0.0036X0.0004*%
%ADD28R,0.0036X0.0004*%
%ADD29R,0.0040X0.0004*%
%ADD30R,0.0044X0.0004*%
%ADD31R,0.0044X0.0004*%
%ADD32R,0.0048X0.0004*%
%ADD33R,0.0052X0.0004*%
%ADD34R,0.0028X0.0004*%
%ADD35R,0.0020X0.0004*%
%ADD36R,0.0084X0.0004*%
%ADD37R,0.0140X0.0004*%
%ADD38R,0.0180X0.0004*%
%ADD39R,0.0216X0.0004*%
%ADD40R,0.0244X0.0004*%
%ADD41R,0.0128X0.0004*%
%ADD42R,0.0092X0.0004*%
%ADD43R,0.0108X0.0004*%
%ADD44R,0.0088X0.0004*%
%ADD45R,0.0024X0.0004*%
%ADD46R,0.0100X0.0004*%
%ADD47R,0.0124X0.0004*%
%ADD48R,0.0092X0.0004*%
%ADD49R,0.0148X0.0004*%
%ADD50R,0.0172X0.0004*%
%ADD51R,0.0192X0.0004*%
%ADD52R,0.0084X0.0004*%
%ADD53R,0.0208X0.0004*%
%ADD54R,0.0084X0.0004*%
%ADD55R,0.0076X0.0004*%
%ADD56R,0.0048X0.0004*%
%ADD57R,0.0064X0.0004*%
%ADD58R,0.0060X0.0004*%
%ADD59R,0.0012X0.0004*%
%ADD60R,0.0052X0.0004*%
%ADD61R,0.0092X0.0004*%
%ADD62R,0.0096X0.0004*%
%ADD63R,0.0044X0.0004*%
%ADD64R,0.0056X0.0004*%
%ADD65R,0.0180X0.0004*%
%ADD66R,0.0156X0.0004*%
%ADD67R,0.0136X0.0004*%
%ADD68R,0.0104X0.0004*%
%ADD69R,0.0032X0.0004*%
%ADD70R,0.0032X0.0004*%
%ADD71R,0.0064X0.0004*%
%ADD72R,0.0120X0.0004*%
%ADD73R,0.0040X0.0004*%
%ADD74R,0.0072X0.0004*%
%ADD75R,0.0176X0.0004*%
%ADD76R,0.0164X0.0004*%
%ADD77R,0.0100X0.0004*%
%ADD78R,0.0084X0.0004*%
%ADD79R,0.0132X0.0004*%
%ADD80R,0.0068X0.0004*%
%ADD81R,0.0080X0.0004*%
%ADD82R,0.0112X0.0004*%
%ADD83R,0.0076X0.0004*%
%ADD84R,0.0052X0.0004*%
%ADD85R,0.0080X0.0004*%
%ADD86R,0.0068X0.0004*%
%ADD87R,0.0228X0.0004*%
%ADD88R,0.0204X0.0004*%
%ADD89R,0.0072X0.0004*%
%ADD90R,0.0144X0.0004*%
%ADD91R,0.0012X0.0004*%
%ADD92R,0.0072X0.0004*%
%ADD93R,0.0104X0.0004*%
%ADD94R,0.0052X0.0004*%
%ADD95R,0.0120X0.0004*%
%ADD96R,0.0152X0.0004*%
%ADD97R,0.0200X0.0004*%
%ADD98R,0.0248X0.0004*%
%ADD99R,0.0540X0.0004*%
%ADD100R,0.0640X0.0004*%
%ADD101R,0.0664X0.0004*%
%ADD102R,0.0660X0.0004*%
%ADD103R,0.0620X0.0004*%
%ADD104R,0.0392X0.0004*%
%ADD105R,0.0168X0.0004*%
%ADD106R,0.0144X0.0004*%
%ADD107R,0.0124X0.0004*%
%ADD108R,0.0060X0.0004*%
%ADD109R,0.0064X0.0004*%
%ADD110R,0.0104X0.0004*%
%ADD111R,0.0204X0.0004*%
%ADD112R,0.0184X0.0004*%
%ADD113R,0.0044X0.0004*%
%ADD114R,0.0056X0.0004*%
%ADD115R,0.0032X0.0004*%
%ADD116R,0.0064X0.0004*%
%ADD117R,0.0228X0.0004*%
%ADD118R,0.0144X0.0004*%
%ADD119R,0.0088X0.0004*%
%ADD120R,0.0116X0.0004*%
%ADD121R,0.0188X0.0004*%
%ADD122R,0.0200X0.0004*%
%ADD123R,0.0176X0.0004*%
%ADD124R,0.0016X0.0004*%
%ADD125C,0.0080*%
%ADD126R,0.0100X0.0200*%
%ADD127C,0.0100*%
%ADD128C,0.0220*%
%ADD129R,0.0300X0.0180*%
%ADD130R,0.0180X0.0300*%
%ADD131R,0.0118X0.0059*%
%ADD132R,0.0118X0.0118*%
%ADD133R,0.0059X0.0118*%
%ADD134R,0.0157X0.0138*%
%ADD135C,0.0001*%
D10*
X000247Y001996D02*
X000247Y033996D01*
X040247Y033996D01*
X040247Y001996D01*
X000247Y001996D01*
X000622Y002996D02*
X000624Y003046D01*
X000630Y003095D01*
X000640Y003144D01*
X000653Y003191D01*
X000671Y003238D01*
X000692Y003283D01*
X000716Y003326D01*
X000744Y003367D01*
X000775Y003406D01*
X000809Y003442D01*
X000846Y003476D01*
X000886Y003506D01*
X000927Y003533D01*
X000971Y003557D01*
X001016Y003577D01*
X001063Y003593D01*
X001111Y003606D01*
X001160Y003615D01*
X001210Y003620D01*
X001259Y003621D01*
X001309Y003618D01*
X001358Y003611D01*
X001407Y003600D01*
X001454Y003586D01*
X001500Y003567D01*
X001545Y003545D01*
X001588Y003520D01*
X001628Y003491D01*
X001666Y003459D01*
X001702Y003425D01*
X001735Y003387D01*
X001764Y003347D01*
X001790Y003305D01*
X001813Y003261D01*
X001832Y003215D01*
X001848Y003168D01*
X001860Y003119D01*
X001868Y003070D01*
X001872Y003021D01*
X001872Y002971D01*
X001868Y002922D01*
X001860Y002873D01*
X001848Y002824D01*
X001832Y002777D01*
X001813Y002731D01*
X001790Y002687D01*
X001764Y002645D01*
X001735Y002605D01*
X001702Y002567D01*
X001666Y002533D01*
X001628Y002501D01*
X001588Y002472D01*
X001545Y002447D01*
X001500Y002425D01*
X001454Y002406D01*
X001407Y002392D01*
X001358Y002381D01*
X001309Y002374D01*
X001259Y002371D01*
X001210Y002372D01*
X001160Y002377D01*
X001111Y002386D01*
X001063Y002399D01*
X001016Y002415D01*
X000971Y002435D01*
X000927Y002459D01*
X000886Y002486D01*
X000846Y002516D01*
X000809Y002550D01*
X000775Y002586D01*
X000744Y002625D01*
X000716Y002666D01*
X000692Y002709D01*
X000671Y002754D01*
X000653Y002801D01*
X000640Y002848D01*
X000630Y002897D01*
X000624Y002946D01*
X000622Y002996D01*
X024524Y031596D02*
X024526Y031622D01*
X024532Y031648D01*
X024542Y031673D01*
X024555Y031696D01*
X024571Y031716D01*
X024591Y031734D01*
X024613Y031749D01*
X024636Y031761D01*
X024662Y031769D01*
X024688Y031773D01*
X024714Y031773D01*
X024740Y031769D01*
X024766Y031761D01*
X024790Y031749D01*
X024811Y031734D01*
X024831Y031716D01*
X024847Y031696D01*
X024860Y031673D01*
X024870Y031648D01*
X024876Y031622D01*
X024878Y031596D01*
X024876Y031570D01*
X024870Y031544D01*
X024860Y031519D01*
X024847Y031496D01*
X024831Y031476D01*
X024811Y031458D01*
X024789Y031443D01*
X024766Y031431D01*
X024740Y031423D01*
X024714Y031419D01*
X024688Y031419D01*
X024662Y031423D01*
X024636Y031431D01*
X024612Y031443D01*
X024591Y031458D01*
X024571Y031476D01*
X024555Y031496D01*
X024542Y031519D01*
X024532Y031544D01*
X024526Y031570D01*
X024524Y031596D01*
X026256Y031596D02*
X026258Y031622D01*
X026264Y031648D01*
X026274Y031673D01*
X026287Y031696D01*
X026303Y031716D01*
X026323Y031734D01*
X026345Y031749D01*
X026368Y031761D01*
X026394Y031769D01*
X026420Y031773D01*
X026446Y031773D01*
X026472Y031769D01*
X026498Y031761D01*
X026522Y031749D01*
X026543Y031734D01*
X026563Y031716D01*
X026579Y031696D01*
X026592Y031673D01*
X026602Y031648D01*
X026608Y031622D01*
X026610Y031596D01*
X026608Y031570D01*
X026602Y031544D01*
X026592Y031519D01*
X026579Y031496D01*
X026563Y031476D01*
X026543Y031458D01*
X026521Y031443D01*
X026498Y031431D01*
X026472Y031423D01*
X026446Y031419D01*
X026420Y031419D01*
X026394Y031423D01*
X026368Y031431D01*
X026344Y031443D01*
X026323Y031458D01*
X026303Y031476D01*
X026287Y031496D01*
X026274Y031519D01*
X026264Y031544D01*
X026258Y031570D01*
X026256Y031596D01*
X038528Y031000D02*
X038530Y031034D01*
X038536Y031068D01*
X038546Y031101D01*
X038559Y031132D01*
X038577Y031162D01*
X038597Y031190D01*
X038621Y031215D01*
X038647Y031237D01*
X038675Y031255D01*
X038706Y031271D01*
X038738Y031283D01*
X038772Y031291D01*
X038806Y031295D01*
X038840Y031295D01*
X038874Y031291D01*
X038908Y031283D01*
X038940Y031271D01*
X038970Y031255D01*
X038999Y031237D01*
X039025Y031215D01*
X039049Y031190D01*
X039069Y031162D01*
X039087Y031132D01*
X039100Y031101D01*
X039110Y031068D01*
X039116Y031034D01*
X039118Y031000D01*
X039116Y030966D01*
X039110Y030932D01*
X039100Y030899D01*
X039087Y030868D01*
X039069Y030838D01*
X039049Y030810D01*
X039025Y030785D01*
X038999Y030763D01*
X038971Y030745D01*
X038940Y030729D01*
X038908Y030717D01*
X038874Y030709D01*
X038840Y030705D01*
X038806Y030705D01*
X038772Y030709D01*
X038738Y030717D01*
X038706Y030729D01*
X038675Y030745D01*
X038647Y030763D01*
X038621Y030785D01*
X038597Y030810D01*
X038577Y030838D01*
X038559Y030868D01*
X038546Y030899D01*
X038536Y030932D01*
X038530Y030966D01*
X038528Y031000D01*
X038622Y032996D02*
X038624Y033046D01*
X038630Y033095D01*
X038640Y033144D01*
X038653Y033191D01*
X038671Y033238D01*
X038692Y033283D01*
X038716Y033326D01*
X038744Y033367D01*
X038775Y033406D01*
X038809Y033442D01*
X038846Y033476D01*
X038886Y033506D01*
X038927Y033533D01*
X038971Y033557D01*
X039016Y033577D01*
X039063Y033593D01*
X039111Y033606D01*
X039160Y033615D01*
X039210Y033620D01*
X039259Y033621D01*
X039309Y033618D01*
X039358Y033611D01*
X039407Y033600D01*
X039454Y033586D01*
X039500Y033567D01*
X039545Y033545D01*
X039588Y033520D01*
X039628Y033491D01*
X039666Y033459D01*
X039702Y033425D01*
X039735Y033387D01*
X039764Y033347D01*
X039790Y033305D01*
X039813Y033261D01*
X039832Y033215D01*
X039848Y033168D01*
X039860Y033119D01*
X039868Y033070D01*
X039872Y033021D01*
X039872Y032971D01*
X039868Y032922D01*
X039860Y032873D01*
X039848Y032824D01*
X039832Y032777D01*
X039813Y032731D01*
X039790Y032687D01*
X039764Y032645D01*
X039735Y032605D01*
X039702Y032567D01*
X039666Y032533D01*
X039628Y032501D01*
X039588Y032472D01*
X039545Y032447D01*
X039500Y032425D01*
X039454Y032406D01*
X039407Y032392D01*
X039358Y032381D01*
X039309Y032374D01*
X039259Y032371D01*
X039210Y032372D01*
X039160Y032377D01*
X039111Y032386D01*
X039063Y032399D01*
X039016Y032415D01*
X038971Y032435D01*
X038927Y032459D01*
X038886Y032486D01*
X038846Y032516D01*
X038809Y032550D01*
X038775Y032586D01*
X038744Y032625D01*
X038716Y032666D01*
X038692Y032709D01*
X038671Y032754D01*
X038653Y032801D01*
X038640Y032848D01*
X038630Y032897D01*
X038624Y032946D01*
X038622Y032996D01*
X038528Y027771D02*
X038530Y027805D01*
X038536Y027839D01*
X038546Y027872D01*
X038559Y027903D01*
X038577Y027933D01*
X038597Y027961D01*
X038621Y027986D01*
X038647Y028008D01*
X038675Y028026D01*
X038706Y028042D01*
X038738Y028054D01*
X038772Y028062D01*
X038806Y028066D01*
X038840Y028066D01*
X038874Y028062D01*
X038908Y028054D01*
X038940Y028042D01*
X038970Y028026D01*
X038999Y028008D01*
X039025Y027986D01*
X039049Y027961D01*
X039069Y027933D01*
X039087Y027903D01*
X039100Y027872D01*
X039110Y027839D01*
X039116Y027805D01*
X039118Y027771D01*
X039116Y027737D01*
X039110Y027703D01*
X039100Y027670D01*
X039087Y027639D01*
X039069Y027609D01*
X039049Y027581D01*
X039025Y027556D01*
X038999Y027534D01*
X038971Y027516D01*
X038940Y027500D01*
X038908Y027488D01*
X038874Y027480D01*
X038840Y027476D01*
X038806Y027476D01*
X038772Y027480D01*
X038738Y027488D01*
X038706Y027500D01*
X038675Y027516D01*
X038647Y027534D01*
X038621Y027556D01*
X038597Y027581D01*
X038577Y027609D01*
X038559Y027639D01*
X038546Y027670D01*
X038536Y027703D01*
X038530Y027737D01*
X038528Y027771D01*
X038622Y002996D02*
X038624Y003046D01*
X038630Y003095D01*
X038640Y003144D01*
X038653Y003191D01*
X038671Y003238D01*
X038692Y003283D01*
X038716Y003326D01*
X038744Y003367D01*
X038775Y003406D01*
X038809Y003442D01*
X038846Y003476D01*
X038886Y003506D01*
X038927Y003533D01*
X038971Y003557D01*
X039016Y003577D01*
X039063Y003593D01*
X039111Y003606D01*
X039160Y003615D01*
X039210Y003620D01*
X039259Y003621D01*
X039309Y003618D01*
X039358Y003611D01*
X039407Y003600D01*
X039454Y003586D01*
X039500Y003567D01*
X039545Y003545D01*
X039588Y003520D01*
X039628Y003491D01*
X039666Y003459D01*
X039702Y003425D01*
X039735Y003387D01*
X039764Y003347D01*
X039790Y003305D01*
X039813Y003261D01*
X039832Y003215D01*
X039848Y003168D01*
X039860Y003119D01*
X039868Y003070D01*
X039872Y003021D01*
X039872Y002971D01*
X039868Y002922D01*
X039860Y002873D01*
X039848Y002824D01*
X039832Y002777D01*
X039813Y002731D01*
X039790Y002687D01*
X039764Y002645D01*
X039735Y002605D01*
X039702Y002567D01*
X039666Y002533D01*
X039628Y002501D01*
X039588Y002472D01*
X039545Y002447D01*
X039500Y002425D01*
X039454Y002406D01*
X039407Y002392D01*
X039358Y002381D01*
X039309Y002374D01*
X039259Y002371D01*
X039210Y002372D01*
X039160Y002377D01*
X039111Y002386D01*
X039063Y002399D01*
X039016Y002415D01*
X038971Y002435D01*
X038927Y002459D01*
X038886Y002486D01*
X038846Y002516D01*
X038809Y002550D01*
X038775Y002586D01*
X038744Y002625D01*
X038716Y002666D01*
X038692Y002709D01*
X038671Y002754D01*
X038653Y002801D01*
X038640Y002848D01*
X038630Y002897D01*
X038624Y002946D01*
X038622Y002996D01*
X000622Y032996D02*
X000624Y033046D01*
X000630Y033095D01*
X000640Y033144D01*
X000653Y033191D01*
X000671Y033238D01*
X000692Y033283D01*
X000716Y033326D01*
X000744Y033367D01*
X000775Y033406D01*
X000809Y033442D01*
X000846Y033476D01*
X000886Y033506D01*
X000927Y033533D01*
X000971Y033557D01*
X001016Y033577D01*
X001063Y033593D01*
X001111Y033606D01*
X001160Y033615D01*
X001210Y033620D01*
X001259Y033621D01*
X001309Y033618D01*
X001358Y033611D01*
X001407Y033600D01*
X001454Y033586D01*
X001500Y033567D01*
X001545Y033545D01*
X001588Y033520D01*
X001628Y033491D01*
X001666Y033459D01*
X001702Y033425D01*
X001735Y033387D01*
X001764Y033347D01*
X001790Y033305D01*
X001813Y033261D01*
X001832Y033215D01*
X001848Y033168D01*
X001860Y033119D01*
X001868Y033070D01*
X001872Y033021D01*
X001872Y032971D01*
X001868Y032922D01*
X001860Y032873D01*
X001848Y032824D01*
X001832Y032777D01*
X001813Y032731D01*
X001790Y032687D01*
X001764Y032645D01*
X001735Y032605D01*
X001702Y032567D01*
X001666Y032533D01*
X001628Y032501D01*
X001588Y032472D01*
X001545Y032447D01*
X001500Y032425D01*
X001454Y032406D01*
X001407Y032392D01*
X001358Y032381D01*
X001309Y032374D01*
X001259Y032371D01*
X001210Y032372D01*
X001160Y032377D01*
X001111Y032386D01*
X001063Y032399D01*
X001016Y032415D01*
X000971Y032435D01*
X000927Y032459D01*
X000886Y032486D01*
X000846Y032516D01*
X000809Y032550D01*
X000775Y032586D01*
X000744Y032625D01*
X000716Y032666D01*
X000692Y032709D01*
X000671Y032754D01*
X000653Y032801D01*
X000640Y032848D01*
X000630Y032897D01*
X000624Y032946D01*
X000622Y032996D01*
D11*
X005493Y031138D02*
X005493Y030738D01*
X005493Y031138D02*
X005495Y031155D01*
X005499Y031172D01*
X005506Y031188D01*
X005516Y031202D01*
X005529Y031215D01*
X005543Y031225D01*
X005559Y031232D01*
X005576Y031236D01*
X005593Y031238D01*
X009893Y031238D01*
X009910Y031236D01*
X009927Y031232D01*
X009943Y031225D01*
X009957Y031215D01*
X009970Y031202D01*
X009980Y031188D01*
X009987Y031172D01*
X009991Y031155D01*
X009993Y031138D01*
X009993Y030738D01*
X009993Y029838D02*
X009993Y029438D01*
X009991Y029421D01*
X009987Y029404D01*
X009980Y029388D01*
X009970Y029374D01*
X009957Y029361D01*
X009943Y029351D01*
X009927Y029344D01*
X009910Y029340D01*
X009893Y029338D01*
X005593Y029338D01*
X005576Y029340D01*
X005559Y029344D01*
X005543Y029351D01*
X005529Y029361D01*
X005516Y029374D01*
X005506Y029388D01*
X005499Y029404D01*
X005495Y029421D01*
X005493Y029438D01*
X005493Y029838D01*
X007493Y030038D02*
X007493Y030288D01*
X007493Y030538D01*
X007643Y030538D02*
X007843Y030538D01*
X007843Y030038D01*
X007643Y030038D01*
X007643Y030538D01*
X007993Y030538D02*
X007993Y030288D01*
X007993Y030038D01*
X025222Y019084D02*
X025458Y019084D01*
X025458Y018611D02*
X025222Y018611D01*
X025881Y017864D02*
X025881Y017627D01*
X026353Y017627D02*
X026353Y017864D01*
X027129Y018309D02*
X027365Y018309D01*
X027365Y018782D02*
X027129Y018782D01*
X027129Y018929D02*
X027365Y018929D01*
X027365Y019402D02*
X027129Y019402D01*
X027129Y019579D02*
X027365Y019579D01*
X027365Y020052D02*
X027129Y020052D01*
X027129Y020289D02*
X027365Y020289D01*
X027365Y020762D02*
X027129Y020762D01*
X031208Y024443D02*
X031208Y024680D01*
X031680Y024680D02*
X031680Y024443D01*
X027933Y028677D02*
X027933Y028914D01*
X027461Y028914D02*
X027461Y028677D01*
X037537Y025496D02*
X037537Y025146D01*
X037537Y024146D01*
X037537Y023796D01*
X038337Y023446D02*
X038437Y023446D01*
X038437Y023346D01*
X039037Y023346D01*
X039037Y023446D01*
X039137Y023446D01*
X039937Y023796D02*
X039937Y024146D01*
X039937Y025096D01*
X039937Y025496D01*
X039137Y025846D02*
X039037Y025846D01*
X039037Y025946D01*
X038437Y025946D01*
X038437Y025846D01*
X038337Y025846D01*
X038637Y024646D02*
X038639Y024666D01*
X038645Y024684D01*
X038654Y024702D01*
X038666Y024717D01*
X038681Y024729D01*
X038699Y024738D01*
X038717Y024744D01*
X038737Y024746D01*
X038757Y024744D01*
X038775Y024738D01*
X038793Y024729D01*
X038808Y024717D01*
X038820Y024702D01*
X038829Y024684D01*
X038835Y024666D01*
X038837Y024646D01*
X038835Y024626D01*
X038829Y024608D01*
X038820Y024590D01*
X038808Y024575D01*
X038793Y024563D01*
X038775Y024554D01*
X038757Y024548D01*
X038737Y024546D01*
X038717Y024548D01*
X038699Y024554D01*
X038681Y024563D01*
X038666Y024575D01*
X038654Y024590D01*
X038645Y024608D01*
X038639Y024626D01*
X038637Y024646D01*
X038037Y024646D02*
X038039Y024698D01*
X038045Y024750D01*
X038055Y024802D01*
X038068Y024852D01*
X038085Y024902D01*
X038106Y024950D01*
X038131Y024996D01*
X038159Y025040D01*
X038190Y025082D01*
X038224Y025122D01*
X038261Y025159D01*
X038301Y025193D01*
X038343Y025224D01*
X038387Y025252D01*
X038433Y025277D01*
X038481Y025298D01*
X038531Y025315D01*
X038581Y025328D01*
X038633Y025338D01*
X038685Y025344D01*
X038737Y025346D01*
X038789Y025344D01*
X038841Y025338D01*
X038893Y025328D01*
X038943Y025315D01*
X038993Y025298D01*
X039041Y025277D01*
X039087Y025252D01*
X039131Y025224D01*
X039173Y025193D01*
X039213Y025159D01*
X039250Y025122D01*
X039284Y025082D01*
X039315Y025040D01*
X039343Y024996D01*
X039368Y024950D01*
X039389Y024902D01*
X039406Y024852D01*
X039419Y024802D01*
X039429Y024750D01*
X039435Y024698D01*
X039437Y024646D01*
X039435Y024594D01*
X039429Y024542D01*
X039419Y024490D01*
X039406Y024440D01*
X039389Y024390D01*
X039368Y024342D01*
X039343Y024296D01*
X039315Y024252D01*
X039284Y024210D01*
X039250Y024170D01*
X039213Y024133D01*
X039173Y024099D01*
X039131Y024068D01*
X039087Y024040D01*
X039041Y024015D01*
X038993Y023994D01*
X038943Y023977D01*
X038893Y023964D01*
X038841Y023954D01*
X038789Y023948D01*
X038737Y023946D01*
X038685Y023948D01*
X038633Y023954D01*
X038581Y023964D01*
X038531Y023977D01*
X038481Y023994D01*
X038433Y024015D01*
X038387Y024040D01*
X038343Y024068D01*
X038301Y024099D01*
X038261Y024133D01*
X038224Y024170D01*
X038190Y024210D01*
X038159Y024252D01*
X038131Y024296D01*
X038106Y024342D01*
X038085Y024390D01*
X038068Y024440D01*
X038055Y024490D01*
X038045Y024542D01*
X038039Y024594D01*
X038037Y024646D01*
X034067Y016796D02*
X032647Y016796D01*
X031035Y015722D02*
X030799Y015722D01*
X030799Y015249D02*
X031035Y015249D01*
X032647Y014936D02*
X034067Y014936D01*
X024150Y014016D02*
X024150Y013556D01*
X024035Y013441D01*
X023805Y013441D01*
X023690Y013556D01*
X024150Y014016D01*
X024035Y014131D01*
X023805Y014131D01*
X023690Y014016D01*
X023690Y013556D01*
X023459Y013556D02*
X023459Y013441D01*
X023344Y013441D01*
X023344Y013556D01*
X023459Y013556D01*
X023114Y013441D02*
X022654Y013441D01*
X022884Y013441D02*
X022884Y014131D01*
X022654Y013901D01*
X021733Y013786D02*
X021733Y013441D01*
X021733Y013786D02*
X021618Y013901D01*
X021273Y013901D01*
X021273Y013441D01*
X021042Y013556D02*
X021042Y013786D01*
X020927Y013901D01*
X020697Y013901D01*
X020582Y013786D01*
X020582Y013556D01*
X020697Y013441D01*
X020927Y013441D01*
X021042Y013556D01*
X020352Y013441D02*
X020352Y013786D01*
X020237Y013901D01*
X020006Y013901D01*
X019891Y013786D01*
X019661Y013901D02*
X019431Y013901D01*
X019546Y014016D02*
X019546Y013556D01*
X019661Y013441D01*
X019891Y013441D02*
X019891Y014131D01*
X019086Y014131D02*
X019086Y014246D01*
X019086Y013901D02*
X018971Y013901D01*
X019086Y013901D02*
X019086Y013441D01*
X018971Y013441D02*
X019201Y013441D01*
X018740Y013441D02*
X018740Y013901D01*
X018510Y014131D01*
X018280Y013901D01*
X018280Y013441D01*
X018280Y013786D02*
X018740Y013786D01*
X009547Y005346D02*
X009547Y004946D01*
X009547Y003996D01*
X009547Y003646D01*
X008747Y003296D02*
X008647Y003296D01*
X008647Y003196D01*
X008047Y003196D01*
X008047Y003296D01*
X007947Y003296D01*
X007147Y003646D02*
X007147Y003996D01*
X007147Y004996D01*
X007147Y005346D01*
X006997Y005346D02*
X006997Y004946D01*
X006997Y003996D01*
X006997Y003646D01*
X006197Y003296D02*
X006097Y003296D01*
X006097Y003196D01*
X005497Y003196D01*
X005497Y003296D01*
X005397Y003296D01*
X004597Y003646D02*
X004597Y003996D01*
X004597Y004996D01*
X004597Y005346D01*
X005397Y005696D02*
X005497Y005696D01*
X005497Y005796D01*
X006097Y005796D01*
X006097Y005696D01*
X006197Y005696D01*
X005697Y004496D02*
X005699Y004516D01*
X005705Y004534D01*
X005714Y004552D01*
X005726Y004567D01*
X005741Y004579D01*
X005759Y004588D01*
X005777Y004594D01*
X005797Y004596D01*
X005817Y004594D01*
X005835Y004588D01*
X005853Y004579D01*
X005868Y004567D01*
X005880Y004552D01*
X005889Y004534D01*
X005895Y004516D01*
X005897Y004496D01*
X005895Y004476D01*
X005889Y004458D01*
X005880Y004440D01*
X005868Y004425D01*
X005853Y004413D01*
X005835Y004404D01*
X005817Y004398D01*
X005797Y004396D01*
X005777Y004398D01*
X005759Y004404D01*
X005741Y004413D01*
X005726Y004425D01*
X005714Y004440D01*
X005705Y004458D01*
X005699Y004476D01*
X005697Y004496D01*
X005097Y004496D02*
X005099Y004548D01*
X005105Y004600D01*
X005115Y004652D01*
X005128Y004702D01*
X005145Y004752D01*
X005166Y004800D01*
X005191Y004846D01*
X005219Y004890D01*
X005250Y004932D01*
X005284Y004972D01*
X005321Y005009D01*
X005361Y005043D01*
X005403Y005074D01*
X005447Y005102D01*
X005493Y005127D01*
X005541Y005148D01*
X005591Y005165D01*
X005641Y005178D01*
X005693Y005188D01*
X005745Y005194D01*
X005797Y005196D01*
X005849Y005194D01*
X005901Y005188D01*
X005953Y005178D01*
X006003Y005165D01*
X006053Y005148D01*
X006101Y005127D01*
X006147Y005102D01*
X006191Y005074D01*
X006233Y005043D01*
X006273Y005009D01*
X006310Y004972D01*
X006344Y004932D01*
X006375Y004890D01*
X006403Y004846D01*
X006428Y004800D01*
X006449Y004752D01*
X006466Y004702D01*
X006479Y004652D01*
X006489Y004600D01*
X006495Y004548D01*
X006497Y004496D01*
X006495Y004444D01*
X006489Y004392D01*
X006479Y004340D01*
X006466Y004290D01*
X006449Y004240D01*
X006428Y004192D01*
X006403Y004146D01*
X006375Y004102D01*
X006344Y004060D01*
X006310Y004020D01*
X006273Y003983D01*
X006233Y003949D01*
X006191Y003918D01*
X006147Y003890D01*
X006101Y003865D01*
X006053Y003844D01*
X006003Y003827D01*
X005953Y003814D01*
X005901Y003804D01*
X005849Y003798D01*
X005797Y003796D01*
X005745Y003798D01*
X005693Y003804D01*
X005641Y003814D01*
X005591Y003827D01*
X005541Y003844D01*
X005493Y003865D01*
X005447Y003890D01*
X005403Y003918D01*
X005361Y003949D01*
X005321Y003983D01*
X005284Y004020D01*
X005250Y004060D01*
X005219Y004102D01*
X005191Y004146D01*
X005166Y004192D01*
X005145Y004240D01*
X005128Y004290D01*
X005115Y004340D01*
X005105Y004392D01*
X005099Y004444D01*
X005097Y004496D01*
X007947Y005696D02*
X008047Y005696D01*
X008047Y005796D01*
X008647Y005796D01*
X008647Y005696D01*
X008747Y005696D01*
X008247Y004496D02*
X008249Y004516D01*
X008255Y004534D01*
X008264Y004552D01*
X008276Y004567D01*
X008291Y004579D01*
X008309Y004588D01*
X008327Y004594D01*
X008347Y004596D01*
X008367Y004594D01*
X008385Y004588D01*
X008403Y004579D01*
X008418Y004567D01*
X008430Y004552D01*
X008439Y004534D01*
X008445Y004516D01*
X008447Y004496D01*
X008445Y004476D01*
X008439Y004458D01*
X008430Y004440D01*
X008418Y004425D01*
X008403Y004413D01*
X008385Y004404D01*
X008367Y004398D01*
X008347Y004396D01*
X008327Y004398D01*
X008309Y004404D01*
X008291Y004413D01*
X008276Y004425D01*
X008264Y004440D01*
X008255Y004458D01*
X008249Y004476D01*
X008247Y004496D01*
X007647Y004496D02*
X007649Y004548D01*
X007655Y004600D01*
X007665Y004652D01*
X007678Y004702D01*
X007695Y004752D01*
X007716Y004800D01*
X007741Y004846D01*
X007769Y004890D01*
X007800Y004932D01*
X007834Y004972D01*
X007871Y005009D01*
X007911Y005043D01*
X007953Y005074D01*
X007997Y005102D01*
X008043Y005127D01*
X008091Y005148D01*
X008141Y005165D01*
X008191Y005178D01*
X008243Y005188D01*
X008295Y005194D01*
X008347Y005196D01*
X008399Y005194D01*
X008451Y005188D01*
X008503Y005178D01*
X008553Y005165D01*
X008603Y005148D01*
X008651Y005127D01*
X008697Y005102D01*
X008741Y005074D01*
X008783Y005043D01*
X008823Y005009D01*
X008860Y004972D01*
X008894Y004932D01*
X008925Y004890D01*
X008953Y004846D01*
X008978Y004800D01*
X008999Y004752D01*
X009016Y004702D01*
X009029Y004652D01*
X009039Y004600D01*
X009045Y004548D01*
X009047Y004496D01*
X009045Y004444D01*
X009039Y004392D01*
X009029Y004340D01*
X009016Y004290D01*
X008999Y004240D01*
X008978Y004192D01*
X008953Y004146D01*
X008925Y004102D01*
X008894Y004060D01*
X008860Y004020D01*
X008823Y003983D01*
X008783Y003949D01*
X008741Y003918D01*
X008697Y003890D01*
X008651Y003865D01*
X008603Y003844D01*
X008553Y003827D01*
X008503Y003814D01*
X008451Y003804D01*
X008399Y003798D01*
X008347Y003796D01*
X008295Y003798D01*
X008243Y003804D01*
X008191Y003814D01*
X008141Y003827D01*
X008091Y003844D01*
X008043Y003865D01*
X007997Y003890D01*
X007953Y003918D01*
X007911Y003949D01*
X007871Y003983D01*
X007834Y004020D01*
X007800Y004060D01*
X007769Y004102D01*
X007741Y004146D01*
X007716Y004192D01*
X007695Y004240D01*
X007678Y004290D01*
X007665Y004340D01*
X007655Y004392D01*
X007649Y004444D01*
X007647Y004496D01*
D12*
X005152Y006688D02*
X005099Y006635D01*
X005152Y006688D02*
X005152Y006795D01*
X005099Y006848D01*
X005045Y006848D01*
X004992Y006795D01*
X004992Y006688D01*
X004938Y006635D01*
X004885Y006635D01*
X004832Y006688D01*
X004832Y006795D01*
X004885Y006848D01*
X004885Y006957D02*
X005099Y006957D01*
X005152Y007010D01*
X005152Y007117D01*
X005099Y007171D01*
X005152Y007279D02*
X004832Y007279D01*
X004885Y007171D02*
X004832Y007117D01*
X004832Y007010D01*
X004885Y006957D01*
X005152Y007279D02*
X005152Y007493D01*
X005094Y007777D02*
X005147Y007830D01*
X005147Y007937D01*
X005094Y007990D01*
X005040Y007990D01*
X004987Y007937D01*
X004987Y007830D01*
X004933Y007777D01*
X004880Y007777D01*
X004827Y007830D01*
X004827Y007937D01*
X004880Y007990D01*
X004827Y008099D02*
X005147Y008099D01*
X005147Y008259D01*
X005094Y008313D01*
X004880Y008313D01*
X004827Y008259D01*
X004827Y008099D01*
X004933Y008421D02*
X004827Y008528D01*
X004933Y008635D01*
X005147Y008635D01*
X004987Y008635D02*
X004987Y008421D01*
X004933Y008421D02*
X005147Y008421D01*
X004227Y008219D02*
X004227Y008157D01*
X004165Y008096D01*
X004227Y008034D01*
X004227Y007972D01*
X004165Y007911D01*
X004042Y007911D01*
X003980Y007972D01*
X003859Y007911D02*
X003859Y008157D01*
X003735Y008281D01*
X003612Y008157D01*
X003612Y007911D01*
X003612Y008096D02*
X003859Y008096D01*
X003980Y008219D02*
X004042Y008281D01*
X004165Y008281D01*
X004227Y008219D01*
X004165Y008096D02*
X004104Y008096D01*
X004165Y007281D02*
X004042Y007281D01*
X003980Y007219D01*
X003859Y007157D02*
X003735Y007281D01*
X003612Y007157D01*
X003612Y006911D01*
X003612Y007096D02*
X003859Y007096D01*
X003859Y007157D02*
X003859Y006911D01*
X003980Y006911D02*
X004227Y007157D01*
X004227Y007219D01*
X004165Y007281D01*
X004227Y006911D02*
X003980Y006911D01*
X004104Y006281D02*
X004104Y005911D01*
X004227Y005911D02*
X003980Y005911D01*
X003859Y005911D02*
X003859Y006157D01*
X003735Y006281D01*
X003612Y006157D01*
X003612Y005911D01*
X003612Y006096D02*
X003859Y006096D01*
X003980Y006157D02*
X004104Y006281D01*
X004042Y005281D02*
X004165Y005281D01*
X004227Y005219D01*
X003980Y004972D01*
X004042Y004911D01*
X004165Y004911D01*
X004227Y004972D01*
X004227Y005219D01*
X004042Y005281D02*
X003980Y005219D01*
X003980Y004972D01*
X003859Y004911D02*
X003859Y005157D01*
X003735Y005281D01*
X003612Y005157D01*
X003612Y004911D01*
X003612Y005096D02*
X003859Y005096D01*
X003142Y004397D02*
X003019Y004397D01*
X003019Y004274D01*
X003142Y004397D02*
X003204Y004335D01*
X003204Y004212D01*
X003142Y004150D01*
X002895Y004150D01*
X002834Y004212D01*
X002834Y004335D01*
X002895Y004397D01*
X002834Y004028D02*
X002834Y003905D01*
X002834Y003966D02*
X003204Y003966D01*
X003204Y003905D02*
X003204Y004028D01*
X003142Y003783D02*
X003204Y003722D01*
X003204Y003598D01*
X003142Y003536D01*
X003019Y003598D02*
X003019Y003722D01*
X003081Y003783D01*
X003142Y003783D01*
X003019Y003598D02*
X002957Y003536D01*
X002895Y003536D01*
X002834Y003598D01*
X002834Y003722D01*
X002895Y003783D01*
X002172Y003933D02*
X002049Y004057D01*
X001802Y004057D01*
X001863Y004178D02*
X001802Y004240D01*
X001802Y004363D01*
X001863Y004425D01*
X001925Y004425D01*
X001987Y004363D01*
X002049Y004425D01*
X002110Y004425D01*
X002172Y004363D01*
X002172Y004240D01*
X002110Y004178D01*
X001987Y004302D02*
X001987Y004363D01*
X002172Y003933D02*
X002049Y003810D01*
X001802Y003810D01*
X001863Y003689D02*
X001925Y003689D01*
X001987Y003627D01*
X002049Y003689D01*
X002110Y003689D01*
X002172Y003627D01*
X002172Y003503D01*
X002110Y003442D01*
X001987Y003565D02*
X001987Y003627D01*
X001863Y003689D02*
X001802Y003627D01*
X001802Y003503D01*
X001863Y003442D01*
X001176Y003836D02*
X001114Y003774D01*
X000867Y004021D01*
X001114Y004021D01*
X001176Y003959D01*
X001176Y003836D01*
X001114Y003774D02*
X000867Y003774D01*
X000806Y003836D01*
X000806Y003959D01*
X000867Y004021D01*
X000806Y004142D02*
X001053Y004142D01*
X001176Y004266D01*
X001053Y004389D01*
X000806Y004389D01*
X003612Y008911D02*
X003612Y009157D01*
X003735Y009281D01*
X003859Y009157D01*
X003859Y008911D01*
X003859Y009096D02*
X003612Y009096D01*
X003980Y009096D02*
X004227Y009096D01*
X004165Y008911D02*
X004165Y009281D01*
X003980Y009096D01*
X004042Y009911D02*
X003980Y009972D01*
X004042Y009911D02*
X004165Y009911D01*
X004227Y009972D01*
X004227Y010096D01*
X004165Y010157D01*
X004104Y010157D01*
X003980Y010096D01*
X003980Y010281D01*
X004227Y010281D01*
X003859Y010157D02*
X003859Y009911D01*
X003859Y010096D02*
X003612Y010096D01*
X003612Y010157D02*
X003735Y010281D01*
X003859Y010157D01*
X003612Y010157D02*
X003612Y009911D01*
X003612Y010911D02*
X003612Y011157D01*
X003735Y011281D01*
X003859Y011157D01*
X003859Y010911D01*
X003980Y010972D02*
X004042Y010911D01*
X004165Y010911D01*
X004227Y010972D01*
X004227Y011034D01*
X004165Y011096D01*
X003980Y011096D01*
X003980Y010972D01*
X003980Y011096D02*
X004104Y011219D01*
X004227Y011281D01*
X003859Y011096D02*
X003612Y011096D01*
X003612Y011911D02*
X003612Y012157D01*
X003735Y012281D01*
X003859Y012157D01*
X003859Y011911D01*
X003980Y011911D02*
X003980Y011972D01*
X004227Y012219D01*
X004227Y012281D01*
X003980Y012281D01*
X003859Y012096D02*
X003612Y012096D01*
X003194Y014111D02*
X003317Y014234D01*
X003317Y014481D01*
X003070Y014481D02*
X003070Y014234D01*
X003194Y014111D01*
X002949Y014172D02*
X002887Y014111D01*
X002764Y014111D01*
X002702Y014172D01*
X002702Y014296D02*
X002825Y014357D01*
X002887Y014357D01*
X002949Y014296D01*
X002949Y014172D01*
X002702Y014296D02*
X002702Y014481D01*
X002949Y014481D01*
X001496Y014419D02*
X001496Y014357D01*
X001434Y014296D01*
X001496Y014234D01*
X001496Y014172D01*
X001434Y014111D01*
X001310Y014111D01*
X001249Y014172D01*
X001127Y014234D02*
X001127Y014481D01*
X001249Y014419D02*
X001310Y014481D01*
X001434Y014481D01*
X001496Y014419D01*
X001434Y014296D02*
X001372Y014296D01*
X001127Y014234D02*
X001004Y014111D01*
X000880Y014234D01*
X000880Y014481D01*
X000759Y014419D02*
X000759Y014357D01*
X000697Y014296D01*
X000759Y014234D01*
X000759Y014172D01*
X000697Y014111D01*
X000574Y014111D01*
X000512Y014172D01*
X000635Y014296D02*
X000697Y014296D01*
X000759Y014419D02*
X000697Y014481D01*
X000574Y014481D01*
X000512Y014419D01*
X003612Y016611D02*
X003612Y016981D01*
X003797Y016981D01*
X003859Y016919D01*
X003859Y016672D01*
X003797Y016611D01*
X003612Y016611D01*
X003980Y016672D02*
X003980Y016919D01*
X004042Y016981D01*
X004165Y016981D01*
X004227Y016919D01*
X003980Y016672D01*
X004042Y016611D01*
X004165Y016611D01*
X004227Y016672D01*
X004227Y016919D01*
X004227Y017611D02*
X003980Y017611D01*
X004104Y017611D02*
X004104Y017981D01*
X003980Y017857D01*
X003859Y017919D02*
X003797Y017981D01*
X003612Y017981D01*
X003612Y017611D01*
X003797Y017611D01*
X003859Y017672D01*
X003859Y017919D01*
X003797Y018611D02*
X003612Y018611D01*
X003612Y018981D01*
X003797Y018981D01*
X003859Y018919D01*
X003859Y018672D01*
X003797Y018611D01*
X003980Y018611D02*
X004227Y018857D01*
X004227Y018919D01*
X004165Y018981D01*
X004042Y018981D01*
X003980Y018919D01*
X003980Y018611D02*
X004227Y018611D01*
X004165Y019611D02*
X004042Y019611D01*
X003980Y019672D01*
X003859Y019672D02*
X003859Y019919D01*
X003797Y019981D01*
X003612Y019981D01*
X003612Y019611D01*
X003797Y019611D01*
X003859Y019672D01*
X004104Y019796D02*
X004165Y019796D01*
X004227Y019734D01*
X004227Y019672D01*
X004165Y019611D01*
X004165Y019796D02*
X004227Y019857D01*
X004227Y019919D01*
X004165Y019981D01*
X004042Y019981D01*
X003980Y019919D01*
X003797Y020611D02*
X003612Y020611D01*
X003612Y020981D01*
X003797Y020981D01*
X003859Y020919D01*
X003859Y020672D01*
X003797Y020611D01*
X003980Y020796D02*
X004227Y020796D01*
X004165Y020611D02*
X004165Y020981D01*
X003980Y020796D01*
X004042Y021611D02*
X003980Y021672D01*
X004042Y021611D02*
X004165Y021611D01*
X004227Y021672D01*
X004227Y021796D01*
X004165Y021857D01*
X004104Y021857D01*
X003980Y021796D01*
X003980Y021981D01*
X004227Y021981D01*
X003859Y021919D02*
X003859Y021672D01*
X003797Y021611D01*
X003612Y021611D01*
X003612Y021981D01*
X003797Y021981D01*
X003859Y021919D01*
X003797Y022611D02*
X003612Y022611D01*
X003612Y022981D01*
X003797Y022981D01*
X003859Y022919D01*
X003859Y022672D01*
X003797Y022611D01*
X003980Y022672D02*
X004042Y022611D01*
X004165Y022611D01*
X004227Y022672D01*
X004227Y022734D01*
X004165Y022796D01*
X003980Y022796D01*
X003980Y022672D01*
X003980Y022796D02*
X004104Y022919D01*
X004227Y022981D01*
X003980Y023611D02*
X003980Y023672D01*
X004227Y023919D01*
X004227Y023981D01*
X003980Y023981D01*
X003859Y023919D02*
X003797Y023981D01*
X003612Y023981D01*
X003612Y023611D01*
X003797Y023611D01*
X003859Y023672D01*
X003859Y023919D01*
X003797Y024611D02*
X003612Y024611D01*
X003612Y024981D01*
X003797Y024981D01*
X003859Y024919D01*
X003859Y024672D01*
X003797Y024611D01*
X003980Y024672D02*
X004042Y024611D01*
X004165Y024611D01*
X004227Y024672D01*
X004227Y024734D01*
X004165Y024796D01*
X004042Y024796D01*
X003980Y024857D01*
X003980Y024919D01*
X004042Y024981D01*
X004165Y024981D01*
X004227Y024919D01*
X004227Y024857D01*
X004165Y024796D01*
X004042Y024796D02*
X003980Y024734D01*
X003980Y024672D01*
X004042Y025611D02*
X004165Y025611D01*
X004227Y025672D01*
X004227Y025919D01*
X004165Y025981D01*
X004042Y025981D01*
X003980Y025919D01*
X003980Y025857D01*
X004042Y025796D01*
X004227Y025796D01*
X004042Y025611D02*
X003980Y025672D01*
X003859Y025672D02*
X003859Y025919D01*
X003797Y025981D01*
X003612Y025981D01*
X003612Y025611D01*
X003797Y025611D01*
X003859Y025672D01*
X003797Y026611D02*
X003612Y026611D01*
X003612Y026981D01*
X003797Y026981D01*
X003859Y026919D01*
X003859Y026672D01*
X003797Y026611D01*
X003980Y026611D02*
X004227Y026611D01*
X004104Y026611D02*
X004104Y026981D01*
X003980Y026857D01*
X004349Y026919D02*
X004349Y026672D01*
X004596Y026919D01*
X004596Y026672D01*
X004534Y026611D01*
X004410Y026611D01*
X004349Y026672D01*
X004349Y026919D02*
X004410Y026981D01*
X004534Y026981D01*
X004596Y026919D01*
X004596Y027611D02*
X004349Y027611D01*
X004227Y027611D02*
X003980Y027611D01*
X004104Y027611D02*
X004104Y027981D01*
X003980Y027857D01*
X003859Y027919D02*
X003797Y027981D01*
X003612Y027981D01*
X003612Y027611D01*
X003797Y027611D01*
X003859Y027672D01*
X003859Y027919D01*
X004349Y027857D02*
X004472Y027981D01*
X004472Y027611D01*
X004349Y028611D02*
X004596Y028857D01*
X004596Y028919D01*
X004534Y028981D01*
X004410Y028981D01*
X004349Y028919D01*
X004104Y028981D02*
X004104Y028611D01*
X004227Y028611D02*
X003980Y028611D01*
X003859Y028672D02*
X003859Y028919D01*
X003797Y028981D01*
X003612Y028981D01*
X003612Y028611D01*
X003797Y028611D01*
X003859Y028672D01*
X003980Y028857D02*
X004104Y028981D01*
X004349Y028611D02*
X004596Y028611D01*
X004534Y029611D02*
X004410Y029611D01*
X004349Y029672D01*
X004227Y029611D02*
X003980Y029611D01*
X004104Y029611D02*
X004104Y029981D01*
X003980Y029857D01*
X003859Y029919D02*
X003797Y029981D01*
X003612Y029981D01*
X003612Y029611D01*
X003797Y029611D01*
X003859Y029672D01*
X003859Y029919D01*
X004349Y029919D02*
X004410Y029981D01*
X004534Y029981D01*
X004596Y029919D01*
X004596Y029857D01*
X004534Y029796D01*
X004596Y029734D01*
X004596Y029672D01*
X004534Y029611D01*
X004534Y029796D02*
X004472Y029796D01*
X004534Y030611D02*
X004534Y030981D01*
X004349Y030796D01*
X004596Y030796D01*
X004227Y030611D02*
X003980Y030611D01*
X004104Y030611D02*
X004104Y030981D01*
X003980Y030857D01*
X003859Y030919D02*
X003797Y030981D01*
X003612Y030981D01*
X003612Y030611D01*
X003797Y030611D01*
X003859Y030672D01*
X003859Y030919D01*
X003232Y031452D02*
X003232Y031576D01*
X003170Y031637D01*
X003109Y031637D01*
X003047Y031576D01*
X003047Y031452D01*
X002985Y031391D01*
X002923Y031391D01*
X002862Y031452D01*
X002862Y031576D01*
X002923Y031637D01*
X002862Y031759D02*
X002862Y031882D01*
X002862Y031821D02*
X003232Y031821D01*
X003232Y031882D02*
X003232Y031759D01*
X003170Y032004D02*
X003232Y032066D01*
X003232Y032190D01*
X003170Y032251D01*
X003047Y032251D01*
X003047Y032128D01*
X003170Y032004D02*
X002923Y032004D01*
X002862Y032066D01*
X002862Y032190D01*
X002923Y032251D01*
X002232Y032374D02*
X002109Y032251D01*
X002109Y032312D02*
X002109Y032127D01*
X002232Y032127D02*
X001862Y032127D01*
X001862Y032312D01*
X001923Y032374D01*
X002047Y032374D01*
X002109Y032312D01*
X002232Y032006D02*
X001862Y032006D01*
X001862Y031759D02*
X002232Y031759D01*
X002109Y031882D01*
X002232Y032006D01*
X002047Y031637D02*
X001923Y031637D01*
X001862Y031576D01*
X001862Y031391D01*
X002232Y031391D01*
X002109Y031391D02*
X002109Y031576D01*
X002047Y031637D01*
X001232Y031576D02*
X001232Y031452D01*
X001170Y031391D01*
X000923Y031637D01*
X001170Y031637D01*
X001232Y031576D01*
X001170Y031391D02*
X000923Y031391D01*
X000862Y031452D01*
X000862Y031576D01*
X000923Y031637D01*
X000862Y031759D02*
X001109Y031759D01*
X001232Y031882D01*
X001109Y032006D01*
X000862Y032006D01*
X003170Y031391D02*
X003232Y031452D01*
X015582Y022084D02*
X015902Y022084D01*
X015902Y021977D02*
X015902Y022191D01*
X015688Y021977D02*
X015582Y022084D01*
X015902Y021869D02*
X015902Y021655D01*
X015582Y021655D01*
X015635Y021546D02*
X015582Y021493D01*
X015582Y021386D01*
X015635Y021333D01*
X015849Y021333D01*
X015902Y021386D01*
X015902Y021493D01*
X015849Y021546D01*
X015849Y021224D02*
X015902Y021171D01*
X015902Y021064D01*
X015849Y021011D01*
X015742Y021064D02*
X015742Y021171D01*
X015795Y021224D01*
X015849Y021224D01*
X015742Y021064D02*
X015688Y021011D01*
X015635Y021011D01*
X015582Y021064D01*
X015582Y021171D01*
X015635Y021224D01*
X016582Y021171D02*
X016582Y021064D01*
X016635Y021011D01*
X016688Y021011D01*
X016742Y021064D01*
X016742Y021171D01*
X016795Y021224D01*
X016849Y021224D01*
X016902Y021171D01*
X016902Y021064D01*
X016849Y021011D01*
X016635Y021224D02*
X016582Y021171D01*
X016582Y021333D02*
X016582Y021493D01*
X016635Y021546D01*
X016849Y021546D01*
X016902Y021493D01*
X016902Y021333D01*
X016582Y021333D01*
X016688Y021655D02*
X016582Y021762D01*
X016688Y021869D01*
X016902Y021869D01*
X016902Y021977D02*
X016902Y022191D01*
X016902Y022084D02*
X016582Y022084D01*
X016688Y021977D01*
X016742Y021869D02*
X016742Y021655D01*
X016688Y021655D02*
X016902Y021655D01*
X017582Y021655D02*
X017742Y021655D01*
X017688Y021762D01*
X017688Y021815D01*
X017742Y021869D01*
X017849Y021869D01*
X017902Y021815D01*
X017902Y021709D01*
X017849Y021655D01*
X017902Y021546D02*
X017902Y021333D01*
X017902Y021440D02*
X017582Y021440D01*
X017688Y021333D01*
X017635Y021224D02*
X017582Y021171D01*
X017582Y021011D01*
X017902Y021011D01*
X017902Y021171D01*
X017849Y021224D01*
X017635Y021224D01*
X017582Y021655D02*
X017582Y021869D01*
X018582Y021869D02*
X018635Y021762D01*
X018742Y021655D01*
X018742Y021815D01*
X018795Y021869D01*
X018849Y021869D01*
X018902Y021815D01*
X018902Y021709D01*
X018849Y021655D01*
X018742Y021655D01*
X018902Y021546D02*
X018902Y021333D01*
X018902Y021440D02*
X018582Y021440D01*
X018688Y021333D01*
X018635Y021224D02*
X018582Y021171D01*
X018582Y021011D01*
X018902Y021011D01*
X018902Y021171D01*
X018849Y021224D01*
X018635Y021224D01*
X019582Y021171D02*
X019635Y021224D01*
X019742Y021224D01*
X019795Y021171D01*
X019795Y021011D01*
X019795Y021117D02*
X019902Y021224D01*
X019902Y021333D02*
X019902Y021546D01*
X019849Y021655D02*
X019902Y021709D01*
X019902Y021815D01*
X019849Y021869D01*
X019795Y021869D01*
X019742Y021815D01*
X019742Y021709D01*
X019688Y021655D01*
X019635Y021655D01*
X019582Y021709D01*
X019582Y021815D01*
X019635Y021869D01*
X019582Y021977D02*
X019902Y021977D01*
X019902Y022191D01*
X019742Y022084D02*
X019742Y021977D01*
X019582Y021977D02*
X019582Y022191D01*
X019582Y022300D02*
X019582Y022513D01*
X019582Y022406D02*
X019902Y022406D01*
X019582Y021546D02*
X019582Y021333D01*
X019902Y021333D01*
X019742Y021333D02*
X019742Y021440D01*
X019582Y021171D02*
X019582Y021011D01*
X019902Y021011D01*
X020582Y021064D02*
X020582Y021171D01*
X020635Y021224D01*
X020849Y021011D01*
X020902Y021064D01*
X020902Y021171D01*
X020849Y021224D01*
X020635Y021224D01*
X020582Y021333D02*
X020795Y021333D01*
X020902Y021440D01*
X020795Y021546D01*
X020582Y021546D01*
X020582Y021064D02*
X020635Y021011D01*
X020849Y021011D01*
X021582Y021064D02*
X021582Y021171D01*
X021635Y021224D01*
X021688Y021224D01*
X021742Y021171D01*
X021795Y021224D01*
X021849Y021224D01*
X021902Y021171D01*
X021902Y021064D01*
X021849Y021011D01*
X021742Y021117D02*
X021742Y021171D01*
X021795Y021333D02*
X021902Y021440D01*
X021795Y021546D01*
X021582Y021546D01*
X021635Y021655D02*
X021582Y021709D01*
X021582Y021815D01*
X021635Y021869D01*
X021688Y021869D01*
X021742Y021815D01*
X021795Y021869D01*
X021849Y021869D01*
X021902Y021815D01*
X021902Y021709D01*
X021849Y021655D01*
X021742Y021762D02*
X021742Y021815D01*
X021795Y021333D02*
X021582Y021333D01*
X021582Y021064D02*
X021635Y021011D01*
X022582Y021011D02*
X022742Y021011D01*
X022688Y021117D01*
X022688Y021171D01*
X022742Y021224D01*
X022849Y021224D01*
X022902Y021171D01*
X022902Y021064D01*
X022849Y021011D01*
X022582Y021011D02*
X022582Y021224D01*
X022582Y021333D02*
X022795Y021333D01*
X022902Y021440D01*
X022795Y021546D01*
X022582Y021546D01*
X018662Y019415D02*
X018662Y019309D01*
X018609Y019255D01*
X018555Y019146D02*
X018342Y019146D01*
X018395Y019255D02*
X018342Y019309D01*
X018342Y019415D01*
X018395Y019469D01*
X018448Y019469D01*
X018502Y019415D01*
X018555Y019469D01*
X018609Y019469D01*
X018662Y019415D01*
X018502Y019415D02*
X018502Y019362D01*
X018555Y019146D02*
X018662Y019040D01*
X018555Y018933D01*
X018342Y018933D01*
X018395Y018824D02*
X018448Y018824D01*
X018502Y018771D01*
X018555Y018824D01*
X018609Y018824D01*
X018662Y018771D01*
X018662Y018664D01*
X018609Y018611D01*
X018502Y018717D02*
X018502Y018771D01*
X018395Y018824D02*
X018342Y018771D01*
X018342Y018664D01*
X018395Y018611D01*
X018371Y018392D02*
X018584Y018178D01*
X018531Y018232D02*
X018691Y018392D01*
X018691Y018178D02*
X018371Y018178D01*
X018371Y017856D02*
X018691Y017856D01*
X018691Y018069D01*
X018638Y017747D02*
X018691Y017694D01*
X018691Y017587D01*
X018638Y017534D01*
X018424Y017534D01*
X018371Y017587D01*
X018371Y017694D01*
X018424Y017747D01*
X018332Y017296D02*
X018545Y017296D01*
X018652Y017190D01*
X018545Y017083D01*
X018332Y017083D01*
X018385Y016974D02*
X018599Y016761D01*
X018652Y016814D01*
X018652Y016921D01*
X018599Y016974D01*
X018385Y016974D01*
X018332Y016921D01*
X018332Y016814D01*
X018385Y016761D01*
X018599Y016761D01*
X018609Y016239D02*
X018395Y016239D01*
X018342Y016186D01*
X018342Y016079D01*
X018395Y016025D01*
X018609Y016025D01*
X018662Y016079D01*
X018662Y016186D01*
X018609Y016239D01*
X018662Y015917D02*
X018662Y015811D01*
X018662Y015864D02*
X018342Y015864D01*
X018342Y015811D02*
X018342Y015917D01*
X016122Y016021D02*
X015802Y016235D01*
X015802Y016021D02*
X016122Y016235D01*
X016122Y015806D02*
X015802Y015806D01*
X015802Y015699D02*
X015802Y015913D01*
X015794Y016741D02*
X015794Y016901D01*
X015847Y016955D01*
X015954Y016955D01*
X016007Y016901D01*
X016007Y016741D01*
X016007Y016848D02*
X016114Y016955D01*
X016114Y017063D02*
X015794Y017277D01*
X015794Y017063D02*
X016114Y017277D01*
X016080Y017731D02*
X015866Y017945D01*
X016080Y017945D01*
X016133Y017891D01*
X016133Y017784D01*
X016080Y017731D01*
X015866Y017731D01*
X015813Y017784D01*
X015813Y017891D01*
X015866Y017945D01*
X015813Y018053D02*
X016026Y018053D01*
X016133Y018160D01*
X016026Y018267D01*
X015813Y018267D01*
X015856Y018556D02*
X015803Y018609D01*
X015803Y018716D01*
X015856Y018769D01*
X015909Y018769D01*
X015963Y018716D01*
X016016Y018769D01*
X016070Y018769D01*
X016123Y018716D01*
X016123Y018609D01*
X016070Y018556D01*
X015963Y018663D02*
X015963Y018716D01*
X016016Y018878D02*
X016123Y018985D01*
X016016Y019092D01*
X015803Y019092D01*
X015856Y019200D02*
X015803Y019254D01*
X015803Y019360D01*
X015856Y019414D01*
X015909Y019414D01*
X015963Y019360D01*
X016016Y019414D01*
X016070Y019414D01*
X016123Y019360D01*
X016123Y019254D01*
X016070Y019200D01*
X015963Y019307D02*
X015963Y019360D01*
X016016Y018878D02*
X015803Y018878D01*
X013893Y016790D02*
X013946Y016736D01*
X013946Y016630D01*
X013893Y016576D01*
X013893Y016468D02*
X013946Y016414D01*
X013946Y016307D01*
X013893Y016254D01*
X013786Y016307D02*
X013786Y016414D01*
X013839Y016468D01*
X013893Y016468D01*
X013786Y016307D02*
X013732Y016254D01*
X013679Y016254D01*
X013626Y016307D01*
X013626Y016414D01*
X013679Y016468D01*
X013679Y016576D02*
X013732Y016576D01*
X013786Y016630D01*
X013786Y016736D01*
X013839Y016790D01*
X013893Y016790D01*
X013679Y016790D02*
X013626Y016736D01*
X013626Y016630D01*
X013679Y016576D01*
X012942Y016569D02*
X012942Y016676D01*
X012889Y016730D01*
X012942Y016838D02*
X012622Y016838D01*
X012675Y016730D02*
X012622Y016676D01*
X012622Y016569D01*
X012675Y016516D01*
X012889Y016516D01*
X012942Y016569D01*
X012889Y016407D02*
X012942Y016354D01*
X012942Y016247D01*
X012889Y016194D01*
X012782Y016247D02*
X012782Y016354D01*
X012835Y016407D01*
X012889Y016407D01*
X012782Y016247D02*
X012728Y016194D01*
X012675Y016194D01*
X012622Y016247D01*
X012622Y016354D01*
X012675Y016407D01*
X012835Y016838D02*
X012622Y017052D01*
X012782Y016892D02*
X012942Y017052D01*
X011939Y017133D02*
X011886Y017079D01*
X011672Y017079D01*
X011619Y017133D01*
X011619Y017239D01*
X011672Y017293D01*
X011886Y017293D01*
X011939Y017239D01*
X011939Y017133D01*
X011886Y016971D02*
X011939Y016917D01*
X011939Y016810D01*
X011886Y016757D01*
X011779Y016810D02*
X011779Y016917D01*
X011832Y016971D01*
X011886Y016971D01*
X011779Y016810D02*
X011725Y016757D01*
X011672Y016757D01*
X011619Y016810D01*
X011619Y016917D01*
X011672Y016971D01*
X011619Y016649D02*
X011619Y016542D01*
X011619Y016596D02*
X011939Y016596D01*
X011939Y016649D02*
X011939Y016542D01*
X011939Y016433D02*
X011619Y016433D01*
X011725Y016327D01*
X011619Y016220D01*
X011939Y016220D01*
X010953Y016211D02*
X010633Y016211D01*
X010739Y016318D01*
X010633Y016424D01*
X010953Y016424D01*
X010900Y016533D02*
X010953Y016587D01*
X010953Y016693D01*
X010900Y016747D01*
X010686Y016747D01*
X010633Y016693D01*
X010633Y016587D01*
X010686Y016533D01*
X010900Y016533D01*
X010900Y016855D02*
X010953Y016909D01*
X010953Y017016D01*
X010900Y017069D01*
X010846Y017069D01*
X010793Y017016D01*
X010793Y016909D01*
X010739Y016855D01*
X010686Y016855D01*
X010633Y016909D01*
X010633Y017016D01*
X010686Y017069D01*
X010633Y017178D02*
X010633Y017285D01*
X010633Y017231D02*
X010953Y017231D01*
X010953Y017178D02*
X010953Y017285D01*
X009944Y016679D02*
X009837Y016786D01*
X009624Y016786D01*
X009624Y016572D02*
X009837Y016572D01*
X009944Y016679D01*
X009891Y016464D02*
X009944Y016410D01*
X009944Y016303D01*
X009891Y016250D01*
X009677Y016464D01*
X009891Y016464D01*
X009677Y016464D02*
X009624Y016410D01*
X009624Y016303D01*
X009677Y016250D01*
X009891Y016250D01*
X008921Y016266D02*
X008868Y016213D01*
X008921Y016266D02*
X008921Y016373D01*
X008868Y016426D01*
X008814Y016426D01*
X008761Y016373D01*
X008761Y016320D01*
X008761Y016373D02*
X008707Y016426D01*
X008654Y016426D01*
X008601Y016373D01*
X008601Y016266D01*
X008654Y016213D01*
X008601Y016535D02*
X008814Y016535D01*
X008921Y016642D01*
X008814Y016749D01*
X008601Y016749D01*
X008654Y016857D02*
X008601Y016911D01*
X008601Y017017D01*
X008654Y017071D01*
X008707Y017071D01*
X008761Y017017D01*
X008814Y017071D01*
X008868Y017071D01*
X008921Y017017D01*
X008921Y016911D01*
X008868Y016857D01*
X008761Y016964D02*
X008761Y017017D01*
X008716Y014831D02*
X008716Y014511D01*
X008502Y014831D01*
X008502Y014511D01*
X008824Y014564D02*
X008878Y014511D01*
X008984Y014511D01*
X009038Y014564D01*
X009038Y014778D02*
X008984Y014831D01*
X008878Y014831D01*
X008824Y014778D01*
X008824Y014564D01*
X009372Y014550D02*
X009425Y014497D01*
X009532Y014497D01*
X009586Y014550D01*
X009586Y014603D01*
X009532Y014657D01*
X009479Y014657D01*
X009532Y014657D02*
X009586Y014710D01*
X009586Y014764D01*
X009532Y014817D01*
X009425Y014817D01*
X009372Y014764D01*
X009694Y014817D02*
X009694Y014603D01*
X009801Y014497D01*
X009908Y014603D01*
X009908Y014817D01*
X010017Y014764D02*
X010070Y014817D01*
X010177Y014817D01*
X010230Y014764D01*
X010230Y014710D01*
X010177Y014657D01*
X010230Y014603D01*
X010230Y014550D01*
X010177Y014497D01*
X010070Y014497D01*
X010017Y014550D01*
X010123Y014657D02*
X010177Y014657D01*
X010538Y014557D02*
X010752Y014771D01*
X010752Y014557D01*
X010698Y014504D01*
X010591Y014504D01*
X010538Y014557D01*
X010538Y014771D01*
X010591Y014824D01*
X010698Y014824D01*
X010752Y014771D01*
X010860Y014824D02*
X010860Y014610D01*
X010967Y014504D01*
X011074Y014610D01*
X011074Y014824D01*
X011548Y014817D02*
X011548Y014497D01*
X011548Y014603D02*
X011708Y014603D01*
X011762Y014657D01*
X011762Y014764D01*
X011708Y014817D01*
X011548Y014817D01*
X011655Y014603D02*
X011762Y014497D01*
X011870Y014497D02*
X012084Y014817D01*
X011870Y014817D02*
X012084Y014497D01*
X012512Y014824D02*
X012726Y014824D01*
X012619Y014824D02*
X012619Y014504D01*
X012834Y014504D02*
X013048Y014824D01*
X012834Y014824D02*
X013048Y014504D01*
X013542Y014511D02*
X013542Y014831D01*
X013756Y014511D01*
X013756Y014831D01*
X013864Y014778D02*
X013864Y014564D01*
X013918Y014511D01*
X014024Y014511D01*
X014078Y014564D01*
X014078Y014778D02*
X014024Y014831D01*
X013918Y014831D01*
X013864Y014778D01*
X015794Y016741D02*
X016114Y016741D01*
X008211Y010226D02*
X008211Y010173D01*
X008158Y010120D01*
X008211Y010066D01*
X008211Y010013D01*
X008158Y009960D01*
X008051Y009960D01*
X007998Y010013D01*
X007889Y010066D02*
X007889Y010280D01*
X007998Y010226D02*
X008051Y010280D01*
X008158Y010280D01*
X008211Y010226D01*
X008158Y010120D02*
X008104Y010120D01*
X007889Y010066D02*
X007782Y009960D01*
X007675Y010066D01*
X007675Y010280D01*
X007567Y010226D02*
X007513Y010280D01*
X007406Y010280D01*
X007353Y010226D01*
X007460Y010120D02*
X007513Y010120D01*
X007567Y010066D01*
X007567Y010013D01*
X007513Y009960D01*
X007406Y009960D01*
X007353Y010013D01*
X007513Y010120D02*
X007567Y010173D01*
X007567Y010226D01*
X007528Y009322D02*
X007582Y009269D01*
X007368Y009055D01*
X007421Y009002D01*
X007528Y009002D01*
X007582Y009055D01*
X007582Y009269D01*
X007528Y009322D02*
X007421Y009322D01*
X007368Y009269D01*
X007368Y009055D01*
X007690Y009108D02*
X007690Y009322D01*
X007690Y009108D02*
X007797Y009002D01*
X007904Y009108D01*
X007904Y009322D01*
X007889Y008328D02*
X007675Y008008D01*
X007567Y008008D02*
X007460Y008114D01*
X007513Y008114D02*
X007353Y008114D01*
X007353Y008008D02*
X007353Y008328D01*
X007513Y008328D01*
X007567Y008274D01*
X007567Y008168D01*
X007513Y008114D01*
X007675Y008328D02*
X007889Y008008D01*
X007890Y007300D02*
X007676Y006980D01*
X007890Y006980D02*
X007676Y007300D01*
X007568Y007300D02*
X007354Y007300D01*
X007461Y007300D02*
X007461Y006980D01*
X029151Y002391D02*
X029364Y002391D01*
X029364Y002338D01*
X029151Y002124D01*
X029151Y002071D01*
X029473Y002231D02*
X029686Y002231D01*
X029795Y002338D02*
X029849Y002391D01*
X029955Y002391D01*
X030009Y002338D01*
X030009Y002284D01*
X029795Y002071D01*
X030009Y002071D01*
X030117Y002231D02*
X030331Y002231D01*
X030440Y002177D02*
X030546Y002071D01*
X030653Y002177D01*
X030653Y002391D01*
X030440Y002391D02*
X030440Y002177D01*
X030278Y002071D02*
X030278Y002391D01*
X030117Y002231D01*
X035073Y002134D02*
X035287Y002348D01*
X035287Y002134D01*
X035233Y002081D01*
X035126Y002081D01*
X035073Y002134D01*
X035073Y002348D01*
X035126Y002401D01*
X035233Y002401D01*
X035287Y002348D01*
X035395Y002401D02*
X035395Y002187D01*
X035502Y002081D01*
X035609Y002187D01*
X035609Y002401D01*
X039895Y005196D02*
X040002Y005089D01*
X040002Y005249D01*
X040055Y005303D01*
X040109Y005303D01*
X040162Y005249D01*
X040162Y005143D01*
X040109Y005089D01*
X040002Y005089D01*
X039895Y005196D02*
X039842Y005303D01*
X040002Y005412D02*
X040002Y005625D01*
X039895Y005734D02*
X039842Y005787D01*
X039842Y005894D01*
X039895Y005947D01*
X039948Y005947D01*
X040162Y005734D01*
X040162Y005947D01*
X040002Y006056D02*
X040002Y006270D01*
X040055Y006378D02*
X039842Y006378D01*
X039842Y006216D02*
X040002Y006056D01*
X040162Y006216D02*
X039842Y006216D01*
X040055Y006378D02*
X040162Y006485D01*
X040055Y006592D01*
X039842Y006592D01*
X039805Y011141D02*
X039752Y011194D01*
X039752Y011301D01*
X039805Y011354D01*
X040019Y011141D01*
X040072Y011194D01*
X040072Y011301D01*
X040019Y011354D01*
X039805Y011354D01*
X039752Y011463D02*
X039965Y011463D01*
X040072Y011570D01*
X039965Y011676D01*
X039752Y011676D01*
X039805Y011141D02*
X040019Y011141D01*
X036741Y014122D02*
X036679Y014061D01*
X036555Y014061D01*
X036494Y014122D01*
X036741Y014369D01*
X036741Y014122D01*
X036741Y014369D02*
X036679Y014431D01*
X036555Y014431D01*
X036494Y014369D01*
X036494Y014122D01*
X036372Y014122D02*
X036311Y014061D01*
X036187Y014061D01*
X036125Y014122D01*
X036187Y014246D02*
X036311Y014246D01*
X036372Y014184D01*
X036372Y014122D01*
X036187Y014246D02*
X036125Y014307D01*
X036125Y014369D01*
X036187Y014431D01*
X036311Y014431D01*
X036372Y014369D01*
X036311Y015061D02*
X036187Y015061D01*
X036125Y015122D01*
X036187Y015246D02*
X036311Y015246D01*
X036372Y015184D01*
X036372Y015122D01*
X036311Y015061D01*
X036494Y015061D02*
X036741Y015061D01*
X036617Y015061D02*
X036617Y015431D01*
X036494Y015307D01*
X036372Y015369D02*
X036311Y015431D01*
X036187Y015431D01*
X036125Y015369D01*
X036125Y015307D01*
X036187Y015246D01*
X036187Y016061D02*
X036125Y016122D01*
X036187Y016061D02*
X036311Y016061D01*
X036372Y016122D01*
X036372Y016184D01*
X036311Y016246D01*
X036187Y016246D01*
X036125Y016307D01*
X036125Y016369D01*
X036187Y016431D01*
X036311Y016431D01*
X036372Y016369D01*
X036494Y016369D02*
X036555Y016431D01*
X036679Y016431D01*
X036741Y016369D01*
X036741Y016307D01*
X036494Y016061D01*
X036741Y016061D01*
X036679Y017061D02*
X036555Y017061D01*
X036494Y017122D01*
X036372Y017122D02*
X036311Y017061D01*
X036187Y017061D01*
X036125Y017122D01*
X036187Y017246D02*
X036311Y017246D01*
X036372Y017184D01*
X036372Y017122D01*
X036187Y017246D02*
X036125Y017307D01*
X036125Y017369D01*
X036187Y017431D01*
X036311Y017431D01*
X036372Y017369D01*
X036494Y017369D02*
X036555Y017431D01*
X036679Y017431D01*
X036741Y017369D01*
X036741Y017307D01*
X036679Y017246D01*
X036741Y017184D01*
X036741Y017122D01*
X036679Y017061D01*
X036679Y017246D02*
X036617Y017246D01*
X036679Y018061D02*
X036679Y018431D01*
X036494Y018246D01*
X036741Y018246D01*
X036372Y018184D02*
X036372Y018122D01*
X036311Y018061D01*
X036187Y018061D01*
X036125Y018122D01*
X036187Y018246D02*
X036311Y018246D01*
X036372Y018184D01*
X036372Y018369D02*
X036311Y018431D01*
X036187Y018431D01*
X036125Y018369D01*
X036125Y018307D01*
X036187Y018246D01*
X036187Y019061D02*
X036125Y019122D01*
X036187Y019061D02*
X036311Y019061D01*
X036372Y019122D01*
X036372Y019184D01*
X036311Y019246D01*
X036187Y019246D01*
X036125Y019307D01*
X036125Y019369D01*
X036187Y019431D01*
X036311Y019431D01*
X036372Y019369D01*
X036494Y019431D02*
X036494Y019246D01*
X036617Y019307D01*
X036679Y019307D01*
X036741Y019246D01*
X036741Y019122D01*
X036679Y019061D01*
X036555Y019061D01*
X036494Y019122D01*
X036494Y019431D02*
X036741Y019431D01*
X036679Y020061D02*
X036741Y020122D01*
X036741Y020184D01*
X036679Y020246D01*
X036494Y020246D01*
X036494Y020122D01*
X036555Y020061D01*
X036679Y020061D01*
X036494Y020246D02*
X036617Y020369D01*
X036741Y020431D01*
X036372Y020369D02*
X036311Y020431D01*
X036187Y020431D01*
X036125Y020369D01*
X036125Y020307D01*
X036187Y020246D01*
X036311Y020246D01*
X036372Y020184D01*
X036372Y020122D01*
X036311Y020061D01*
X036187Y020061D01*
X036125Y020122D01*
X036187Y021061D02*
X036125Y021122D01*
X036187Y021061D02*
X036311Y021061D01*
X036372Y021122D01*
X036372Y021184D01*
X036311Y021246D01*
X036187Y021246D01*
X036125Y021307D01*
X036125Y021369D01*
X036187Y021431D01*
X036311Y021431D01*
X036372Y021369D01*
X036494Y021431D02*
X036741Y021431D01*
X036741Y021369D01*
X036494Y021122D01*
X036494Y021061D01*
X037302Y021672D02*
X037363Y021611D01*
X037425Y021611D01*
X037487Y021672D01*
X037487Y021796D01*
X037549Y021857D01*
X037610Y021857D01*
X037672Y021796D01*
X037672Y021672D01*
X037610Y021611D01*
X037302Y021672D02*
X037302Y021796D01*
X037363Y021857D01*
X037302Y021979D02*
X037302Y022102D01*
X037302Y022041D02*
X037672Y022041D01*
X037672Y022102D02*
X037672Y021979D01*
X037610Y022224D02*
X037672Y022286D01*
X037672Y022410D01*
X037610Y022471D01*
X037487Y022471D01*
X037487Y022348D01*
X037610Y022224D02*
X037363Y022224D01*
X037302Y022286D01*
X037302Y022410D01*
X037363Y022471D01*
X038302Y022532D02*
X038363Y022594D01*
X038487Y022594D01*
X038549Y022532D01*
X038549Y022347D01*
X038672Y022347D02*
X038302Y022347D01*
X038302Y022532D01*
X038549Y022471D02*
X038672Y022594D01*
X038672Y022226D02*
X038302Y022226D01*
X038302Y021979D02*
X038672Y021979D01*
X038549Y022102D01*
X038672Y022226D01*
X038487Y021857D02*
X038363Y021857D01*
X038302Y021796D01*
X038302Y021611D01*
X038672Y021611D01*
X038549Y021611D02*
X038549Y021796D01*
X038487Y021857D01*
X039302Y021796D02*
X039363Y021857D01*
X039610Y021611D01*
X039672Y021672D01*
X039672Y021796D01*
X039610Y021857D01*
X039363Y021857D01*
X039302Y021796D02*
X039302Y021672D01*
X039363Y021611D01*
X039610Y021611D01*
X039549Y021979D02*
X039672Y022102D01*
X039549Y022226D01*
X039302Y022226D01*
X039302Y021979D02*
X039549Y021979D01*
X039816Y028131D02*
X040063Y028131D01*
X040125Y028192D01*
X040125Y028316D01*
X040063Y028377D01*
X039816Y028377D01*
X039755Y028316D01*
X039755Y028192D01*
X039816Y028131D01*
X039755Y028499D02*
X039755Y028746D01*
X039755Y028867D02*
X039755Y029114D01*
X039940Y028991D02*
X039940Y028867D01*
X040125Y028867D02*
X039755Y028867D01*
X039940Y028622D02*
X039940Y028499D01*
X040125Y028499D02*
X039755Y028499D01*
X039812Y029921D02*
X040059Y029921D01*
X040121Y029982D01*
X040121Y030106D01*
X040059Y030167D01*
X039812Y030167D01*
X039751Y030106D01*
X039751Y029982D01*
X039812Y029921D01*
X039751Y030289D02*
X040121Y030536D01*
X039751Y030536D01*
X039751Y030289D02*
X040121Y030289D01*
X030454Y007861D02*
X030294Y007861D01*
X030294Y007541D01*
X030294Y007647D02*
X030454Y007647D01*
X030507Y007701D01*
X030507Y007808D01*
X030454Y007861D01*
X030400Y007647D02*
X030507Y007541D01*
X030185Y007541D02*
X030185Y007861D01*
X029971Y007861D02*
X029971Y007541D01*
X030078Y007647D01*
X030185Y007541D01*
X029863Y007701D02*
X029809Y007647D01*
X029649Y007647D01*
X029649Y007541D02*
X029649Y007861D01*
X029809Y007861D01*
X029863Y007808D01*
X029863Y007701D01*
D13*
X030754Y006166D02*
X030891Y006029D01*
X031028Y006166D01*
X031028Y005756D01*
X031168Y005756D02*
X031168Y006029D01*
X031305Y006166D01*
X031442Y006029D01*
X031442Y005756D01*
X031583Y005756D02*
X031719Y005756D01*
X031651Y005756D02*
X031651Y006166D01*
X031583Y006166D02*
X031719Y006166D01*
X031859Y006166D02*
X032133Y005756D01*
X032133Y006166D01*
X031859Y006166D02*
X031859Y005756D01*
X032273Y005687D02*
X032547Y005687D01*
X032688Y005756D02*
X032688Y006166D01*
X032893Y006166D01*
X032961Y006098D01*
X032961Y005961D01*
X032893Y005892D01*
X032688Y005892D01*
X033102Y005756D02*
X033239Y005892D01*
X033376Y005756D01*
X033376Y006166D01*
X033516Y006166D02*
X033722Y006166D01*
X033790Y006098D01*
X033790Y005961D01*
X033722Y005892D01*
X033516Y005892D01*
X033516Y005756D02*
X033516Y006166D01*
X033653Y005892D02*
X033790Y005756D01*
X033102Y005756D02*
X033102Y006166D01*
X031442Y005961D02*
X031168Y005961D01*
X030754Y005756D02*
X030754Y006166D01*
X027507Y006377D02*
X027234Y006377D01*
X027370Y006377D02*
X027370Y006787D01*
X027234Y006650D01*
X027093Y006582D02*
X027024Y006513D01*
X026819Y006513D01*
X026819Y006377D02*
X026819Y006787D01*
X027024Y006787D01*
X027093Y006719D01*
X027093Y006582D01*
X026956Y006513D02*
X027093Y006377D01*
X026679Y006445D02*
X026679Y006719D01*
X026610Y006787D01*
X026473Y006787D01*
X026405Y006719D01*
X026405Y006445D01*
X026473Y006377D01*
X026610Y006377D01*
X026679Y006445D01*
X026264Y006787D02*
X025991Y006787D01*
X026127Y006787D02*
X026127Y006377D01*
X025850Y006445D02*
X025850Y006719D01*
X025781Y006787D01*
X025645Y006787D01*
X025576Y006719D01*
X025576Y006445D01*
X025645Y006377D01*
X025781Y006377D01*
X025850Y006445D01*
X025435Y006377D02*
X025435Y006787D01*
X025299Y006650D01*
X025162Y006787D01*
X025162Y006377D01*
X023513Y006455D02*
X023445Y006387D01*
X023308Y006387D01*
X023240Y006455D01*
X023513Y006729D01*
X023513Y006455D01*
X023240Y006455D02*
X023240Y006729D01*
X023308Y006797D01*
X023445Y006797D01*
X023513Y006729D01*
X023099Y006729D02*
X023099Y006592D01*
X023030Y006523D01*
X022825Y006523D01*
X022825Y006387D02*
X022825Y006797D01*
X023030Y006797D01*
X023099Y006729D01*
X022962Y006523D02*
X023099Y006387D01*
X022685Y006455D02*
X022685Y006729D01*
X022616Y006797D01*
X022479Y006797D01*
X022411Y006729D01*
X022411Y006455D01*
X022479Y006387D01*
X022616Y006387D01*
X022685Y006455D01*
X022270Y006797D02*
X021997Y006797D01*
X022133Y006797D02*
X022133Y006387D01*
X021856Y006455D02*
X021856Y006729D01*
X021787Y006797D01*
X021651Y006797D01*
X021582Y006729D01*
X021582Y006455D01*
X021651Y006387D01*
X021787Y006387D01*
X021856Y006455D01*
X021441Y006387D02*
X021441Y006797D01*
X021305Y006660D01*
X021168Y006797D01*
X021168Y006387D01*
X018787Y006437D02*
X018719Y006369D01*
X018582Y006369D01*
X018513Y006437D01*
X018513Y006574D01*
X018582Y006643D01*
X018650Y006643D01*
X018650Y006369D01*
X018650Y006228D02*
X018650Y005955D01*
X018582Y005955D02*
X018719Y005955D01*
X018787Y006023D01*
X018787Y006160D01*
X018650Y006228D02*
X018582Y006228D01*
X018513Y006160D01*
X018513Y006023D01*
X018582Y005955D01*
X018650Y005814D02*
X018582Y005745D01*
X018582Y005540D01*
X018582Y005400D02*
X018582Y005126D01*
X018787Y004985D02*
X018377Y004712D01*
X018377Y004985D02*
X018787Y004712D01*
X018787Y005540D02*
X018377Y005540D01*
X018377Y005745D01*
X018445Y005814D01*
X018513Y005814D01*
X018582Y005745D01*
X018650Y005814D02*
X018719Y005814D01*
X018787Y005745D01*
X018787Y005540D01*
X018787Y006437D02*
X018787Y006574D01*
X021248Y003075D02*
X021248Y002615D01*
X021555Y002615D01*
X023217Y002615D02*
X023217Y003075D01*
X023447Y003075D01*
X023524Y002998D01*
X023524Y002845D01*
X023447Y002768D01*
X023217Y002768D01*
X023370Y002768D02*
X023524Y002615D01*
X025188Y002615D02*
X025495Y002615D01*
X025188Y002615D02*
X025188Y003075D01*
X027157Y003075D02*
X027157Y002615D01*
X027157Y002768D02*
X027387Y002768D01*
X027464Y002845D01*
X027464Y002998D01*
X027387Y003075D01*
X027157Y003075D01*
X027310Y002768D02*
X027464Y002615D01*
X031998Y002615D02*
X032305Y002615D01*
X031998Y002615D02*
X031998Y003075D01*
X033967Y003075D02*
X033967Y002615D01*
X033967Y002768D02*
X034197Y002768D01*
X034274Y002845D01*
X034274Y002998D01*
X034197Y003075D01*
X033967Y003075D01*
X034120Y002768D02*
X034274Y002615D01*
X039208Y008077D02*
X039668Y008077D01*
X039668Y008384D01*
X039668Y010046D02*
X039208Y010046D01*
X039208Y010276D01*
X039284Y010353D01*
X039438Y010353D01*
X039515Y010276D01*
X039515Y010046D01*
X039515Y010199D02*
X039668Y010353D01*
X037510Y011713D02*
X037374Y011849D01*
X037442Y011849D02*
X037237Y011849D01*
X037237Y011713D02*
X037237Y012123D01*
X037442Y012123D01*
X037510Y012055D01*
X037510Y011918D01*
X037442Y011849D01*
X037096Y011713D02*
X037096Y012123D01*
X036822Y012123D02*
X036822Y011713D01*
X036959Y011849D01*
X037096Y011713D01*
X036682Y011918D02*
X036682Y012055D01*
X036613Y012123D01*
X036408Y012123D01*
X036408Y011713D01*
X036408Y011849D02*
X036613Y011849D01*
X036682Y011918D01*
X036267Y011644D02*
X035994Y011644D01*
X035853Y011781D02*
X035853Y012055D01*
X035785Y012123D01*
X035648Y012123D01*
X035579Y012055D01*
X035579Y011781D01*
X035648Y011713D01*
X035785Y011713D01*
X035853Y011781D01*
X035439Y011849D02*
X035439Y012123D01*
X035439Y011849D02*
X035302Y011713D01*
X035165Y011849D01*
X035165Y012123D01*
X035024Y012055D02*
X035024Y011918D01*
X034956Y011849D01*
X034751Y011849D01*
X034751Y011713D02*
X034751Y012123D01*
X034956Y012123D01*
X035024Y012055D01*
X034887Y011849D02*
X035024Y011713D01*
X034610Y011713D02*
X034336Y011713D01*
X034336Y012123D01*
X034610Y012123D01*
X034473Y011918D02*
X034336Y011918D01*
X034196Y011849D02*
X034196Y011781D01*
X034127Y011713D01*
X033990Y011713D01*
X033922Y011781D01*
X033990Y011918D02*
X033922Y011986D01*
X033922Y012055D01*
X033990Y012123D01*
X034127Y012123D01*
X034196Y012055D01*
X034127Y011918D02*
X034196Y011849D01*
X034127Y011918D02*
X033990Y011918D01*
X028830Y013604D02*
X028557Y013604D01*
X028693Y013604D02*
X028693Y014014D01*
X028557Y013877D01*
X028416Y013946D02*
X028347Y014014D01*
X028142Y014014D01*
X028142Y013604D01*
X028347Y013604D01*
X028416Y013672D01*
X028416Y013946D01*
X028002Y014014D02*
X027728Y014014D01*
X027728Y013604D01*
X028002Y013604D01*
X027865Y013809D02*
X027728Y013809D01*
X027587Y013604D02*
X027314Y013604D01*
X027314Y014014D01*
X027311Y015128D02*
X027584Y015128D01*
X027725Y015128D02*
X027999Y015128D01*
X028139Y015128D02*
X028344Y015128D01*
X028413Y015196D01*
X028413Y015470D01*
X028344Y015538D01*
X028139Y015538D01*
X028139Y015128D01*
X027862Y015333D02*
X027725Y015333D01*
X027725Y015538D02*
X027725Y015128D01*
X027725Y015538D02*
X027999Y015538D01*
X028554Y015470D02*
X028554Y015196D01*
X028827Y015470D01*
X028827Y015196D01*
X028759Y015128D01*
X028622Y015128D01*
X028554Y015196D01*
X028554Y015470D02*
X028622Y015538D01*
X028759Y015538D01*
X028827Y015470D01*
X027311Y015538D02*
X027311Y015128D01*
X026371Y019228D02*
X024481Y019228D01*
X023811Y019897D01*
X023811Y020134D01*
X023811Y020882D02*
X023811Y021118D01*
X024481Y021787D01*
X026371Y021787D01*
X026371Y020882D01*
X026371Y020134D02*
X026371Y019228D01*
X026252Y020882D02*
X026230Y020946D01*
X026203Y021009D01*
X026173Y021071D01*
X026140Y021130D01*
X026104Y021188D01*
X026064Y021244D01*
X026021Y021297D01*
X025976Y021348D01*
X025928Y021396D01*
X025877Y021441D01*
X025823Y021484D01*
X025767Y021523D01*
X025710Y021560D01*
X025650Y021593D01*
X025588Y021622D01*
X025525Y021648D01*
X025461Y021671D01*
X025395Y021690D01*
X025328Y021705D01*
X025261Y021716D01*
X025193Y021724D01*
X025125Y021728D01*
X025057Y021728D01*
X024989Y021724D01*
X024921Y021716D01*
X024854Y021705D01*
X024787Y021690D01*
X024721Y021671D01*
X024657Y021648D01*
X024594Y021622D01*
X024532Y021593D01*
X024472Y021560D01*
X024415Y021523D01*
X024359Y021484D01*
X024305Y021441D01*
X024254Y021396D01*
X024206Y021348D01*
X024161Y021297D01*
X024118Y021244D01*
X024078Y021188D01*
X024042Y021130D01*
X024009Y021071D01*
X023979Y021009D01*
X023952Y020946D01*
X023930Y020882D01*
X023930Y020134D02*
X023952Y020070D01*
X023979Y020007D01*
X024009Y019945D01*
X024042Y019886D01*
X024078Y019828D01*
X024118Y019772D01*
X024161Y019719D01*
X024206Y019668D01*
X024254Y019620D01*
X024305Y019575D01*
X024359Y019532D01*
X024415Y019493D01*
X024472Y019456D01*
X024532Y019423D01*
X024594Y019394D01*
X024657Y019368D01*
X024721Y019345D01*
X024787Y019326D01*
X024854Y019311D01*
X024921Y019300D01*
X024989Y019292D01*
X025057Y019288D01*
X025125Y019288D01*
X025193Y019292D01*
X025261Y019300D01*
X025328Y019311D01*
X025395Y019326D01*
X025461Y019345D01*
X025525Y019368D01*
X025588Y019394D01*
X025650Y019423D01*
X025710Y019456D01*
X025767Y019493D01*
X025823Y019532D01*
X025877Y019575D01*
X025928Y019620D01*
X025976Y019668D01*
X026021Y019719D01*
X026064Y019772D01*
X026104Y019828D01*
X026140Y019886D01*
X026173Y019945D01*
X026203Y020007D01*
X026230Y020070D01*
X026252Y020134D01*
X018541Y015257D02*
X018541Y014983D01*
X018473Y014915D01*
X018268Y014915D01*
X018268Y015325D01*
X018473Y015325D01*
X018541Y015257D01*
X018127Y015325D02*
X018127Y014915D01*
X017990Y015051D01*
X017853Y014915D01*
X017853Y015325D01*
X017713Y015257D02*
X017644Y015325D01*
X017507Y015325D01*
X017439Y015257D01*
X017439Y015188D01*
X017507Y015120D01*
X017644Y015120D01*
X017713Y015051D01*
X017713Y014983D01*
X017644Y014915D01*
X017507Y014915D01*
X017439Y014983D01*
X016985Y014878D02*
X016712Y014878D01*
X016985Y015151D01*
X016985Y015220D01*
X016917Y015288D01*
X016780Y015288D01*
X016712Y015220D01*
X016571Y015288D02*
X016297Y015288D01*
X016434Y015288D02*
X016434Y014878D01*
X016157Y014878D02*
X016020Y015014D01*
X016088Y015014D02*
X015883Y015014D01*
X015883Y014878D02*
X015883Y015288D01*
X016088Y015288D01*
X016157Y015220D01*
X016157Y015083D01*
X016088Y015014D01*
X015742Y015083D02*
X015469Y015083D01*
X015469Y015151D02*
X015605Y015288D01*
X015742Y015151D01*
X015742Y014878D01*
X015469Y014878D02*
X015469Y015151D01*
X015328Y015220D02*
X015259Y015288D01*
X015123Y015288D01*
X015054Y015220D01*
X015054Y015151D01*
X015123Y015083D01*
X015259Y015083D01*
X015328Y015014D01*
X015328Y014946D01*
X015259Y014878D01*
X015123Y014878D01*
X015054Y014946D01*
X014913Y014946D02*
X014913Y015288D01*
X014640Y015288D02*
X014640Y014946D01*
X014708Y014878D01*
X014845Y014878D01*
X014913Y014946D01*
X012357Y013183D02*
X012357Y012773D01*
X012493Y012773D02*
X012220Y012773D01*
X012220Y013046D02*
X012357Y013183D01*
X012079Y013183D02*
X011805Y013183D01*
X011942Y013183D02*
X011942Y012773D01*
X011665Y012773D02*
X011528Y012909D01*
X011596Y012909D02*
X011391Y012909D01*
X011391Y012773D02*
X011391Y013183D01*
X011596Y013183D01*
X011665Y013115D01*
X011665Y012978D01*
X011596Y012909D01*
X011250Y012978D02*
X010977Y012978D01*
X010977Y013046D02*
X010977Y012773D01*
X010836Y012841D02*
X010768Y012773D01*
X010631Y012773D01*
X010562Y012841D01*
X010422Y012841D02*
X010422Y013183D01*
X010562Y013115D02*
X010562Y013046D01*
X010631Y012978D01*
X010768Y012978D01*
X010836Y012909D01*
X010836Y012841D01*
X010977Y013046D02*
X011113Y013183D01*
X011250Y013046D01*
X011250Y012773D01*
X010836Y013115D02*
X010768Y013183D01*
X010631Y013183D01*
X010562Y013115D01*
X010422Y012841D02*
X010353Y012773D01*
X010216Y012773D01*
X010148Y012841D01*
X010148Y013183D01*
X008843Y011173D02*
X008911Y011105D01*
X008911Y011036D01*
X008843Y010968D01*
X008911Y010899D01*
X008911Y010831D01*
X008843Y010763D01*
X008706Y010763D01*
X008637Y010831D01*
X008774Y010968D02*
X008843Y010968D01*
X008843Y011173D02*
X008706Y011173D01*
X008637Y011105D01*
X008497Y011173D02*
X008223Y011173D01*
X008360Y011173D02*
X008360Y010763D01*
X008082Y010763D02*
X007945Y010899D01*
X008014Y010899D02*
X007809Y010899D01*
X007809Y010763D02*
X007809Y011173D01*
X008014Y011173D01*
X008082Y011105D01*
X008082Y010968D01*
X008014Y010899D01*
X007668Y010968D02*
X007394Y010968D01*
X007394Y011036D02*
X007531Y011173D01*
X007668Y011036D01*
X007668Y010763D01*
X007394Y010763D02*
X007394Y011036D01*
X007254Y011105D02*
X007185Y011173D01*
X007048Y011173D01*
X006980Y011105D01*
X006980Y011036D01*
X007048Y010968D01*
X007185Y010968D01*
X007254Y010899D01*
X007254Y010831D01*
X007185Y010763D01*
X007048Y010763D01*
X006980Y010831D01*
X006839Y010831D02*
X006839Y011173D01*
X006566Y011173D02*
X006566Y010831D01*
X006634Y010763D01*
X006771Y010763D01*
X006839Y010831D01*
X006425Y011173D02*
X006151Y010763D01*
X006011Y010763D02*
X005737Y010763D01*
X006011Y011036D01*
X006011Y011105D01*
X005942Y011173D01*
X005805Y011173D01*
X005737Y011105D01*
X005596Y011105D02*
X005528Y011173D01*
X005391Y011173D01*
X005323Y011105D01*
X005323Y010831D01*
X005391Y010763D01*
X005528Y010763D01*
X005596Y010831D01*
X005182Y010763D02*
X004908Y010763D01*
X005182Y011036D01*
X005182Y011105D01*
X005113Y011173D01*
X004977Y011173D01*
X004908Y011105D01*
X004769Y011173D02*
X004632Y011173D01*
X004700Y011173D02*
X004700Y010763D01*
X004632Y010763D02*
X004769Y010763D01*
X002603Y015671D02*
X002329Y015671D01*
X002189Y015740D02*
X002052Y015876D01*
X002120Y015876D02*
X001915Y015876D01*
X001915Y015740D02*
X001915Y016150D01*
X002120Y016150D01*
X002189Y016082D01*
X002189Y015945D01*
X002120Y015876D01*
X001774Y015740D02*
X001774Y016150D01*
X001501Y016150D02*
X001501Y015740D01*
X001637Y015876D01*
X001774Y015740D01*
X001360Y015945D02*
X001360Y016082D01*
X001292Y016150D01*
X001086Y016150D01*
X001086Y015740D01*
X001086Y015876D02*
X001292Y015876D01*
X001360Y015945D01*
X000946Y016082D02*
X000877Y016150D01*
X000672Y016150D01*
X000672Y015740D01*
X000877Y015740D01*
X000946Y015808D01*
X000946Y016082D01*
X002744Y016082D02*
X002744Y016013D01*
X002812Y015945D01*
X002949Y015945D01*
X003017Y015876D01*
X003017Y015808D01*
X002949Y015740D01*
X002812Y015740D01*
X002744Y015808D01*
X002744Y016082D02*
X002812Y016150D01*
X002949Y016150D01*
X003017Y016082D01*
X003158Y016150D02*
X003158Y015740D01*
X003432Y015740D01*
X003572Y015740D02*
X003846Y015740D01*
X003572Y015740D02*
X003572Y016150D01*
X003432Y016150D02*
X003158Y016150D01*
X003158Y015945D02*
X003295Y015945D01*
X010822Y017749D02*
X010890Y017681D01*
X011027Y017681D01*
X011096Y017749D01*
X011096Y017817D01*
X011027Y017886D01*
X010890Y017886D01*
X010822Y017954D01*
X010822Y018023D01*
X010890Y018091D01*
X011027Y018091D01*
X011096Y018023D01*
X011236Y018091D02*
X011442Y018091D01*
X011510Y018023D01*
X011510Y017886D01*
X011442Y017817D01*
X011236Y017817D01*
X011236Y017681D02*
X011236Y018091D01*
X011651Y018091D02*
X011787Y018091D01*
X011719Y018091D02*
X011719Y017681D01*
X011651Y017681D02*
X011787Y017681D01*
X011927Y017681D02*
X012201Y017681D01*
X012064Y017681D02*
X012064Y018091D01*
X011927Y017954D01*
X013724Y002728D02*
X013724Y002660D01*
X013724Y002523D02*
X013724Y002250D01*
X013792Y002250D02*
X013655Y002250D01*
X013515Y002250D02*
X013515Y002660D01*
X013378Y002523D01*
X013241Y002660D01*
X013241Y002250D01*
X013655Y002523D02*
X013724Y002523D01*
X013932Y002455D02*
X013932Y002318D01*
X014000Y002250D01*
X014205Y002250D01*
X014346Y002250D02*
X014346Y002523D01*
X014346Y002386D02*
X014483Y002523D01*
X014551Y002523D01*
X014691Y002455D02*
X014691Y002318D01*
X014760Y002250D01*
X014896Y002250D01*
X014965Y002318D01*
X014965Y002455D01*
X014896Y002523D01*
X014760Y002523D01*
X014691Y002455D01*
X015106Y002523D02*
X015174Y002455D01*
X015311Y002455D01*
X015379Y002386D01*
X015379Y002318D01*
X015311Y002250D01*
X015174Y002250D01*
X015106Y002318D01*
X015106Y002523D02*
X015106Y002592D01*
X015174Y002660D01*
X015311Y002660D01*
X015379Y002592D01*
X015520Y002660D02*
X015725Y002660D01*
X015794Y002592D01*
X015794Y002318D01*
X015725Y002250D01*
X015520Y002250D01*
X015520Y002660D01*
X014205Y002523D02*
X014000Y002523D01*
X013932Y002455D01*
X009154Y002146D02*
X008880Y002146D01*
X009017Y002146D02*
X009017Y002556D01*
X008880Y002419D01*
X008739Y002556D02*
X008739Y002146D01*
X008466Y002556D01*
X008466Y002146D01*
X008188Y002146D02*
X008188Y002556D01*
X008051Y002556D02*
X008325Y002556D01*
X007911Y002488D02*
X007911Y002419D01*
X007842Y002351D01*
X007637Y002351D01*
X007637Y002146D02*
X007637Y002556D01*
X007842Y002556D01*
X007911Y002488D01*
X007842Y002351D02*
X007911Y002282D01*
X007911Y002214D01*
X007842Y002146D01*
X007637Y002146D01*
X006534Y002214D02*
X006465Y002146D01*
X006328Y002146D01*
X006260Y002214D01*
X006534Y002488D01*
X006534Y002214D01*
X006534Y002488D02*
X006465Y002556D01*
X006328Y002556D01*
X006260Y002488D01*
X006260Y002214D01*
X006119Y002146D02*
X006119Y002556D01*
X005846Y002556D02*
X005846Y002146D01*
X006119Y002146D02*
X005846Y002556D01*
X005705Y002556D02*
X005431Y002556D01*
X005568Y002556D02*
X005568Y002146D01*
X005291Y002214D02*
X005222Y002146D01*
X005017Y002146D01*
X005017Y002556D01*
X005222Y002556D01*
X005291Y002488D01*
X005291Y002419D01*
X005222Y002351D01*
X005017Y002351D01*
X005222Y002351D02*
X005291Y002282D01*
X005291Y002214D01*
X007567Y033466D02*
X007874Y033466D01*
X007720Y033466D02*
X007720Y033926D01*
X007567Y033773D01*
X022367Y033773D02*
X022520Y033926D01*
X022520Y033466D01*
X022367Y033466D02*
X022674Y033466D01*
X022827Y033542D02*
X022904Y033466D01*
X023058Y033466D01*
X023134Y033542D01*
X023134Y033619D01*
X023058Y033696D01*
X022827Y033696D01*
X022827Y033542D01*
X022827Y033696D02*
X022981Y033849D01*
X023134Y033926D01*
D14*
X019135Y032123D02*
X019135Y032076D01*
X019089Y032030D01*
X019135Y031983D01*
X019135Y031936D01*
X019089Y031890D01*
X018995Y031890D01*
X018949Y031936D01*
X018859Y031890D02*
X018672Y031890D01*
X018766Y031890D02*
X018766Y032170D01*
X018672Y032076D01*
X018583Y032123D02*
X018536Y032170D01*
X018443Y032170D01*
X018396Y032123D01*
X018396Y031936D01*
X018583Y032123D01*
X018583Y031936D01*
X018536Y031890D01*
X018443Y031890D01*
X018396Y031936D01*
X018307Y031890D02*
X018120Y031890D01*
X018307Y032076D01*
X018307Y032123D01*
X018260Y032170D01*
X018167Y032170D01*
X018120Y032123D01*
X018031Y032170D02*
X017844Y031890D01*
X017754Y032123D02*
X017754Y032170D01*
X017567Y032170D01*
X017478Y032170D02*
X017291Y031890D01*
X017202Y031936D02*
X017155Y031890D01*
X017062Y031890D01*
X017015Y031936D01*
X017015Y032030D02*
X017108Y032076D01*
X017155Y032076D01*
X017202Y032030D01*
X017202Y031936D01*
X017015Y032030D02*
X017015Y032170D01*
X017202Y032170D01*
X017567Y031936D02*
X017567Y031890D01*
X017567Y031936D02*
X017754Y032123D01*
X018949Y032123D02*
X018995Y032170D01*
X019089Y032170D01*
X019135Y032123D01*
X019089Y032030D02*
X019042Y032030D01*
X009093Y031088D02*
X006393Y031088D01*
X006393Y030788D02*
X009093Y030788D01*
X009093Y029788D02*
X006393Y029788D01*
X006393Y029488D02*
X009093Y029488D01*
X008143Y030288D02*
X007993Y030288D01*
X007493Y030288D02*
X007343Y030288D01*
X006124Y016179D02*
X006030Y016179D01*
X005984Y016132D01*
X005894Y016179D02*
X005894Y015992D01*
X005801Y015899D01*
X005708Y015992D01*
X005708Y016179D01*
X005618Y016132D02*
X005618Y016085D01*
X005571Y016039D01*
X005618Y015992D01*
X005618Y015945D01*
X005571Y015899D01*
X005478Y015899D01*
X005431Y015945D01*
X005525Y016039D02*
X005571Y016039D01*
X005618Y016132D02*
X005571Y016179D01*
X005478Y016179D01*
X005431Y016132D01*
X005984Y015945D02*
X006030Y015899D01*
X006124Y015899D01*
X006171Y015945D01*
X006171Y015992D01*
X006124Y016039D01*
X006077Y016039D01*
X006124Y016039D02*
X006171Y016085D01*
X006171Y016132D01*
X006124Y016179D01*
X006127Y015178D02*
X006127Y014991D01*
X006033Y014898D01*
X005940Y014991D01*
X005940Y015178D01*
X005850Y015131D02*
X005664Y014944D01*
X005710Y014898D01*
X005804Y014898D01*
X005850Y014944D01*
X005850Y015131D01*
X005804Y015178D01*
X005710Y015178D01*
X005664Y015131D01*
X005664Y014944D01*
X005637Y014149D02*
X005777Y014149D01*
X005823Y014102D01*
X005823Y013915D01*
X005777Y013869D01*
X005637Y013869D01*
X005637Y014149D01*
X005547Y014102D02*
X005500Y014149D01*
X005407Y014149D01*
X005360Y014102D01*
X005360Y014055D01*
X005407Y014009D01*
X005500Y014009D01*
X005547Y013962D01*
X005547Y013915D01*
X005500Y013869D01*
X005407Y013869D01*
X005360Y013915D01*
X005913Y013869D02*
X005913Y014055D01*
X006006Y014149D01*
X006100Y014055D01*
X006100Y013869D01*
X006100Y014009D02*
X005913Y014009D01*
X005951Y013123D02*
X005951Y012843D01*
X006138Y012843D01*
X005861Y012889D02*
X005815Y012843D01*
X005721Y012843D01*
X005675Y012889D01*
X005675Y013076D01*
X005721Y013123D01*
X005815Y013123D01*
X005861Y013076D01*
X005585Y013076D02*
X005538Y013123D01*
X005445Y013123D01*
X005398Y013076D01*
X005398Y013029D01*
X005445Y012983D01*
X005538Y012983D01*
X005585Y012936D01*
X005585Y012889D01*
X005538Y012843D01*
X005445Y012843D01*
X005398Y012889D01*
X004697Y004996D02*
X004597Y004996D01*
X004697Y004996D02*
X004697Y003996D01*
X004597Y003996D01*
X006897Y003996D02*
X006997Y003996D01*
X006897Y003996D02*
X006897Y004946D01*
X006997Y004946D01*
X007147Y004996D02*
X007247Y004996D01*
X007247Y003996D01*
X007147Y003996D01*
X009447Y003996D02*
X009547Y003996D01*
X009447Y003996D02*
X009447Y004946D01*
X009547Y004946D01*
X037537Y024146D02*
X037637Y024146D01*
X037637Y025146D01*
X037537Y025146D01*
X039837Y025096D02*
X039837Y024146D01*
X039937Y024146D01*
X039937Y025096D02*
X039837Y025096D01*
D15*
X039684Y026683D02*
X039684Y027133D01*
X039534Y027133D02*
X039834Y027133D01*
X039373Y027133D02*
X039073Y027133D01*
X039073Y026683D01*
X039373Y026683D01*
X039223Y026908D02*
X039073Y026908D01*
X038913Y026833D02*
X038913Y026758D01*
X038838Y026683D01*
X038688Y026683D01*
X038613Y026758D01*
X038688Y026908D02*
X038838Y026908D01*
X038913Y026833D01*
X038913Y027058D02*
X038838Y027133D01*
X038688Y027133D01*
X038613Y027058D01*
X038613Y026983D01*
X038688Y026908D01*
X038453Y027133D02*
X038152Y027133D01*
X038152Y026683D01*
X038453Y026683D01*
X038303Y026908D02*
X038152Y026908D01*
X037992Y026908D02*
X037992Y027058D01*
X037917Y027133D01*
X037692Y027133D01*
X037692Y026683D01*
X037692Y026833D02*
X037917Y026833D01*
X037992Y026908D01*
X037842Y026833D02*
X037992Y026683D01*
X037961Y027693D02*
X037961Y031079D01*
X039653Y031079D01*
X039653Y027693D01*
X037961Y027693D01*
X037715Y027959D02*
X037165Y027959D01*
X037165Y028234D01*
X037256Y028326D01*
X037440Y028326D01*
X037532Y028234D01*
X037532Y027959D01*
X037623Y028511D02*
X037256Y028511D01*
X037165Y028603D01*
X037165Y028786D01*
X037256Y028878D01*
X037623Y028878D01*
X037715Y028786D01*
X037715Y028603D01*
X037623Y028511D01*
X037715Y029064D02*
X037532Y029247D01*
X037715Y029431D01*
X037165Y029431D01*
X037165Y029616D02*
X037715Y029616D01*
X037715Y029983D01*
X037715Y030168D02*
X037165Y030168D01*
X037165Y030444D01*
X037256Y030535D01*
X037440Y030535D01*
X037532Y030444D01*
X037532Y030168D01*
X037532Y030352D02*
X037715Y030535D01*
X037165Y029983D02*
X037165Y029616D01*
X037440Y029616D02*
X037440Y029800D01*
X037165Y029064D02*
X037715Y029064D01*
X034512Y028441D02*
X034512Y033946D01*
X034477Y033946D02*
X029377Y033946D01*
X029342Y033946D02*
X029342Y028441D01*
X029367Y028436D02*
X034487Y028436D01*
X033927Y030896D02*
X033677Y033396D01*
X032427Y033396D01*
X032177Y030896D01*
X031677Y030896D02*
X031427Y033396D01*
X030177Y033396D01*
X029927Y030896D01*
X026622Y026435D02*
X025122Y026435D01*
X025122Y024135D01*
X026622Y024135D01*
X026622Y026435D01*
X029591Y021858D02*
X028016Y020283D01*
X028016Y018708D01*
X029591Y017133D01*
X031166Y017133D01*
X032741Y018708D01*
X032741Y020283D01*
X031166Y021858D01*
X029591Y021858D01*
X025136Y017880D02*
X025136Y015281D01*
X020805Y015281D01*
X020805Y017880D01*
X025136Y017880D01*
X030890Y014496D02*
X030890Y013315D01*
X032464Y013315D01*
X032464Y014496D01*
X030890Y014496D01*
X030811Y013512D02*
X030813Y013530D01*
X030819Y013546D01*
X030828Y013561D01*
X030841Y013574D01*
X030856Y013583D01*
X030872Y013589D01*
X030890Y013591D01*
X030908Y013589D01*
X030924Y013583D01*
X030939Y013574D01*
X030952Y013561D01*
X030961Y013546D01*
X030967Y013530D01*
X030969Y013512D01*
X030967Y013494D01*
X030961Y013478D01*
X030952Y013463D01*
X030939Y013450D01*
X030924Y013441D01*
X030908Y013435D01*
X030890Y013433D01*
X030872Y013435D01*
X030856Y013441D01*
X030841Y013450D01*
X030828Y013463D01*
X030819Y013478D01*
X030813Y013494D01*
X030811Y013512D01*
X028077Y011981D02*
X028077Y007650D01*
X021777Y007650D01*
X021777Y011981D01*
X028077Y011981D01*
X030797Y008476D02*
X030797Y006376D01*
X033297Y006376D01*
X033297Y008476D01*
X030797Y008476D01*
X032958Y009709D02*
X032958Y010102D01*
X033667Y010102D01*
X033667Y009709D01*
X032958Y009709D01*
X033650Y008695D02*
X034044Y008695D01*
X034044Y007986D01*
X033650Y007986D01*
X033650Y008695D01*
X034367Y008766D02*
X036467Y008766D01*
X036467Y011266D01*
X034367Y011266D01*
X034367Y008766D01*
X036735Y007073D02*
X036735Y011010D01*
X040279Y011010D01*
X040279Y007073D01*
X036735Y007073D01*
X034931Y005547D02*
X030994Y005547D01*
X030994Y002004D01*
X034931Y002004D01*
X034931Y005547D01*
X028121Y005547D02*
X028121Y002004D01*
X024184Y002004D01*
X024184Y005547D01*
X028121Y005547D01*
X026832Y005700D02*
X026202Y005700D01*
X026202Y006291D01*
X026832Y006291D01*
X026832Y005700D01*
X024181Y005547D02*
X020244Y005547D01*
X020244Y002004D01*
X024181Y002004D01*
X024181Y005547D01*
X022552Y005700D02*
X021922Y005700D01*
X021922Y006291D01*
X022552Y006291D01*
X022552Y005700D01*
X022167Y008280D02*
X022169Y008306D01*
X022175Y008332D01*
X022184Y008357D01*
X022197Y008380D01*
X022213Y008401D01*
X022232Y008419D01*
X022254Y008435D01*
X022277Y008447D01*
X022302Y008455D01*
X022328Y008460D01*
X022355Y008461D01*
X022381Y008458D01*
X022406Y008451D01*
X022431Y008441D01*
X022453Y008427D01*
X022474Y008410D01*
X022491Y008391D01*
X022506Y008369D01*
X022517Y008345D01*
X022525Y008319D01*
X022529Y008293D01*
X022529Y008267D01*
X022525Y008241D01*
X022517Y008215D01*
X022506Y008191D01*
X022491Y008169D01*
X022474Y008150D01*
X022453Y008133D01*
X022431Y008119D01*
X022406Y008109D01*
X022381Y008102D01*
X022355Y008099D01*
X022328Y008100D01*
X022302Y008105D01*
X022277Y008113D01*
X022254Y008125D01*
X022232Y008141D01*
X022213Y008159D01*
X022197Y008180D01*
X022184Y008203D01*
X022175Y008228D01*
X022169Y008254D01*
X022167Y008280D01*
X019868Y009857D02*
X016837Y012770D01*
X013057Y012770D01*
X010026Y009857D01*
X010026Y001983D01*
X019868Y001983D01*
X019868Y009857D01*
X015768Y029665D02*
X014036Y029665D01*
X014036Y031634D01*
X015768Y031634D01*
X015768Y029665D01*
X013878Y031673D02*
X013880Y031704D01*
X013886Y031735D01*
X013895Y031765D01*
X013908Y031794D01*
X013925Y031821D01*
X013945Y031845D01*
X013967Y031867D01*
X013993Y031886D01*
X014020Y031902D01*
X014049Y031914D01*
X014079Y031923D01*
X014110Y031928D01*
X014142Y031929D01*
X014173Y031926D01*
X014204Y031919D01*
X014234Y031909D01*
X014262Y031895D01*
X014288Y031877D01*
X014312Y031857D01*
X014333Y031833D01*
X014352Y031808D01*
X014367Y031780D01*
X014378Y031751D01*
X014386Y031720D01*
X014390Y031689D01*
X014390Y031657D01*
X014386Y031626D01*
X014378Y031595D01*
X014367Y031566D01*
X014352Y031538D01*
X014333Y031513D01*
X014312Y031489D01*
X014288Y031469D01*
X014262Y031451D01*
X014234Y031437D01*
X014204Y031427D01*
X014173Y031420D01*
X014142Y031417D01*
X014110Y031418D01*
X014079Y031423D01*
X014049Y031432D01*
X014020Y031444D01*
X013993Y031460D01*
X013967Y031479D01*
X013945Y031501D01*
X013925Y031525D01*
X013908Y031552D01*
X013895Y031581D01*
X013886Y031611D01*
X013880Y031642D01*
X013878Y031673D01*
X014147Y032346D02*
X013347Y032346D01*
X013247Y032446D01*
X013147Y032346D01*
X012347Y032346D01*
X012247Y032446D01*
X012147Y032346D01*
X011347Y032346D01*
X011247Y032446D01*
X011147Y032346D01*
X010347Y032346D01*
X010247Y032446D01*
X010147Y032346D01*
X009347Y032346D01*
X009247Y032446D01*
X009147Y032346D01*
X008347Y032346D01*
X008247Y032446D01*
X008147Y032346D01*
X007247Y032346D01*
X007247Y033346D01*
X008147Y033346D01*
X008247Y033246D01*
X008347Y033346D01*
X009147Y033346D01*
X009247Y033246D01*
X009347Y033346D01*
X010147Y033346D01*
X010247Y033246D01*
X010347Y033346D01*
X011147Y033346D01*
X011247Y033246D01*
X011347Y033346D01*
X012147Y033346D01*
X012247Y033246D01*
X012347Y033346D01*
X013147Y033346D01*
X013247Y033246D01*
X013347Y033346D01*
X014147Y033346D01*
X014247Y033246D01*
X014347Y033346D01*
X015147Y033346D01*
X015247Y033246D01*
X015347Y033346D01*
X016147Y033346D01*
X016247Y033246D01*
X016347Y033346D01*
X017147Y033346D01*
X017247Y033246D01*
X017347Y033346D01*
X018147Y033346D01*
X018247Y033246D01*
X018347Y033346D01*
X019147Y033346D01*
X019247Y033246D01*
X019347Y033346D01*
X020147Y033346D01*
X020247Y033246D01*
X020347Y033346D01*
X021147Y033346D01*
X021247Y033246D01*
X021347Y033346D01*
X022147Y033346D01*
X022247Y033246D01*
X022347Y033346D01*
X023247Y033346D01*
X023247Y032346D01*
X022347Y032346D01*
X022247Y032446D01*
X022147Y032346D01*
X021347Y032346D01*
X021247Y032446D01*
X021147Y032346D01*
X020347Y032346D01*
X020247Y032446D01*
X020147Y032346D01*
X019347Y032346D01*
X019247Y032446D01*
X019147Y032346D01*
X018347Y032346D01*
X018247Y032446D01*
X018147Y032346D01*
X017347Y032346D01*
X017247Y032446D01*
X017147Y032346D01*
X016347Y032346D01*
X016247Y032446D01*
X016147Y032346D01*
X015347Y032346D01*
X015247Y032446D01*
X015147Y032346D01*
X014347Y032346D01*
X014247Y032446D01*
X014147Y032346D01*
X013947Y032646D02*
X013847Y032646D01*
X013847Y032546D01*
X013647Y032546D01*
X013647Y032646D01*
X013547Y032646D01*
X013547Y033046D01*
X013647Y033046D01*
X013647Y033146D01*
X013847Y033146D01*
X013847Y033046D01*
X013947Y033046D01*
X013947Y032646D01*
X014547Y032646D02*
X014547Y033046D01*
X014647Y033046D01*
X014647Y033146D01*
X014847Y033146D01*
X014847Y033046D01*
X014947Y033046D01*
X014947Y032646D01*
X014847Y032646D01*
X014847Y032546D01*
X014647Y032546D01*
X014647Y032646D01*
X014547Y032646D01*
X015547Y032646D02*
X015547Y033046D01*
X015647Y033046D01*
X015647Y033146D01*
X015847Y033146D01*
X015847Y033046D01*
X015947Y033046D01*
X015947Y032646D01*
X015847Y032646D01*
X015847Y032546D01*
X015647Y032546D01*
X015647Y032646D01*
X015547Y032646D01*
X016547Y032646D02*
X016547Y033046D01*
X016647Y033046D01*
X016647Y033146D01*
X016847Y033146D01*
X016847Y033046D01*
X016947Y033046D01*
X016947Y032646D01*
X016847Y032646D01*
X016847Y032546D01*
X016647Y032546D01*
X016647Y032646D01*
X016547Y032646D01*
X017547Y032646D02*
X017547Y033046D01*
X017647Y033046D01*
X017647Y033146D01*
X017847Y033146D01*
X017847Y033046D01*
X017947Y033046D01*
X017947Y032646D01*
X017847Y032646D01*
X017847Y032546D01*
X017647Y032546D01*
X017647Y032646D01*
X017547Y032646D01*
X018547Y032646D02*
X018547Y033046D01*
X018647Y033046D01*
X018647Y033146D01*
X018847Y033146D01*
X018847Y033046D01*
X018947Y033046D01*
X018947Y032646D01*
X018847Y032646D01*
X018847Y032546D01*
X018647Y032546D01*
X018647Y032646D01*
X018547Y032646D01*
X019547Y032646D02*
X019547Y033046D01*
X019647Y033046D01*
X019647Y033146D01*
X019847Y033146D01*
X019847Y033046D01*
X019947Y033046D01*
X019947Y032646D01*
X019847Y032646D01*
X019847Y032546D01*
X019647Y032546D01*
X019647Y032646D01*
X019547Y032646D01*
X020547Y032646D02*
X020547Y033046D01*
X020647Y033046D01*
X020647Y033146D01*
X020847Y033146D01*
X020847Y033046D01*
X020947Y033046D01*
X020947Y032646D01*
X020847Y032646D01*
X020847Y032546D01*
X020647Y032546D01*
X020647Y032646D01*
X020547Y032646D01*
X021547Y032646D02*
X021547Y033046D01*
X021647Y033046D01*
X021647Y033146D01*
X021847Y033146D01*
X021847Y033046D01*
X021947Y033046D01*
X021947Y032646D01*
X021847Y032646D01*
X021847Y032546D01*
X021647Y032546D01*
X021647Y032646D01*
X021547Y032646D01*
X022547Y032646D02*
X022547Y033046D01*
X022647Y033046D01*
X022647Y033146D01*
X022847Y033146D01*
X022847Y033046D01*
X022947Y033046D01*
X022947Y032646D01*
X022847Y032646D01*
X022847Y032546D01*
X022647Y032546D01*
X022647Y032646D01*
X022547Y032646D01*
X013070Y031319D02*
X013070Y029744D01*
X011102Y029744D01*
X011102Y031319D01*
X013070Y031319D01*
X012847Y032546D02*
X012647Y032546D01*
X012647Y032646D01*
X012547Y032646D01*
X012547Y033046D01*
X012647Y033046D01*
X012647Y033146D01*
X012847Y033146D01*
X012847Y033046D01*
X012947Y033046D01*
X012947Y032646D01*
X012847Y032646D01*
X012847Y032546D01*
X011947Y032646D02*
X011847Y032646D01*
X011847Y032546D01*
X011647Y032546D01*
X011647Y032646D01*
X011547Y032646D01*
X011547Y033046D01*
X011647Y033046D01*
X011647Y033146D01*
X011847Y033146D01*
X011847Y033046D01*
X011947Y033046D01*
X011947Y032646D01*
X010947Y032646D02*
X010847Y032646D01*
X010847Y032546D01*
X010647Y032546D01*
X010647Y032646D01*
X010547Y032646D01*
X010547Y033046D01*
X010647Y033046D01*
X010647Y033146D01*
X010847Y033146D01*
X010847Y033046D01*
X010947Y033046D01*
X010947Y032646D01*
X009947Y032646D02*
X009847Y032646D01*
X009847Y032546D01*
X009647Y032546D01*
X009647Y032646D01*
X009547Y032646D01*
X009547Y033046D01*
X009647Y033046D01*
X009647Y033146D01*
X009847Y033146D01*
X009847Y033046D01*
X009947Y033046D01*
X009947Y032646D01*
X008947Y032646D02*
X008847Y032646D01*
X008847Y032546D01*
X008647Y032546D01*
X008647Y032646D01*
X008547Y032646D01*
X008547Y033046D01*
X008647Y033046D01*
X008647Y033146D01*
X008847Y033146D01*
X008847Y033046D01*
X008947Y033046D01*
X008947Y032646D01*
X007947Y032646D02*
X007847Y032646D01*
X007847Y032546D01*
X007647Y032546D01*
X007647Y032646D01*
X007547Y032646D01*
X007547Y033046D01*
X007647Y033046D01*
X007647Y033146D01*
X007847Y033146D01*
X007847Y033046D01*
X007947Y033046D01*
X007947Y032646D01*
X006358Y033206D02*
X006358Y031446D01*
X003758Y031446D01*
X003758Y033206D01*
X006358Y033206D01*
X005558Y033246D02*
X005558Y033746D01*
X004558Y033746D01*
X004558Y033246D01*
D16*
X034923Y032544D03*
X035215Y032524D03*
X035963Y033184D03*
X036259Y033228D03*
X037855Y031372D03*
D17*
X037853Y031376D03*
X038353Y031832D03*
X037269Y032092D03*
X036053Y032588D03*
X036241Y033664D03*
X034925Y032548D03*
D18*
X037853Y031380D03*
D19*
X037851Y031384D03*
X037847Y031388D03*
X034931Y032552D03*
D20*
X035957Y033188D03*
X036289Y033656D03*
X037845Y031392D03*
D21*
X037843Y031396D03*
X037831Y031452D03*
X037831Y031456D03*
X037831Y031464D03*
X037831Y031468D03*
X037831Y031472D03*
X037831Y031476D03*
X037831Y031484D03*
X037831Y031488D03*
X037831Y031492D03*
X037831Y031496D03*
X037831Y031504D03*
X037831Y031508D03*
X037835Y031524D03*
X037743Y031568D03*
X037735Y031592D03*
X037731Y031604D03*
X037727Y031624D03*
X037723Y031636D03*
X037723Y031644D03*
X037719Y031664D03*
X037719Y031668D03*
X037719Y031672D03*
X037715Y031692D03*
X037715Y031696D03*
X037715Y031704D03*
X037715Y031708D03*
X037715Y031712D03*
X037715Y031716D03*
X037715Y031724D03*
X037711Y031748D03*
X037711Y031752D03*
X037711Y031756D03*
X037711Y031764D03*
X037711Y031768D03*
X037711Y031772D03*
X037711Y031776D03*
X037711Y031784D03*
X037707Y031804D03*
X037707Y031808D03*
X037707Y031812D03*
X037707Y031816D03*
X037703Y031832D03*
X037703Y031836D03*
X037699Y031848D03*
X037699Y031852D03*
X037695Y031864D03*
X037627Y031976D03*
X037587Y032184D03*
X037595Y032208D03*
X037599Y032224D03*
X037603Y032244D03*
X037603Y032248D03*
X037607Y032264D03*
X037607Y032268D03*
X037607Y032272D03*
X037607Y032276D03*
X037607Y032284D03*
X037607Y032288D03*
X037607Y032292D03*
X037607Y032296D03*
X037607Y032304D03*
X037607Y032308D03*
X037607Y032312D03*
X037607Y032316D03*
X037607Y032324D03*
X037603Y032344D03*
X037603Y032348D03*
X037599Y032364D03*
X037599Y032368D03*
X037595Y032384D03*
X037591Y032396D03*
X037587Y032408D03*
X037267Y032088D03*
X038123Y031784D03*
X038123Y031776D03*
X038123Y031772D03*
X038123Y031768D03*
X038123Y031764D03*
X038123Y031756D03*
X038123Y031752D03*
X038127Y031732D03*
X038127Y031728D03*
X038131Y031716D03*
X038351Y031836D03*
X036055Y032316D03*
X036051Y032328D03*
X036043Y032356D03*
X036039Y032376D03*
X036039Y032384D03*
X036039Y032388D03*
X036035Y032412D03*
X036035Y032416D03*
X036035Y032424D03*
X036035Y032428D03*
X036035Y032432D03*
X036035Y032436D03*
X036035Y032444D03*
X036035Y032448D03*
X036035Y032452D03*
X036039Y032476D03*
X036039Y032484D03*
X036039Y032488D03*
X036039Y032492D03*
X036043Y032508D03*
X036043Y032512D03*
X036043Y032516D03*
X036047Y032532D03*
X036047Y032536D03*
X036051Y032552D03*
X036051Y032556D03*
X036055Y032572D03*
X035495Y032664D03*
X035495Y032668D03*
X035495Y032672D03*
X035495Y032676D03*
X035499Y032688D03*
X035499Y032692D03*
X035499Y032696D03*
X035503Y032712D03*
X035503Y032716D03*
X035507Y032732D03*
X035511Y032748D03*
X035515Y032764D03*
X035523Y032792D03*
X035491Y032648D03*
X035491Y032644D03*
X035491Y032636D03*
X035487Y032616D03*
X035487Y032612D03*
X035487Y032608D03*
X035487Y032604D03*
X035487Y032596D03*
X035487Y032592D03*
X035311Y032536D03*
X035223Y032528D03*
X035203Y032384D03*
X034935Y032556D03*
X036259Y033264D03*
X036259Y033268D03*
X036259Y033272D03*
X036263Y033288D03*
X036263Y033292D03*
X036263Y033296D03*
X036267Y033316D03*
X036267Y033324D03*
X036267Y033328D03*
X036267Y033332D03*
X036271Y033352D03*
X036271Y033356D03*
X036271Y033364D03*
X036271Y033368D03*
X036271Y033512D03*
X036271Y033516D03*
X036271Y033524D03*
X036271Y033528D03*
X036271Y033532D03*
X036271Y033536D03*
X036267Y033556D03*
X036267Y033564D03*
X036267Y033568D03*
X036263Y033584D03*
X036263Y033588D03*
X036299Y033588D03*
X036299Y033592D03*
X036299Y033596D03*
X036299Y033604D03*
X036299Y033584D03*
X036299Y033576D03*
X036299Y033572D03*
X036299Y033568D03*
X036299Y033564D03*
X036299Y033556D03*
X036299Y033552D03*
X036299Y033548D03*
X036299Y033544D03*
X036299Y033536D03*
X036295Y033516D03*
X036295Y033512D03*
D22*
X036261Y033600D03*
X036181Y033540D03*
X036261Y033280D03*
X036001Y033280D03*
X035961Y033200D03*
X035501Y032700D03*
X035281Y032620D03*
X036041Y032500D03*
X036061Y032300D03*
X036721Y032960D03*
X037581Y032420D03*
X037601Y032360D03*
X037681Y031900D03*
X037701Y031840D03*
X037841Y031540D03*
X037841Y031400D03*
D23*
X037841Y031404D03*
X037781Y031488D03*
X037761Y031524D03*
X037761Y031528D03*
X037741Y031572D03*
X037741Y031576D03*
X037721Y031648D03*
X037721Y031652D03*
X037721Y031656D03*
X037841Y031536D03*
X038141Y031684D03*
X038141Y031688D03*
X038161Y031648D03*
X038141Y031832D03*
X037701Y031844D03*
X037681Y031896D03*
X037561Y032132D03*
X037581Y032168D03*
X037581Y032172D03*
X037601Y032228D03*
X037601Y032232D03*
X037601Y032236D03*
X037601Y032352D03*
X037601Y032356D03*
X037581Y032424D03*
X037581Y032428D03*
X037561Y032468D03*
X036741Y032924D03*
X036741Y032928D03*
X036261Y033276D03*
X036261Y033284D03*
X036041Y033348D03*
X036021Y033316D03*
X036001Y033284D03*
X035981Y033248D03*
X035961Y033204D03*
X035561Y033172D03*
X035601Y032972D03*
X035581Y032936D03*
X035561Y032896D03*
X035561Y032892D03*
X035541Y032848D03*
X035541Y032844D03*
X035521Y032788D03*
X035521Y032784D03*
X035501Y032708D03*
X035501Y032704D03*
X035301Y032516D03*
X036041Y032504D03*
X036041Y032496D03*
X036041Y032372D03*
X036041Y032368D03*
X036041Y032364D03*
X036061Y032304D03*
X036261Y033592D03*
X036261Y033596D03*
X036261Y033604D03*
X036221Y033604D03*
X036221Y033608D03*
X036241Y033656D03*
D24*
X036225Y033616D03*
X036225Y033612D03*
X036217Y033596D03*
X036213Y033592D03*
X036209Y033584D03*
X036205Y033576D03*
X036197Y033564D03*
X036193Y033556D03*
X036189Y033552D03*
X036173Y033528D03*
X036165Y033516D03*
X036269Y033544D03*
X036269Y033548D03*
X036269Y033552D03*
X036265Y033572D03*
X036265Y033576D03*
X036297Y033608D03*
X036297Y033612D03*
X036297Y033616D03*
X036289Y033648D03*
X036289Y033652D03*
X036297Y033532D03*
X036297Y033528D03*
X036297Y033524D03*
X036273Y033388D03*
X036273Y033384D03*
X036273Y033376D03*
X036273Y033372D03*
X036269Y033348D03*
X036269Y033344D03*
X036269Y033336D03*
X036265Y033312D03*
X036265Y033308D03*
X036265Y033304D03*
X036253Y033236D03*
X036253Y033232D03*
X036057Y033372D03*
X036065Y033384D03*
X036033Y033336D03*
X036029Y033328D03*
X036025Y033324D03*
X036017Y033308D03*
X036013Y033304D03*
X036009Y033296D03*
X036005Y033288D03*
X035997Y033276D03*
X035993Y033268D03*
X035985Y033252D03*
X035965Y033216D03*
X035965Y033212D03*
X035957Y033196D03*
X035957Y033192D03*
X035625Y033008D03*
X035617Y032996D03*
X035609Y032984D03*
X035597Y032964D03*
X035593Y032956D03*
X035589Y032952D03*
X035589Y032948D03*
X035585Y032944D03*
X035577Y032928D03*
X035569Y032912D03*
X035565Y032904D03*
X035557Y032888D03*
X035557Y032884D03*
X035553Y032876D03*
X035553Y032872D03*
X035549Y032868D03*
X035549Y032864D03*
X035545Y032856D03*
X035545Y032852D03*
X035537Y032836D03*
X035537Y032832D03*
X035533Y032828D03*
X035533Y032824D03*
X035529Y032816D03*
X035529Y032812D03*
X035529Y032808D03*
X035525Y032804D03*
X035525Y032796D03*
X035517Y032776D03*
X035517Y032772D03*
X035517Y032768D03*
X035513Y032756D03*
X035513Y032752D03*
X035509Y032744D03*
X035509Y032736D03*
X035505Y032728D03*
X035505Y032724D03*
X035497Y032684D03*
X035493Y032656D03*
X035493Y032652D03*
X035489Y032632D03*
X035489Y032628D03*
X035489Y032624D03*
X035485Y032588D03*
X035485Y032584D03*
X035485Y032576D03*
X035309Y032532D03*
X035309Y032528D03*
X035305Y032524D03*
X035293Y032504D03*
X035225Y032556D03*
X035229Y032564D03*
X035233Y032572D03*
X035285Y032624D03*
X035285Y032628D03*
X035285Y032632D03*
X035213Y032404D03*
X035209Y032396D03*
X035205Y032392D03*
X035205Y032388D03*
X034945Y032564D03*
X035429Y032968D03*
X035429Y032972D03*
X035433Y032976D03*
X035433Y032984D03*
X035433Y032988D03*
X035549Y033152D03*
X035557Y033164D03*
X035565Y033176D03*
X035569Y033184D03*
X036057Y032584D03*
X036057Y032576D03*
X036053Y032568D03*
X036053Y032564D03*
X036049Y032548D03*
X036049Y032544D03*
X036045Y032528D03*
X036045Y032524D03*
X036037Y032472D03*
X036037Y032468D03*
X036037Y032464D03*
X036037Y032456D03*
X036037Y032408D03*
X036037Y032404D03*
X036037Y032396D03*
X036037Y032392D03*
X036045Y032352D03*
X036045Y032348D03*
X036045Y032344D03*
X036049Y032336D03*
X036049Y032332D03*
X036053Y032324D03*
X036057Y032312D03*
X036057Y032308D03*
X036065Y032296D03*
X036065Y032292D03*
X036069Y032288D03*
X036069Y032284D03*
X036077Y032272D03*
X036737Y032932D03*
X036729Y032948D03*
X036725Y032952D03*
X036713Y032972D03*
X036705Y032984D03*
X037545Y032496D03*
X037549Y032488D03*
X037553Y032484D03*
X037557Y032476D03*
X037569Y032452D03*
X037569Y032448D03*
X037573Y032444D03*
X037577Y032436D03*
X037577Y032432D03*
X037585Y032416D03*
X037585Y032412D03*
X037589Y032404D03*
X037593Y032392D03*
X037593Y032388D03*
X037597Y032376D03*
X037597Y032372D03*
X037605Y032336D03*
X037605Y032332D03*
X037605Y032328D03*
X037605Y032256D03*
X037605Y032252D03*
X037597Y032216D03*
X037597Y032212D03*
X037593Y032204D03*
X037593Y032196D03*
X037589Y032192D03*
X037589Y032188D03*
X037585Y032176D03*
X037577Y032164D03*
X037573Y032156D03*
X037573Y032152D03*
X037569Y032148D03*
X037569Y032144D03*
X037673Y031912D03*
X037677Y031904D03*
X037685Y031892D03*
X037685Y031888D03*
X037689Y031884D03*
X037689Y031876D03*
X037693Y031872D03*
X037693Y031868D03*
X037697Y031856D03*
X037705Y031828D03*
X037705Y031824D03*
X037709Y031796D03*
X037709Y031792D03*
X037709Y031788D03*
X037713Y031744D03*
X037713Y031736D03*
X037713Y031732D03*
X037713Y031728D03*
X037717Y031688D03*
X037717Y031684D03*
X037717Y031676D03*
X037725Y031632D03*
X037725Y031628D03*
X037729Y031616D03*
X037729Y031612D03*
X037729Y031608D03*
X037733Y031596D03*
X037737Y031588D03*
X037737Y031584D03*
X037745Y031564D03*
X037749Y031556D03*
X037749Y031552D03*
X037749Y031548D03*
X037753Y031544D03*
X037757Y031536D03*
X037757Y031532D03*
X037765Y031516D03*
X037769Y031512D03*
X037769Y031508D03*
X037773Y031504D03*
X037777Y031496D03*
X037785Y031484D03*
X037789Y031476D03*
X037797Y031464D03*
X037805Y031452D03*
X037837Y031408D03*
X037833Y031512D03*
X037833Y031516D03*
X037837Y031528D03*
X037837Y031532D03*
X038137Y031692D03*
X038137Y031696D03*
X038133Y031704D03*
X038133Y031708D03*
X038133Y031712D03*
X038129Y031724D03*
X038125Y031736D03*
X038125Y031744D03*
X038125Y031748D03*
X038125Y031788D03*
X038125Y031792D03*
X038125Y031796D03*
X038129Y031804D03*
X038129Y031808D03*
X038129Y031812D03*
X038133Y031816D03*
X038137Y031824D03*
X038137Y031828D03*
X038145Y031676D03*
X038149Y031672D03*
X038149Y031668D03*
X038153Y031664D03*
X038157Y031656D03*
D25*
X038159Y031652D03*
X038163Y031644D03*
X038171Y031636D03*
X038171Y031632D03*
X038175Y031628D03*
X038179Y031624D03*
X038187Y031616D03*
X038143Y031836D03*
X037851Y031552D03*
X037847Y031548D03*
X037843Y031544D03*
X037779Y031492D03*
X037791Y031472D03*
X037795Y031468D03*
X037803Y031456D03*
X037835Y031412D03*
X037675Y031908D03*
X037627Y031972D03*
X037539Y032104D03*
X037543Y032108D03*
X037547Y032112D03*
X037551Y032116D03*
X037555Y032124D03*
X037559Y032128D03*
X037563Y032136D03*
X037267Y032084D03*
X037567Y032456D03*
X037563Y032464D03*
X037559Y032472D03*
X037547Y032492D03*
X037539Y032504D03*
X037535Y032508D03*
X037531Y032512D03*
X036747Y032916D03*
X036735Y032936D03*
X036731Y032944D03*
X036723Y032956D03*
X036719Y032964D03*
X036715Y032968D03*
X036711Y032976D03*
X036703Y032988D03*
X036699Y032992D03*
X036695Y032996D03*
X036691Y033004D03*
X036687Y033008D03*
X036683Y033012D03*
X036675Y033024D03*
X036671Y033028D03*
X036667Y033032D03*
X036659Y033044D03*
X036655Y033048D03*
X036651Y033052D03*
X036647Y033056D03*
X036275Y033392D03*
X036275Y033396D03*
X036275Y033404D03*
X036279Y033408D03*
X036279Y033412D03*
X036279Y033416D03*
X036279Y033424D03*
X036163Y033512D03*
X036159Y033508D03*
X036155Y033504D03*
X036151Y033496D03*
X036147Y033492D03*
X036143Y033488D03*
X036143Y033484D03*
X036135Y033476D03*
X036131Y033472D03*
X036127Y033468D03*
X036127Y033464D03*
X036119Y033456D03*
X036115Y033452D03*
X036111Y033444D03*
X036103Y033436D03*
X036099Y033432D03*
X036099Y033428D03*
X036095Y033424D03*
X036087Y033416D03*
X036087Y033412D03*
X036083Y033408D03*
X036079Y033404D03*
X036075Y033396D03*
X036071Y033392D03*
X036067Y033388D03*
X036059Y033376D03*
X036055Y033368D03*
X036051Y033364D03*
X036047Y033356D03*
X036043Y033352D03*
X036039Y033344D03*
X036031Y033332D03*
X036019Y033312D03*
X036007Y033292D03*
X035995Y033272D03*
X035991Y033264D03*
X035987Y033256D03*
X035963Y033208D03*
X035663Y033056D03*
X035659Y033052D03*
X035655Y033048D03*
X035651Y033044D03*
X035647Y033036D03*
X035643Y033032D03*
X035639Y033028D03*
X035635Y033024D03*
X035631Y033016D03*
X035627Y033012D03*
X035623Y033004D03*
X035615Y032992D03*
X035611Y032988D03*
X035603Y032976D03*
X035599Y032968D03*
X035579Y032932D03*
X035575Y032924D03*
X035571Y032916D03*
X035567Y032908D03*
X035455Y032856D03*
X035419Y032956D03*
X035427Y032964D03*
X035427Y032992D03*
X035543Y033144D03*
X035547Y033148D03*
X035551Y033156D03*
X035559Y033168D03*
X035571Y033188D03*
X035575Y033192D03*
X035579Y033196D03*
X035283Y032636D03*
X035243Y032584D03*
X035235Y032576D03*
X035231Y032568D03*
X035295Y032508D03*
X035299Y032512D03*
X035287Y032496D03*
X035283Y032492D03*
X035279Y032484D03*
X035271Y032476D03*
X035267Y032472D03*
X035255Y032456D03*
X035251Y032452D03*
X035247Y032448D03*
X035243Y032444D03*
X035239Y032436D03*
X035235Y032432D03*
X035231Y032428D03*
X035227Y032424D03*
X035223Y032416D03*
X035219Y032412D03*
X035215Y032408D03*
X034983Y032616D03*
X034979Y032612D03*
X034947Y032568D03*
X036075Y032276D03*
X036079Y032268D03*
X036083Y032264D03*
X036087Y032256D03*
X036091Y032252D03*
X036095Y032248D03*
X036099Y032244D03*
X036171Y033524D03*
X036175Y033532D03*
X036179Y033536D03*
X036183Y033544D03*
X036187Y033548D03*
X036199Y033568D03*
X036203Y033572D03*
X036211Y033588D03*
X036263Y033608D03*
X036287Y033644D03*
X036243Y033652D03*
D26*
X036113Y033448D03*
X035713Y033108D03*
X035709Y033104D03*
X035693Y033088D03*
X035689Y033084D03*
X035673Y033068D03*
X035669Y033064D03*
X035533Y033132D03*
X035529Y033128D03*
X035513Y033112D03*
X035413Y032948D03*
X035409Y032944D03*
X035453Y032852D03*
X035273Y032612D03*
X035269Y032608D03*
X035249Y032592D03*
X035229Y032532D03*
X034993Y032628D03*
X034989Y032624D03*
X034953Y032572D03*
X036109Y032232D03*
X036113Y032228D03*
X036753Y032912D03*
X036633Y033072D03*
X036629Y033076D03*
X036613Y033092D03*
X036609Y033096D03*
X036589Y033112D03*
X037509Y032536D03*
X037513Y032532D03*
X037529Y032516D03*
X037533Y032096D03*
X037529Y032092D03*
X037513Y032076D03*
X037509Y032072D03*
X037293Y032052D03*
X037853Y031556D03*
X037829Y031424D03*
X037833Y031416D03*
X038189Y031612D03*
X038193Y031608D03*
X038149Y031844D03*
X038153Y031848D03*
X038489Y031544D03*
D27*
X038227Y031580D03*
X037859Y031560D03*
X037831Y031420D03*
X037503Y032540D03*
X037479Y032560D03*
X037451Y032580D03*
X036603Y033100D03*
X036579Y033120D03*
X036555Y033140D03*
X036283Y033460D03*
X036243Y033640D03*
X035751Y033140D03*
X035727Y033120D03*
X035279Y032640D03*
X035259Y032600D03*
X035031Y032660D03*
X035007Y032640D03*
X036123Y032220D03*
X036147Y032200D03*
D28*
X036143Y032204D03*
X036135Y032208D03*
X036131Y032212D03*
X036127Y032216D03*
X035255Y032596D03*
X035047Y032672D03*
X035035Y032664D03*
X035027Y032656D03*
X035015Y032648D03*
X035011Y032644D03*
X035391Y032928D03*
X035395Y032932D03*
X035399Y032936D03*
X035435Y032896D03*
X035431Y032892D03*
X035503Y033104D03*
X035507Y033108D03*
X035591Y033208D03*
X035595Y033212D03*
X035723Y033116D03*
X035731Y033124D03*
X035735Y033128D03*
X035743Y033132D03*
X035747Y033136D03*
X035763Y033148D03*
X036283Y033452D03*
X036283Y033456D03*
X036283Y033464D03*
X036283Y033468D03*
X036283Y033472D03*
X036283Y033476D03*
X036263Y033612D03*
X036263Y033616D03*
X036287Y033636D03*
X036243Y033644D03*
X036543Y033148D03*
X036559Y033136D03*
X036571Y033128D03*
X036575Y033124D03*
X036595Y033108D03*
X036599Y033104D03*
X037463Y032572D03*
X037475Y032564D03*
X037483Y032556D03*
X037491Y032552D03*
X037495Y032548D03*
X037499Y032544D03*
X037503Y032068D03*
X037499Y032064D03*
X037487Y032056D03*
X037631Y031968D03*
X037635Y031964D03*
X037303Y032044D03*
X037299Y032048D03*
X037287Y032056D03*
X037827Y031428D03*
X038207Y031596D03*
X038211Y031592D03*
X038215Y031588D03*
X038219Y031584D03*
X038163Y031856D03*
X038143Y031928D03*
D29*
X038233Y031576D03*
X038237Y031572D03*
X038245Y031568D03*
X037865Y031564D03*
X037825Y031432D03*
X037649Y031952D03*
X037645Y031956D03*
X037481Y032052D03*
X037469Y032568D03*
X037457Y032576D03*
X037445Y032584D03*
X037441Y032588D03*
X037433Y032592D03*
X037401Y032612D03*
X037381Y032624D03*
X036757Y032908D03*
X036565Y033132D03*
X036549Y033144D03*
X036537Y033152D03*
X036533Y033156D03*
X036513Y033168D03*
X036285Y033484D03*
X036285Y033488D03*
X036241Y033636D03*
X035601Y033216D03*
X035493Y033096D03*
X035485Y033092D03*
X035425Y032888D03*
X035265Y032604D03*
X035077Y032692D03*
X035065Y032684D03*
X035053Y032676D03*
X035041Y032668D03*
X034957Y032576D03*
X035757Y033144D03*
X035769Y033152D03*
X035773Y033156D03*
X036153Y032196D03*
X036161Y032192D03*
D30*
X036167Y032188D03*
X035447Y032848D03*
X035419Y032884D03*
X035419Y032996D03*
X035479Y033088D03*
X035787Y033164D03*
X035795Y033168D03*
X035799Y033172D03*
X035807Y033176D03*
X036267Y033256D03*
X036283Y033492D03*
X036283Y033496D03*
X036283Y033504D03*
X036283Y033508D03*
X036499Y033176D03*
X036507Y033172D03*
X036519Y033164D03*
X037323Y032656D03*
X037339Y032648D03*
X037359Y032636D03*
X037367Y032632D03*
X037375Y032628D03*
X037395Y032616D03*
X037407Y032608D03*
X037415Y032604D03*
X037427Y032596D03*
X037475Y032048D03*
X037467Y032044D03*
X037655Y031948D03*
X037715Y031912D03*
X037723Y031908D03*
X038343Y031844D03*
X037823Y031436D03*
X035223Y032664D03*
X035099Y032704D03*
X035083Y032696D03*
D31*
X034963Y032580D03*
X035287Y032560D03*
X035815Y033180D03*
X036283Y033500D03*
X037387Y032620D03*
X038259Y031560D03*
X037823Y031440D03*
D32*
X037821Y031444D03*
X037657Y031944D03*
X037317Y032036D03*
X037345Y032644D03*
X037309Y032664D03*
X037301Y032668D03*
X037293Y032672D03*
X037285Y032676D03*
X037269Y032684D03*
X037261Y032688D03*
X037253Y032692D03*
X037245Y032696D03*
X037229Y032704D03*
X037221Y032708D03*
X037213Y032712D03*
X037205Y032716D03*
X036765Y032904D03*
X036485Y033184D03*
X036477Y033188D03*
X036469Y033192D03*
X035853Y033272D03*
X035829Y033188D03*
X035821Y033184D03*
X035457Y033076D03*
X035449Y033072D03*
X035441Y033068D03*
X035441Y032844D03*
X035137Y032724D03*
X035121Y032716D03*
X035113Y032712D03*
X035105Y032708D03*
X034969Y032584D03*
X035237Y032536D03*
X036189Y032176D03*
D33*
X035443Y032864D03*
X035179Y032744D03*
X035159Y032736D03*
X035143Y032728D03*
X035619Y033224D03*
X035839Y033192D03*
X036459Y033196D03*
X037119Y032756D03*
X037143Y032744D03*
X037163Y032736D03*
X037179Y032728D03*
X038179Y031864D03*
X038339Y031848D03*
X037819Y031448D03*
D34*
X037799Y031460D03*
X037787Y031480D03*
X037775Y031500D03*
X038167Y031640D03*
X038183Y031620D03*
X038147Y031840D03*
X038347Y031840D03*
X037551Y032120D03*
X037543Y032500D03*
X036707Y032980D03*
X036679Y033020D03*
X036643Y033060D03*
X036275Y033400D03*
X036279Y033420D03*
X036167Y033520D03*
X036195Y033560D03*
X036207Y033580D03*
X036139Y033480D03*
X036123Y033460D03*
X036107Y033440D03*
X036091Y033420D03*
X036075Y033400D03*
X036063Y033380D03*
X036035Y033340D03*
X036023Y033320D03*
X036011Y033300D03*
X035647Y033040D03*
X035635Y033020D03*
X035619Y033000D03*
X035607Y032980D03*
X035595Y032960D03*
X035583Y032940D03*
X035439Y032900D03*
X035423Y032960D03*
X035539Y033140D03*
X035555Y033160D03*
X035567Y033180D03*
X035239Y032580D03*
X035303Y032520D03*
X035291Y032500D03*
X035275Y032480D03*
X035259Y032460D03*
X035211Y032400D03*
X036087Y032260D03*
D35*
X036047Y032340D03*
X036043Y032360D03*
X036039Y032380D03*
X036035Y032420D03*
X036035Y032440D03*
X036039Y032480D03*
X036047Y032540D03*
X035487Y032600D03*
X035491Y032640D03*
X035519Y032780D03*
X035539Y032840D03*
X034939Y032560D03*
X036263Y033300D03*
X036267Y033320D03*
X036271Y033360D03*
X036271Y033520D03*
X036299Y033540D03*
X036299Y033560D03*
X036299Y033580D03*
X036299Y033600D03*
X036267Y033560D03*
X037603Y032340D03*
X037607Y032320D03*
X037607Y032300D03*
X037607Y032280D03*
X037603Y032240D03*
X037599Y032220D03*
X037711Y031780D03*
X037711Y031760D03*
X037715Y031720D03*
X037715Y031700D03*
X037719Y031660D03*
X037723Y031640D03*
X037727Y031620D03*
X037831Y031500D03*
X037831Y031480D03*
X037831Y031460D03*
X038123Y031760D03*
X038123Y031780D03*
X038127Y031800D03*
D36*
X038331Y031492D03*
X035411Y032904D03*
X035091Y032632D03*
D37*
X035211Y032656D03*
X037383Y032024D03*
X038327Y031496D03*
D38*
X038323Y031500D03*
D39*
X038321Y031504D03*
X036461Y032112D03*
D40*
X038315Y031508D03*
D41*
X038241Y031512D03*
D42*
X038159Y031528D03*
X038403Y031512D03*
X036299Y032136D03*
X035419Y032872D03*
D43*
X035399Y032908D03*
X035267Y032548D03*
X035267Y032544D03*
X036335Y032128D03*
X037995Y031568D03*
X038215Y031516D03*
X038143Y031924D03*
D44*
X038057Y031904D03*
X038053Y031556D03*
X038097Y031544D03*
X038141Y031532D03*
X038413Y031516D03*
X035941Y033228D03*
X036261Y033624D03*
X035005Y032608D03*
D45*
X035225Y032560D03*
X035309Y032540D03*
X035225Y032420D03*
X035485Y032580D03*
X035489Y032620D03*
X035493Y032660D03*
X035497Y032680D03*
X035505Y032720D03*
X035509Y032740D03*
X035513Y032760D03*
X035525Y032800D03*
X035533Y032820D03*
X035545Y032860D03*
X035553Y032880D03*
X035565Y032900D03*
X035573Y032920D03*
X035433Y032980D03*
X035969Y033220D03*
X035989Y033260D03*
X036049Y033360D03*
X036153Y033500D03*
X036217Y033600D03*
X036229Y033620D03*
X036265Y033580D03*
X036269Y033540D03*
X036297Y033520D03*
X036273Y033380D03*
X036269Y033340D03*
X036257Y033260D03*
X036693Y033000D03*
X036733Y032940D03*
X036745Y032920D03*
X036057Y032580D03*
X036053Y032560D03*
X036045Y032520D03*
X036037Y032460D03*
X036037Y032400D03*
X036053Y032320D03*
X036073Y032280D03*
X037553Y032480D03*
X037565Y032460D03*
X037573Y032440D03*
X037589Y032400D03*
X037597Y032380D03*
X037605Y032260D03*
X037593Y032200D03*
X037585Y032180D03*
X037577Y032160D03*
X037565Y032140D03*
X037689Y031880D03*
X037697Y031860D03*
X037705Y031820D03*
X037709Y031800D03*
X037713Y031740D03*
X037717Y031680D03*
X037733Y031600D03*
X037737Y031580D03*
X037745Y031560D03*
X037753Y031540D03*
X037765Y031520D03*
X037833Y031520D03*
X038153Y031660D03*
X038145Y031680D03*
X038137Y031700D03*
X038129Y031720D03*
X038125Y031740D03*
X038133Y031820D03*
D46*
X038195Y031520D03*
X035671Y033240D03*
D47*
X037383Y032020D03*
X038399Y031520D03*
D48*
X038175Y031524D03*
X037811Y031876D03*
X037247Y032068D03*
X036355Y033232D03*
X035107Y032636D03*
D49*
X035719Y033248D03*
X038247Y031876D03*
X038395Y031524D03*
D50*
X038391Y031528D03*
D51*
X038389Y031532D03*
X035333Y033008D03*
D52*
X036263Y033628D03*
X036263Y033632D03*
X038299Y031864D03*
X038127Y031536D03*
X038083Y031548D03*
X038067Y031552D03*
D53*
X038385Y031536D03*
X037881Y031872D03*
X035329Y033004D03*
D54*
X038111Y031540D03*
D55*
X038311Y031540D03*
X034991Y032600D03*
D56*
X035129Y032720D03*
X035465Y033080D03*
X035609Y033220D03*
X036181Y032180D03*
X037237Y032700D03*
X037277Y032680D03*
X037317Y032660D03*
X037353Y032640D03*
X038473Y031540D03*
D57*
X038297Y031544D03*
X038249Y031896D03*
X037877Y031856D03*
X037685Y031924D03*
X037437Y032032D03*
X036789Y032892D03*
X035897Y033216D03*
X035885Y033212D03*
X035365Y033036D03*
X035413Y032832D03*
X035405Y032828D03*
X035393Y032824D03*
X035289Y032788D03*
X035277Y032784D03*
X035257Y032776D03*
X034985Y032596D03*
X036233Y032156D03*
X036245Y032152D03*
D58*
X036911Y032844D03*
X036903Y032848D03*
X036891Y032852D03*
X036883Y032856D03*
X036863Y032864D03*
X036851Y032868D03*
X036831Y032876D03*
X036811Y032884D03*
X036799Y032888D03*
X036779Y032896D03*
X036931Y032836D03*
X036951Y032828D03*
X036979Y032816D03*
X036423Y033212D03*
X035875Y033208D03*
X035627Y033228D03*
X035395Y033048D03*
X035387Y033044D03*
X035423Y032836D03*
X035247Y032772D03*
X035235Y032768D03*
X035227Y032764D03*
X035031Y032612D03*
X034979Y032592D03*
X037679Y031928D03*
X037767Y031888D03*
X037923Y031588D03*
X038287Y031548D03*
X038331Y031852D03*
X038267Y031888D03*
D59*
X038503Y031548D03*
X035259Y032992D03*
D60*
X035435Y033064D03*
X035187Y032748D03*
X035151Y032732D03*
X035847Y033196D03*
X036195Y032172D03*
X037055Y032784D03*
X037091Y032768D03*
X037127Y032752D03*
X037135Y032748D03*
X037171Y032732D03*
X037187Y032724D03*
X037731Y031904D03*
X037747Y031896D03*
X038267Y031556D03*
X038275Y031552D03*
D61*
X038035Y031560D03*
D62*
X038017Y031564D03*
X036317Y032132D03*
X035401Y032916D03*
X035933Y033224D03*
X036293Y033248D03*
D63*
X035971Y033244D03*
X035471Y033084D03*
X035071Y032688D03*
X036171Y032184D03*
X037331Y032652D03*
X038251Y031564D03*
D64*
X038261Y031892D03*
X037877Y031568D03*
X037757Y031892D03*
X037673Y031932D03*
X037669Y031936D03*
X037449Y032036D03*
X037329Y032032D03*
X037101Y032764D03*
X037081Y032772D03*
X037073Y032776D03*
X037045Y032788D03*
X037037Y032792D03*
X037025Y032796D03*
X037009Y032804D03*
X036997Y032808D03*
X036989Y032812D03*
X036961Y032824D03*
X036941Y032832D03*
X036441Y033204D03*
X036433Y033208D03*
X035865Y033204D03*
X035417Y033056D03*
X035405Y033052D03*
X035393Y032924D03*
X035205Y032756D03*
X035197Y032752D03*
X034973Y032588D03*
X036205Y032168D03*
X036213Y032164D03*
D65*
X037879Y031868D03*
X037943Y031572D03*
D66*
X037939Y031576D03*
X037879Y031864D03*
X037383Y032028D03*
D67*
X037933Y031580D03*
D68*
X037929Y031584D03*
X035265Y032552D03*
D69*
X035241Y032440D03*
X034985Y032620D03*
X035405Y032940D03*
X035521Y033120D03*
X035581Y033200D03*
X035685Y033080D03*
X035705Y033100D03*
X035665Y033060D03*
X036281Y033440D03*
X036625Y033080D03*
X036661Y033040D03*
X036101Y032240D03*
X037517Y032080D03*
X037537Y032100D03*
X037525Y032520D03*
X038201Y031600D03*
D70*
X038197Y031604D03*
X038157Y031852D03*
X037525Y032088D03*
X037521Y032084D03*
X037521Y032524D03*
X037517Y032528D03*
X036681Y033016D03*
X036665Y033036D03*
X036641Y033064D03*
X036637Y033068D03*
X036621Y033084D03*
X036617Y033088D03*
X036585Y033116D03*
X036281Y033428D03*
X036281Y033432D03*
X036281Y033436D03*
X036281Y033444D03*
X036281Y033448D03*
X036241Y033648D03*
X035717Y033112D03*
X035701Y033096D03*
X035697Y033092D03*
X035681Y033076D03*
X035677Y033072D03*
X035537Y033136D03*
X035525Y033124D03*
X035517Y033116D03*
X035585Y033204D03*
X035417Y032952D03*
X035277Y032616D03*
X035245Y032588D03*
X035281Y032488D03*
X035265Y032468D03*
X035261Y032464D03*
X035021Y032652D03*
X035001Y032636D03*
X034997Y032632D03*
X036105Y032236D03*
X036117Y032224D03*
D71*
X035281Y032556D03*
X035301Y032792D03*
X035041Y032616D03*
X036841Y032872D03*
X038321Y031856D03*
D72*
X037877Y031860D03*
D73*
X037641Y031960D03*
X037493Y032060D03*
X037309Y032040D03*
X037421Y032600D03*
X038169Y031860D03*
X036525Y033160D03*
X036285Y033480D03*
X035781Y033160D03*
X035497Y033100D03*
X035057Y032680D03*
D74*
X035909Y033220D03*
X037793Y031880D03*
X038313Y031860D03*
D75*
X038245Y031868D03*
X038141Y031916D03*
D76*
X038247Y031872D03*
X035203Y032652D03*
D77*
X035827Y033268D03*
X037947Y031876D03*
D78*
X037967Y031880D03*
X036283Y032140D03*
D79*
X036311Y033240D03*
X038247Y031880D03*
D80*
X037779Y031884D03*
X037263Y032064D03*
X036411Y033216D03*
X035955Y033236D03*
X035639Y033232D03*
X035355Y033032D03*
X035343Y033028D03*
X035371Y032816D03*
X035359Y032812D03*
X035347Y032808D03*
X035335Y032804D03*
X035311Y032796D03*
D81*
X034997Y032604D03*
X035653Y033236D03*
X036373Y033228D03*
X037985Y031884D03*
X038225Y031904D03*
D82*
X038249Y031884D03*
D83*
X038027Y031896D03*
X038011Y031892D03*
X037999Y031888D03*
X036271Y032144D03*
X035431Y032868D03*
X035419Y032876D03*
X035263Y032996D03*
X035075Y032628D03*
X035947Y033232D03*
X036283Y033252D03*
X036387Y033224D03*
D84*
X037459Y032040D03*
X037663Y031940D03*
X037739Y031900D03*
D85*
X038041Y031900D03*
X035401Y032920D03*
D86*
X035383Y032820D03*
X035323Y032800D03*
X035051Y032620D03*
X036399Y033220D03*
X037687Y031920D03*
X038239Y031900D03*
D87*
X038139Y031908D03*
D88*
X038139Y031912D03*
D89*
X037693Y031916D03*
X035329Y033024D03*
D90*
X038141Y031920D03*
D91*
X037627Y031980D03*
D92*
X037381Y032012D03*
X036257Y032148D03*
X035065Y032624D03*
D93*
X035401Y032912D03*
X037381Y032016D03*
D94*
X037275Y032060D03*
X037195Y032720D03*
X036451Y033200D03*
D95*
X037229Y032072D03*
D96*
X037209Y032076D03*
D97*
X037181Y032080D03*
D98*
X037117Y032084D03*
D99*
X036943Y032088D03*
D100*
X036865Y032092D03*
D101*
X036817Y032096D03*
D102*
X036771Y032100D03*
D103*
X036715Y032104D03*
D104*
X036573Y032108D03*
D105*
X036417Y032116D03*
X035337Y033012D03*
D106*
X036385Y032120D03*
D107*
X036359Y032124D03*
D108*
X036223Y032160D03*
X036871Y032860D03*
X035215Y032760D03*
D109*
X035269Y032780D03*
X035245Y032540D03*
X035377Y033040D03*
X036277Y033620D03*
D110*
X035217Y032660D03*
X035125Y032640D03*
D111*
X035191Y032644D03*
D112*
X035197Y032648D03*
D113*
X035091Y032700D03*
X036491Y033180D03*
D114*
X036773Y032900D03*
X036921Y032840D03*
X036969Y032820D03*
X037017Y032800D03*
X037065Y032780D03*
X037109Y032760D03*
X037153Y032740D03*
X035961Y033240D03*
X035857Y033200D03*
X035425Y033060D03*
X035417Y032880D03*
X035433Y032840D03*
X035169Y032740D03*
D115*
X035453Y032860D03*
X036289Y033640D03*
D116*
X036821Y032880D03*
D117*
X035323Y033000D03*
D118*
X035337Y033016D03*
X035809Y033264D03*
D119*
X035325Y033020D03*
D120*
X035691Y033244D03*
X036303Y033244D03*
X036331Y033236D03*
D121*
X035755Y033252D03*
D122*
X035781Y033256D03*
D123*
X035793Y033260D03*
D124*
X036241Y033660D03*
D125*
X035038Y027211D02*
X035038Y026896D01*
X035038Y027211D02*
X034802Y027211D01*
X034172Y027211D02*
X033936Y027211D01*
X033936Y026896D01*
X037247Y021496D02*
X036997Y021246D01*
X036997Y020746D01*
X037247Y020496D01*
X036997Y020246D01*
X036997Y019746D01*
X037247Y019496D01*
X036997Y019246D01*
X036997Y018746D01*
X037247Y018496D01*
X036997Y018246D01*
X036997Y017746D01*
X037247Y017496D01*
X036997Y017246D01*
X036997Y016746D01*
X037247Y016496D01*
X036997Y016246D01*
X036997Y015746D01*
X037247Y015496D01*
X036997Y015246D01*
X036997Y014746D01*
X037247Y014496D01*
X036997Y014246D01*
X036997Y013746D01*
X037247Y013496D01*
X037747Y013496D01*
X037997Y013746D01*
X037997Y014246D01*
X037747Y014496D01*
X037997Y014746D01*
X037997Y015246D01*
X037747Y015496D01*
X037997Y015746D01*
X037997Y016246D01*
X037747Y016496D01*
X037997Y016746D01*
X037997Y017246D01*
X037747Y017496D01*
X037997Y017746D01*
X037997Y018246D01*
X037747Y018496D01*
X037997Y018746D01*
X037997Y019246D01*
X037747Y019496D01*
X037997Y019746D01*
X037997Y020246D01*
X037747Y020496D01*
X037997Y020746D01*
X037997Y021246D01*
X037747Y021496D01*
X037247Y021496D01*
X037997Y021246D02*
X037997Y020746D01*
X038247Y020496D01*
X037997Y020246D01*
X037997Y019746D01*
X038247Y019496D01*
X037997Y019246D01*
X037997Y018746D01*
X038247Y018496D01*
X037997Y018246D01*
X037997Y017746D01*
X038247Y017496D01*
X037997Y017246D01*
X037997Y016746D01*
X038247Y016496D01*
X037997Y016246D01*
X037997Y015746D01*
X038247Y015496D01*
X037997Y015246D01*
X037997Y014746D01*
X038247Y014496D01*
X037997Y014246D01*
X037997Y013746D01*
X038247Y013496D01*
X038747Y013496D01*
X038997Y013746D01*
X038997Y014246D01*
X038747Y014496D01*
X038997Y014746D01*
X038997Y015246D01*
X038747Y015496D01*
X038997Y015746D01*
X038997Y016246D01*
X038747Y016496D01*
X038997Y016746D01*
X038997Y017246D01*
X038747Y017496D01*
X038997Y017746D01*
X038997Y018246D01*
X038747Y018496D01*
X038997Y018746D01*
X038997Y019246D01*
X038747Y019496D01*
X038997Y019746D01*
X038997Y020246D01*
X038747Y020496D01*
X038997Y020746D01*
X038997Y021246D01*
X038747Y021496D01*
X038247Y021496D01*
X037997Y021246D01*
X038997Y021246D02*
X038997Y020746D01*
X039247Y020496D01*
X038997Y020246D01*
X038997Y019746D01*
X039247Y019496D01*
X038997Y019246D01*
X038997Y018746D01*
X039247Y018496D01*
X038997Y018246D01*
X038997Y017746D01*
X039247Y017496D01*
X038997Y017246D01*
X038997Y016746D01*
X039247Y016496D01*
X038997Y016246D01*
X038997Y015746D01*
X039247Y015496D01*
X038997Y015246D01*
X038997Y014746D01*
X039247Y014496D01*
X038997Y014246D01*
X038997Y013746D01*
X039247Y013496D01*
X039747Y013496D01*
X039997Y013746D01*
X039997Y014246D01*
X039747Y014496D01*
X039997Y014746D01*
X039997Y015246D01*
X039747Y015496D01*
X039997Y015746D01*
X039997Y016246D01*
X039747Y016496D01*
X039997Y016746D01*
X039997Y017246D01*
X039747Y017496D01*
X039997Y017746D01*
X039997Y018246D01*
X039747Y018496D01*
X039997Y018746D01*
X039997Y019246D01*
X039747Y019496D01*
X039997Y019746D01*
X039997Y020246D01*
X039747Y020496D01*
X039997Y020746D01*
X039997Y021246D01*
X039747Y021496D01*
X039247Y021496D01*
X038997Y021246D01*
X033690Y015156D02*
X033692Y015171D01*
X033698Y015184D01*
X033707Y015196D01*
X033718Y015205D01*
X033732Y015211D01*
X033747Y015213D01*
X033762Y015211D01*
X033775Y015205D01*
X033787Y015196D01*
X033796Y015185D01*
X033802Y015171D01*
X033804Y015156D01*
X033802Y015141D01*
X033796Y015128D01*
X033787Y015116D01*
X033776Y015107D01*
X033762Y015101D01*
X033747Y015099D01*
X033732Y015101D01*
X033719Y015107D01*
X033707Y015116D01*
X033698Y015127D01*
X033692Y015141D01*
X033690Y015156D01*
X023247Y020096D02*
X022997Y019846D01*
X022497Y019846D01*
X022247Y020096D01*
X021997Y019846D01*
X021497Y019846D01*
X021247Y020096D01*
X020997Y019846D01*
X020497Y019846D01*
X020247Y020096D01*
X019997Y019846D01*
X019497Y019846D01*
X019247Y020096D01*
X018997Y019846D01*
X018497Y019846D01*
X018247Y020096D01*
X017997Y019846D01*
X017497Y019846D01*
X017247Y020096D01*
X016997Y019846D01*
X016497Y019846D01*
X016247Y020096D01*
X015997Y019846D01*
X015497Y019846D01*
X015247Y020096D01*
X015247Y020596D01*
X015497Y020846D01*
X015997Y020846D01*
X016247Y020596D01*
X016497Y020846D01*
X016997Y020846D01*
X017247Y020596D01*
X017497Y020846D01*
X017997Y020846D01*
X018247Y020596D01*
X018497Y020846D01*
X018997Y020846D01*
X019247Y020596D01*
X019497Y020846D01*
X019997Y020846D01*
X020247Y020596D01*
X020497Y020846D01*
X020997Y020846D01*
X021247Y020596D01*
X021497Y020846D01*
X021997Y020846D01*
X022247Y020596D01*
X022497Y020846D01*
X022997Y020846D01*
X023247Y020596D01*
X023247Y020096D01*
X018247Y019246D02*
X018247Y018746D01*
X017997Y018496D01*
X018247Y018246D01*
X018247Y017746D01*
X017997Y017496D01*
X018247Y017246D01*
X018247Y016746D01*
X017997Y016496D01*
X018247Y016246D01*
X018247Y015746D01*
X017997Y015496D01*
X017497Y015496D01*
X017247Y015746D01*
X017247Y016246D01*
X016997Y016496D01*
X017247Y016746D01*
X017247Y017246D01*
X016997Y017496D01*
X017247Y017746D01*
X017247Y018246D01*
X016997Y018496D01*
X017247Y018746D01*
X017247Y019246D01*
X016997Y019496D01*
X016497Y019496D01*
X016247Y019246D01*
X016247Y018746D01*
X016497Y018496D01*
X016247Y018246D01*
X016247Y017746D01*
X016497Y017496D01*
X016247Y017246D01*
X016247Y016746D01*
X016497Y016496D01*
X016247Y016246D01*
X016247Y015746D01*
X016497Y015496D01*
X016997Y015496D01*
X017247Y015746D01*
X017247Y016246D01*
X017497Y016496D01*
X017247Y016746D01*
X017247Y017246D01*
X017497Y017496D01*
X017247Y017746D01*
X017247Y018246D01*
X017497Y018496D01*
X017247Y018746D01*
X017247Y019246D01*
X017497Y019496D01*
X017997Y019496D01*
X018247Y019246D01*
X014297Y015866D02*
X014297Y015366D01*
X014047Y015116D01*
X013547Y015116D01*
X013297Y015366D01*
X013047Y015116D01*
X012547Y015116D01*
X012297Y015366D01*
X012047Y015116D01*
X011547Y015116D01*
X011297Y015366D01*
X011047Y015116D01*
X010547Y015116D01*
X010297Y015366D01*
X010047Y015116D01*
X009547Y015116D01*
X009297Y015366D01*
X009047Y015116D01*
X008547Y015116D01*
X008297Y015366D01*
X008297Y015866D01*
X008547Y016116D01*
X009047Y016116D01*
X009297Y015866D01*
X009547Y016116D01*
X010047Y016116D01*
X010297Y015866D01*
X010547Y016116D01*
X011047Y016116D01*
X011297Y015866D01*
X011547Y016116D01*
X012047Y016116D01*
X012297Y015866D01*
X012547Y016116D01*
X013047Y016116D01*
X013297Y015866D01*
X013547Y016116D01*
X014047Y016116D01*
X014297Y015866D01*
X014047Y014396D02*
X013547Y014396D01*
X013297Y014146D01*
X013047Y014396D01*
X012547Y014396D01*
X012297Y014146D01*
X012047Y014396D01*
X011547Y014396D01*
X011297Y014146D01*
X011047Y014396D01*
X010547Y014396D01*
X010297Y014146D01*
X010047Y014396D01*
X009547Y014396D01*
X009297Y014146D01*
X009047Y014396D01*
X008547Y014396D01*
X008297Y014146D01*
X008297Y013646D01*
X008547Y013396D01*
X009047Y013396D01*
X009297Y013646D01*
X009547Y013396D01*
X010047Y013396D01*
X010297Y013646D01*
X010547Y013396D01*
X011047Y013396D01*
X011297Y013646D01*
X011547Y013396D01*
X012047Y013396D01*
X012297Y013646D01*
X012547Y013396D01*
X013047Y013396D01*
X013297Y013646D01*
X013547Y013396D01*
X014047Y013396D01*
X014297Y013646D01*
X014297Y014146D01*
X014047Y014396D01*
X007247Y014246D02*
X007247Y013746D01*
X006997Y013496D01*
X007247Y013246D01*
X007247Y012746D01*
X006997Y012496D01*
X006497Y012496D01*
X006247Y012746D01*
X006247Y013246D01*
X006497Y013496D01*
X006247Y013746D01*
X006247Y014246D01*
X006497Y014496D01*
X006247Y014746D01*
X006247Y015246D01*
X006497Y015496D01*
X006247Y015746D01*
X006247Y016246D01*
X006497Y016496D01*
X006997Y016496D01*
X007247Y016246D01*
X007247Y015746D01*
X006997Y015496D01*
X007247Y015246D01*
X007247Y014746D01*
X006997Y014496D01*
X007247Y014246D01*
X003497Y014887D02*
X003247Y014637D01*
X002747Y014637D01*
X002497Y014887D01*
X002247Y014637D01*
X001747Y014637D01*
X001497Y014887D01*
X001247Y014637D01*
X000747Y014637D01*
X000497Y014887D01*
X000497Y015387D01*
X000747Y015637D01*
X001247Y015637D01*
X001497Y015387D01*
X001747Y015637D01*
X002247Y015637D01*
X002497Y015387D01*
X002747Y015637D01*
X003247Y015637D01*
X003497Y015387D01*
X003497Y014887D01*
X003247Y016296D02*
X002747Y016296D01*
X002497Y016546D01*
X002497Y017046D01*
X002747Y017296D01*
X002497Y017546D01*
X002497Y018046D01*
X002747Y018296D01*
X002497Y018546D01*
X002497Y019046D01*
X002747Y019296D01*
X002497Y019546D01*
X002497Y020046D01*
X002747Y020296D01*
X002497Y020546D01*
X002497Y021046D01*
X002747Y021296D01*
X002497Y021546D01*
X002497Y022046D01*
X002747Y022296D01*
X002497Y022546D01*
X002497Y023046D01*
X002747Y023296D01*
X002497Y023546D01*
X002497Y024046D01*
X002747Y024296D01*
X002497Y024546D01*
X002497Y025046D01*
X002747Y025296D01*
X002497Y025546D01*
X002497Y026046D01*
X002747Y026296D01*
X002497Y026546D01*
X002497Y027046D01*
X002747Y027296D01*
X002497Y027546D01*
X002497Y028046D01*
X002747Y028296D01*
X002497Y028546D01*
X002497Y029046D01*
X002747Y029296D01*
X002497Y029546D01*
X002497Y030046D01*
X002747Y030296D01*
X002497Y030546D01*
X002497Y031046D01*
X002747Y031296D01*
X003247Y031296D01*
X003497Y031046D01*
X003497Y030546D01*
X003247Y030296D01*
X003497Y030046D01*
X003497Y029546D01*
X003247Y029296D01*
X003497Y029046D01*
X003497Y028546D01*
X003247Y028296D01*
X003497Y028046D01*
X003497Y027546D01*
X003247Y027296D01*
X003497Y027046D01*
X003497Y026546D01*
X003247Y026296D01*
X003497Y026046D01*
X003497Y025546D01*
X003247Y025296D01*
X003497Y025046D01*
X003497Y024546D01*
X003247Y024296D01*
X003497Y024046D01*
X003497Y023546D01*
X003247Y023296D01*
X003497Y023046D01*
X003497Y022546D01*
X003247Y022296D01*
X003497Y022046D01*
X003497Y021546D01*
X003247Y021296D01*
X003497Y021046D01*
X003497Y020546D01*
X003247Y020296D01*
X003497Y020046D01*
X003497Y019546D01*
X003247Y019296D01*
X003497Y019046D01*
X003497Y018546D01*
X003247Y018296D01*
X003497Y018046D01*
X003497Y017546D01*
X003247Y017296D01*
X003497Y017046D01*
X003497Y016546D01*
X003247Y016296D01*
X002497Y016546D02*
X002497Y017046D01*
X002247Y017296D01*
X002497Y017546D01*
X002497Y018046D01*
X002247Y018296D01*
X002497Y018546D01*
X002497Y019046D01*
X002247Y019296D01*
X002497Y019546D01*
X002497Y020046D01*
X002247Y020296D01*
X002497Y020546D01*
X002497Y021046D01*
X002247Y021296D01*
X002497Y021546D01*
X002497Y022046D01*
X002247Y022296D01*
X002497Y022546D01*
X002497Y023046D01*
X002247Y023296D01*
X002497Y023546D01*
X002497Y024046D01*
X002247Y024296D01*
X002497Y024546D01*
X002497Y025046D01*
X002247Y025296D01*
X002497Y025546D01*
X002497Y026046D01*
X002247Y026296D01*
X002497Y026546D01*
X002497Y027046D01*
X002247Y027296D01*
X002497Y027546D01*
X002497Y028046D01*
X002247Y028296D01*
X002497Y028546D01*
X002497Y029046D01*
X002247Y029296D01*
X002497Y029546D01*
X002497Y030046D01*
X002247Y030296D01*
X002497Y030546D01*
X002497Y031046D01*
X002247Y031296D01*
X001747Y031296D01*
X001497Y031046D01*
X001497Y030546D01*
X001747Y030296D01*
X001497Y030046D01*
X001497Y029546D01*
X001747Y029296D01*
X001497Y029046D01*
X001497Y028546D01*
X001747Y028296D01*
X001497Y028046D01*
X001497Y027546D01*
X001747Y027296D01*
X001497Y027046D01*
X001497Y026546D01*
X001747Y026296D01*
X001497Y026046D01*
X001497Y025546D01*
X001747Y025296D01*
X001497Y025046D01*
X001497Y024546D01*
X001747Y024296D01*
X001497Y024046D01*
X001497Y023546D01*
X001747Y023296D01*
X001497Y023046D01*
X001497Y022546D01*
X001747Y022296D01*
X001497Y022046D01*
X001497Y021546D01*
X001747Y021296D01*
X001497Y021046D01*
X001497Y020546D01*
X001747Y020296D01*
X001497Y020046D01*
X001497Y019546D01*
X001747Y019296D01*
X001497Y019046D01*
X001497Y018546D01*
X001747Y018296D01*
X001497Y018046D01*
X001497Y017546D01*
X001747Y017296D01*
X001497Y017046D01*
X001497Y016546D01*
X001747Y016296D01*
X002247Y016296D01*
X002497Y016546D01*
X001497Y016546D02*
X001247Y016296D01*
X000747Y016296D01*
X000497Y016546D01*
X000497Y017046D01*
X000747Y017296D01*
X000497Y017546D01*
X000497Y018046D01*
X000747Y018296D01*
X000497Y018546D01*
X000497Y019046D01*
X000747Y019296D01*
X000497Y019546D01*
X000497Y020046D01*
X000747Y020296D01*
X000497Y020546D01*
X000497Y021046D01*
X000747Y021296D01*
X000497Y021546D01*
X000497Y022046D01*
X000747Y022296D01*
X000497Y022546D01*
X000497Y023046D01*
X000747Y023296D01*
X000497Y023546D01*
X000497Y024046D01*
X000747Y024296D01*
X000497Y024546D01*
X000497Y025046D01*
X000747Y025296D01*
X000497Y025546D01*
X000497Y026046D01*
X000747Y026296D01*
X000497Y026546D01*
X000497Y027046D01*
X000747Y027296D01*
X000497Y027546D01*
X000497Y028046D01*
X000747Y028296D01*
X000497Y028546D01*
X000497Y029046D01*
X000747Y029296D01*
X000497Y029546D01*
X000497Y030046D01*
X000747Y030296D01*
X000497Y030546D01*
X000497Y031046D01*
X000747Y031296D01*
X001247Y031296D01*
X001497Y031046D01*
X001497Y030546D01*
X001247Y030296D01*
X001497Y030046D01*
X001497Y029546D01*
X001247Y029296D01*
X001497Y029046D01*
X001497Y028546D01*
X001247Y028296D01*
X001497Y028046D01*
X001497Y027546D01*
X001247Y027296D01*
X001497Y027046D01*
X001497Y026546D01*
X001247Y026296D01*
X001497Y026046D01*
X001497Y025546D01*
X001247Y025296D01*
X001497Y025046D01*
X001497Y024546D01*
X001247Y024296D01*
X001497Y024046D01*
X001497Y023546D01*
X001247Y023296D01*
X001497Y023046D01*
X001497Y022546D01*
X001247Y022296D01*
X001497Y022046D01*
X001497Y021546D01*
X001247Y021296D01*
X001497Y021046D01*
X001497Y020546D01*
X001247Y020296D01*
X001497Y020046D01*
X001497Y019546D01*
X001247Y019296D01*
X001497Y019046D01*
X001497Y018546D01*
X001247Y018296D01*
X001497Y018046D01*
X001497Y017546D01*
X001247Y017296D01*
X001497Y017046D01*
X001497Y016546D01*
X001247Y012636D02*
X000747Y012636D01*
X000497Y012386D01*
X000497Y011886D01*
X000747Y011636D01*
X000497Y011386D01*
X000497Y010886D01*
X000747Y010636D01*
X000497Y010386D01*
X000497Y009886D01*
X000747Y009636D01*
X000497Y009386D01*
X000497Y008886D01*
X000747Y008636D01*
X000497Y008386D01*
X000497Y007886D01*
X000747Y007636D01*
X000497Y007386D01*
X000497Y006886D01*
X000747Y006636D01*
X000497Y006386D01*
X000497Y005886D01*
X000747Y005636D01*
X000497Y005386D01*
X000497Y004886D01*
X000747Y004636D01*
X001247Y004636D01*
X001497Y004886D01*
X001747Y004636D01*
X002247Y004636D01*
X002497Y004886D01*
X002747Y004636D01*
X003247Y004636D01*
X003497Y004886D01*
X003497Y005386D01*
X003247Y005636D01*
X003497Y005886D01*
X003497Y006386D01*
X003247Y006636D01*
X003497Y006886D01*
X003497Y007386D01*
X003247Y007636D01*
X003497Y007886D01*
X003497Y008386D01*
X003247Y008636D01*
X003497Y008886D01*
X003497Y009386D01*
X003247Y009636D01*
X003497Y009886D01*
X003497Y010386D01*
X003247Y010636D01*
X003497Y010886D01*
X003497Y011386D01*
X003247Y011636D01*
X003497Y011886D01*
X003497Y012386D01*
X003247Y012636D01*
X002747Y012636D01*
X002497Y012386D01*
X002497Y011886D01*
X002747Y011636D01*
X002497Y011386D01*
X002497Y010886D01*
X002747Y010636D01*
X002497Y010386D01*
X002497Y009886D01*
X002747Y009636D01*
X002497Y009386D01*
X002497Y008886D01*
X002747Y008636D01*
X002497Y008386D01*
X002497Y007886D01*
X002747Y007636D01*
X002497Y007386D01*
X002497Y006886D01*
X002747Y006636D01*
X002497Y006386D01*
X002497Y005886D01*
X002747Y005636D01*
X002497Y005386D01*
X002497Y004886D01*
X002497Y005386D01*
X002247Y005636D01*
X002497Y005886D01*
X002497Y006386D01*
X002247Y006636D01*
X002497Y006886D01*
X002497Y007386D01*
X002247Y007636D01*
X002497Y007886D01*
X002497Y008386D01*
X002247Y008636D01*
X002497Y008886D01*
X002497Y009386D01*
X002247Y009636D01*
X002497Y009886D01*
X002497Y010386D01*
X002247Y010636D01*
X002497Y010886D01*
X002497Y011386D01*
X002247Y011636D01*
X002497Y011886D01*
X002497Y012386D01*
X002247Y012636D01*
X001747Y012636D01*
X001497Y012386D01*
X001497Y011886D01*
X001747Y011636D01*
X001497Y011386D01*
X001497Y010886D01*
X001747Y010636D01*
X001497Y010386D01*
X001497Y009886D01*
X001747Y009636D01*
X001497Y009386D01*
X001497Y008886D01*
X001747Y008636D01*
X001497Y008386D01*
X001497Y007886D01*
X001747Y007636D01*
X001497Y007386D01*
X001497Y006886D01*
X001747Y006636D01*
X001497Y006386D01*
X001497Y005886D01*
X001747Y005636D01*
X001497Y005386D01*
X001497Y004886D01*
X001497Y005386D01*
X001247Y005636D01*
X001497Y005886D01*
X001497Y006386D01*
X001247Y006636D01*
X001497Y006886D01*
X001497Y007386D01*
X001247Y007636D01*
X001497Y007886D01*
X001497Y008386D01*
X001247Y008636D01*
X001497Y008886D01*
X001497Y009386D01*
X001247Y009636D01*
X001497Y009886D01*
X001497Y010386D01*
X001247Y010636D01*
X001497Y010886D01*
X001497Y011386D01*
X001247Y011636D01*
X001497Y011886D01*
X001497Y012386D01*
X001247Y012636D01*
X005247Y010386D02*
X005247Y009886D01*
X005497Y009636D01*
X005247Y009386D01*
X005247Y008886D01*
X005497Y008636D01*
X005247Y008386D01*
X005247Y007886D01*
X005497Y007636D01*
X005247Y007386D01*
X005247Y006886D01*
X005497Y006636D01*
X005997Y006636D01*
X006247Y006886D01*
X006497Y006636D01*
X006997Y006636D01*
X007247Y006886D01*
X007247Y007386D01*
X006997Y007636D01*
X007247Y007886D01*
X007247Y008386D01*
X006997Y008636D01*
X007247Y008886D01*
X007247Y009386D01*
X006997Y009636D01*
X007247Y009886D01*
X007247Y010386D01*
X006997Y010636D01*
X006497Y010636D01*
X006247Y010386D01*
X006247Y009886D01*
X006497Y009636D01*
X006247Y009386D01*
X006247Y008886D01*
X006497Y008636D01*
X006247Y008386D01*
X006247Y007886D01*
X006497Y007636D01*
X006247Y007386D01*
X006247Y006886D01*
X006247Y007386D01*
X005997Y007636D01*
X006247Y007886D01*
X006247Y008386D01*
X005997Y008636D01*
X006247Y008886D01*
X006247Y009386D01*
X005997Y009636D01*
X006247Y009886D01*
X006247Y010386D01*
X005997Y010636D01*
X005497Y010636D01*
X005247Y010386D01*
X012094Y008290D02*
X012370Y008290D01*
X012094Y008290D02*
X012094Y003526D01*
X012724Y002935D02*
X016031Y002935D01*
X016031Y002936D02*
X016069Y002933D01*
X016107Y002927D01*
X016144Y002917D01*
X016180Y002903D01*
X016215Y002887D01*
X016247Y002867D01*
X016278Y002844D01*
X016307Y002818D01*
X016333Y002789D01*
X016356Y002758D01*
X016376Y002726D01*
X016392Y002691D01*
X016406Y002655D01*
X016416Y002618D01*
X016422Y002580D01*
X016425Y002542D01*
X016424Y002510D01*
X016428Y002479D01*
X016435Y002448D01*
X016446Y002418D01*
X016460Y002390D01*
X016478Y002364D01*
X016499Y002340D01*
X016523Y002319D01*
X016549Y002301D01*
X016577Y002287D01*
X016607Y002276D01*
X016638Y002269D01*
X016669Y002265D01*
X016701Y002266D01*
X016700Y002266D02*
X017015Y002266D01*
X017606Y003093D02*
X017606Y008290D01*
X015677Y008290D01*
X014614Y008290D02*
X013433Y008290D01*
X014206Y028156D02*
X014206Y028471D01*
X014442Y028471D01*
X015072Y028471D02*
X015308Y028471D01*
X015308Y028156D01*
X016841Y029154D02*
X016844Y029268D01*
X016852Y029382D01*
X016866Y029495D01*
X016886Y029607D01*
X016911Y029718D01*
X016941Y029828D01*
X016977Y029937D01*
X017018Y030043D01*
X017064Y030147D01*
X017115Y030249D01*
X017171Y030348D01*
X017232Y030445D01*
X017298Y030538D01*
X017368Y030628D01*
X017443Y030714D01*
X017521Y030797D01*
X017604Y030875D01*
X017690Y030950D01*
X017780Y031020D01*
X017873Y031086D01*
X017970Y031147D01*
X018069Y031203D01*
X018171Y031254D01*
X018275Y031300D01*
X018381Y031341D01*
X018490Y031377D01*
X018600Y031407D01*
X018711Y031432D01*
X018823Y031452D01*
X018936Y031466D01*
X019050Y031474D01*
X019164Y031477D01*
X019278Y031474D01*
X019392Y031466D01*
X019505Y031452D01*
X019617Y031432D01*
X019728Y031407D01*
X019838Y031377D01*
X019947Y031341D01*
X020053Y031300D01*
X020157Y031254D01*
X020259Y031203D01*
X020358Y031147D01*
X020455Y031086D01*
X020548Y031020D01*
X020638Y030950D01*
X020724Y030875D01*
X020807Y030797D01*
X020885Y030714D01*
X020960Y030628D01*
X021030Y030538D01*
X021096Y030445D01*
X021157Y030348D01*
X021213Y030249D01*
X021264Y030147D01*
X021310Y030043D01*
X021351Y029937D01*
X021387Y029828D01*
X021417Y029718D01*
X021442Y029607D01*
X021462Y029495D01*
X021476Y029382D01*
X021484Y029268D01*
X021487Y029154D01*
X021484Y029040D01*
X021476Y028926D01*
X021462Y028813D01*
X021442Y028701D01*
X021417Y028590D01*
X021387Y028480D01*
X021351Y028371D01*
X021310Y028265D01*
X021264Y028161D01*
X021213Y028059D01*
X021157Y027960D01*
X021096Y027863D01*
X021030Y027770D01*
X020960Y027680D01*
X020885Y027594D01*
X020807Y027511D01*
X020724Y027433D01*
X020638Y027358D01*
X020548Y027288D01*
X020455Y027222D01*
X020358Y027161D01*
X020259Y027105D01*
X020157Y027054D01*
X020053Y027008D01*
X019947Y026967D01*
X019838Y026931D01*
X019728Y026901D01*
X019617Y026876D01*
X019505Y026856D01*
X019392Y026842D01*
X019278Y026834D01*
X019164Y026831D01*
X019050Y026834D01*
X018936Y026842D01*
X018823Y026856D01*
X018711Y026876D01*
X018600Y026901D01*
X018490Y026931D01*
X018381Y026967D01*
X018275Y027008D01*
X018171Y027054D01*
X018069Y027105D01*
X017970Y027161D01*
X017873Y027222D01*
X017780Y027288D01*
X017690Y027358D01*
X017604Y027433D01*
X017521Y027511D01*
X017443Y027594D01*
X017368Y027680D01*
X017298Y027770D01*
X017232Y027863D01*
X017171Y027960D01*
X017115Y028059D01*
X017064Y028161D01*
X017018Y028265D01*
X016977Y028371D01*
X016941Y028480D01*
X016911Y028590D01*
X016886Y028701D01*
X016866Y028813D01*
X016852Y028926D01*
X016844Y029040D01*
X016841Y029154D01*
X024071Y031281D02*
X024071Y032107D01*
X024347Y030296D02*
X024701Y030296D01*
X026433Y030296D02*
X026787Y030296D01*
X027063Y031281D02*
X027063Y032107D01*
D126*
X022747Y032646D03*
X022747Y033046D03*
X021747Y033046D03*
X021747Y032646D03*
X020747Y032646D03*
X020747Y033046D03*
X019747Y033046D03*
X019747Y032646D03*
X018747Y032646D03*
X018747Y033046D03*
X017747Y033046D03*
X017747Y032646D03*
X016747Y032646D03*
X016747Y033046D03*
X015747Y033046D03*
X015747Y032646D03*
X014747Y032646D03*
X014747Y033046D03*
X013747Y033046D03*
X013747Y032646D03*
X012747Y032646D03*
X012747Y033046D03*
X011747Y033046D03*
X011747Y032646D03*
X010747Y032646D03*
X010747Y033046D03*
X009747Y033046D03*
X009747Y032646D03*
X008747Y032646D03*
X008747Y033046D03*
X007747Y033046D03*
X007747Y032646D03*
D127*
X007936Y026052D02*
X013054Y026052D01*
X013153Y025953D01*
X013153Y020638D01*
X013054Y020540D01*
X007740Y020540D01*
X007641Y020638D01*
X007641Y025756D01*
X007936Y026052D01*
X007937Y025658D02*
X007939Y025677D01*
X007944Y025696D01*
X007954Y025712D01*
X007966Y025727D01*
X007981Y025739D01*
X007997Y025749D01*
X008016Y025754D01*
X008035Y025756D01*
X008054Y025754D01*
X008073Y025749D01*
X008089Y025739D01*
X008104Y025727D01*
X008116Y025712D01*
X008126Y025696D01*
X008131Y025677D01*
X008133Y025658D01*
X008131Y025639D01*
X008126Y025620D01*
X008116Y025604D01*
X008104Y025589D01*
X008089Y025577D01*
X008073Y025567D01*
X008054Y025562D01*
X008035Y025560D01*
X008016Y025562D01*
X007997Y025567D01*
X007981Y025577D01*
X007966Y025589D01*
X007954Y025604D01*
X007944Y025620D01*
X007939Y025639D01*
X007937Y025658D01*
D128*
X006875Y026589D02*
X006851Y026589D01*
X006056Y026590D02*
X006032Y026590D01*
X005132Y026699D02*
X005108Y026699D01*
X006367Y023567D02*
X006391Y023567D01*
X005560Y020386D02*
X005560Y020362D01*
X005561Y019584D02*
X005561Y019560D01*
X007907Y018911D02*
X007931Y018911D01*
X013724Y020067D02*
X013748Y020067D01*
X014652Y020189D02*
X014676Y020189D01*
X014728Y025535D02*
X014728Y025559D01*
X014403Y026377D02*
X014403Y026401D01*
X013416Y029117D02*
X013416Y029141D01*
X010559Y031618D02*
X010535Y031618D01*
X009291Y031576D02*
X009291Y031600D01*
X023252Y027565D02*
X023276Y027565D01*
X024564Y027566D02*
X024588Y027566D01*
X023809Y028796D02*
X023785Y028796D01*
X026905Y028816D02*
X026929Y028816D01*
X029317Y027248D02*
X029317Y027224D01*
X029327Y026408D02*
X029327Y026384D01*
X030311Y026568D02*
X030335Y026568D01*
X029337Y025558D02*
X029337Y025534D01*
X033249Y026467D02*
X033273Y026467D01*
X035855Y025286D02*
X035879Y025286D01*
X030957Y016528D02*
X030957Y016504D01*
X026228Y013863D02*
X026228Y013839D01*
X029255Y011446D02*
X029279Y011446D01*
X033307Y009218D02*
X033307Y009194D01*
X028797Y006998D02*
X028797Y006974D01*
X021219Y011266D02*
X021195Y011266D01*
X020179Y007450D02*
X020155Y007450D01*
D129*
X020969Y007450D03*
X013074Y009300D03*
X012268Y009303D03*
X008278Y006786D03*
X028467Y011456D03*
X028912Y012638D03*
X030417Y014046D03*
X035077Y006896D03*
X034187Y006506D03*
X038517Y005296D03*
X039327Y005306D03*
X039712Y012616D03*
X038917Y012616D03*
X035057Y025306D03*
X013757Y027446D03*
X012382Y028654D03*
X011574Y028652D03*
D130*
X006926Y028956D03*
X016047Y027336D03*
X021855Y031802D03*
X026267Y027000D03*
X027943Y026257D03*
X029251Y023927D03*
X031093Y025569D03*
X029174Y016545D03*
X026090Y014650D03*
X024909Y013842D03*
X020877Y010186D03*
X020797Y009286D03*
X018726Y010734D03*
X020767Y006146D03*
X027967Y006036D03*
X029731Y004868D03*
X029729Y004052D03*
X035719Y003734D03*
X035719Y002855D03*
X036907Y002856D03*
X036907Y003736D03*
X038787Y006476D03*
X033347Y010536D03*
X030283Y012247D03*
X030244Y013046D03*
D131*
X029318Y013698D03*
X029318Y013993D03*
X029318Y015198D03*
X029318Y015493D03*
X009192Y006960D03*
X009192Y006665D03*
D132*
X009192Y006813D03*
X029318Y013846D03*
X029318Y015346D03*
X030083Y007056D03*
D133*
X030231Y007056D03*
X029935Y007056D03*
D134*
X026596Y006222D03*
X026596Y005769D03*
X022316Y005769D03*
X022316Y006222D03*
D135*
X009762Y030744D02*
X009746Y030733D01*
X009747Y030733D02*
X009714Y030778D01*
X009679Y030820D01*
X009640Y030859D01*
X009600Y030896D01*
X009556Y030929D01*
X009511Y030960D01*
X009463Y030987D01*
X009414Y031011D01*
X009363Y031032D01*
X009310Y031049D01*
X009257Y031062D01*
X009203Y031071D01*
X009148Y031077D01*
X009093Y031079D01*
X009093Y031097D01*
X009093Y031098D01*
X009150Y031096D01*
X009206Y031090D01*
X009261Y031080D01*
X009316Y031067D01*
X009369Y031050D01*
X009421Y031029D01*
X009472Y031004D01*
X009521Y030976D01*
X009567Y030945D01*
X009612Y030910D01*
X009654Y030873D01*
X009693Y030832D01*
X009729Y030789D01*
X009762Y030744D01*
X009762Y030743D01*
X009728Y030789D01*
X009692Y030832D01*
X009653Y030872D01*
X009611Y030909D01*
X009567Y030944D01*
X009520Y030975D01*
X009471Y031003D01*
X009421Y031028D01*
X009369Y031049D01*
X009315Y031066D01*
X009261Y031079D01*
X009205Y031089D01*
X009150Y031095D01*
X009093Y031097D01*
X009093Y031096D01*
X009150Y031094D01*
X009205Y031088D01*
X009261Y031078D01*
X009315Y031065D01*
X009368Y031048D01*
X009420Y031027D01*
X009471Y031002D01*
X009520Y030974D01*
X009566Y030943D01*
X009610Y030909D01*
X009652Y030871D01*
X009691Y030831D01*
X009728Y030788D01*
X009761Y030743D01*
X009760Y030742D01*
X009727Y030788D01*
X009691Y030830D01*
X009652Y030870D01*
X009610Y030908D01*
X009566Y030942D01*
X009519Y030973D01*
X009470Y031001D01*
X009420Y031026D01*
X009368Y031047D01*
X009315Y031064D01*
X009260Y031077D01*
X009205Y031087D01*
X009149Y031093D01*
X009093Y031095D01*
X009093Y031094D01*
X009149Y031092D01*
X009205Y031086D01*
X009260Y031076D01*
X009314Y031063D01*
X009368Y031046D01*
X009420Y031025D01*
X009470Y031000D01*
X009518Y030973D01*
X009565Y030941D01*
X009609Y030907D01*
X009651Y030870D01*
X009690Y030830D01*
X009726Y030787D01*
X009759Y030742D01*
X009758Y030741D01*
X009725Y030786D01*
X009689Y030829D01*
X009650Y030869D01*
X009609Y030906D01*
X009564Y030941D01*
X009518Y030972D01*
X009469Y031000D01*
X009419Y031024D01*
X009367Y031045D01*
X009314Y031062D01*
X009260Y031075D01*
X009205Y031085D01*
X009149Y031091D01*
X009093Y031093D01*
X009093Y031092D01*
X009149Y031090D01*
X009205Y031084D01*
X009260Y031075D01*
X009314Y031061D01*
X009367Y031044D01*
X009419Y031023D01*
X009469Y030999D01*
X009517Y030971D01*
X009564Y030940D01*
X009608Y030906D01*
X009649Y030868D01*
X009688Y030828D01*
X009724Y030786D01*
X009757Y030741D01*
X009757Y030740D01*
X009724Y030785D01*
X009688Y030828D01*
X009649Y030868D01*
X009607Y030905D01*
X009563Y030939D01*
X009517Y030970D01*
X009469Y030998D01*
X009418Y031022D01*
X009367Y031043D01*
X009314Y031060D01*
X009260Y031074D01*
X009205Y031083D01*
X009149Y031089D01*
X009093Y031091D01*
X009093Y031090D01*
X009149Y031088D01*
X009205Y031082D01*
X009259Y031073D01*
X009313Y031059D01*
X009366Y031042D01*
X009418Y031021D01*
X009468Y030997D01*
X009516Y030969D01*
X009563Y030938D01*
X009607Y030904D01*
X009648Y030867D01*
X009687Y030827D01*
X009723Y030784D01*
X009756Y030740D01*
X009755Y030739D01*
X009722Y030784D01*
X009686Y030826D01*
X009647Y030866D01*
X009606Y030903D01*
X009562Y030937D01*
X009516Y030968D01*
X009468Y030996D01*
X009418Y031020D01*
X009366Y031041D01*
X009313Y031058D01*
X009259Y031072D01*
X009204Y031081D01*
X009149Y031087D01*
X009093Y031089D01*
X009093Y031088D01*
X009149Y031086D01*
X009204Y031080D01*
X009259Y031071D01*
X009313Y031057D01*
X009366Y031040D01*
X009417Y031019D01*
X009467Y030995D01*
X009515Y030967D01*
X009561Y030937D01*
X009605Y030902D01*
X009647Y030865D01*
X009685Y030826D01*
X009721Y030783D01*
X009754Y030738D01*
X009753Y030738D01*
X009721Y030783D01*
X009685Y030825D01*
X009646Y030865D01*
X009605Y030902D01*
X009561Y030936D01*
X009515Y030967D01*
X009467Y030994D01*
X009417Y031018D01*
X009365Y031039D01*
X009313Y031056D01*
X009259Y031070D01*
X009204Y031079D01*
X009149Y031085D01*
X009093Y031087D01*
X009093Y031086D01*
X009149Y031084D01*
X009204Y031078D01*
X009259Y031069D01*
X009312Y031055D01*
X009365Y031038D01*
X009416Y031018D01*
X009466Y030993D01*
X009514Y030966D01*
X009560Y030935D01*
X009604Y030901D01*
X009645Y030864D01*
X009684Y030824D01*
X009720Y030782D01*
X009753Y030737D01*
X009752Y030737D01*
X009719Y030781D01*
X009683Y030824D01*
X009645Y030863D01*
X009603Y030900D01*
X009560Y030934D01*
X009514Y030965D01*
X009466Y030992D01*
X009416Y031017D01*
X009365Y031037D01*
X009312Y031054D01*
X009258Y031068D01*
X009204Y031077D01*
X009149Y031083D01*
X009093Y031085D01*
X009093Y031084D01*
X009149Y031082D01*
X009204Y031076D01*
X009258Y031067D01*
X009312Y031053D01*
X009364Y031036D01*
X009416Y031016D01*
X009465Y030992D01*
X009513Y030964D01*
X009559Y030933D01*
X009603Y030899D01*
X009644Y030863D01*
X009682Y030823D01*
X009718Y030781D01*
X009751Y030736D01*
X009750Y030736D01*
X009717Y030780D01*
X009682Y030822D01*
X009643Y030862D01*
X009602Y030899D01*
X009559Y030932D01*
X009513Y030963D01*
X009465Y030991D01*
X009415Y031015D01*
X009364Y031035D01*
X009311Y031052D01*
X009258Y031066D01*
X009204Y031075D01*
X009149Y031081D01*
X009093Y031083D01*
X009093Y031082D01*
X009149Y031080D01*
X009203Y031074D01*
X009258Y031065D01*
X009311Y031051D01*
X009364Y031034D01*
X009415Y031014D01*
X009464Y030990D01*
X009512Y030962D01*
X009558Y030932D01*
X009601Y030898D01*
X009643Y030861D01*
X009681Y030822D01*
X009717Y030779D01*
X009749Y030735D01*
X009748Y030734D01*
X009716Y030779D01*
X009680Y030821D01*
X009642Y030860D01*
X009601Y030897D01*
X009557Y030931D01*
X009512Y030962D01*
X009464Y030989D01*
X009414Y031013D01*
X009363Y031034D01*
X009311Y031050D01*
X009257Y031064D01*
X009203Y031073D01*
X009149Y031079D01*
X009093Y031081D01*
X009093Y031080D01*
X009148Y031078D01*
X009203Y031072D01*
X009257Y031063D01*
X009311Y031050D01*
X009363Y031033D01*
X009414Y031012D01*
X009463Y030988D01*
X009511Y030961D01*
X009557Y030930D01*
X009600Y030896D01*
X009641Y030860D01*
X009680Y030820D01*
X009715Y030778D01*
X009748Y030734D01*
X009314Y030747D02*
X009306Y030730D01*
X009307Y030730D02*
X009273Y030745D01*
X009238Y030757D01*
X009203Y030767D01*
X009167Y030773D01*
X009130Y030778D01*
X009093Y030779D01*
X009093Y030797D01*
X009093Y030798D01*
X009132Y030797D01*
X009170Y030792D01*
X009207Y030785D01*
X009244Y030775D01*
X009280Y030763D01*
X009315Y030747D01*
X009314Y030746D01*
X009280Y030762D01*
X009244Y030774D01*
X009207Y030784D01*
X009169Y030791D01*
X009132Y030796D01*
X009093Y030797D01*
X009093Y030796D01*
X009131Y030795D01*
X009169Y030790D01*
X009207Y030783D01*
X009243Y030773D01*
X009279Y030761D01*
X009314Y030745D01*
X009279Y030760D01*
X009243Y030772D01*
X009206Y030782D01*
X009169Y030789D01*
X009131Y030794D01*
X009093Y030795D01*
X009093Y030794D01*
X009131Y030793D01*
X009169Y030788D01*
X009206Y030781D01*
X009243Y030771D01*
X009278Y030759D01*
X009313Y030744D01*
X009313Y030743D01*
X009278Y030758D01*
X009242Y030770D01*
X009206Y030780D01*
X009169Y030787D01*
X009131Y030792D01*
X009093Y030793D01*
X009093Y030792D01*
X009131Y030791D01*
X009169Y030786D01*
X009206Y030779D01*
X009242Y030769D01*
X009278Y030757D01*
X009312Y030742D01*
X009312Y030741D01*
X009277Y030756D01*
X009242Y030768D01*
X009205Y030778D01*
X009168Y030785D01*
X009131Y030790D01*
X009093Y030791D01*
X009093Y030790D01*
X009131Y030789D01*
X009168Y030784D01*
X009205Y030777D01*
X009242Y030768D01*
X009277Y030755D01*
X009311Y030740D01*
X009311Y030739D01*
X009277Y030754D01*
X009241Y030767D01*
X009205Y030776D01*
X009168Y030783D01*
X009131Y030788D01*
X009093Y030789D01*
X009093Y030788D01*
X009131Y030787D01*
X009168Y030782D01*
X009205Y030775D01*
X009241Y030766D01*
X009276Y030753D01*
X009310Y030738D01*
X009310Y030737D01*
X009276Y030752D01*
X009241Y030765D01*
X009205Y030774D01*
X009168Y030781D01*
X009131Y030786D01*
X009093Y030787D01*
X009093Y030786D01*
X009131Y030785D01*
X009168Y030780D01*
X009204Y030773D01*
X009240Y030764D01*
X009275Y030751D01*
X009310Y030736D01*
X009309Y030736D01*
X009275Y030750D01*
X009240Y030763D01*
X009204Y030772D01*
X009168Y030779D01*
X009131Y030784D01*
X009093Y030785D01*
X009093Y030784D01*
X009131Y030783D01*
X009167Y030778D01*
X009204Y030771D01*
X009240Y030762D01*
X009275Y030749D01*
X009309Y030735D01*
X009308Y030734D01*
X009274Y030749D01*
X009239Y030761D01*
X009204Y030770D01*
X009167Y030777D01*
X009131Y030782D01*
X009093Y030783D01*
X009093Y030782D01*
X009130Y030781D01*
X009167Y030776D01*
X009203Y030769D01*
X009239Y030760D01*
X009274Y030748D01*
X009308Y030733D01*
X009307Y030732D01*
X009274Y030747D01*
X009239Y030759D01*
X009203Y030769D01*
X009167Y030775D01*
X009130Y030780D01*
X009093Y030781D01*
X009093Y030780D01*
X009130Y030779D01*
X009167Y030774D01*
X009203Y030768D01*
X009239Y030758D01*
X009273Y030746D01*
X009307Y030731D01*
X009093Y029779D02*
X009093Y029798D01*
X009093Y029797D02*
X009130Y029798D01*
X009167Y029803D01*
X009203Y029809D01*
X009238Y029819D01*
X009273Y029831D01*
X009307Y029846D01*
X009314Y029829D01*
X009315Y029829D01*
X009280Y029813D01*
X009244Y029801D01*
X009207Y029791D01*
X009170Y029784D01*
X009132Y029779D01*
X009093Y029778D01*
X009093Y029779D01*
X009132Y029780D01*
X009169Y029785D01*
X009207Y029792D01*
X009244Y029802D01*
X009280Y029814D01*
X009314Y029830D01*
X009314Y029831D01*
X009279Y029815D01*
X009243Y029803D01*
X009207Y029793D01*
X009169Y029786D01*
X009131Y029781D01*
X009093Y029780D01*
X009093Y029781D01*
X009131Y029782D01*
X009169Y029787D01*
X009206Y029794D01*
X009243Y029804D01*
X009279Y029816D01*
X009314Y029831D01*
X009313Y029832D01*
X009278Y029817D01*
X009243Y029805D01*
X009206Y029795D01*
X009169Y029788D01*
X009131Y029783D01*
X009093Y029782D01*
X009093Y029783D01*
X009131Y029784D01*
X009169Y029789D01*
X009206Y029796D01*
X009242Y029806D01*
X009278Y029818D01*
X009313Y029833D01*
X009312Y029834D01*
X009278Y029819D01*
X009242Y029807D01*
X009206Y029797D01*
X009169Y029790D01*
X009131Y029785D01*
X009093Y029784D01*
X009093Y029785D01*
X009131Y029786D01*
X009168Y029791D01*
X009205Y029798D01*
X009242Y029808D01*
X009277Y029820D01*
X009312Y029835D01*
X009311Y029836D01*
X009277Y029821D01*
X009242Y029808D01*
X009205Y029799D01*
X009168Y029792D01*
X009131Y029787D01*
X009093Y029786D01*
X009093Y029787D01*
X009131Y029788D01*
X009168Y029793D01*
X009205Y029800D01*
X009241Y029809D01*
X009277Y029822D01*
X009311Y029837D01*
X009310Y029838D01*
X009276Y029823D01*
X009241Y029810D01*
X009205Y029801D01*
X009168Y029794D01*
X009131Y029789D01*
X009093Y029788D01*
X009093Y029789D01*
X009131Y029790D01*
X009168Y029795D01*
X009205Y029802D01*
X009241Y029811D01*
X009276Y029824D01*
X009310Y029839D01*
X009310Y029840D01*
X009275Y029825D01*
X009240Y029812D01*
X009204Y029803D01*
X009168Y029796D01*
X009131Y029791D01*
X009093Y029790D01*
X009093Y029791D01*
X009131Y029792D01*
X009168Y029797D01*
X009204Y029804D01*
X009240Y029813D01*
X009275Y029826D01*
X009309Y029840D01*
X009309Y029841D01*
X009275Y029827D01*
X009240Y029814D01*
X009204Y029805D01*
X009167Y029798D01*
X009131Y029793D01*
X009093Y029792D01*
X009093Y029793D01*
X009131Y029794D01*
X009167Y029799D01*
X009204Y029806D01*
X009239Y029815D01*
X009274Y029827D01*
X009308Y029842D01*
X009308Y029843D01*
X009274Y029828D01*
X009239Y029816D01*
X009203Y029807D01*
X009167Y029800D01*
X009130Y029795D01*
X009093Y029794D01*
X009093Y029795D01*
X009130Y029796D01*
X009167Y029801D01*
X009203Y029807D01*
X009239Y029817D01*
X009274Y029829D01*
X009307Y029844D01*
X009307Y029845D01*
X009273Y029830D01*
X009239Y029818D01*
X009203Y029808D01*
X009167Y029802D01*
X009130Y029797D01*
X009093Y029796D01*
X009093Y029479D02*
X009093Y029498D01*
X009094Y029497D02*
X009148Y029499D01*
X009203Y029505D01*
X009257Y029514D01*
X009310Y029527D01*
X009363Y029544D01*
X009414Y029565D01*
X009463Y029589D01*
X009511Y029616D01*
X009556Y029647D01*
X009600Y029681D01*
X009641Y029717D01*
X009679Y029756D01*
X009714Y029798D01*
X009747Y029843D01*
X009762Y029833D01*
X009762Y029832D01*
X009729Y029787D01*
X009693Y029744D01*
X009654Y029703D01*
X009612Y029666D01*
X009567Y029631D01*
X009521Y029600D01*
X009472Y029572D01*
X009421Y029548D01*
X009369Y029527D01*
X009316Y029509D01*
X009261Y029496D01*
X009206Y029486D01*
X009150Y029480D01*
X009094Y029478D01*
X009094Y029479D01*
X009150Y029481D01*
X009206Y029487D01*
X009261Y029497D01*
X009315Y029510D01*
X009369Y029527D01*
X009421Y029548D01*
X009471Y029573D01*
X009520Y029601D01*
X009567Y029632D01*
X009611Y029667D01*
X009653Y029704D01*
X009692Y029744D01*
X009728Y029787D01*
X009762Y029833D01*
X009761Y029833D01*
X009728Y029788D01*
X009691Y029745D01*
X009652Y029705D01*
X009610Y029667D01*
X009566Y029633D01*
X009520Y029602D01*
X009471Y029574D01*
X009420Y029549D01*
X009368Y029528D01*
X009315Y029511D01*
X009261Y029498D01*
X009205Y029488D01*
X009150Y029482D01*
X009094Y029480D01*
X009094Y029481D01*
X009150Y029483D01*
X009205Y029489D01*
X009260Y029499D01*
X009315Y029512D01*
X009368Y029529D01*
X009420Y029550D01*
X009470Y029575D01*
X009519Y029603D01*
X009566Y029634D01*
X009610Y029668D01*
X009652Y029706D01*
X009691Y029746D01*
X009727Y029789D01*
X009760Y029834D01*
X009759Y029834D01*
X009726Y029789D01*
X009690Y029746D01*
X009651Y029706D01*
X009609Y029669D01*
X009565Y029635D01*
X009519Y029603D01*
X009470Y029576D01*
X009420Y029551D01*
X009368Y029530D01*
X009315Y029513D01*
X009260Y029500D01*
X009205Y029490D01*
X009149Y029484D01*
X009094Y029482D01*
X009094Y029483D01*
X009149Y029485D01*
X009205Y029491D01*
X009260Y029501D01*
X009314Y029514D01*
X009367Y029531D01*
X009419Y029552D01*
X009470Y029576D01*
X009518Y029604D01*
X009564Y029635D01*
X009609Y029670D01*
X009650Y029707D01*
X009689Y029747D01*
X009725Y029790D01*
X009758Y029835D01*
X009757Y029835D01*
X009724Y029790D01*
X009688Y029748D01*
X009650Y029708D01*
X009608Y029671D01*
X009564Y029636D01*
X009517Y029605D01*
X009469Y029577D01*
X009419Y029553D01*
X009367Y029532D01*
X009314Y029515D01*
X009260Y029501D01*
X009205Y029492D01*
X009149Y029486D01*
X009094Y029484D01*
X009094Y029485D01*
X009149Y029487D01*
X009205Y029493D01*
X009260Y029502D01*
X009314Y029516D01*
X009367Y029533D01*
X009418Y029554D01*
X009469Y029578D01*
X009517Y029606D01*
X009563Y029637D01*
X009607Y029671D01*
X009649Y029708D01*
X009688Y029748D01*
X009724Y029791D01*
X009757Y029836D01*
X009756Y029837D01*
X009723Y029792D01*
X009687Y029749D01*
X009648Y029709D01*
X009607Y029672D01*
X009563Y029638D01*
X009516Y029607D01*
X009468Y029579D01*
X009418Y029555D01*
X009366Y029534D01*
X009313Y029517D01*
X009259Y029503D01*
X009205Y029494D01*
X009149Y029488D01*
X009094Y029486D01*
X009094Y029487D01*
X009149Y029489D01*
X009204Y029495D01*
X009259Y029504D01*
X009313Y029518D01*
X009366Y029535D01*
X009418Y029556D01*
X009468Y029580D01*
X009516Y029608D01*
X009562Y029639D01*
X009606Y029673D01*
X009647Y029710D01*
X009686Y029750D01*
X009722Y029792D01*
X009755Y029837D01*
X009754Y029838D01*
X009721Y029793D01*
X009685Y029750D01*
X009647Y029711D01*
X009605Y029674D01*
X009561Y029640D01*
X009515Y029609D01*
X009467Y029581D01*
X009417Y029557D01*
X009366Y029536D01*
X009313Y029519D01*
X009259Y029505D01*
X009204Y029496D01*
X009149Y029490D01*
X009094Y029488D01*
X009094Y029489D01*
X009149Y029491D01*
X009204Y029497D01*
X009259Y029506D01*
X009313Y029520D01*
X009365Y029537D01*
X009417Y029558D01*
X009467Y029582D01*
X009515Y029609D01*
X009561Y029640D01*
X009605Y029674D01*
X009646Y029711D01*
X009685Y029751D01*
X009721Y029793D01*
X009753Y029838D01*
X009753Y029839D01*
X009720Y029794D01*
X009684Y029752D01*
X009645Y029712D01*
X009604Y029675D01*
X009560Y029641D01*
X009514Y029610D01*
X009466Y029583D01*
X009416Y029558D01*
X009365Y029538D01*
X009312Y029521D01*
X009259Y029507D01*
X009204Y029498D01*
X009149Y029492D01*
X009094Y029490D01*
X009094Y029491D01*
X009149Y029493D01*
X009204Y029499D01*
X009258Y029508D01*
X009312Y029522D01*
X009365Y029539D01*
X009416Y029559D01*
X009466Y029584D01*
X009514Y029611D01*
X009560Y029642D01*
X009603Y029676D01*
X009645Y029713D01*
X009683Y029752D01*
X009719Y029795D01*
X009752Y029839D01*
X009751Y029840D01*
X009718Y029795D01*
X009683Y029753D01*
X009644Y029714D01*
X009603Y029677D01*
X009559Y029643D01*
X009513Y029612D01*
X009465Y029584D01*
X009416Y029560D01*
X009364Y029540D01*
X009312Y029523D01*
X009258Y029509D01*
X009204Y029500D01*
X009149Y029494D01*
X009094Y029492D01*
X009094Y029493D01*
X009149Y029495D01*
X009204Y029501D01*
X009258Y029510D01*
X009312Y029524D01*
X009364Y029541D01*
X009415Y029561D01*
X009465Y029585D01*
X009513Y029613D01*
X009559Y029644D01*
X009602Y029677D01*
X009643Y029714D01*
X009682Y029754D01*
X009717Y029796D01*
X009750Y029840D01*
X009749Y029841D01*
X009717Y029797D01*
X009681Y029754D01*
X009643Y029715D01*
X009602Y029678D01*
X009558Y029644D01*
X009512Y029614D01*
X009464Y029586D01*
X009415Y029562D01*
X009364Y029542D01*
X009311Y029525D01*
X009258Y029511D01*
X009203Y029502D01*
X009149Y029496D01*
X009094Y029494D01*
X009094Y029495D01*
X009149Y029497D01*
X009203Y029503D01*
X009258Y029512D01*
X009311Y029526D01*
X009363Y029543D01*
X009414Y029563D01*
X009464Y029587D01*
X009512Y029615D01*
X009557Y029645D01*
X009601Y029679D01*
X009642Y029716D01*
X009680Y029755D01*
X009716Y029797D01*
X009748Y029842D01*
X009715Y029798D01*
X009680Y029756D01*
X009641Y029716D01*
X009600Y029680D01*
X009557Y029646D01*
X009511Y029615D01*
X009463Y029588D01*
X009414Y029564D01*
X009363Y029543D01*
X009311Y029527D01*
X009257Y029513D01*
X009203Y029504D01*
X009148Y029498D01*
X009094Y029496D01*
X006393Y031097D02*
X006393Y031078D01*
X006392Y031079D02*
X006338Y031077D01*
X006283Y031071D01*
X006229Y031062D01*
X006176Y031049D01*
X006123Y031032D01*
X006072Y031011D01*
X006023Y030987D01*
X005975Y030960D01*
X005930Y030929D01*
X005886Y030896D01*
X005846Y030859D01*
X005807Y030820D01*
X005772Y030778D01*
X005739Y030733D01*
X005724Y030744D01*
X005757Y030789D01*
X005793Y030832D01*
X005832Y030873D01*
X005874Y030910D01*
X005919Y030945D01*
X005965Y030976D01*
X006014Y031004D01*
X006065Y031028D01*
X006117Y031049D01*
X006170Y031067D01*
X006225Y031080D01*
X006280Y031090D01*
X006336Y031096D01*
X006392Y031098D01*
X006392Y031097D01*
X006336Y031095D01*
X006280Y031089D01*
X006225Y031079D01*
X006171Y031066D01*
X006117Y031049D01*
X006065Y031028D01*
X006015Y031003D01*
X005966Y030975D01*
X005919Y030944D01*
X005875Y030909D01*
X005833Y030872D01*
X005794Y030832D01*
X005758Y030789D01*
X005724Y030743D01*
X005725Y030743D01*
X005758Y030788D01*
X005795Y030831D01*
X005834Y030871D01*
X005876Y030909D01*
X005920Y030943D01*
X005966Y030974D01*
X006015Y031002D01*
X006066Y031027D01*
X006118Y031048D01*
X006171Y031065D01*
X006225Y031078D01*
X006281Y031088D01*
X006336Y031094D01*
X006392Y031096D01*
X006392Y031095D01*
X006336Y031093D01*
X006281Y031087D01*
X006226Y031077D01*
X006171Y031064D01*
X006118Y031047D01*
X006066Y031026D01*
X006016Y031001D01*
X005967Y030973D01*
X005920Y030942D01*
X005876Y030908D01*
X005834Y030870D01*
X005795Y030830D01*
X005759Y030788D01*
X005726Y030742D01*
X005727Y030742D01*
X005760Y030787D01*
X005796Y030830D01*
X005835Y030870D01*
X005877Y030907D01*
X005921Y030941D01*
X005967Y030973D01*
X006016Y031000D01*
X006066Y031025D01*
X006118Y031046D01*
X006171Y031063D01*
X006226Y031076D01*
X006281Y031086D01*
X006337Y031092D01*
X006392Y031094D01*
X006392Y031093D01*
X006337Y031091D01*
X006281Y031085D01*
X006226Y031075D01*
X006172Y031062D01*
X006119Y031045D01*
X006067Y031024D01*
X006016Y031000D01*
X005968Y030972D01*
X005922Y030941D01*
X005877Y030906D01*
X005836Y030869D01*
X005797Y030829D01*
X005761Y030786D01*
X005728Y030741D01*
X005729Y030741D01*
X005762Y030786D01*
X005798Y030828D01*
X005836Y030868D01*
X005878Y030905D01*
X005922Y030940D01*
X005969Y030971D01*
X006017Y030999D01*
X006067Y031023D01*
X006119Y031044D01*
X006172Y031061D01*
X006226Y031075D01*
X006281Y031084D01*
X006337Y031090D01*
X006392Y031092D01*
X006392Y031091D01*
X006337Y031089D01*
X006281Y031083D01*
X006226Y031074D01*
X006172Y031060D01*
X006119Y031043D01*
X006068Y031022D01*
X006017Y030998D01*
X005969Y030970D01*
X005923Y030939D01*
X005879Y030905D01*
X005837Y030868D01*
X005798Y030828D01*
X005762Y030785D01*
X005729Y030740D01*
X005730Y030740D01*
X005763Y030784D01*
X005799Y030827D01*
X005838Y030867D01*
X005879Y030904D01*
X005923Y030938D01*
X005970Y030969D01*
X006018Y030997D01*
X006068Y031021D01*
X006120Y031042D01*
X006173Y031059D01*
X006227Y031073D01*
X006281Y031082D01*
X006337Y031088D01*
X006392Y031090D01*
X006392Y031089D01*
X006337Y031087D01*
X006282Y031081D01*
X006227Y031072D01*
X006173Y031058D01*
X006120Y031041D01*
X006068Y031020D01*
X006018Y030996D01*
X005970Y030968D01*
X005924Y030937D01*
X005880Y030903D01*
X005839Y030866D01*
X005800Y030826D01*
X005764Y030784D01*
X005731Y030739D01*
X005732Y030738D01*
X005765Y030783D01*
X005801Y030826D01*
X005839Y030865D01*
X005881Y030902D01*
X005925Y030936D01*
X005971Y030967D01*
X006019Y030995D01*
X006069Y031019D01*
X006120Y031040D01*
X006173Y031057D01*
X006227Y031071D01*
X006282Y031080D01*
X006337Y031086D01*
X006392Y031088D01*
X006392Y031087D01*
X006337Y031085D01*
X006282Y031079D01*
X006227Y031070D01*
X006173Y031056D01*
X006121Y031039D01*
X006069Y031018D01*
X006019Y030994D01*
X005971Y030967D01*
X005925Y030936D01*
X005881Y030902D01*
X005840Y030865D01*
X005801Y030825D01*
X005765Y030783D01*
X005733Y030738D01*
X005733Y030737D01*
X005766Y030782D01*
X005802Y030824D01*
X005841Y030864D01*
X005882Y030901D01*
X005926Y030935D01*
X005972Y030966D01*
X006020Y030993D01*
X006070Y031018D01*
X006121Y031038D01*
X006174Y031055D01*
X006227Y031069D01*
X006282Y031078D01*
X006337Y031084D01*
X006392Y031086D01*
X006392Y031085D01*
X006337Y031083D01*
X006282Y031077D01*
X006228Y031068D01*
X006174Y031054D01*
X006121Y031037D01*
X006070Y031017D01*
X006020Y030992D01*
X005972Y030965D01*
X005926Y030934D01*
X005883Y030900D01*
X005841Y030863D01*
X005803Y030824D01*
X005767Y030781D01*
X005734Y030737D01*
X005735Y030736D01*
X005768Y030781D01*
X005804Y030823D01*
X005842Y030863D01*
X005883Y030899D01*
X005927Y030933D01*
X005973Y030964D01*
X006021Y030992D01*
X006070Y031016D01*
X006122Y031036D01*
X006174Y031053D01*
X006228Y031067D01*
X006282Y031076D01*
X006337Y031082D01*
X006392Y031084D01*
X006392Y031083D01*
X006337Y031081D01*
X006282Y031075D01*
X006228Y031066D01*
X006175Y031052D01*
X006122Y031035D01*
X006071Y031015D01*
X006021Y030991D01*
X005973Y030963D01*
X005927Y030932D01*
X005884Y030899D01*
X005843Y030862D01*
X005804Y030822D01*
X005769Y030780D01*
X005736Y030736D01*
X005737Y030735D01*
X005769Y030779D01*
X005805Y030822D01*
X005843Y030861D01*
X005885Y030898D01*
X005928Y030932D01*
X005974Y030962D01*
X006022Y030990D01*
X006071Y031014D01*
X006122Y031034D01*
X006175Y031051D01*
X006228Y031065D01*
X006283Y031074D01*
X006337Y031080D01*
X006392Y031082D01*
X006392Y031081D01*
X006337Y031079D01*
X006283Y031073D01*
X006228Y031064D01*
X006175Y031050D01*
X006123Y031034D01*
X006072Y031013D01*
X006022Y030989D01*
X005974Y030961D01*
X005929Y030931D01*
X005885Y030897D01*
X005844Y030860D01*
X005806Y030821D01*
X005770Y030779D01*
X005738Y030734D01*
X005771Y030778D01*
X005806Y030820D01*
X005845Y030860D01*
X005886Y030896D01*
X005929Y030930D01*
X005975Y030961D01*
X006023Y030988D01*
X006072Y031012D01*
X006123Y031033D01*
X006175Y031050D01*
X006229Y031063D01*
X006283Y031072D01*
X006338Y031078D01*
X006392Y031080D01*
X006393Y030797D02*
X006393Y030778D01*
X006393Y030779D02*
X006356Y030778D01*
X006319Y030773D01*
X006283Y030767D01*
X006248Y030757D01*
X006213Y030745D01*
X006179Y030730D01*
X006172Y030747D01*
X006171Y030747D01*
X006206Y030763D01*
X006242Y030775D01*
X006279Y030785D01*
X006316Y030792D01*
X006354Y030797D01*
X006393Y030798D01*
X006393Y030797D01*
X006354Y030796D01*
X006317Y030791D01*
X006279Y030784D01*
X006242Y030774D01*
X006206Y030762D01*
X006172Y030746D01*
X006172Y030745D01*
X006207Y030761D01*
X006243Y030773D01*
X006279Y030783D01*
X006317Y030790D01*
X006355Y030795D01*
X006393Y030796D01*
X006393Y030795D01*
X006355Y030794D01*
X006317Y030789D01*
X006280Y030782D01*
X006243Y030772D01*
X006207Y030760D01*
X006172Y030745D01*
X006173Y030744D01*
X006208Y030759D01*
X006243Y030771D01*
X006280Y030781D01*
X006317Y030788D01*
X006355Y030793D01*
X006393Y030794D01*
X006393Y030793D01*
X006355Y030792D01*
X006317Y030787D01*
X006280Y030780D01*
X006244Y030770D01*
X006208Y030758D01*
X006173Y030743D01*
X006174Y030742D01*
X006208Y030757D01*
X006244Y030769D01*
X006280Y030779D01*
X006317Y030786D01*
X006355Y030791D01*
X006393Y030792D01*
X006393Y030791D01*
X006355Y030790D01*
X006318Y030785D01*
X006281Y030778D01*
X006244Y030768D01*
X006209Y030756D01*
X006174Y030741D01*
X006175Y030740D01*
X006209Y030755D01*
X006244Y030768D01*
X006281Y030777D01*
X006318Y030784D01*
X006355Y030789D01*
X006393Y030790D01*
X006393Y030789D01*
X006355Y030788D01*
X006318Y030783D01*
X006281Y030776D01*
X006245Y030767D01*
X006209Y030754D01*
X006175Y030739D01*
X006176Y030738D01*
X006210Y030753D01*
X006245Y030766D01*
X006281Y030775D01*
X006318Y030782D01*
X006355Y030787D01*
X006393Y030788D01*
X006393Y030787D01*
X006355Y030786D01*
X006318Y030781D01*
X006281Y030774D01*
X006245Y030765D01*
X006210Y030752D01*
X006176Y030737D01*
X006176Y030736D01*
X006211Y030751D01*
X006246Y030764D01*
X006282Y030773D01*
X006318Y030780D01*
X006355Y030785D01*
X006393Y030786D01*
X006393Y030785D01*
X006355Y030784D01*
X006318Y030779D01*
X006282Y030772D01*
X006246Y030763D01*
X006211Y030750D01*
X006177Y030736D01*
X006177Y030735D01*
X006211Y030749D01*
X006246Y030762D01*
X006282Y030771D01*
X006319Y030778D01*
X006355Y030783D01*
X006393Y030784D01*
X006393Y030783D01*
X006355Y030782D01*
X006319Y030777D01*
X006282Y030770D01*
X006247Y030761D01*
X006212Y030749D01*
X006178Y030734D01*
X006178Y030733D01*
X006212Y030748D01*
X006247Y030760D01*
X006283Y030769D01*
X006319Y030776D01*
X006356Y030781D01*
X006393Y030782D01*
X006393Y030781D01*
X006356Y030780D01*
X006319Y030775D01*
X006283Y030769D01*
X006247Y030759D01*
X006212Y030747D01*
X006179Y030732D01*
X006179Y030731D01*
X006213Y030746D01*
X006247Y030758D01*
X006283Y030768D01*
X006319Y030774D01*
X006356Y030779D01*
X006393Y030780D01*
X006172Y029829D02*
X006180Y029846D01*
X006179Y029846D02*
X006213Y029831D01*
X006248Y029819D01*
X006283Y029809D01*
X006319Y029803D01*
X006356Y029798D01*
X006393Y029797D01*
X006393Y029779D01*
X006393Y029778D01*
X006354Y029779D01*
X006316Y029784D01*
X006279Y029791D01*
X006242Y029801D01*
X006206Y029813D01*
X006171Y029829D01*
X006172Y029830D01*
X006206Y029814D01*
X006242Y029802D01*
X006279Y029792D01*
X006317Y029785D01*
X006354Y029780D01*
X006393Y029779D01*
X006393Y029780D01*
X006355Y029781D01*
X006317Y029786D01*
X006279Y029793D01*
X006243Y029803D01*
X006207Y029815D01*
X006172Y029831D01*
X006207Y029816D01*
X006243Y029804D01*
X006280Y029794D01*
X006317Y029787D01*
X006355Y029782D01*
X006393Y029781D01*
X006393Y029782D01*
X006355Y029783D01*
X006317Y029788D01*
X006280Y029795D01*
X006243Y029805D01*
X006208Y029817D01*
X006173Y029832D01*
X006173Y029833D01*
X006208Y029818D01*
X006244Y029806D01*
X006280Y029796D01*
X006317Y029789D01*
X006355Y029784D01*
X006393Y029783D01*
X006393Y029784D01*
X006355Y029785D01*
X006317Y029790D01*
X006280Y029797D01*
X006244Y029807D01*
X006208Y029819D01*
X006174Y029834D01*
X006174Y029835D01*
X006209Y029820D01*
X006244Y029808D01*
X006281Y029798D01*
X006318Y029791D01*
X006355Y029786D01*
X006393Y029785D01*
X006393Y029786D01*
X006355Y029787D01*
X006318Y029792D01*
X006281Y029799D01*
X006244Y029808D01*
X006209Y029821D01*
X006175Y029836D01*
X006175Y029837D01*
X006209Y029822D01*
X006245Y029809D01*
X006281Y029800D01*
X006318Y029793D01*
X006355Y029788D01*
X006393Y029787D01*
X006393Y029788D01*
X006355Y029789D01*
X006318Y029794D01*
X006281Y029801D01*
X006245Y029810D01*
X006210Y029823D01*
X006176Y029838D01*
X006176Y029839D01*
X006210Y029824D01*
X006245Y029811D01*
X006281Y029802D01*
X006318Y029795D01*
X006355Y029790D01*
X006393Y029789D01*
X006393Y029790D01*
X006355Y029791D01*
X006318Y029796D01*
X006282Y029803D01*
X006246Y029812D01*
X006211Y029825D01*
X006176Y029840D01*
X006177Y029840D01*
X006211Y029826D01*
X006246Y029813D01*
X006282Y029804D01*
X006318Y029797D01*
X006355Y029792D01*
X006393Y029791D01*
X006393Y029792D01*
X006355Y029793D01*
X006319Y029798D01*
X006282Y029805D01*
X006246Y029814D01*
X006211Y029827D01*
X006177Y029841D01*
X006178Y029842D01*
X006212Y029827D01*
X006247Y029815D01*
X006282Y029806D01*
X006319Y029799D01*
X006355Y029794D01*
X006393Y029793D01*
X006393Y029794D01*
X006356Y029795D01*
X006319Y029800D01*
X006283Y029807D01*
X006247Y029816D01*
X006212Y029828D01*
X006178Y029843D01*
X006179Y029844D01*
X006212Y029829D01*
X006247Y029817D01*
X006283Y029807D01*
X006319Y029801D01*
X006356Y029796D01*
X006393Y029795D01*
X006393Y029796D01*
X006356Y029797D01*
X006319Y029802D01*
X006283Y029808D01*
X006247Y029818D01*
X006213Y029830D01*
X006179Y029845D01*
X005724Y029832D02*
X005740Y029843D01*
X005739Y029843D02*
X005772Y029798D01*
X005807Y029756D01*
X005846Y029717D01*
X005886Y029680D01*
X005930Y029647D01*
X005975Y029616D01*
X006023Y029589D01*
X006072Y029565D01*
X006123Y029544D01*
X006176Y029527D01*
X006229Y029514D01*
X006283Y029505D01*
X006338Y029499D01*
X006393Y029497D01*
X006393Y029479D01*
X006393Y029478D01*
X006336Y029480D01*
X006280Y029486D01*
X006225Y029496D01*
X006170Y029509D01*
X006117Y029526D01*
X006065Y029547D01*
X006014Y029572D01*
X005965Y029600D01*
X005919Y029631D01*
X005874Y029666D01*
X005832Y029703D01*
X005793Y029744D01*
X005757Y029787D01*
X005724Y029832D01*
X005724Y029833D01*
X005758Y029787D01*
X005794Y029744D01*
X005833Y029704D01*
X005875Y029667D01*
X005919Y029632D01*
X005966Y029601D01*
X006015Y029573D01*
X006065Y029548D01*
X006117Y029527D01*
X006171Y029510D01*
X006225Y029497D01*
X006281Y029487D01*
X006336Y029481D01*
X006393Y029479D01*
X006393Y029480D01*
X006336Y029482D01*
X006281Y029488D01*
X006225Y029498D01*
X006171Y029511D01*
X006118Y029528D01*
X006066Y029549D01*
X006015Y029574D01*
X005966Y029602D01*
X005920Y029633D01*
X005876Y029667D01*
X005834Y029705D01*
X005795Y029745D01*
X005758Y029788D01*
X005725Y029833D01*
X005726Y029834D01*
X005759Y029788D01*
X005795Y029746D01*
X005834Y029706D01*
X005876Y029668D01*
X005920Y029634D01*
X005967Y029603D01*
X006016Y029575D01*
X006066Y029550D01*
X006118Y029529D01*
X006171Y029512D01*
X006226Y029499D01*
X006281Y029489D01*
X006337Y029483D01*
X006393Y029481D01*
X006393Y029482D01*
X006337Y029484D01*
X006281Y029490D01*
X006226Y029500D01*
X006172Y029513D01*
X006118Y029530D01*
X006066Y029551D01*
X006016Y029576D01*
X005968Y029603D01*
X005921Y029635D01*
X005877Y029669D01*
X005835Y029706D01*
X005796Y029746D01*
X005760Y029789D01*
X005727Y029834D01*
X005728Y029835D01*
X005761Y029790D01*
X005797Y029747D01*
X005836Y029707D01*
X005877Y029670D01*
X005922Y029635D01*
X005968Y029604D01*
X006017Y029576D01*
X006067Y029552D01*
X006119Y029531D01*
X006172Y029514D01*
X006226Y029501D01*
X006281Y029491D01*
X006337Y029485D01*
X006393Y029483D01*
X006393Y029484D01*
X006337Y029486D01*
X006281Y029492D01*
X006226Y029501D01*
X006172Y029515D01*
X006119Y029532D01*
X006067Y029553D01*
X006017Y029577D01*
X005969Y029605D01*
X005922Y029636D01*
X005878Y029670D01*
X005837Y029708D01*
X005798Y029748D01*
X005762Y029790D01*
X005729Y029835D01*
X005729Y029836D01*
X005762Y029791D01*
X005798Y029748D01*
X005837Y029708D01*
X005879Y029671D01*
X005923Y029637D01*
X005969Y029606D01*
X006017Y029578D01*
X006068Y029554D01*
X006119Y029533D01*
X006172Y029516D01*
X006226Y029502D01*
X006281Y029493D01*
X006337Y029487D01*
X006393Y029485D01*
X006393Y029486D01*
X006337Y029488D01*
X006281Y029494D01*
X006227Y029503D01*
X006173Y029517D01*
X006120Y029534D01*
X006068Y029555D01*
X006018Y029579D01*
X005970Y029607D01*
X005923Y029638D01*
X005879Y029672D01*
X005838Y029709D01*
X005799Y029749D01*
X005763Y029792D01*
X005730Y029836D01*
X005731Y029837D01*
X005764Y029792D01*
X005800Y029750D01*
X005839Y029710D01*
X005880Y029673D01*
X005924Y029639D01*
X005970Y029608D01*
X006018Y029580D01*
X006068Y029556D01*
X006120Y029535D01*
X006173Y029518D01*
X006227Y029504D01*
X006282Y029495D01*
X006337Y029489D01*
X006393Y029487D01*
X006393Y029488D01*
X006337Y029490D01*
X006282Y029496D01*
X006227Y029505D01*
X006173Y029519D01*
X006120Y029536D01*
X006069Y029557D01*
X006019Y029581D01*
X005971Y029609D01*
X005925Y029639D01*
X005881Y029674D01*
X005839Y029711D01*
X005801Y029750D01*
X005765Y029793D01*
X005732Y029838D01*
X005733Y029838D01*
X005765Y029793D01*
X005801Y029751D01*
X005840Y029711D01*
X005881Y029674D01*
X005925Y029640D01*
X005971Y029609D01*
X006019Y029582D01*
X006069Y029558D01*
X006121Y029537D01*
X006173Y029520D01*
X006227Y029506D01*
X006282Y029497D01*
X006337Y029491D01*
X006393Y029489D01*
X006393Y029490D01*
X006337Y029492D01*
X006282Y029498D01*
X006227Y029507D01*
X006174Y029521D01*
X006121Y029538D01*
X006070Y029558D01*
X006020Y029583D01*
X005972Y029610D01*
X005926Y029641D01*
X005882Y029675D01*
X005841Y029712D01*
X005802Y029752D01*
X005766Y029794D01*
X005733Y029839D01*
X005734Y029839D01*
X005767Y029795D01*
X005803Y029752D01*
X005841Y029713D01*
X005883Y029676D01*
X005926Y029642D01*
X005972Y029611D01*
X006020Y029584D01*
X006070Y029559D01*
X006121Y029539D01*
X006174Y029522D01*
X006228Y029508D01*
X006282Y029499D01*
X006337Y029493D01*
X006393Y029491D01*
X006393Y029492D01*
X006337Y029494D01*
X006282Y029500D01*
X006228Y029509D01*
X006174Y029523D01*
X006122Y029540D01*
X006070Y029560D01*
X006021Y029584D01*
X005973Y029612D01*
X005927Y029643D01*
X005883Y029677D01*
X005842Y029713D01*
X005804Y029753D01*
X005768Y029795D01*
X005735Y029840D01*
X005736Y029840D01*
X005769Y029796D01*
X005804Y029754D01*
X005843Y029714D01*
X005884Y029677D01*
X005927Y029644D01*
X005973Y029613D01*
X006021Y029585D01*
X006071Y029561D01*
X006122Y029541D01*
X006175Y029524D01*
X006228Y029510D01*
X006282Y029501D01*
X006337Y029495D01*
X006393Y029493D01*
X006393Y029494D01*
X006337Y029496D01*
X006283Y029502D01*
X006228Y029511D01*
X006175Y029525D01*
X006122Y029542D01*
X006071Y029562D01*
X006022Y029586D01*
X005974Y029614D01*
X005928Y029644D01*
X005885Y029678D01*
X005843Y029715D01*
X005805Y029754D01*
X005769Y029797D01*
X005737Y029841D01*
X005738Y029842D01*
X005770Y029797D01*
X005806Y029755D01*
X005844Y029716D01*
X005885Y029679D01*
X005929Y029645D01*
X005974Y029614D01*
X006022Y029587D01*
X006072Y029563D01*
X006123Y029542D01*
X006175Y029526D01*
X006229Y029512D01*
X006283Y029503D01*
X006337Y029497D01*
X006393Y029495D01*
X006393Y029496D01*
X006338Y029498D01*
X006283Y029504D01*
X006229Y029513D01*
X006175Y029526D01*
X006123Y029543D01*
X006072Y029564D01*
X006023Y029588D01*
X005975Y029615D01*
X005929Y029646D01*
X005886Y029680D01*
X005845Y029716D01*
X005806Y029756D01*
X005771Y029798D01*
X005738Y029842D01*
M02*
