%
M48
M72
T01C0.0150
T02C0.0236
T03C0.0250
T04C0.0315
T05C0.0354
T06C0.0400
T07C0.0512
T08C0.0591
T09C0.0910
T10C0.1250
%
T01
X2189Y2336
X505Y3757
X4076Y2336
X6978Y2296
X9595Y2316
X11782Y4236
X11770Y5914
X11745Y8356
X11398Y8866
X11881Y10172
X11986Y10766
X11553Y10763
X10800Y11296
X10791Y11674
X9943Y10091
X9943Y9457
X9397Y8633
X8598Y9568
X14038Y10798
X14306Y10426
X14667Y10742
X15602Y10714
X15956Y10430
X16298Y10564
X16728Y10266
X17619Y10076
X18146Y10087
X18763Y9827
X18541Y8989
X18274Y8686
X18029Y8996
X16770Y8884
X15412Y9457
X15160Y8941
X14914Y9610
X14564Y13075
X14947Y13150
X15011Y13643
X15633Y13091
X16554Y14262
X16804Y14647
X17219Y14994
X18223Y14732
X18349Y15510
X19057Y15116
X20057Y15116
X21054Y15112
X22057Y15116
X23057Y15116
X24057Y15116
X25059Y14717
X24057Y16116
X23408Y16122
X23395Y17110
X24057Y17116
X24057Y18116
X23057Y18116
X23057Y19116
X24057Y19116
X25570Y18309
X26147Y18560
X27606Y17671
X28378Y16546
X29075Y16045
X28775Y15748
X30387Y15989
X30445Y14945
X31142Y14886
X31167Y14106
X31507Y14106
X31857Y14106
X32187Y14106
X32187Y13706
X31857Y13706
X31507Y13706
X31167Y13706
X31397Y12896
X32810Y12858
X33613Y13743
X33607Y15046
X33604Y15510
X33598Y15900
X33590Y16257
X32964Y15524
X35358Y14687
X36309Y14774
X36094Y15782
X36110Y16743
X35487Y16867
X35867Y18913
X35348Y20040
X35340Y21985
X36409Y22625
X35446Y23776
X35188Y24396
X34377Y24966
X34353Y23997
X33463Y24551
X32792Y25458
X31927Y25516
X31947Y24806
X30943Y25141
X30058Y25140
X29938Y24488
X30474Y23740
X30887Y24275
X31137Y22869
X29860Y22887
X28876Y23460
X28446Y22944
X28262Y23796
X27796Y23822
X26908Y22944
X25417Y22935
X23909Y21246
X22632Y22093
X22262Y21814
X22068Y24256
X20861Y25121
X20620Y24766
X20115Y24142
X19446Y24140
X18628Y24996
X18952Y25315
X18617Y25936
X18094Y25499
X17318Y25336
X16891Y25713
X16100Y26253
X15602Y25713
X15255Y26588
X14307Y27326
X14798Y28155
X14231Y28999
X14209Y29607
X14990Y30070
X15273Y29696
X15825Y28529
X16042Y27834
X17712Y27753
X17572Y27069
X18513Y26793
X19139Y26587
X19657Y25911
X19920Y25379
X21825Y26219
X21603Y26676
X22087Y26658
X22684Y26440
X23366Y26579
X23826Y26535
X25436Y26178
X25462Y27066
X24948Y28071
X24500Y28907
X25098Y29753
X25717Y29386
X24517Y30516
X23572Y29753
X23288Y29133
X22851Y28231
X22200Y29151
X21550Y28409
X20993Y29343
X20475Y29622
X18633Y31645
X17695Y31459
X17248Y30673
X16695Y30584
X16694Y31419
X15056Y31422
X13223Y32169
X11455Y32200
X10884Y32010
X10143Y32194
X9294Y31962
X8485Y31347
X9596Y30985
X10151Y31263
X11497Y30979
X11838Y30727
X11965Y30152
X12469Y30651
X12646Y30162
X11949Y29437
X12505Y29410
X10885Y28630
X10110Y28809
X9257Y27414
X9447Y27037
X8731Y27497
X7431Y26755
X6425Y27114
X5583Y26988
X4512Y26255
X4819Y25390
X5616Y25930
X3716Y24287
X6786Y23545
X7967Y24166
X8897Y23636
X9128Y23208
X8658Y22581
X8262Y22587
X8487Y23096
X7867Y21917
X6667Y21996
X5531Y20845
X7582Y20356
X7446Y19949
X8720Y20957
X9118Y20833
X9462Y21165
X9496Y21600
X10547Y21787
X11111Y21293
X10967Y20946
X11664Y20641
X12155Y21560
X12526Y21579
X12647Y21966
X12657Y22456
X12683Y23231
X12903Y23522
X11437Y22642
X11000Y22679
X11541Y21679
X11903Y21880
X14213Y22256
X14916Y22448
X14187Y20449
X15099Y19952
X14236Y19382
X14751Y18632
X14335Y18208
X14754Y18003
X13808Y17445
X13509Y17711
X13470Y18261
X12895Y18639
X11611Y18634
X10097Y17976
X9527Y17656
X9527Y17176
X8887Y17426
X8544Y17576
X8707Y17906
X8566Y18370
X7947Y17628
X7507Y17669
X7407Y18389
X9507Y19146
X10304Y16479
X17248Y17494
X18533Y18382
X19057Y18116
X20057Y18116
X20057Y17116
X20781Y17104
X20787Y16084
X20057Y16116
X19057Y16116
X19057Y17116
X19057Y19116
X19424Y19792
X20057Y19116
X21057Y19116
X22057Y19116
X22057Y18116
X21057Y18116
X19306Y21308
X19129Y21682
X17748Y22097
X17625Y22472
X17169Y22295
X13983Y25898
X13177Y26236
X12760Y25791
X13038Y25266
X12799Y24921
X13257Y26986
X13260Y27700
X10927Y26946
X10238Y25879
X8460Y25342
X8233Y25885
X8151Y28972
X8573Y29414
X8250Y30005
X7669Y30186
X7154Y29789
X6937Y29440
X6456Y29463
X5649Y31120
X4338Y31945
X5104Y33493
X3163Y33696
X581Y31970
X4325Y29270
X16590Y29764
X20105Y27333
X20927Y27369
X20891Y31834
X20214Y32123
X21431Y33661
X23595Y33492
X26198Y33560
X28328Y33594
X30627Y33543
X33078Y33526
X35327Y33492
X35439Y31160
X36778Y31221
X36656Y29253
X35439Y29293
X33867Y28433
X32762Y27729
X32684Y26868
X30895Y26604
X29331Y25965
X28717Y25953
X27877Y25806
X27533Y25356
X28169Y26815
X28077Y27456
X28320Y28144
X29066Y28555
X29882Y28014
X30737Y29486
X31947Y29486
X35419Y27405
X35457Y26356
X34488Y26078
X36636Y27365
X38397Y24666
X39895Y22566
X37928Y21879
X34146Y22842
X32457Y22880
X30491Y20585
X31462Y20302
X30261Y19513
X29667Y19516
X27361Y14193
X26944Y14155
X27028Y13607
X27103Y13078
X28390Y13269
X29060Y13455
X29354Y12830
X28467Y12356
X27137Y10956
X26737Y10956
X26393Y10956
X26393Y10566
X26737Y10566
X27137Y10566
X27137Y10166
X26737Y10166
X26393Y10166
X26393Y9466
X26737Y9466
X27137Y9466
X27137Y9066
X26737Y9066
X26393Y9066
X28337Y7596
X29165Y7577
X29611Y7237
X29591Y6685
X29969Y8397
X29124Y8698
X29940Y9699
X29110Y10029
X30082Y10847
X33257Y8736
X34161Y9658
X34671Y11552
X34347Y12346
X36456Y13708
X38213Y12224
X38276Y10784
X38491Y8965
X37891Y8799
X37890Y7481
X36866Y6934
X37847Y6336
X36337Y5874
X34502Y4716
X36371Y3339
X36342Y2295
X37799Y2295
X38552Y2295
X37847Y3256
X39902Y3860
X39931Y4603
X39537Y6169
X34577Y7856
X34186Y7350
X29329Y3525
X28203Y3352
X26986Y5046
X24881Y4571
X24585Y5054
X23968Y4413
X23877Y3427
X24440Y3417
X21671Y5241
X20659Y6632
X20161Y6585
X20558Y7446
X21709Y7133
X21517Y8454
X20614Y8596
X19672Y8543
X19848Y9698
X20871Y9705
X20727Y10676
X21744Y10927
X22147Y10096
X22147Y9556
X22717Y9476
X23117Y9476
X23517Y9476
X23517Y9076
X23117Y9076
X22717Y9076
X22717Y10176
X22717Y10576
X23117Y10576
X23517Y10576
X23517Y10176
X23117Y10176
X23117Y10966
X22717Y10966
X23517Y10966
X22934Y12964
X21946Y12806
X20418Y12500
X19882Y12226
X19183Y12220
X19268Y11772
X19670Y10640
X19640Y13068
X20122Y13062
X24727Y6636
X20371Y3154
X20378Y2648
X19767Y3826
X18825Y3055
X18012Y3064
X18390Y2251
X16353Y2502
X14674Y2721
X12858Y2691
X31706Y2501
X32958Y2354
X34494Y2285
X27032Y26999
X26757Y27757
X27357Y28046
X27337Y31426
X37863Y33475
X39891Y31802
T02
X27110Y11677
T03
X25802Y11538
X24071Y11793
X23297Y7616
X26457Y7606
X31147Y10306
X31977Y10316
X34007Y11036
X37197Y10196
X37197Y9696
T04
X19278Y9739
X19278Y8952
X19278Y8164
X19278Y7377
X19278Y6589
X19278Y5802
X19278Y5015
X19278Y4227
X19278Y3440
X19278Y2652
X10616Y2652
X10616Y3440
X10616Y4227
X10616Y5015
X10616Y5802
X10616Y6589
X10616Y7377
X10616Y8164
X10616Y8952
X10616Y9739
X10747Y32846
X9747Y32846
X8747Y32846
X7747Y32846
X11747Y32846
X12747Y32846
X13747Y32846
X14747Y32846
X15747Y32846
X16747Y32846
X17747Y32846
X18747Y32846
X19747Y32846
X20747Y32846
X21747Y32846
X22747Y32846
X38807Y30173
X38807Y29386
X38807Y28598
T05
X26433Y31596
X24701Y31596
X19164Y30433
X19164Y27874
T06
X18747Y20346
X19747Y20346
X20747Y20346
X21747Y20346
X22747Y20346
X17747Y20346
X16747Y20346
X15747Y20346
X16747Y18996
X17747Y18996
X17747Y17996
X16747Y17996
X16747Y16996
X17747Y16996
X17747Y15996
X16747Y15996
X17963Y14031
X13797Y13896
X12797Y13896
X11797Y13896
X10797Y13896
X9797Y13896
X8797Y13896
X8797Y15616
X9797Y15616
X10797Y15616
X11797Y15616
X12797Y15616
X13797Y15616
X7156Y11862
X6747Y12996
X6747Y13996
X6747Y14996
X6747Y15996
X6290Y17630
X2997Y17796
X2997Y18796
X2997Y19796
X2997Y20796
X2997Y21796
X2997Y22796
X2997Y23796
X2997Y24796
X2997Y25796
X2997Y26796
X2997Y27796
X2997Y28796
X2997Y29796
X2997Y30796
X1997Y30796
X997Y30796
X997Y29796
X1997Y29796
X1997Y28796
X997Y28796
X997Y27796
X1997Y27796
X1997Y26796
X997Y26796
X997Y25796
X1997Y25796
X1997Y24796
X997Y24796
X997Y23796
X1997Y23796
X1997Y22796
X997Y22796
X997Y21796
X1997Y21796
X1997Y20796
X997Y20796
X997Y19796
X1997Y19796
X1997Y18796
X997Y18796
X997Y17796
X1997Y17796
X1997Y16796
X997Y16796
X997Y15137
X1997Y15137
X2997Y15137
X2997Y16796
X2977Y13106
X2997Y12136
X1997Y12136
X997Y12136
X997Y11136
X1997Y11136
X2997Y11136
X2997Y10136
X1997Y10136
X997Y10136
X997Y9136
X1997Y9136
X2997Y9136
X2997Y8136
X1997Y8136
X997Y8136
X997Y7136
X1997Y7136
X2997Y7136
X2997Y6136
X2997Y5136
X1997Y5136
X1997Y6136
X997Y6136
X997Y5136
X4907Y5776
X5747Y7136
X6747Y7136
X6747Y8136
X5747Y8136
X5747Y9136
X6747Y9136
X6747Y10136
X5747Y10136
X6687Y5776
X7457Y5776
X9237Y5776
X9237Y3216
X7457Y3216
X6687Y3216
X4907Y3216
X26898Y15242
X37497Y14996
X37497Y15996
X37497Y16996
X37497Y17996
X37497Y18996
X37497Y19996
X37497Y20996
X38497Y20996
X39497Y20996
X39497Y19996
X38497Y19996
X38497Y18996
X39497Y18996
X39497Y17996
X38497Y17996
X38497Y16996
X39497Y16996
X39497Y15996
X38497Y15996
X38497Y14996
X39497Y14996
X39497Y13996
X38497Y13996
X37497Y13996
X37847Y23366
X39627Y23366
X39627Y25926
X37847Y25926
T07
X38507Y10026
X38507Y8057
X33947Y3776
X31978Y3776
X27137Y3776
X25168Y3776
X23197Y3776
X21228Y3776
T08
X38823Y27771
X38823Y31000
T09
X34512Y29896
X29342Y29896
T10
X39247Y32996
X39247Y2996
X1247Y2996
X1247Y32996
M30
