G75*
G70*
%OFA0B0*%
%FSLAX24Y24*%
%IPPOS*%
%LPD*%
%AMOC8*
5,1,8,0,0,1.08239X$1,22.5*
%
%ADD10C,0.0000*%
%ADD11R,0.0472X0.0118*%
%ADD12R,0.0118X0.0472*%
%ADD13R,0.0470X0.1300*%
%ADD14R,0.0118X0.0512*%
%ADD15R,0.4803X0.2697*%
%ADD16R,0.0787X0.1142*%
%ADD17R,0.0433X0.0394*%
%ADD18R,0.0394X0.0433*%
%ADD19R,0.0197X0.0984*%
%ADD20R,0.0787X0.0984*%
%ADD21R,0.0236X0.0472*%
%ADD22R,0.0354X0.1181*%
%ADD23R,0.0472X0.0315*%
%ADD24R,0.0866X0.0236*%
%ADD25R,0.0315X0.0354*%
%ADD26R,0.0315X0.0315*%
%ADD27R,0.0098X0.0276*%
%ADD28R,0.1299X0.0669*%
%ADD29R,0.1102X0.2126*%
%ADD30R,0.0315X0.0472*%
%ADD31R,0.0630X0.0709*%
%ADD32R,0.0295X0.0157*%
%ADD33R,0.0270X0.0130*%
%ADD34R,0.0500X0.0240*%
%ADD35R,0.0400X0.0240*%
%ADD36R,0.1500X0.0650*%
%ADD37R,0.0240X0.0500*%
%ADD38R,0.0240X0.0400*%
%ADD39R,0.0650X0.1500*%
%ADD40R,0.0236X0.0315*%
%ADD41R,0.0315X0.0236*%
%ADD42R,0.0335X0.0197*%
%ADD43R,0.0870X0.0240*%
%ADD44R,0.0709X0.0551*%
%ADD45R,0.0551X0.0748*%
%ADD46R,0.0315X0.0591*%
%ADD47R,0.1181X0.0551*%
%ADD48R,0.0197X0.0118*%
%ADD49R,0.0118X0.0197*%
%ADD50R,0.0500X0.0250*%
%ADD51R,0.0496X0.0142*%
%ADD52R,0.2100X0.0760*%
%ADD53R,0.0787X0.0472*%
%ADD54R,0.2205X0.2205*%
D10*
X000247Y001996D02*
X000247Y033996D01*
X040247Y033996D01*
X040247Y001996D01*
X000247Y001996D01*
X000622Y002996D02*
X000624Y003046D01*
X000630Y003095D01*
X000640Y003144D01*
X000653Y003191D01*
X000671Y003238D01*
X000692Y003283D01*
X000716Y003326D01*
X000744Y003367D01*
X000775Y003406D01*
X000809Y003442D01*
X000846Y003476D01*
X000886Y003506D01*
X000927Y003533D01*
X000971Y003557D01*
X001016Y003577D01*
X001063Y003593D01*
X001111Y003606D01*
X001160Y003615D01*
X001210Y003620D01*
X001259Y003621D01*
X001309Y003618D01*
X001358Y003611D01*
X001407Y003600D01*
X001454Y003586D01*
X001500Y003567D01*
X001545Y003545D01*
X001588Y003520D01*
X001628Y003491D01*
X001666Y003459D01*
X001702Y003425D01*
X001735Y003387D01*
X001764Y003347D01*
X001790Y003305D01*
X001813Y003261D01*
X001832Y003215D01*
X001848Y003168D01*
X001860Y003119D01*
X001868Y003070D01*
X001872Y003021D01*
X001872Y002971D01*
X001868Y002922D01*
X001860Y002873D01*
X001848Y002824D01*
X001832Y002777D01*
X001813Y002731D01*
X001790Y002687D01*
X001764Y002645D01*
X001735Y002605D01*
X001702Y002567D01*
X001666Y002533D01*
X001628Y002501D01*
X001588Y002472D01*
X001545Y002447D01*
X001500Y002425D01*
X001454Y002406D01*
X001407Y002392D01*
X001358Y002381D01*
X001309Y002374D01*
X001259Y002371D01*
X001210Y002372D01*
X001160Y002377D01*
X001111Y002386D01*
X001063Y002399D01*
X001016Y002415D01*
X000971Y002435D01*
X000927Y002459D01*
X000886Y002486D01*
X000846Y002516D01*
X000809Y002550D01*
X000775Y002586D01*
X000744Y002625D01*
X000716Y002666D01*
X000692Y002709D01*
X000671Y002754D01*
X000653Y002801D01*
X000640Y002848D01*
X000630Y002897D01*
X000624Y002946D01*
X000622Y002996D01*
X024524Y031596D02*
X024526Y031622D01*
X024532Y031648D01*
X024542Y031673D01*
X024555Y031696D01*
X024571Y031716D01*
X024591Y031734D01*
X024613Y031749D01*
X024636Y031761D01*
X024662Y031769D01*
X024688Y031773D01*
X024714Y031773D01*
X024740Y031769D01*
X024766Y031761D01*
X024790Y031749D01*
X024811Y031734D01*
X024831Y031716D01*
X024847Y031696D01*
X024860Y031673D01*
X024870Y031648D01*
X024876Y031622D01*
X024878Y031596D01*
X024876Y031570D01*
X024870Y031544D01*
X024860Y031519D01*
X024847Y031496D01*
X024831Y031476D01*
X024811Y031458D01*
X024789Y031443D01*
X024766Y031431D01*
X024740Y031423D01*
X024714Y031419D01*
X024688Y031419D01*
X024662Y031423D01*
X024636Y031431D01*
X024612Y031443D01*
X024591Y031458D01*
X024571Y031476D01*
X024555Y031496D01*
X024542Y031519D01*
X024532Y031544D01*
X024526Y031570D01*
X024524Y031596D01*
X026256Y031596D02*
X026258Y031622D01*
X026264Y031648D01*
X026274Y031673D01*
X026287Y031696D01*
X026303Y031716D01*
X026323Y031734D01*
X026345Y031749D01*
X026368Y031761D01*
X026394Y031769D01*
X026420Y031773D01*
X026446Y031773D01*
X026472Y031769D01*
X026498Y031761D01*
X026522Y031749D01*
X026543Y031734D01*
X026563Y031716D01*
X026579Y031696D01*
X026592Y031673D01*
X026602Y031648D01*
X026608Y031622D01*
X026610Y031596D01*
X026608Y031570D01*
X026602Y031544D01*
X026592Y031519D01*
X026579Y031496D01*
X026563Y031476D01*
X026543Y031458D01*
X026521Y031443D01*
X026498Y031431D01*
X026472Y031423D01*
X026446Y031419D01*
X026420Y031419D01*
X026394Y031423D01*
X026368Y031431D01*
X026344Y031443D01*
X026323Y031458D01*
X026303Y031476D01*
X026287Y031496D01*
X026274Y031519D01*
X026264Y031544D01*
X026258Y031570D01*
X026256Y031596D01*
X038528Y031000D02*
X038530Y031034D01*
X038536Y031068D01*
X038546Y031101D01*
X038559Y031132D01*
X038577Y031162D01*
X038597Y031190D01*
X038621Y031215D01*
X038647Y031237D01*
X038675Y031255D01*
X038706Y031271D01*
X038738Y031283D01*
X038772Y031291D01*
X038806Y031295D01*
X038840Y031295D01*
X038874Y031291D01*
X038908Y031283D01*
X038940Y031271D01*
X038970Y031255D01*
X038999Y031237D01*
X039025Y031215D01*
X039049Y031190D01*
X039069Y031162D01*
X039087Y031132D01*
X039100Y031101D01*
X039110Y031068D01*
X039116Y031034D01*
X039118Y031000D01*
X039116Y030966D01*
X039110Y030932D01*
X039100Y030899D01*
X039087Y030868D01*
X039069Y030838D01*
X039049Y030810D01*
X039025Y030785D01*
X038999Y030763D01*
X038971Y030745D01*
X038940Y030729D01*
X038908Y030717D01*
X038874Y030709D01*
X038840Y030705D01*
X038806Y030705D01*
X038772Y030709D01*
X038738Y030717D01*
X038706Y030729D01*
X038675Y030745D01*
X038647Y030763D01*
X038621Y030785D01*
X038597Y030810D01*
X038577Y030838D01*
X038559Y030868D01*
X038546Y030899D01*
X038536Y030932D01*
X038530Y030966D01*
X038528Y031000D01*
X038622Y032996D02*
X038624Y033046D01*
X038630Y033095D01*
X038640Y033144D01*
X038653Y033191D01*
X038671Y033238D01*
X038692Y033283D01*
X038716Y033326D01*
X038744Y033367D01*
X038775Y033406D01*
X038809Y033442D01*
X038846Y033476D01*
X038886Y033506D01*
X038927Y033533D01*
X038971Y033557D01*
X039016Y033577D01*
X039063Y033593D01*
X039111Y033606D01*
X039160Y033615D01*
X039210Y033620D01*
X039259Y033621D01*
X039309Y033618D01*
X039358Y033611D01*
X039407Y033600D01*
X039454Y033586D01*
X039500Y033567D01*
X039545Y033545D01*
X039588Y033520D01*
X039628Y033491D01*
X039666Y033459D01*
X039702Y033425D01*
X039735Y033387D01*
X039764Y033347D01*
X039790Y033305D01*
X039813Y033261D01*
X039832Y033215D01*
X039848Y033168D01*
X039860Y033119D01*
X039868Y033070D01*
X039872Y033021D01*
X039872Y032971D01*
X039868Y032922D01*
X039860Y032873D01*
X039848Y032824D01*
X039832Y032777D01*
X039813Y032731D01*
X039790Y032687D01*
X039764Y032645D01*
X039735Y032605D01*
X039702Y032567D01*
X039666Y032533D01*
X039628Y032501D01*
X039588Y032472D01*
X039545Y032447D01*
X039500Y032425D01*
X039454Y032406D01*
X039407Y032392D01*
X039358Y032381D01*
X039309Y032374D01*
X039259Y032371D01*
X039210Y032372D01*
X039160Y032377D01*
X039111Y032386D01*
X039063Y032399D01*
X039016Y032415D01*
X038971Y032435D01*
X038927Y032459D01*
X038886Y032486D01*
X038846Y032516D01*
X038809Y032550D01*
X038775Y032586D01*
X038744Y032625D01*
X038716Y032666D01*
X038692Y032709D01*
X038671Y032754D01*
X038653Y032801D01*
X038640Y032848D01*
X038630Y032897D01*
X038624Y032946D01*
X038622Y032996D01*
X038528Y027771D02*
X038530Y027805D01*
X038536Y027839D01*
X038546Y027872D01*
X038559Y027903D01*
X038577Y027933D01*
X038597Y027961D01*
X038621Y027986D01*
X038647Y028008D01*
X038675Y028026D01*
X038706Y028042D01*
X038738Y028054D01*
X038772Y028062D01*
X038806Y028066D01*
X038840Y028066D01*
X038874Y028062D01*
X038908Y028054D01*
X038940Y028042D01*
X038970Y028026D01*
X038999Y028008D01*
X039025Y027986D01*
X039049Y027961D01*
X039069Y027933D01*
X039087Y027903D01*
X039100Y027872D01*
X039110Y027839D01*
X039116Y027805D01*
X039118Y027771D01*
X039116Y027737D01*
X039110Y027703D01*
X039100Y027670D01*
X039087Y027639D01*
X039069Y027609D01*
X039049Y027581D01*
X039025Y027556D01*
X038999Y027534D01*
X038971Y027516D01*
X038940Y027500D01*
X038908Y027488D01*
X038874Y027480D01*
X038840Y027476D01*
X038806Y027476D01*
X038772Y027480D01*
X038738Y027488D01*
X038706Y027500D01*
X038675Y027516D01*
X038647Y027534D01*
X038621Y027556D01*
X038597Y027581D01*
X038577Y027609D01*
X038559Y027639D01*
X038546Y027670D01*
X038536Y027703D01*
X038530Y027737D01*
X038528Y027771D01*
X038622Y002996D02*
X038624Y003046D01*
X038630Y003095D01*
X038640Y003144D01*
X038653Y003191D01*
X038671Y003238D01*
X038692Y003283D01*
X038716Y003326D01*
X038744Y003367D01*
X038775Y003406D01*
X038809Y003442D01*
X038846Y003476D01*
X038886Y003506D01*
X038927Y003533D01*
X038971Y003557D01*
X039016Y003577D01*
X039063Y003593D01*
X039111Y003606D01*
X039160Y003615D01*
X039210Y003620D01*
X039259Y003621D01*
X039309Y003618D01*
X039358Y003611D01*
X039407Y003600D01*
X039454Y003586D01*
X039500Y003567D01*
X039545Y003545D01*
X039588Y003520D01*
X039628Y003491D01*
X039666Y003459D01*
X039702Y003425D01*
X039735Y003387D01*
X039764Y003347D01*
X039790Y003305D01*
X039813Y003261D01*
X039832Y003215D01*
X039848Y003168D01*
X039860Y003119D01*
X039868Y003070D01*
X039872Y003021D01*
X039872Y002971D01*
X039868Y002922D01*
X039860Y002873D01*
X039848Y002824D01*
X039832Y002777D01*
X039813Y002731D01*
X039790Y002687D01*
X039764Y002645D01*
X039735Y002605D01*
X039702Y002567D01*
X039666Y002533D01*
X039628Y002501D01*
X039588Y002472D01*
X039545Y002447D01*
X039500Y002425D01*
X039454Y002406D01*
X039407Y002392D01*
X039358Y002381D01*
X039309Y002374D01*
X039259Y002371D01*
X039210Y002372D01*
X039160Y002377D01*
X039111Y002386D01*
X039063Y002399D01*
X039016Y002415D01*
X038971Y002435D01*
X038927Y002459D01*
X038886Y002486D01*
X038846Y002516D01*
X038809Y002550D01*
X038775Y002586D01*
X038744Y002625D01*
X038716Y002666D01*
X038692Y002709D01*
X038671Y002754D01*
X038653Y002801D01*
X038640Y002848D01*
X038630Y002897D01*
X038624Y002946D01*
X038622Y002996D01*
X000622Y032996D02*
X000624Y033046D01*
X000630Y033095D01*
X000640Y033144D01*
X000653Y033191D01*
X000671Y033238D01*
X000692Y033283D01*
X000716Y033326D01*
X000744Y033367D01*
X000775Y033406D01*
X000809Y033442D01*
X000846Y033476D01*
X000886Y033506D01*
X000927Y033533D01*
X000971Y033557D01*
X001016Y033577D01*
X001063Y033593D01*
X001111Y033606D01*
X001160Y033615D01*
X001210Y033620D01*
X001259Y033621D01*
X001309Y033618D01*
X001358Y033611D01*
X001407Y033600D01*
X001454Y033586D01*
X001500Y033567D01*
X001545Y033545D01*
X001588Y033520D01*
X001628Y033491D01*
X001666Y033459D01*
X001702Y033425D01*
X001735Y033387D01*
X001764Y033347D01*
X001790Y033305D01*
X001813Y033261D01*
X001832Y033215D01*
X001848Y033168D01*
X001860Y033119D01*
X001868Y033070D01*
X001872Y033021D01*
X001872Y032971D01*
X001868Y032922D01*
X001860Y032873D01*
X001848Y032824D01*
X001832Y032777D01*
X001813Y032731D01*
X001790Y032687D01*
X001764Y032645D01*
X001735Y032605D01*
X001702Y032567D01*
X001666Y032533D01*
X001628Y032501D01*
X001588Y032472D01*
X001545Y032447D01*
X001500Y032425D01*
X001454Y032406D01*
X001407Y032392D01*
X001358Y032381D01*
X001309Y032374D01*
X001259Y032371D01*
X001210Y032372D01*
X001160Y032377D01*
X001111Y032386D01*
X001063Y032399D01*
X001016Y032415D01*
X000971Y032435D01*
X000927Y032459D01*
X000886Y032486D01*
X000846Y032516D01*
X000809Y032550D01*
X000775Y032586D01*
X000744Y032625D01*
X000716Y032666D01*
X000692Y032709D01*
X000671Y032754D01*
X000653Y032801D01*
X000640Y032848D01*
X000630Y032897D01*
X000624Y032946D01*
X000622Y032996D01*
D11*
X007247Y025658D03*
X007247Y025461D03*
X007247Y025264D03*
X007247Y025067D03*
X007247Y024870D03*
X007247Y024674D03*
X007247Y024477D03*
X007247Y024280D03*
X007247Y024083D03*
X007247Y023886D03*
X007247Y023689D03*
X007247Y023492D03*
X007247Y023296D03*
X007247Y023099D03*
X007247Y022902D03*
X007247Y022705D03*
X007247Y022508D03*
X007247Y022311D03*
X007247Y022115D03*
X007247Y021918D03*
X007247Y021721D03*
X007247Y021524D03*
X007247Y021327D03*
X007247Y021130D03*
X007247Y020933D03*
X013547Y020933D03*
X013547Y021130D03*
X013547Y021327D03*
X013547Y021524D03*
X013547Y021721D03*
X013547Y021918D03*
X013547Y022115D03*
X013547Y022311D03*
X013547Y022508D03*
X013547Y022705D03*
X013547Y022902D03*
X013547Y023099D03*
X013547Y023296D03*
X013547Y023492D03*
X013547Y023689D03*
X013547Y023886D03*
X013547Y024083D03*
X013547Y024280D03*
X013547Y024477D03*
X013547Y024674D03*
X013547Y024870D03*
X013547Y025067D03*
X013547Y025264D03*
X013547Y025461D03*
X013547Y025658D03*
D12*
X012759Y026445D03*
X012562Y026445D03*
X012366Y026445D03*
X012169Y026445D03*
X011972Y026445D03*
X011775Y026445D03*
X011578Y026445D03*
X011381Y026445D03*
X011184Y026445D03*
X010988Y026445D03*
X010791Y026445D03*
X010594Y026445D03*
X010397Y026445D03*
X010200Y026445D03*
X010003Y026445D03*
X009806Y026445D03*
X009610Y026445D03*
X009413Y026445D03*
X009216Y026445D03*
X009019Y026445D03*
X008822Y026445D03*
X008625Y026445D03*
X008428Y026445D03*
X008232Y026445D03*
X008035Y026445D03*
X008035Y020146D03*
X008232Y020146D03*
X008428Y020146D03*
X008625Y020146D03*
X008822Y020146D03*
X009019Y020146D03*
X009216Y020146D03*
X009413Y020146D03*
X009610Y020146D03*
X009806Y020146D03*
X010003Y020146D03*
X010200Y020146D03*
X010397Y020146D03*
X010594Y020146D03*
X010791Y020146D03*
X010988Y020146D03*
X011184Y020146D03*
X011381Y020146D03*
X011578Y020146D03*
X011775Y020146D03*
X011972Y020146D03*
X012169Y020146D03*
X012366Y020146D03*
X012562Y020146D03*
X012759Y020146D03*
D13*
X005058Y031546D03*
X004058Y033246D03*
X006058Y033246D03*
D14*
X022230Y012493D03*
X022486Y012493D03*
X022742Y012493D03*
X022998Y012493D03*
X023254Y012493D03*
X023510Y012493D03*
X023766Y012493D03*
X024021Y012493D03*
X024277Y012493D03*
X024533Y012493D03*
X024789Y012493D03*
X025045Y012493D03*
X025301Y012493D03*
X025557Y012493D03*
X025813Y012493D03*
X026069Y012493D03*
X026325Y012493D03*
X026581Y012493D03*
X026836Y012493D03*
X027092Y012493D03*
X027348Y012493D03*
X027604Y012493D03*
X027604Y007119D03*
X027348Y007119D03*
X027092Y007119D03*
X026836Y007119D03*
X026581Y007119D03*
X026325Y007119D03*
X026069Y007119D03*
X025813Y007119D03*
X025557Y007119D03*
X025301Y007119D03*
X025045Y007119D03*
X024789Y007119D03*
X024533Y007119D03*
X024277Y007119D03*
X024021Y007119D03*
X023766Y007119D03*
X023510Y007119D03*
X023254Y007119D03*
X022998Y007119D03*
X022742Y007119D03*
X022486Y007119D03*
X022230Y007119D03*
D15*
X024927Y009816D03*
D16*
X022132Y009816D03*
X027722Y009816D03*
D17*
X029948Y012247D03*
X030618Y012247D03*
X030579Y013046D03*
X029909Y013046D03*
X026563Y013851D03*
X025893Y013851D03*
X025244Y013842D03*
X024574Y013842D03*
X025755Y014650D03*
X026425Y014650D03*
X028839Y016545D03*
X029509Y016545D03*
X030622Y016516D03*
X031292Y016516D03*
X033012Y010536D03*
X033682Y010536D03*
X033642Y009206D03*
X032972Y009206D03*
X029132Y006986D03*
X028462Y006986D03*
X028302Y006036D03*
X027632Y006036D03*
X029396Y004868D03*
X030066Y004868D03*
X030064Y004052D03*
X029394Y004052D03*
X035384Y003734D03*
X036054Y003734D03*
X036572Y003736D03*
X037242Y003736D03*
X037242Y002856D03*
X036572Y002856D03*
X036054Y002855D03*
X035384Y002855D03*
X038452Y006476D03*
X039122Y006476D03*
X021102Y006146D03*
X020432Y006146D03*
X020462Y009286D03*
X021132Y009286D03*
X021212Y010186D03*
X020542Y010186D03*
X019061Y010734D03*
X018391Y010734D03*
X005896Y019572D03*
X005226Y019572D03*
X005225Y020374D03*
X005895Y020374D03*
X014068Y026389D03*
X014738Y026389D03*
X015712Y027336D03*
X016382Y027336D03*
X015063Y025547D03*
X014393Y025547D03*
X013751Y029129D03*
X013081Y029129D03*
X009626Y031588D03*
X008956Y031588D03*
X007261Y028956D03*
X006591Y028956D03*
X021520Y031802D03*
X022190Y031802D03*
X025932Y027000D03*
X026602Y027000D03*
X027608Y026257D03*
X028278Y026257D03*
X028992Y026396D03*
X029662Y026396D03*
X029652Y027236D03*
X028982Y027236D03*
X029002Y025546D03*
X029672Y025546D03*
X030758Y025569D03*
X031428Y025569D03*
X029586Y023927D03*
X028916Y023927D03*
D18*
X030323Y026233D03*
X030323Y026902D03*
X033261Y026801D03*
X033261Y026132D03*
X035057Y025640D03*
X035057Y024971D03*
X035867Y024951D03*
X035867Y025620D03*
X026917Y028481D03*
X026917Y029150D03*
X024576Y027900D03*
X024576Y027231D03*
X023264Y027230D03*
X023264Y027899D03*
X023797Y028461D03*
X023797Y029130D03*
X013757Y027780D03*
X013757Y027111D03*
X012382Y028319D03*
X012382Y028988D03*
X011574Y028986D03*
X011574Y028317D03*
X010547Y031283D03*
X010547Y031952D03*
X005120Y027033D03*
X005120Y026364D03*
X006044Y026255D03*
X006044Y026924D03*
X006863Y026923D03*
X006863Y026254D03*
X006379Y023901D03*
X006379Y023232D03*
X007919Y019245D03*
X007919Y018576D03*
X013736Y019732D03*
X013736Y020401D03*
X014664Y020523D03*
X014664Y019854D03*
X021207Y011600D03*
X021207Y010931D03*
X020969Y007784D03*
X020969Y007115D03*
X020167Y007115D03*
X020167Y007784D03*
X013074Y008965D03*
X013074Y009634D03*
X012268Y009637D03*
X012268Y008968D03*
X008278Y007120D03*
X008278Y006451D03*
X028467Y011121D03*
X028467Y011790D03*
X028912Y012303D03*
X029267Y011780D03*
X029267Y011111D03*
X028912Y012972D03*
X030417Y013711D03*
X030417Y014380D03*
X035077Y007230D03*
X035077Y006561D03*
X034187Y006840D03*
X034187Y006171D03*
X038517Y005630D03*
X038517Y004961D03*
X039327Y004971D03*
X039327Y005640D03*
X039712Y012281D03*
X039712Y012950D03*
X038917Y012950D03*
X038917Y012281D03*
D19*
X026197Y030611D03*
X025882Y030611D03*
X025567Y030611D03*
X025252Y030611D03*
X024937Y030611D03*
D20*
X023795Y030611D03*
X023795Y032777D03*
X027339Y032777D03*
X027339Y030611D03*
D21*
X026091Y028889D03*
X025717Y028889D03*
X025343Y028889D03*
X025343Y027983D03*
X025717Y027983D03*
X026091Y027983D03*
X031556Y027319D03*
X031930Y027319D03*
X032304Y027319D03*
X032304Y026413D03*
X031930Y026413D03*
X031556Y026413D03*
D22*
X031533Y028537D03*
X032321Y028537D03*
X033305Y028537D03*
X030549Y028537D03*
D23*
X027697Y028441D03*
X027697Y029150D03*
X031444Y024916D03*
X031444Y024207D03*
X026117Y018100D03*
X026117Y017391D03*
D24*
X035467Y005895D03*
X035467Y005395D03*
X035467Y004895D03*
X035467Y004395D03*
X037515Y004395D03*
X037515Y004895D03*
X037515Y005395D03*
X037515Y005895D03*
D25*
X034861Y026542D03*
X034113Y026542D03*
X034487Y027369D03*
X015131Y027802D03*
X014383Y027802D03*
X014757Y028629D03*
D26*
X029082Y015346D03*
X029672Y015346D03*
X029672Y013846D03*
X029082Y013846D03*
X030083Y007292D03*
X030083Y006701D03*
X009546Y006813D03*
X008956Y006813D03*
D27*
X031086Y013335D03*
X031283Y013335D03*
X031480Y013335D03*
X031677Y013335D03*
X031874Y013335D03*
X032071Y013335D03*
X032268Y013335D03*
X032268Y014476D03*
X032071Y014476D03*
X031874Y014476D03*
X031677Y014476D03*
X031480Y014476D03*
X031283Y014476D03*
X031086Y014476D03*
D28*
X031677Y013906D03*
D29*
X032347Y019496D03*
X028489Y019496D03*
D30*
X027601Y019816D03*
X027601Y019166D03*
X027601Y018546D03*
X026893Y018546D03*
X026893Y019166D03*
X026893Y019816D03*
X026893Y020526D03*
X027601Y020526D03*
X025694Y018848D03*
X024986Y018848D03*
X030563Y015486D03*
X031271Y015486D03*
D31*
X032206Y012326D03*
X032206Y011486D03*
X033308Y011486D03*
X033308Y012326D03*
X031048Y009136D03*
X029946Y009136D03*
X038056Y011616D03*
X039158Y011616D03*
X033321Y023894D03*
X032219Y023894D03*
D32*
X036362Y007202D03*
X036362Y006690D03*
D33*
X035712Y006681D03*
X035712Y006946D03*
X035712Y007211D03*
D34*
X033097Y007176D03*
X033097Y006676D03*
X033097Y007676D03*
X033097Y008176D03*
D35*
X030947Y008176D03*
X030947Y007676D03*
X030947Y007176D03*
X030947Y006676D03*
D36*
X031777Y006971D03*
X031777Y007881D03*
D37*
X034667Y011066D03*
X035167Y011066D03*
X035667Y011066D03*
X036167Y011066D03*
D38*
X036167Y008916D03*
X035667Y008916D03*
X035167Y008916D03*
X034667Y008916D03*
D39*
X034962Y009746D03*
X035872Y009746D03*
D40*
X033647Y009906D03*
X032978Y009906D03*
D41*
X033847Y008675D03*
X033847Y008006D03*
D42*
X026861Y006192D03*
X026861Y005799D03*
X026173Y005799D03*
X026173Y006192D03*
X022581Y006192D03*
X021893Y006192D03*
X021893Y005799D03*
X022581Y005799D03*
D43*
X032327Y015116D03*
X032327Y015616D03*
X032327Y016116D03*
X032327Y016616D03*
X034387Y016616D03*
X034387Y016116D03*
X034387Y015616D03*
X034387Y015116D03*
D44*
X015145Y008132D03*
X012901Y008132D03*
D45*
X012271Y002955D03*
X017448Y002561D03*
D46*
X015614Y004077D03*
X015181Y004234D03*
X014748Y004077D03*
X014314Y003998D03*
X013881Y004077D03*
X013448Y003998D03*
X013015Y004077D03*
X012582Y004077D03*
D47*
X024146Y020508D03*
X026036Y020508D03*
D48*
X013031Y030039D03*
X013031Y030236D03*
X013031Y030433D03*
X013031Y030630D03*
X013031Y030827D03*
X013031Y031024D03*
X011141Y031024D03*
X011141Y030827D03*
X011141Y030630D03*
X011141Y030433D03*
X011141Y030236D03*
X011141Y030039D03*
D49*
X011397Y029784D03*
X011594Y029784D03*
X011791Y029784D03*
X011988Y029784D03*
X012184Y029784D03*
X012381Y029784D03*
X012578Y029784D03*
X012775Y029784D03*
X012775Y031280D03*
X012578Y031280D03*
X012381Y031280D03*
X012184Y031280D03*
X011988Y031280D03*
X011791Y031280D03*
X011594Y031280D03*
X011397Y031280D03*
D50*
X024922Y026035D03*
X024922Y025535D03*
X024922Y025035D03*
X024922Y024535D03*
X026822Y024535D03*
X026822Y025035D03*
X026822Y025535D03*
X026822Y026035D03*
D51*
X016044Y029882D03*
X016044Y030138D03*
X016044Y030394D03*
X016044Y030650D03*
X016044Y030906D03*
X016044Y031161D03*
X016044Y031417D03*
X013760Y031417D03*
X013760Y031161D03*
X013760Y030906D03*
X013760Y030650D03*
X013760Y030394D03*
X013760Y030138D03*
X013760Y029882D03*
D52*
X009643Y030288D03*
X005843Y030288D03*
D53*
X024939Y017565D03*
X024939Y015596D03*
D54*
X022105Y016581D03*
M02*
